<svg id="list_159785" xmlns="http://www.w3.org/2000/svg" width="9.194" height="8.675" viewBox="0 0 9.194 8.675">
  <g id="Group_4297" data-name="Group 4297" transform="translate(0 0)">
    <path id="Path_12962" data-name="Path 12962" d="M23.33,1.115a.219.219,0,0,0-.308,0,.215.215,0,0,0,0,.308l.519.523a.218.218,0,0,0,.155.064h0a.217.217,0,0,0,.153-.064L25.429.372a.217.217,0,1,0-.306-.308l-.479.475a1.364,1.364,0,1,0,.327,1.345.218.218,0,0,0-.418-.126.931.931,0,1,1-.219-.909l-.639.635Z" transform="translate(-16.3)" fill="#aaa"/>
    <path id="Path_12963" data-name="Path 12963" d="M23.664,170.6a1.364,1.364,0,1,1-1.364,1.364A1.366,1.366,0,0,1,23.664,170.6Zm0,2.293a.929.929,0,1,0-.929-.929A.929.929,0,0,0,23.664,172.893Z" transform="translate(-16.3 -167.565)" fill="#aaa"/>
    <path id="Path_12964" data-name="Path 12964" d="M22.3,335.664a1.364,1.364,0,1,1,1.364,1.364A1.366,1.366,0,0,1,22.3,335.664Zm1.364.93a.929.929,0,1,0-.929-.929A.929.929,0,0,0,23.664,336.595Z" transform="translate(-16.3 -328.354)" fill="#aaa"/>
    <path id="Path_12965" data-name="Path 12965" d="M202.719,235h4.239a.219.219,0,1,1,0,.438h-4.239a.219.219,0,1,1,0-.438Z" transform="translate(-202.5 -230.82)" fill="#aaa"/>
    <path id="Path_12966" data-name="Path 12966" d="M202.719,71.5h4.239a.219.219,0,1,1,0,.438h-4.239a.219.219,0,1,1,0-.438Z" transform="translate(-202.5 -70.228)" fill="#aaa"/>
    <path id="Path_12967" data-name="Path 12967" d="M202.719,398.8h4.239a.219.219,0,1,1,0,.438h-4.239a.219.219,0,1,1,0-.438Z" transform="translate(-202.5 -391.706)" fill="#aaa"/>
  </g>
</svg>
