<svg width="12" height="14" viewBox="0 0 12 14" fill="none" xmlns="http://www.w3.org/2000/svg">
<path fill-rule="evenodd" clip-rule="evenodd" d="M9.311 11.422H0.188C0.156025 11.4226 0.124415 11.4151 0.0960959 11.4003C0.0677772 11.3854 0.043672 11.3637 0.0260046 11.337C0.00985779 11.3091 0.000694723 11.2777 -0.000698243 11.2455C-0.00209121 11.2133 0.00432399 11.1812 0.0180014 11.152L0.756 9.614V5.838C0.758601 4.96424 1.04723 4.11537 1.57779 3.42112C2.10834 2.72687 2.85162 2.22543 3.69403 1.99346C4.53645 1.76148 5.43164 1.81173 6.2428 2.13651C7.05396 2.46129 7.73647 3.04274 8.186 3.792C8.19726 3.80869 8.20509 3.82745 8.20904 3.84719C8.21299 3.86693 8.21298 3.88727 8.209 3.907L8.17801 4.13801C8.17384 4.17375 8.15917 4.20746 8.13585 4.23487C8.11254 4.26228 8.08162 4.28216 8.047 4.292C7.96695 4.31778 7.88958 4.35128 7.816 4.392C7.7833 4.40888 7.74659 4.41641 7.70989 4.41376C7.67319 4.41112 7.63793 4.3984 7.608 4.377L7.046 3.954L6.646 4.346L7.077 4.92301C7.09394 4.95167 7.10473 4.98352 7.10869 5.01658C7.11265 5.04963 7.10969 5.08315 7.1 5.115C7.05686 5.19266 7.02328 5.27526 7 5.361C6.98824 5.39311 6.96878 5.42185 6.94333 5.44469C6.91787 5.46753 6.8872 5.48379 6.854 5.49201L6.146 5.6V6.154L6.854 6.24601C6.88831 6.25162 6.92029 6.26694 6.94616 6.29015C6.97204 6.31337 6.99072 6.34351 7 6.377C7.02603 6.46179 7.05949 6.54411 7.1 6.62301C7.1134 6.65421 7.11832 6.68839 7.11428 6.7221C7.11025 6.75581 7.09738 6.78786 7.077 6.81501L6.646 7.377L7.046 7.769L7.608 7.346C7.63426 7.32384 7.66644 7.30986 7.70056 7.30578C7.73468 7.30169 7.76924 7.30768 7.8 7.323C7.88271 7.3611 7.96752 7.39449 8.054 7.42301C8.0875 7.43229 8.11763 7.45097 8.14085 7.47684C8.16407 7.50272 8.17939 7.5347 8.185 7.56901L8.285 8.277H8.562C8.61229 8.27897 8.65999 8.29984 8.69558 8.33542C8.73116 8.37101 8.75203 8.41871 8.754 8.469V9.63001L9.485 11.161C9.49868 11.1902 9.5051 11.2223 9.5037 11.2545C9.50231 11.2867 9.49315 11.3181 9.477 11.346C9.43059 11.3875 9.37273 11.414 9.311 11.422ZM0.473003 11.045H9.011L8.388 9.73701C8.37801 9.70737 8.37294 9.67629 8.373 9.64501V8.622H8.111C8.06736 8.62399 8.02464 8.60911 7.99168 8.58043C7.95872 8.55176 7.93807 8.5115 7.934 8.46801L7.826 7.706C7.803 7.698 7.772 7.68301 7.749 7.67501L7.141 8.137C7.10288 8.15981 7.05848 8.16988 7.01424 8.16575C6.97001 8.16161 6.92824 8.14349 6.895 8.114L6.28 7.491C6.24917 7.4585 6.23014 7.41659 6.22597 7.37198C6.2218 7.32738 6.23273 7.28266 6.257 7.245L6.719 6.637C6.70551 6.61555 6.69508 6.59233 6.688 6.568L5.927 6.46C5.88325 6.45161 5.84356 6.42886 5.81421 6.39535C5.78487 6.36183 5.76755 6.31947 5.765 6.275V5.406C5.76302 5.36024 5.77875 5.31548 5.80892 5.28103C5.83909 5.24657 5.88138 5.22507 5.927 5.221L6.688 5.10601C6.6963 5.07957 6.70667 5.05381 6.719 5.029L6.257 4.421C6.23273 4.38334 6.2218 4.33863 6.22597 4.29403C6.23014 4.24942 6.24917 4.20751 6.28 4.17501L6.895 3.56C6.92631 3.5271 6.96847 3.50664 7.01369 3.50242C7.05891 3.49819 7.10414 3.51048 7.141 3.53701L7.749 3.999C7.772 3.984 7.803 3.976 7.826 3.961V3.93C7.4105 3.26043 6.7882 2.74443 6.05326 2.46012C5.31833 2.1758 4.51078 2.13865 3.75284 2.35427C2.9949 2.56989 2.32784 3.02654 1.8526 3.65513C1.37737 4.28371 1.11984 5.04999 1.119 5.838V9.64501C1.11495 9.67647 1.10724 9.70734 1.096 9.73701L0.473003 11.045Z" fill="white"/>
<path fill-rule="evenodd" clip-rule="evenodd" d="M2.02699 6.03001C2.00171 6.03027 1.97662 6.02549 1.9532 6.01594C1.92979 6.00638 1.90852 5.99222 1.89064 5.97434C1.87276 5.95646 1.85863 5.9352 1.84908 5.91178C1.83952 5.88837 1.83474 5.86328 1.83501 5.83799C1.83501 5.06886 2.14055 4.33125 2.6844 3.78739C3.22826 3.24354 3.96587 2.938 4.735 2.938C5.13152 2.94123 5.52355 3.02209 5.88899 3.176C5.91162 3.1856 5.93206 3.1997 5.94905 3.21745C5.96605 3.23519 5.97926 3.2562 5.98787 3.27921C5.99648 3.30223 6.00031 3.32678 5.99913 3.35133C5.99795 3.37587 5.99178 3.39992 5.981 3.422C5.97118 3.44444 5.95695 3.46468 5.93916 3.48151C5.92138 3.49835 5.9004 3.51145 5.87746 3.52003C5.85452 3.52861 5.83009 3.53248 5.80562 3.53144C5.78115 3.53041 5.75714 3.52447 5.735 3.51398C5.41943 3.37777 5.07869 3.30964 4.735 3.314C4.06765 3.31743 3.42874 3.58459 2.9576 4.05723C2.48646 4.52987 2.22133 5.16963 2.22002 5.83698C2.21827 5.88761 2.19737 5.93571 2.16155 5.97153C2.12572 6.00736 2.07763 6.02826 2.02699 6.03001Z" fill="white"/>
<path fill-rule="evenodd" clip-rule="evenodd" d="M4.74299 13.115C4.24167 13.115 3.76066 12.9168 3.40477 12.5638C3.04887 12.2107 2.84696 11.7313 2.843 11.23C2.843 11.179 2.86329 11.13 2.89939 11.0939C2.93549 11.0578 2.98445 11.0375 3.0355 11.0375C3.08656 11.0375 3.13551 11.0578 3.17161 11.0939C3.20771 11.13 3.22801 11.179 3.22801 11.23C3.22801 11.6329 3.38802 12.0192 3.67289 12.3041C3.95776 12.589 4.34413 12.7491 4.74699 12.7491C5.14985 12.7491 5.53622 12.589 5.82109 12.3041C6.10595 12.0192 6.266 11.6329 6.266 11.23C6.26798 11.1797 6.28882 11.1321 6.32441 11.0965C6.36 11.0609 6.4077 11.04 6.45799 11.038C6.48328 11.0377 6.50836 11.0425 6.53178 11.052C6.55519 11.0616 6.57649 11.0758 6.59437 11.0937C6.61225 11.1115 6.62638 11.1327 6.63594 11.1562C6.64549 11.1796 6.65027 11.2047 6.65 11.23C6.64604 11.7325 6.44314 12.213 6.08573 12.5663C5.72833 12.9196 5.24553 13.1169 4.74299 13.115Z" fill="white"/>
<path fill-rule="evenodd" clip-rule="evenodd" d="M3.858 2.323C3.81525 2.32267 3.7742 2.30625 3.74301 2.277C3.71995 2.26173 3.70088 2.24112 3.68747 2.21692C3.67407 2.19273 3.6667 2.16565 3.66599 2.138V0.445998C3.66404 0.386902 3.67423 0.328036 3.69596 0.273043C3.71768 0.218051 3.75046 0.168103 3.79227 0.126293C3.83408 0.0844837 3.88407 0.0517018 3.93906 0.0299777C3.99405 0.00825359 4.05288 -0.0019502 4.11197 -1.91422e-06H5.37296C5.49125 -1.91422e-06 5.60475 0.0469872 5.68839 0.130628C5.77203 0.21427 5.819 0.327712 5.819 0.445998V2.138C5.81831 2.16696 5.81187 2.1955 5.80002 2.22195C5.78817 2.24839 5.77113 2.2722 5.74997 2.292C5.72756 2.31001 5.70106 2.32225 5.67282 2.32765C5.64458 2.33305 5.61547 2.33146 5.58799 2.323C5.3107 2.25763 5.02686 2.22408 4.74198 2.223C4.45965 2.22269 4.17829 2.25626 3.90396 2.323H3.858ZM4.74301 1.854C4.97997 1.85579 5.21647 1.87383 5.45096 1.908V0.445998C5.44977 0.425964 5.44129 0.407062 5.4271 0.392871C5.41291 0.378681 5.39403 0.370187 5.374 0.368998H4.11301C4.10333 0.369236 4.09379 0.371452 4.08499 0.37551C4.0762 0.379568 4.06833 0.385382 4.06186 0.392594C4.0554 0.399806 4.05047 0.408265 4.0474 0.417449C4.04432 0.426633 4.04316 0.436348 4.04398 0.445998V1.908C4.27545 1.87388 4.50905 1.85583 4.74301 1.854Z" fill="white"/>
<path fill-rule="evenodd" clip-rule="evenodd" d="M8.98803 8.638H8.11102C8.0665 8.63839 8.02344 8.62188 7.9906 8.59182C7.95775 8.56176 7.93756 8.52036 7.93402 8.47598L7.82599 7.71499C7.79909 7.70803 7.77324 7.69761 7.74902 7.68399L7.14099 8.14498C7.10333 8.16926 7.05864 8.18019 7.01404 8.17602C6.96943 8.17185 6.92752 8.15281 6.89502 8.12197L6.28003 7.50698C6.24919 7.47448 6.23018 7.43257 6.22601 7.38797C6.22184 7.34336 6.23274 7.29864 6.25702 7.26098L6.71899 6.65298C6.70537 6.62876 6.69494 6.60288 6.68799 6.57598L5.927 6.46798C5.88312 6.46314 5.84254 6.44253 5.81274 6.40997C5.78294 6.37741 5.76596 6.33511 5.76501 6.29098V5.414C5.76444 5.36861 5.78064 5.32461 5.81054 5.29046C5.84045 5.25631 5.88193 5.23442 5.927 5.229L6.68799 5.11398C6.69599 5.09098 6.70399 5.07598 6.71899 5.03698L6.25702 4.42199C6.23274 4.38434 6.22184 4.33962 6.22601 4.29501C6.23018 4.2504 6.24919 4.20849 6.28003 4.17599L6.89502 3.561C6.92644 3.52828 6.96857 3.50794 7.01373 3.50372C7.05889 3.4995 7.10405 3.51167 7.14099 3.53799L7.74902 4C7.77202 3.985 7.80299 3.97699 7.82599 3.96099L7.93402 3.207C7.9378 3.16279 7.95814 3.12165 7.99096 3.09179C8.02378 3.06194 8.06666 3.04557 8.11102 3.04599H8.98803C9.03363 3.04399 9.07824 3.05957 9.11267 3.08953C9.1471 3.1195 9.16872 3.16156 9.17303 3.207L9.28802 3.97598C9.31253 3.98899 9.3383 3.99939 9.36499 4.00698L9.98004 3.54498C10.0161 3.51647 10.0618 3.50295 10.1076 3.50723C10.1534 3.51151 10.1958 3.53328 10.226 3.56799L10.841 4.18298C10.8737 4.2144 10.894 4.25653 10.8983 4.30169C10.9025 4.34686 10.8903 4.39204 10.864 4.42898L10.41 5.052C10.417 5.0789 10.4274 5.10478 10.441 5.12899L11.21 5.24398C11.2531 5.24918 11.2926 5.27015 11.321 5.30285C11.3495 5.33555 11.3648 5.37765 11.364 5.42099V6.298C11.3664 6.34257 11.3519 6.38637 11.3233 6.42068C11.2947 6.45499 11.2543 6.47726 11.21 6.483L10.448 6.58297C10.44 6.60597 10.425 6.637 10.417 6.66L10.879 7.26797C10.9033 7.30563 10.9142 7.35035 10.91 7.39495C10.9059 7.43956 10.8868 7.48147 10.856 7.51397L10.233 8.13699C10.1996 8.1666 10.1572 8.18417 10.1126 8.18689C10.068 8.1896 10.0238 8.1773 9.987 8.15197L9.36401 7.68298C9.34045 7.69792 9.31433 7.70843 9.28698 7.71398L9.17199 8.47497C9.16682 8.52005 9.14517 8.56165 9.1112 8.59173C9.07724 8.62182 9.0334 8.63829 8.98803 8.638ZM8.27301 8.26098H8.82702L8.93499 7.561C8.94046 7.52573 8.95563 7.49264 8.97876 7.46545C9.00188 7.43826 9.0321 7.41802 9.06604 7.40698L9.31201 7.315C9.34276 7.29967 9.37732 7.29367 9.41144 7.29776C9.44555 7.30184 9.47776 7.31582 9.50403 7.33798L10.081 7.76098L10.473 7.36898L10.042 6.79998C10.0201 6.77159 10.0076 6.73709 10.0062 6.70126C10.0047 6.66543 10.0144 6.63003 10.034 6.59997C10.0752 6.52512 10.1062 6.44509 10.126 6.362C10.1396 6.33041 10.1608 6.30264 10.1876 6.28118C10.2145 6.25973 10.2462 6.24523 10.28 6.23898L10.995 6.13897V5.58499L10.28 5.47699C10.2454 5.47308 10.2125 5.45947 10.1852 5.43771C10.158 5.41595 10.1375 5.38693 10.126 5.354C10.1062 5.2709 10.0752 5.19085 10.034 5.11599C10.0182 5.08473 10.0107 5.04994 10.0121 5.01495C10.0135 4.97995 10.0238 4.94589 10.042 4.91598L10.48 4.33898L10.088 3.94699L9.51098 4.37799C9.48327 4.40082 9.4492 4.41452 9.41339 4.4172C9.37758 4.41989 9.34184 4.41141 9.31103 4.39297C9.24203 4.36197 9.173 4.33099 9.073 4.29299C9.04116 4.28214 9.01288 4.26281 8.99121 4.23709C8.96954 4.21136 8.9553 4.18022 8.95001 4.147L8.84204 3.43197H8.28802L8.17999 4.13998C8.17449 4.17433 8.15922 4.20637 8.13598 4.23226C8.11275 4.25816 8.08257 4.2768 8.04901 4.28598C7.96926 4.30924 7.8919 4.34006 7.81799 4.37799C7.78647 4.39754 7.74983 4.40724 7.71277 4.40582C7.6757 4.40439 7.6399 4.39191 7.60998 4.36999L7.04901 3.94699L6.64898 4.33898L7.08001 4.91598C7.09719 4.94455 7.10809 4.97642 7.11206 5.00952C7.11602 5.04261 7.11297 5.07618 7.10302 5.108C7.06002 5.18573 7.02641 5.26831 7.00299 5.354C6.99223 5.38589 6.97294 5.41422 6.9472 5.43591C6.92146 5.4576 6.89025 5.4718 6.85699 5.47699L6.14898 5.58499V6.13897L6.85699 6.23898C6.89071 6.2429 6.92252 6.25666 6.94848 6.27853C6.97444 6.3004 6.9934 6.32943 7.00299 6.362C7.02776 6.44722 7.06131 6.52966 7.10302 6.608C7.11673 6.63913 7.12178 6.67335 7.11773 6.70712C7.11369 6.74089 7.10068 6.77297 7.08001 6.79998L6.64898 7.36898L7.04901 7.76098L7.60998 7.33798C7.63625 7.31582 7.66845 7.30184 7.70257 7.29776C7.73669 7.29367 7.77125 7.29967 7.802 7.315C7.902 7.35366 7.98669 7.38431 8.05603 7.40698C8.09009 7.41782 8.12039 7.43801 8.14355 7.46524C8.16671 7.49246 8.18177 7.52565 8.18701 7.561L8.27301 8.26098Z" fill="white"/>
<path fill-rule="evenodd" clip-rule="evenodd" d="M8.54897 7.01499C8.31732 7.0142 8.09111 6.94484 7.89882 6.81565C7.70654 6.68646 7.55681 6.50321 7.46853 6.28904C7.38024 6.07486 7.35734 5.83932 7.40273 5.61216C7.44812 5.38499 7.55985 5.17635 7.72365 5.01255C7.88746 4.84874 8.0961 4.73714 8.32326 4.69175C8.55043 4.64636 8.78585 4.6692 9.00002 4.75748C9.21419 4.84577 9.39744 4.9955 9.52663 5.18778C9.65583 5.38007 9.72518 5.60633 9.72597 5.83799C9.72624 5.99263 9.69604 6.14581 9.63698 6.28873C9.57793 6.43165 9.4912 6.56147 9.38186 6.67081C9.27251 6.78016 9.1427 6.86688 8.99978 6.92594C8.85686 6.985 8.70361 7.01525 8.54897 7.01499ZM8.54897 5.05399C8.39075 5.05399 8.23607 5.10091 8.10451 5.18882C7.97295 5.27672 7.87051 5.40165 7.80996 5.54783C7.74941 5.69401 7.73356 5.85486 7.76443 6.01005C7.79529 6.16523 7.87142 6.30777 7.9833 6.41965C8.09518 6.53154 8.23778 6.60772 8.39297 6.63859C8.54815 6.66945 8.70894 6.65367 8.85512 6.59312C9.0013 6.53257 9.12635 6.43 9.21425 6.29844C9.30216 6.16688 9.34902 6.0122 9.34902 5.85398C9.34902 5.64181 9.2648 5.43833 9.11477 5.28831C8.96474 5.13828 8.76114 5.05399 8.54897 5.05399Z" fill="white"/>
</svg>
