<svg width="52" height="48" viewBox="0 0 52 48" fill="none" xmlns="http://www.w3.org/2000/svg">
<path d="M10.543 47.382C1.143 47.382 -2.691 40.742 2.016 32.61L17.358 6.098C22.064 -2.035 29.765 -2.031 34.472 6.098L49.818 32.608C54.524 40.741 50.687 47.382 41.29 47.382H10.543Z" fill="#F9BC12"/>
<path d="M10.543 47.382C1.143 47.382 -2.691 40.742 2.016 32.61L17.358 6.098C22.064 -2.035 29.765 -2.031 34.472 6.098L49.818 32.608C54.524 40.741 50.687 47.382 41.29 47.382H10.543Z" fill="#F9BC12"/>
<path opacity="0.08" d="M49.819 32.608L34.472 6.103C31.572 1.103 27.546 -0.828 23.772 0.325C26.129 1.046 28.385 2.971 30.196 6.101L45.542 32.608C50.248 40.741 46.411 47.382 37.015 47.382H41.286C50.687 47.383 54.525 40.741 49.819 32.608Z" fill="black"/>
<path d="M25.873 39.754C27.2095 39.754 28.293 38.6705 28.293 37.334C28.293 35.9975 27.2095 34.914 25.873 34.914C24.5365 34.914 23.453 35.9975 23.453 37.334C23.453 38.6705 24.5365 39.754 25.873 39.754Z" fill="#2E2E2E"/>
<path d="M28.292 31.065C28.292 31.6458 28.0613 32.2029 27.6506 32.6136C27.2399 33.0243 26.6828 33.255 26.102 33.255H25.664C25.0832 33.255 24.5261 33.0243 24.1154 32.6136C23.7047 32.2029 23.474 31.6458 23.474 31.065V12.665C23.474 12.0842 23.7047 11.5271 24.1154 11.1164C24.5261 10.7057 25.0832 10.475 25.664 10.475H26.102C26.6828 10.475 27.2399 10.7057 27.6506 11.1164C28.0613 11.5271 28.292 12.0842 28.292 12.665V31.065Z" fill="#2E2E2E"/>
</svg>
