<svg id="bike_683083" xmlns="http://www.w3.org/2000/svg" width="77.784" height="41.323" viewBox="0 0 77.784 41.323">
  <rect id="Rectangle_3095" data-name="Rectangle 3095" width="7.292" height="4.861" transform="translate(20.042 3.039)" fill="#656d78"/>
  <path id="Path_14150" data-name="Path 14150" d="M349.211,147.964a1.215,1.215,0,1,0,1.215,1.215A1.219,1.219,0,0,0,349.211,147.964Z" transform="translate(-325.523 -143.71)" fill="#aab2bd"/>
  <g id="Group_4557" data-name="Group 4557" transform="translate(23.08 4.254)" opacity="0.5">
    <path id="Path_14151" data-name="Path 14151" d="M348.6,149.179a1.2,1.2,0,0,0-.608-1.028,1.179,1.179,0,0,1,.608-.188,1.215,1.215,0,0,1,0,2.431,1.178,1.178,0,0,1-.608-.188A1.2,1.2,0,0,0,348.6,149.179Z" transform="translate(-347.996 -147.964)" fill="#fff"/>
  </g>
  <g id="Group_4558" data-name="Group 4558" transform="translate(26.119 3.039)" opacity="0.3">
    <rect id="Rectangle_3096" data-name="Rectangle 3096" width="1.215" height="4.861" transform="translate(0 0)" fill="#fff"/>
  </g>
  <rect id="Rectangle_3097" data-name="Rectangle 3097" width="1.215" height="4.861" transform="translate(20.042 3.039)"/>
  <path id="Path_14152" data-name="Path 14152" d="M374.93,243.942a10.938,10.938,0,1,1-10.938,10.938A10.937,10.937,0,0,1,374.93,243.942Zm0,18.231a7.292,7.292,0,1,0-7.292-7.292A7.294,7.294,0,0,0,374.93,262.173Z" transform="translate(-363.396 -225.104)" fill="#656d78"/>
  <g id="Group_4559" data-name="Group 4559" transform="translate(10.926 18.838)" opacity="0.2">
    <path id="Path_14153" data-name="Path 14153" d="M374.323,254.88a10.928,10.928,0,0,0-10.331-10.908c.2-.012.4-.031.608-.031a10.938,10.938,0,0,1,0,21.877c-.207,0-.406-.019-.608-.031A10.929,10.929,0,0,0,374.323,254.88Z" transform="translate(-363.992 -243.942)" fill="#fff"/>
  </g>
  <g id="Group_4560" data-name="Group 4560" transform="translate(0.596 18.838)" opacity="0.2">
    <path id="Path_14154" data-name="Path 14154" d="M433.192,254.88a10.928,10.928,0,0,0,10.33,10.907c-.2.012-.4.031-.607.031a10.938,10.938,0,1,1,0-21.877c.2,0,.4.019.607.031A10.928,10.928,0,0,0,433.192,254.88Z" transform="translate(-431.977 -243.942)"/>
  </g>
  <path id="Path_14155" data-name="Path 14155" d="M403.982,288.794a4.861,4.861,0,1,0,4.862-4.862A4.863,4.863,0,0,0,403.982,288.794Z" transform="translate(-397.309 -259.017)" fill="#aab2bd"/>
  <g id="Group_4561" data-name="Group 4561" transform="translate(10.926 24.915)" opacity="0.5">
    <path id="Path_14156" data-name="Path 14156" d="M408.236,288.794a4.846,4.846,0,0,0-4.254-4.8,4.632,4.632,0,0,1,.608-.062,4.862,4.862,0,0,1,0,9.723,4.632,4.632,0,0,1-.608-.062A4.847,4.847,0,0,0,408.236,288.794Z" transform="translate(-403.982 -283.932)" fill="#fff"/>
  </g>
  <g id="Group_4562" data-name="Group 4562" transform="translate(6.673 24.915)" opacity="0.2">
    <path id="Path_14157" data-name="Path 14157" d="M433.191,288.794a4.845,4.845,0,0,0,4.254,4.8,4.669,4.669,0,0,1-.607.062,4.862,4.862,0,1,1,0-9.723,4.669,4.669,0,0,1,.607.062A4.846,4.846,0,0,0,433.191,288.794Z" transform="translate(-431.976 -283.932)"/>
  </g>
  <path id="Path_14158" data-name="Path 14158" d="M15.467,235.944A11.546,11.546,0,1,1,3.921,247.49,11.546,11.546,0,0,1,15.467,235.944Zm0,19.446a7.9,7.9,0,1,0-7.9-7.9A7.9,7.9,0,0,0,15.467,255.39Z" transform="translate(50.175 -218.321)" fill="#656d78"/>
  <g id="Group_4563" data-name="Group 4563" transform="translate(65.035 17.623)" opacity="0.2">
    <path id="Path_14159" data-name="Path 14159" d="M14.858,247.49A11.536,11.536,0,0,0,3.92,235.975c.2-.011.4-.031.608-.031a11.546,11.546,0,1,1,0,23.092c-.205,0-.405-.02-.608-.031A11.536,11.536,0,0,0,14.858,247.49Z" transform="translate(-3.92 -235.944)" fill="#fff"/>
  </g>
  <g id="Group_4564" data-name="Group 4564" transform="translate(54.072 17.623)" opacity="0.2">
    <path id="Path_14160" data-name="Path 14160" d="M77.28,247.49a11.536,11.536,0,0,0,10.938,11.515c-.2.011-.4.031-.608.031a11.546,11.546,0,1,1,0-23.092c.205,0,.405.02.608.031A11.536,11.536,0,0,0,77.28,247.49Z" transform="translate(-76.064 -235.944)"/>
  </g>
  <path id="Path_14161" data-name="Path 14161" d="M52.069,288.186a4.254,4.254,0,1,0,4.254-4.254A4.254,4.254,0,0,0,52.069,288.186Z" transform="translate(9.295 -259.017)" fill="#aab2bd"/>
  <g id="Group_4565" data-name="Group 4565" transform="translate(65.01 24.915)" opacity="0.5">
    <path id="Path_14162" data-name="Path 14162" d="M55.715,288.186a4.24,4.24,0,0,0-3.646-4.192,4.1,4.1,0,0,1,.608-.062,4.254,4.254,0,1,1,0,8.508,4.1,4.1,0,0,1-.608-.062A4.24,4.24,0,0,0,55.715,288.186Z" transform="translate(-52.069 -283.932)" fill="#fff"/>
  </g>
  <g id="Group_4566" data-name="Group 4566" transform="translate(61.364 24.915)" opacity="0.2">
    <path id="Path_14163" data-name="Path 14163" d="M77.279,288.186a4.241,4.241,0,0,0,3.646,4.192,4.1,4.1,0,0,1-.608.062,4.254,4.254,0,0,1,0-8.508,4.111,4.111,0,0,1,.608.062A4.241,4.241,0,0,0,77.279,288.186Z" transform="translate(-76.064 -283.932)"/>
  </g>
  <path id="Path_14164" data-name="Path 14164" d="M277.227,291.93a1.215,1.215,0,1,0,1.215,1.215A1.219,1.219,0,0,0,277.227,291.93Z" transform="translate(-242.601 -265.799)" fill="#ccd1d9"/>
  <g id="Group_4567" data-name="Group 4567" transform="translate(34.019 26.131)" opacity="0.7">
    <path id="Path_14165" data-name="Path 14165" d="M276.619,293.145a1.2,1.2,0,0,0-.608-1.028,1.179,1.179,0,0,1,.608-.188,1.215,1.215,0,1,1,0,2.431,1.179,1.179,0,0,1-.608-.187A1.2,1.2,0,0,0,276.619,293.145Z" transform="translate(-276.012 -291.93)" fill="#fff"/>
  </g>
  <path id="Path_14166" data-name="Path 14166" d="M241.24,263.937a1.215,1.215,0,1,0,1.215,1.215A1.219,1.219,0,0,0,241.24,263.937Z" transform="translate(-201.145 -242.06)" fill="#656d78"/>
  <path id="Path_14167" data-name="Path 14167" d="M229.85,254.978a1.215,1.215,0,1,1,1.215,1.215A1.219,1.219,0,0,1,229.85,254.978Zm1.215,3.038a3.038,3.038,0,1,0-3.038-3.038A3.04,3.04,0,0,0,231.066,258.017Z" transform="translate(-190.971 -231.886)" fill="#ccd1d9"/>
  <g id="Group_4568" data-name="Group 4568" transform="translate(39.487 20.054)" opacity="0.5">
    <path id="Path_14168" data-name="Path 14168" d="M230.459,254.978A3.039,3.039,0,0,0,228.028,252a3.038,3.038,0,1,1,0,5.953A3.039,3.039,0,0,0,230.459,254.978Z" transform="translate(-228.028 -251.94)" fill="#fff"/>
  </g>
  <g id="Group_4569" data-name="Group 4569" transform="translate(37.057 20.054)" opacity="0.2">
    <path id="Path_14169" data-name="Path 14169" d="M245.239,254.978a3.039,3.039,0,0,0,2.431,2.977,3.007,3.007,0,0,1-.608.062,3.038,3.038,0,1,1,.608-6.015A3.039,3.039,0,0,0,245.239,254.978Z" transform="translate(-244.024 -251.94)"/>
  </g>
  <g id="Group_4570" data-name="Group 4570" transform="translate(10.319 17.44)">
    <path id="Path_14170" data-name="Path 14170" d="M387.9,246.507a1.212,1.212,0,1,0,2.139,1.142l4.935-9.285,1.325-2.468a13.583,13.583,0,0,0-2.151-1.155v.013l-1.313,2.479Z" transform="translate(-387.751 -234.741)" fill="#ccd1d9"/>
    <path id="Path_14171" data-name="Path 14171" d="M80.827,274.755l7.9,1.689a1.219,1.219,0,0,0,1.215-1.215c0-.668-.5-.984-1.215-1.216L81.666,270.8l-3.926-1.788-2.382-1.081-1.495,1-2.176,1.459L68.066,272.8h3.646l1.738.378,3.549.752Z" transform="translate(-32.821 -262.892)" fill="#ccd1d9"/>
  </g>
  <g id="Group_4571" data-name="Group 4571" transform="translate(51.786 22.484)" opacity="0.5">
    <path id="Path_14172" data-name="Path 14172" d="M82.505,275.228l-7.061-3.208-3.926-1.787-3.452-1.583,1.07-.713,2.382,1.081,3.926,1.788,7.061,3.208c.717.232,1.215.547,1.215,1.216a1.173,1.173,0,0,1-.2.626A1.936,1.936,0,0,0,82.505,275.228Z" transform="translate(-68.066 -267.936)" fill="#fff"/>
  </g>
  <g id="Group_4572" data-name="Group 4572" transform="translate(40.703 17.319)">
    <path id="Path_14173" data-name="Path 14173" d="M164.043,317.979l4.91,1.543-1.215-3.6Z" transform="translate(-156.799 -303.467)" fill="#ccd1d9"/>
    <path id="Path_14174" data-name="Path 14174" d="M171.286,329.445l-7.244,4.022h6.077c2.431,0,6.077-2.479,6.077-2.479Z" transform="translate(-164.043 -314.933)" fill="#ccd1d9"/>
    <path id="Path_14175" data-name="Path 14175" d="M173.88,234.248l7.171,7.171.1.146,2.176-1.459-.122-.195-5.968-5.956v-.012Z" transform="translate(-172.665 -233.944)" fill="#ccd1d9"/>
  </g>
  <g id="Group_4573" data-name="Group 4573" transform="translate(44.147 17.319)" opacity="0.5">
    <path id="Path_14176" data-name="Path 14176" d="M180.376,240.588l-6.5-6.542,1.125-.1v.012l5.968,5.956.122.195Z" transform="translate(-173.88 -233.944)" fill="#fff"/>
  </g>
  <path id="Path_14177" data-name="Path 14177" d="M185.409,215.274a1.215,1.215,0,1,1,1.215-1.215A1.219,1.219,0,0,1,185.409,215.274Zm8.507-5.469a3.038,3.038,0,1,1-3.038-3.038A3.04,3.04,0,0,1,193.916,209.8Zm-1.215-7.9H190.27c-5.056,0-8.3-1.556-10.318-3.233l-.048.049-3,.754-4.861,1.215,9.723,9.723-5.324,11.935v.218h15.047l7.244-4.022,3.695-2.054-.693-2.053-1.738-.378h-3.646l3.622-2.406-.1-.146-7.171-7.171v-2.431Z" transform="translate(-150.783 -186.713)" fill="#aab2bd"/>
  <g id="Group_4574" data-name="Group 4574" transform="translate(21.257 11.959)" opacity="0.2">
    <path id="Path_14178" data-name="Path 14178" d="M300.007,200.69l4.861-1.215,3-.754.048-.049c.1.087.747.563.857.648l-6.931,1.977,9.1,8.872-5.324,12.179v.219h-1.215v-.219l5.324-11.935Z" transform="translate(-300.007 -198.672)"/>
  </g>
  <path id="Path_14179" data-name="Path 14179" d="M226.107,146.676c-5.021,1.106-6.077,3.646-6.077,3.646a10.106,10.106,0,0,0,3.05,4.059c2.018,1.677,5.263,3.233,10.318,3.233h2.431l2.431-4.862-1.215-1.216S232.9,145.169,226.107,146.676Z" transform="translate(-193.911 -142.422)" fill="#656d78"/>
  <g id="Group_4575" data-name="Group 4575" transform="translate(26.119 4.023)" opacity="0.2">
    <path id="Path_14180" data-name="Path 14180" d="M236.462,152.421s-3.714-6.192-10.507-4.685c-3.62.8-5.022,2.491-5.609,3.291a6.11,6.11,0,0,1-.316-.705s1.056-2.54,6.077-3.646c6.793-1.507,10.938,4.861,10.938,4.861l1.215,1.216-.405.811Z" transform="translate(-220.03 -146.445)" fill="#fff"/>
  </g>
  <path id="Path_14181" data-name="Path 14181" d="M325.047,153.139a13.259,13.259,0,0,1-1.46,6.077H325.8V159l5.324-11.935-9.723-9.723,4.862-1.215,3-.754.048-.049a10.1,10.1,0,0,1-3.05-4.059h-6.077l-4.861-7.292h-1.215v3.646s-6.575,3.646-6.077,12.652a13.531,13.531,0,0,1,8.823.534,13.587,13.587,0,0,1,2.151,1.155A13.326,13.326,0,0,1,325.047,153.139Z" transform="translate(-300.144 -123.362)" fill="#a0d468"/>
  <g id="Group_4576" data-name="Group 4576" transform="translate(7.861 0.608)" opacity="0.2">
    <path id="Path_14182" data-name="Path 14182" d="M418.084,127.616V123.97H419.3v4.656s-6.438,2.573-6.079,11.388c-.408.075-.821.143-1.213.254C411.508,131.262,418.084,127.616,418.084,127.616Z" transform="translate(-411.98 -123.97)"/>
  </g>
  <g id="Group_4577" data-name="Group 4577" transform="translate(16.144 17.44)" opacity="0.2">
    <path id="Path_14183" data-name="Path 14183" d="M387.752,235.825l.567-1.072v-.013a13.6,13.6,0,0,1,2.151,1.155l-.58,1.081c-.035-.022-.064-.051-.1-.074a12.331,12.331,0,0,0-1.943-1.042C387.816,235.847,387.783,235.838,387.752,235.825Z" transform="translate(-387.752 -234.74)"/>
  </g>
  <g id="Group_4578" data-name="Group 4578" transform="translate(10.912 19.115)" opacity="0.5">
    <path id="Path_14184" data-name="Path 14184" d="M392.046,256.994l4.935-9.285,1.046-1.948c.29.158.564.319.815.488.035.022.064.051.1.073l-.744,1.386-4.935,9.285a1.216,1.216,0,0,1-1.64.5c-.019-.011-.031-.029-.05-.04A1.179,1.179,0,0,0,392.046,256.994Z" transform="translate(-391.571 -245.761)" fill="#fff"/>
  </g>
  <path id="Path_14185" data-name="Path 14185" d="M58.424,166.713c5.2-1.2,14.815-10.829,14.815-10.829l-13.369,1.227c-5.263,5.311-13.369,3.646-13.369,3.646l-2.431,4.862v2.431l3.354-.3,6.357-.583,3.658-.329A4.969,4.969,0,0,0,58.424,166.713Z" transform="translate(-2.153 -150.427)" fill="#a0d468"/>
  <g id="Group_4579" data-name="Group 4579" transform="translate(43.744 5.457)" opacity="0.5">
    <path id="Path_14186" data-name="Path 14186" d="M44.677,160.757s8.107,1.665,13.369-3.646l13.369-1.227s-.534.532-1.394,1.344l-11.519,1.1c-5.263,5.311-14.43,3.64-14.43,3.64Z" transform="translate(-44.072 -155.884)" fill="#fff"/>
  </g>
  <g id="Group_4580" data-name="Group 4580">
    <path id="Path_14187" data-name="Path 14187" d="M12.1,256.253a12.154,12.154,0,1,0-9.631-19.568.608.608,0,1,0,.963.743,10.938,10.938,0,1,1-2.221,7.709.608.608,0,0,0-1.21.114A12.1,12.1,0,0,0,12.1,256.253Z" transform="translate(53.527 -214.93)" fill="#3a3847"/>
    <path id="Path_14188" data-name="Path 14188" d="M32.269,272.954a8.508,8.508,0,1,0-6.132-14.405.608.608,0,1,0,.876.843,7.291,7.291,0,1,1-1.821,6.823.608.608,0,1,0-1.18.294A8.493,8.493,0,0,0,32.269,272.954Z" transform="translate(33.361 -235.278)" fill="#3a3847"/>
    <path id="Path_14189" data-name="Path 14189" d="M51.716,289.656a4.862,4.862,0,1,0-2.24-9.177.608.608,0,0,0,.561,1.078,3.606,3.606,0,0,1,1.678-.408,3.646,3.646,0,1,1-2.675,6.124.608.608,0,0,0-.891.826A4.875,4.875,0,0,0,51.716,289.656Z" transform="translate(13.914 -255.625)" fill="#3a3847"/>
    <path id="Path_14190" data-name="Path 14190" d="M371.461,263.035A11.546,11.546,0,0,0,379.5,243.2a.608.608,0,0,0-.847.871,10.331,10.331,0,1,1-7.195-2.917,10.393,10.393,0,0,1,2.129.221.608.608,0,1,0,.249-1.189,11.546,11.546,0,1,0-2.378,22.845Z" transform="translate(-359.915 -221.712)" fill="#3a3847"/>
    <path id="Path_14191" data-name="Path 14191" d="M360.082,244.608a.609.609,0,0,0,.543-.331,13.837,13.837,0,0,0,1.523-6.353,13.988,13.988,0,0,0-17.787-13.451.608.608,0,1,0,.33,1.17,12.771,12.771,0,0,1,16.241,12.281,12.621,12.621,0,0,1-1.39,5.8.608.608,0,0,0,.54.884Z" transform="translate(-336.625 -208.146)" fill="#3a3847"/>
    <path id="Path_14192" data-name="Path 14192" d="M391.809,279.737a7.9,7.9,0,0,0,6.28-12.693.608.608,0,0,0-.966.738,6.684,6.684,0,1,1-5.314-2.63q.2,0,.4.01a.592.592,0,0,0,.642-.571.608.608,0,0,0-.571-.642c-.154-.009-.31-.013-.466-.013a7.9,7.9,0,0,0,0,15.8Z" transform="translate(-380.263 -242.06)" fill="#3a3847"/>
    <path id="Path_14193" data-name="Path 14193" d="M405.374,291.34a5.472,5.472,0,0,0,5.039-7.6.608.608,0,1,0-1.12.472,4.254,4.254,0,1,1-4.707-2.526.607.607,0,0,0-.223-1.194,5.47,5.47,0,0,0,1.011,10.845Z" transform="translate(-393.828 -256.094)" fill="#3a3847"/>
    <path id="Path_14194" data-name="Path 14194" d="M51.537,164.072c5.055,0,15.776-10.671,16.23-11.126a.607.607,0,0,0,.12-.687.629.629,0,0,0-.605-.348l-13.369,1.225a.607.607,0,0,0-.377.178c-4.977,5.024-12.737,3.494-12.814,3.479a.607.607,0,1,0-.246,1.189c.341.072,8.33,1.643,13.765-3.656l11.44-1.048c-3.664,3.475-10.795,9.578-14.144,9.578a.608.608,0,1,0,0,1.215Z" transform="translate(3.763 -147.057)" fill="#3a3847"/>
    <path id="Path_14195" data-name="Path 14195" d="M241.569,148.779a.607.607,0,0,0,.509-.939c-.044-.068-4.448-6.694-11.578-5.124-5.267,1.162-6.459,3.891-6.507,4.006a.607.607,0,0,0,1.118.472c.025-.051,1.09-2.285,5.65-3.291,6.32-1.395,10.26,4.54,10.3,4.6A.607.607,0,0,0,241.569,148.779Z" transform="translate(-198.423 -139.056)" fill="#3a3847"/>
    <path id="Path_14196" data-name="Path 14196" d="M376.542,137.489h.035a.606.606,0,0,0,.573-.64c-.466-8.5,5.51-11.951,5.766-12.093a.609.609,0,0,0,.311-.531v-3.038h.283l4.681,7.022a.608.608,0,1,0,1.011-.674l-4.861-7.292a.609.609,0,0,0-.506-.271h-1.215a.607.607,0,0,0-.608.608v3.306c-1.358.879-6.528,4.784-6.074,13.031A.607.607,0,0,0,376.542,137.489Z" transform="translate(-368.642 -119.971)" fill="#3a3847"/>
    <path id="Path_14197" data-name="Path 14197" d="M85.958,271.229a.608.608,0,0,0,.252-1.161l-13.369-6.077a.608.608,0,1,0-.5,1.106l13.369,6.077A.609.609,0,0,0,85.958,271.229Z" transform="translate(-19.721 -242.06)" fill="#3a3847"/>
    <path id="Path_14198" data-name="Path 14198" d="M89.606,300.792a.608.608,0,0,0,.127-1.2l-17.015-3.646a.608.608,0,0,0-.255,1.189l17.015,3.646A.675.675,0,0,0,89.606,300.792Z" transform="translate(-23.368 -269.192)" fill="#3a3847"/>
    <path id="Path_14199" data-name="Path 14199" d="M248.549,353.132H264.59a.608.608,0,1,0,0-1.215H248.549a.608.608,0,1,0,0,1.215Z" transform="translate(-225.09 -316.671)" fill="#3a3847"/>
    <path id="Path_14200" data-name="Path 14200" d="M160.57,339.328c2.588,0,6.263-2.475,6.418-2.579a.608.608,0,0,0-.683-1.007c-.035.024-3.521,2.371-5.736,2.371a.608.608,0,1,0,0,1.215Z" transform="translate(-113.778 -302.867)" fill="#3a3847"/>
    <path id="Path_14201" data-name="Path 14201" d="M304.536,284.068a.607.607,0,0,0,.555-.361l4.862-10.917a.608.608,0,1,0-1.111-.494l-4.861,10.917a.608.608,0,0,0,.555.855Z" transform="translate(-278.406 -248.843)" fill="#3a3847"/>
    <path id="Path_14202" data-name="Path 14202" d="M314.258,218.889a.608.608,0,0,0,.43-1.037l-9.723-9.723a.608.608,0,1,0-.859.859l9.723,9.723A.605.605,0,0,0,314.258,218.889Z" transform="translate(-283.266 -194.581)" fill="#3a3847"/>
    <path id="Path_14203" data-name="Path 14203" d="M227.593,255.232a3.645,3.645,0,1,0-3.646-3.645A3.65,3.65,0,0,0,227.593,255.232Zm0-6.076a2.43,2.43,0,1,1-2.431,2.431A2.434,2.434,0,0,1,227.593,249.156Z" transform="translate(-187.486 -228.495)" fill="#3a3847"/>
    <path id="Path_14204" data-name="Path 14204" d="M237.767,263.583a1.822,1.822,0,1,0-1.823-1.822A1.825,1.825,0,0,0,237.767,263.583Zm0-2.43a.607.607,0,1,1-.608.608A.608.608,0,0,1,237.767,261.153Z" transform="translate(-197.66 -238.669)" fill="#3a3847"/>
    <path id="Path_14205" data-name="Path 14205" d="M273.758,291.577a1.823,1.823,0,1,0-1.823-1.823A1.825,1.825,0,0,0,273.758,291.577Zm0-2.431a.608.608,0,1,1-.608.608A.609.609,0,0,1,273.758,289.146Z" transform="translate(-239.12 -262.408)" fill="#3a3847"/>
    <path id="Path_14206" data-name="Path 14206" d="M264.544,337.134h4.862a.608.608,0,0,0,0-1.216h-4.862a.608.608,0,0,0,0,1.216Z" transform="translate(-232.337 -303.104)" fill="#3a3847"/>
    <path id="Path_14207" data-name="Path 14207" d="M168.567,319.221a.613.613,0,0,0,.294-.076l10.938-6.077a.608.608,0,0,0-.59-1.063l-10.938,6.077a.608.608,0,0,0,.3,1.139Z" transform="translate(-127.852 -282.759)" fill="#3a3847"/>
    <path id="Path_14208" data-name="Path 14208" d="M160.57,270.012a.607.607,0,0,0,.336-.1l7.292-4.861a.608.608,0,1,0-.674-1.011l-7.292,4.861a.608.608,0,0,0,.338,1.113Z" transform="translate(-114.993 -242.058)" fill="#3a3847"/>
    <path id="Path_14209" data-name="Path 14209" d="M155,232.667a.608.608,0,0,0,.531-.9l-2.431-4.388a.608.608,0,1,0-1.063.589l2.431,4.388A.607.607,0,0,0,155,232.667Z" transform="translate(-100.917 -210.79)" fill="#3a3847"/>
    <path id="Path_14210" data-name="Path 14210" d="M144.572,226.384l.056,0L158,225.167a.608.608,0,0,0-.11-1.211l-13.369,1.215a.608.608,0,0,0,.055,1.213Z" transform="translate(-102.642 -208.154)" fill="#3a3847"/>
    <path id="Path_14211" data-name="Path 14211" d="M198.639,239.237a.608.608,0,0,0,.43-1.037l-6.077-6.077a.608.608,0,1,0-.859.859l6.077,6.077A.605.605,0,0,0,198.639,239.237Z" transform="translate(-150.632 -214.929)" fill="#3a3847"/>
    <path id="Path_14212" data-name="Path 14212" d="M181.721,236.379a.608.608,0,0,0,.43-1.037l-5.156-5.156a.608.608,0,0,0-.859.859l5.156,5.156A.606.606,0,0,0,181.721,236.379Z" transform="translate(-131.283 -213.286)" fill="#3a3847"/>
    <path id="Path_14213" data-name="Path 14213" d="M216.555,190.032a.609.609,0,0,0,.544-.336l2.431-4.861a.608.608,0,1,0-1.087-.544l-2.431,4.861a.608.608,0,0,0,.272.815A.6.6,0,0,0,216.555,190.032Z" transform="translate(-174.625 -174.231)" fill="#3a3847"/>
    <path id="Path_14214" data-name="Path 14214" d="M136.576,210.388l.051,0,14.585-1.215a.607.607,0,0,0-.1-1.211l-14.585,1.215a.608.608,0,0,0,.05,1.213Z" transform="translate(-94.646 -194.589)" fill="#3a3847"/>
    <path id="Path_14215" data-name="Path 14215" d="M261.918,176.461a.608.608,0,0,0,0-1.215c-10.381,0-12.77-6.808-12.792-6.877a.608.608,0,1,0-1.154.385C248.077,169.068,250.671,176.461,261.918,176.461Z" transform="translate(-222.419 -160.661)" fill="#3a3847"/>
    <path id="Path_14216" data-name="Path 14216" d="M376.519,139.613a.607.607,0,0,0,.608-.608v-2.431a.608.608,0,1,0-1.215,0v2.431A.607.607,0,0,0,376.519,139.613Z" transform="translate(-356.465 -133.536)" fill="#3a3847"/>
    <path id="Path_14217" data-name="Path 14217" d="M328.53,138.4a.607.607,0,0,0,.608-.608v-1.215a.608.608,0,1,0-1.215,0v1.215A.607.607,0,0,0,328.53,138.4Z" transform="translate(-301.184 -133.536)" fill="#3a3847"/>
    <path id="Path_14218" data-name="Path 14218" d="M328.531,137.182h7.292a.608.608,0,1,0,0-1.215h-7.292a.608.608,0,1,0,0,1.215Z" transform="translate(-308.477 -133.536)" fill="#3a3847"/>
    <path id="Path_14219" data-name="Path 14219" d="M345.742,147.612a1.823,1.823,0,1,0-1.823-1.823A1.825,1.825,0,0,0,345.742,147.612Zm0-2.431a.608.608,0,1,1-.608.608A.609.609,0,0,1,345.742,145.181Z" transform="translate(-322.042 -140.32)" fill="#3a3847"/>
    <path id="Path_14220" data-name="Path 14220" d="M76.59,277.757a.607.607,0,0,0,.608-.608v-.608a.608.608,0,1,0-1.215,0v.608A.607.607,0,0,0,76.59,277.757Z" transform="translate(-10.959 -252.234)" fill="#3a3847"/>
    <path id="Path_14221" data-name="Path 14221" d="M76.59,337.743a.607.607,0,0,0,.608-.608v-.608a.608.608,0,1,0-1.215,0v.608A.608.608,0,0,0,76.59,337.743Z" transform="translate(-10.959 -303.105)" fill="#3a3847"/>
    <path id="Path_14222" data-name="Path 14222" d="M60.591,281.958a.608.608,0,0,0,.527-.3l.3-.527a.608.608,0,1,0-1.053-.608l-.3.527a.607.607,0,0,0,.526.911Z" transform="translate(7.165 -255.865)" fill="#3a3847"/>
    <path id="Path_14223" data-name="Path 14223" d="M90.584,333.908a.609.609,0,0,0,.527-.3l.3-.526a.608.608,0,0,0-1.053-.608l-.3.526a.607.607,0,0,0,.222.83A.6.6,0,0,0,90.584,333.908Z" transform="translate(-27.385 -299.922)" fill="#3a3847"/>
    <path id="Path_14224" data-name="Path 14224" d="M48.884,293.443a.6.6,0,0,0,.3-.082l.526-.3a.607.607,0,1,0-.608-1.052l-.526.3a.607.607,0,0,0,.3,1.134Z" transform="translate(20.431 -265.793)" fill="#3a3847"/>
    <path id="Path_14225" data-name="Path 14225" d="M44.6,309.141H45.2a.608.608,0,0,0,0-1.215H44.6a.608.608,0,0,0,0,1.215Z" transform="translate(25.288 -279.365)" fill="#3a3847"/>
    <path id="Path_14226" data-name="Path 14226" d="M49.408,323.443a.608.608,0,0,0,.3-1.134l-.525-.3a.608.608,0,1,0-.609,1.052l.525.3A.6.6,0,0,0,49.408,323.443Z" transform="translate(20.432 -291.235)" fill="#3a3847"/>
    <path id="Path_14227" data-name="Path 14227" d="M60.9,333.913a.607.607,0,0,0,.526-.91l-.3-.526a.607.607,0,1,0-1.053.605l.3.526A.607.607,0,0,0,60.9,333.913Z" transform="translate(7.165 -299.926)" fill="#3a3847"/>
    <path id="Path_14228" data-name="Path 14228" d="M90.881,281.965a.608.608,0,0,0,.525-.913l-.3-.525a.608.608,0,0,0-1.052.61l.3.525A.606.606,0,0,0,90.881,281.965Z" transform="translate(-27.376 -255.872)" fill="#3a3847"/>
    <path id="Path_14229" data-name="Path 14229" d="M64.593,307.572a1.825,1.825,0,0,0,1.823-1.823c0-1.249-1.185-1.643-1.631-1.792a.608.608,0,0,0-.385,1.154c.8.266.8.472.8.639a.608.608,0,0,1-.608.608.608.608,0,0,0,0,1.215Z" transform="translate(1.645 -275.973)" fill="#3a3847"/>
    <path id="Path_14230" data-name="Path 14230" d="M184.565,297.144h3.646a.608.608,0,1,0,0-1.215h-3.646a.608.608,0,1,0,0,1.215Z" transform="translate(-138.988 -269.191)" fill="#3a3847"/>
    <path id="Path_14231" data-name="Path 14231" d="M426.656,311.166a1.856,1.856,0,0,0,.536-.081,1.811,1.811,0,0,0,1.075-.888.607.607,0,0,0-1.073-.57.606.606,0,0,1-.358.3.616.616,0,0,1-.463-.045.609.609,0,0,1-.252-.823.607.607,0,1,0-1.073-.57,1.824,1.824,0,0,0,1.607,2.68Z" transform="translate(-415.113 -279.565)" fill="#3a3847"/>
    <path id="Path_14232" data-name="Path 14232" d="M389.952,260.331a.606.606,0,0,0,.536-.322l5.393-10.137a.608.608,0,0,0-1.073-.571l-5.393,10.137a.607.607,0,0,0,.252.821A.594.594,0,0,0,389.952,260.331Z" transform="translate(-377.333 -229.374)" fill="#3a3847"/>
    <path id="Path_14233" data-name="Path 14233" d="M404.058,252.784a.6.6,0,0,0,.536-.323l5.4-10.141a.607.607,0,0,0-1.073-.57l-5.4,10.141a.607.607,0,0,0,.252.821A.6.6,0,0,0,404.058,252.784Z" transform="translate(-393.585 -222.97)" fill="#3a3847"/>
    <path id="Path_14234" data-name="Path 14234" d="M384.517,313.14h2.431a.608.608,0,1,0,0-1.215h-2.431a.608.608,0,1,0,0,1.215Z" transform="translate(-368.109 -282.756)" fill="#3a3847"/>
    <path id="Path_14235" data-name="Path 14235" d="M200.561,353.132h6.077a.608.608,0,1,0,0-1.215h-6.077a.608.608,0,0,0,0,1.215Z" transform="translate(-159.846 -316.671)" fill="#3a3847"/>
    <path id="Path_14236" data-name="Path 14236" d="M161.785,316.741a.614.614,0,0,0,.194-.032.607.607,0,0,0,.382-.77l-1.215-3.6a.608.608,0,0,0-1.151.389l1.215,3.6A.608.608,0,0,0,161.785,316.741Z" transform="translate(-108.916 -282.755)" fill="#3a3847"/>
    <path id="Path_14237" data-name="Path 14237" d="M165.478,328.2a.608.608,0,0,0,.183-1.187l-4.909-1.55a.607.607,0,1,0-.366,1.158l4.909,1.55A.606.606,0,0,0,165.478,328.2Z" transform="translate(-112.609 -294.209)" fill="#3a3847"/>
    <path id="Path_14238" data-name="Path 14238" d="M424.505,172.819a.605.605,0,0,0,.506-.271l2.431-3.646a.608.608,0,0,0-1.011-.674L424,171.874a.608.608,0,0,0,.506.945Z" transform="translate(-414.175 -160.665)" fill="#3a3847"/>
    <path id="Path_14239" data-name="Path 14239" d="M336.529,202.381a.641.641,0,0,0,.147-.018l4.861-1.216a.608.608,0,0,0-.294-1.18l-4.861,1.215a.608.608,0,0,0,.147,1.2Z" transform="translate(-315.26 -187.797)" fill="#3a3847"/>
    <path id="Path_14240" data-name="Path 14240" d="M309.4,206.029a.608.608,0,0,0,.43-1.037l-4.861-4.862a.608.608,0,0,0-.859.859l4.862,4.861A.605.605,0,0,0,309.4,206.029Z" transform="translate(-278.404 -187.798)" fill="#3a3847"/>
    <path id="Path_14241" data-name="Path 14241" d="M297.752,330.352a.608.608,0,0,0,0-1.216.609.609,0,0,1-.608-.608.608.608,0,1,0-1.215,0A1.825,1.825,0,0,0,297.752,330.352Z" transform="translate(-265.545 -296.321)" fill="#3a3847"/>
    <path id="Path_14242" data-name="Path 14242" d="M304.535,315.571a.607.607,0,0,0,.608-.608v-2.431a.608.608,0,1,0-1.216,0v2.431A.607.607,0,0,0,304.535,315.571Z" transform="translate(-273.543 -282.756)" fill="#3a3847"/>
    <path id="Path_14243" data-name="Path 14243" d="M282.972,259.585a.608.608,0,0,0,.43-1.037l-2.431-2.431a.608.608,0,1,0-.859.859l2.431,2.431A.605.605,0,0,0,282.972,259.585Z" transform="translate(-248.334 -235.278)" fill="#3a3847"/>
    <path id="Path_14244" data-name="Path 14244" d="M282.972,243.589a.608.608,0,0,0,.43-1.037l-2.431-2.431a.608.608,0,1,0-.859.859l2.431,2.431A.606.606,0,0,0,282.972,243.589Z" transform="translate(-248.334 -221.712)" fill="#3a3847"/>
    <path id="Path_14245" data-name="Path 14245" d="M222.555,303.222a.607.607,0,0,0,.589-.461l1.519-6.077a.607.607,0,1,0-1.179-.294l-1.519,6.077a.608.608,0,0,0,.442.737A.634.634,0,0,0,222.555,303.222Z" transform="translate(-180.624 -269.192)" fill="#3a3847"/>
    <path id="Path_14246" data-name="Path 14246" d="M240.551,310.009a.607.607,0,0,0,.589-.461l1.215-4.861a.607.607,0,1,0-1.179-.294l-1.215,4.861a.608.608,0,0,0,.442.737A.642.642,0,0,0,240.551,310.009Z" transform="translate(-201.051 -275.978)" fill="#3a3847"/>
    <path id="Path_14247" data-name="Path 14247" d="M200.561,313.14h1.215a.608.608,0,0,0,0-1.215h-1.215a.608.608,0,0,0,0,1.215Z" transform="translate(-154.984 -282.756)" fill="#3a3847"/>
    <path id="Path_14248" data-name="Path 14248" d="M40.6,177.172h2.431a.608.608,0,0,0,0-1.216H40.6a.608.608,0,0,0,0,1.216Z" transform="translate(28.071 -167.449)" fill="#3a3847"/>
    <path id="Path_14249" data-name="Path 14249" d="M27.032,179.6a.608.608,0,0,0,.43-1.037l-2.431-2.431a.608.608,0,1,0-.859.859l2.431,2.431A.605.605,0,0,0,27.032,179.6Z" transform="translate(46.498 -167.451)" fill="#3a3847"/>
    <path id="Path_14250" data-name="Path 14250" d="M344.527,169.175h4.861a.608.608,0,1,0,0-1.215h-4.861a.608.608,0,0,0,0,1.215Z" transform="translate(-324.473 -160.668)" fill="#3a3847"/>
    <path id="Path_14251" data-name="Path 14251" d="M160.569,290.348a.6.6,0,0,0,.192-.031l3.646-1.217a.608.608,0,0,0-.384-1.154l-3.646,1.217a.608.608,0,0,0,.192,1.185Z" transform="translate(-111.347 -262.394)" fill="#3a3847"/>
    <path id="Path_14252" data-name="Path 14252" d="M232.553,219.6a.607.607,0,0,0,.608-.608v-2.431a.608.608,0,1,0-1.215,0v2.431A.607.607,0,0,0,232.553,219.6Z" transform="translate(-190.622 -201.364)" fill="#3a3847"/>
  </g>
</svg>
