<svg id="bus_8556996" xmlns="http://www.w3.org/2000/svg" width="80.239" height="35.97" viewBox="0 0 80.239 35.97">
  <path id="Path_14298" data-name="Path 14298" d="M86.489,46.5V70.019A1.384,1.384,0,0,1,85.106,71.4H75.247a5.535,5.535,0,0,1-10.718,0h-37.7a5.54,5.54,0,0,1-5.36,4.15h-.018a5.539,5.539,0,0,1-5.341-4.15H7.633A1.383,1.383,0,0,1,6.25,70.019v-8.3a1.384,1.384,0,0,1,.008-.149C6.745,57.058,7.4,50.1,9.123,45.969A9.842,9.842,0,0,1,18.7,39.583H79.572A6.95,6.95,0,0,1,86.489,46.5Z" transform="translate(-6.25 -39.583)" fill-rule="evenodd"/>
  <path id="Path_14299" data-name="Path 14299" d="M78.27,81.25a2.767,2.767,0,1,0,2.767,2.767A2.768,2.768,0,0,0,78.27,81.25Zm-48.421,0h-.018a2.767,2.767,0,0,0,0,5.534h.018a2.767,2.767,0,1,0,0-5.534Z" transform="translate(-14.632 -53.581)" fill="#454545" fill-rule="evenodd"/>
  <path id="Path_14300" data-name="Path 14300" d="M28.782,81.572a2.767,2.767,0,0,0,0,5.106,2.768,2.768,0,0,0,0-5.106Zm48.42,0a2.768,2.768,0,0,0,0,5.106,2.767,2.767,0,0,0,0-5.106Z" transform="translate(-12.496 -53.689)" fill="#4a4a4a" fill-rule="evenodd"/>
  <path id="Path_14301" data-name="Path 14301" d="M85.123,70.42l-4.486,1.122a1.384,1.384,0,0,0-1.048,1.342v4.15H76.648a5.535,5.535,0,0,0-10.718,0h-37.7a5.55,5.55,0,0,0-3.1-3.667L26.375,71.5H45a1.384,1.384,0,0,0,0-2.767H25.635a1.382,1.382,0,0,0-1.151.616l-2.393,3.589-.014,0a5.544,5.544,0,0,0-4.569,4.094H10.417v-3.07L14.9,72.842a1.383,1.383,0,0,0-.671-2.684l-3.815.954v-.917c.1-.922.2-1.95.323-3.033l15.014-2.579h59.37Z" transform="translate(-7.651 -47.982)" fill="#ccc" fill-rule="evenodd"/>
  <path id="Path_14302" data-name="Path 14302" d="M43.273,68.733H22.746a1.382,1.382,0,0,0-1.151.616L19.2,72.938l-.014,0a5.544,5.544,0,0,0-4.569,4.094h-4.2V74.475a.655.655,0,0,1,.5-.635l3.99-1a1.383,1.383,0,1,0-.671-2.684l-1.552.388a1.385,1.385,0,0,0-1.337-.388l-.926.231v-.195c.082-.77.169-1.613.264-2.5a.71.71,0,0,1,.586-.623l14.486-2.488H82.233V70.42l-4.486,1.122A1.384,1.384,0,0,0,76.7,72.884v4.15h-.052a5.538,5.538,0,0,0-6.8-3.959,5.537,5.537,0,0,0-6.8,3.959H28.228A5.552,5.552,0,0,0,25.585,73.6a.459.459,0,0,1-.164-.657c.364-.554.954-1.439.954-1.439h16.9a1.384,1.384,0,0,0,0-2.767Z" transform="translate(-4.761 -47.982)" fill="#e3e3e3" fill-rule="evenodd"/>
  <path id="Path_14303" data-name="Path 14303" d="M13.183,77.668V81.43H10.417V78.36Z" transform="translate(64.289 -52.378)" fill="#ffa300" fill-rule="evenodd"/>
  <path id="Path_14304" data-name="Path 14304" d="M14,78.275v3.359H12.842v-3.07Z" transform="translate(61.864 -52.581)" fill="#e19309" fill-rule="evenodd"/>
  <path id="Path_14305" data-name="Path 14305" d="M60.594,70.833h1.525a1.384,1.384,0,1,1,0,2.767H60.594a1.384,1.384,0,0,1,0-2.767Z" transform="translate(-18.432 -50.081)" fill-rule="evenodd"/>
  <path id="Path_14306" data-name="Path 14306" d="M51.823,70.833h1.525a1.384,1.384,0,0,1,0,2.767H51.823a1.384,1.384,0,1,1,0-2.767Z" transform="translate(-3.835 -50.081)" fill-rule="evenodd"/>
  <path id="Path_14307" data-name="Path 14307" d="M43.05,70.833h1.525a1.384,1.384,0,0,1,0,2.767H43.05a1.384,1.384,0,0,1,0-2.767Z" transform="translate(10.763 -50.081)" fill-rule="evenodd"/>
  <path id="Path_14308" data-name="Path 14308" d="M23.92,57.777,10.417,60.1c.238-1.816.534-3.668.924-5.36L25.1,52.083h.715Zm57.772-5.694h2.435a.332.332,0,0,1,.331.332v5.2H81.692Zm-44.27,5.534H26.89l1.845-5.534h8.687Zm13.834,0H40.189V52.083H51.256Zm13.835,0H54.023V52.083H65.091Zm13.834,0H67.857V52.083H78.925Z" transform="translate(-6.987 -43.782)" fill="#498ec6" fill-rule="evenodd"/>
  <g id="Group_4593" data-name="Group 4593" transform="translate(6.388 8.301)">
    <path id="Path_14309" data-name="Path 14309" d="M111.244,52.758,109.5,58,98.949,59.815c.188-1.368.409-2.747.681-4.052a1.23,1.23,0,0,1,.971-.953l10.643-2.052Z" transform="translate(-98.949 -52.31)" fill="#5d9ccf" fill-rule="evenodd"/>
    <path id="Path_14310" data-name="Path 14310" d="M83.095,52.083,81.25,57.617h7.643V52.083Z" transform="translate(-64.845 -52.083)" fill="#5d9ccf" fill-rule="evenodd"/>
    <path id="Path_14311" data-name="Path 14311" d="M68.6,52.083H60.417v5.534H68.6Z" transform="translate(-30.713 -52.083)" fill="#5d9ccf" fill-rule="evenodd"/>
    <path id="Path_14312" data-name="Path 14312" d="M47.761,52.083H39.583v5.534h8.178Z" transform="translate(3.956 -52.083)" fill="#5d9ccf" fill-rule="evenodd"/>
    <path id="Path_14313" data-name="Path 14313" d="M26.928,52.083H18.75v5.534h8.178Z" transform="translate(38.623 -52.083)" fill="#5d9ccf" fill-rule="evenodd"/>
    <path id="Path_14314" data-name="Path 14314" d="M10.417,52.083h1.26a.332.332,0,0,1,.331.332v5.2H10.417Z" transform="translate(59.077 -52.083)" fill="#5d9ccf" fill-rule="evenodd"/>
  </g>
  <path id="Path_14315" data-name="Path 14315" d="M110.874,43.75l-4.267,2.845L94.381,48.952q.1-.266.2-.519a7.218,7.218,0,0,1,7.024-4.682Z" transform="translate(-89.158 -40.983)" fill="#8e8e8e" fill-rule="evenodd"/>
  <path id="Path_14316" data-name="Path 14316" d="M101.369,43.75h6.376l-4.267,2.845-9.1,1.754A7.212,7.212,0,0,1,101.369,43.75Z" transform="translate(-86.029 -40.983)" fill="#9b9b9b" fill-rule="evenodd"/>
  <path id="Path_14317" data-name="Path 14317" d="M14.944,43.75H61.562a4.108,4.108,0,0,1,3.9,2.768H10.794Z" transform="translate(11.76 -40.983)" fill="#5a5a5a" fill-rule="evenodd"/>
  <path id="Path_14318" data-name="Path 14318" d="M10.794,46.517l4.15-2.767H58.673a4.109,4.109,0,0,1,3.9,2.767Z" transform="translate(14.649 -40.983)" fill="#656565" fill-rule="evenodd"/>
</svg>
