<svg width="12" height="12" viewBox="0 0 12 12" fill="none" xmlns="http://www.w3.org/2000/svg">
<g clip-path="url(#clip0_3883_10578)">
<path d="M3.94898 2.30808C3.84703 2.30756 3.74941 2.26683 3.67732 2.19474C3.60523 2.12265 3.5645 2.02503 3.56398 1.92308V0.385084C3.56132 0.332941 3.56929 0.280802 3.58741 0.231837C3.60553 0.182873 3.63343 0.138105 3.66939 0.100258C3.70536 0.062411 3.74865 0.0322745 3.79662 0.0116813C3.8446 -0.00891183 3.89627 -0.0195312 3.94848 -0.0195312C4.00069 -0.0195312 4.05235 -0.00891183 4.10033 0.0116813C4.14831 0.0322745 4.1916 0.062411 4.22756 0.100258C4.26353 0.138105 4.29142 0.182873 4.30954 0.231837C4.32766 0.280802 4.33564 0.332941 4.33298 0.385084V1.92308C4.33245 2.02486 4.29186 2.12233 4.21999 2.19439C4.14812 2.26645 4.05075 2.3073 3.94898 2.30808Z" fill="black"/>
<path d="M8.052 2.30808C7.95006 2.30756 7.85244 2.26683 7.78035 2.19474C7.70826 2.12265 7.66753 2.02503 7.667 1.92308V0.385084C7.66434 0.332941 7.67232 0.280802 7.69044 0.231837C7.70856 0.182873 7.73645 0.138105 7.77242 0.100258C7.80838 0.062411 7.85167 0.0322745 7.89965 0.0116813C7.94763 -0.00891183 7.99929 -0.0195313 8.0515 -0.0195312C8.10371 -0.0195313 8.15538 -0.00891183 8.20336 0.0116813C8.25133 0.0322745 8.29462 0.062411 8.33059 0.100258C8.36655 0.138105 8.39445 0.182873 8.41257 0.231837C8.43069 0.280802 8.43866 0.332941 8.436 0.385084V1.92308C8.43548 2.02486 8.39489 2.12233 8.32301 2.19439C8.25114 2.26645 8.15378 2.3073 8.052 2.30808Z" fill="black"/>
<path d="M4.20503 6.79454C4.13797 6.79383 4.07171 6.7799 4.01003 6.75354C3.91466 6.71751 3.83283 6.65274 3.77586 6.56819C3.71889 6.48363 3.6896 6.38347 3.69203 6.28154C3.69275 6.21448 3.70668 6.14821 3.73303 6.08654C3.75916 6.02447 3.79568 5.96732 3.84103 5.91754C3.88997 5.87109 3.94733 5.83444 4.01003 5.80954C4.10371 5.77175 4.20631 5.76184 4.30548 5.781C4.40466 5.80016 4.49618 5.84758 4.56903 5.91754C4.66278 6.01577 4.71599 6.14577 4.71803 6.28154C4.71688 6.31506 4.71354 6.34846 4.70803 6.38154C4.70235 6.41358 4.6919 6.44459 4.67703 6.47354C4.66585 6.50611 4.65038 6.53705 4.63103 6.56554C4.61196 6.59245 4.59125 6.61816 4.56903 6.64254C4.4708 6.73628 4.3408 6.7895 4.20503 6.79154V6.79454Z" fill="black"/>
<path d="M5.99996 6.79531C5.93289 6.7946 5.86663 6.78066 5.80496 6.75431C5.70958 6.71828 5.62775 6.65351 5.57078 6.56895C5.51382 6.4844 5.48452 6.38423 5.48696 6.28231C5.48767 6.21524 5.5016 6.14898 5.52796 6.08731C5.55408 6.02524 5.59061 5.96809 5.63596 5.91831C5.68489 5.87186 5.74225 5.8352 5.80496 5.81031C5.89841 5.77123 6.00132 5.76063 6.10078 5.77984C6.20023 5.79906 6.29179 5.84723 6.36396 5.91831C6.4577 6.01654 6.51091 6.14654 6.51296 6.28231C6.5118 6.31582 6.50846 6.34923 6.50296 6.38231C6.49727 6.41435 6.48682 6.44536 6.47196 6.47431C6.46077 6.50688 6.44531 6.53782 6.42596 6.56631C6.40688 6.59322 6.38618 6.61893 6.36396 6.64331C6.26572 6.73705 6.13573 6.79026 5.99996 6.79231V6.79531Z" fill="black"/>
<path d="M7.79474 6.79462C7.72767 6.79391 7.66141 6.77998 7.59974 6.75362C7.53703 6.72873 7.47967 6.69207 7.43074 6.64562L7.36874 6.56862C7.34939 6.54013 7.33392 6.50919 7.32274 6.47662C7.30787 6.44767 7.29742 6.41666 7.29174 6.38462C7.28623 6.35154 7.28289 6.31814 7.28174 6.28462C7.28378 6.14885 7.337 6.01885 7.43074 5.92062C7.47967 5.87417 7.53703 5.83751 7.59974 5.81262C7.69314 5.77327 7.79612 5.76253 7.89563 5.78176C7.99515 5.80098 8.08671 5.84931 8.15874 5.92062C8.25248 6.01885 8.30569 6.14885 8.30774 6.28462C8.30658 6.31814 8.30324 6.35154 8.29774 6.38462C8.29205 6.41666 8.28161 6.44767 8.26674 6.47662C8.25556 6.50919 8.24009 6.54013 8.22074 6.56862C8.20166 6.59553 8.18096 6.62124 8.15874 6.64562C8.0605 6.73936 7.93051 6.79258 7.79474 6.79462Z" fill="black"/>
<path d="M4.20489 8.59054C4.13783 8.58983 4.07157 8.5759 4.00989 8.54954C3.94783 8.52341 3.89068 8.48689 3.84089 8.44154C3.74715 8.34331 3.69394 8.21331 3.69189 8.07754C3.69261 8.01048 3.70654 7.94421 3.73289 7.88254C3.75654 7.8192 3.79335 7.7616 3.84089 7.71354C3.90059 7.65314 3.97429 7.60844 4.05543 7.58342C4.13658 7.55839 4.22266 7.55382 4.306 7.57011C4.38934 7.5864 4.46736 7.62305 4.53311 7.67679C4.59886 7.73053 4.6503 7.79969 4.68285 7.87813C4.71541 7.95656 4.72806 8.04182 4.71969 8.12632C4.71131 8.21083 4.68218 8.29195 4.63487 8.36247C4.58756 8.43299 4.52354 8.49071 4.44852 8.5305C4.37351 8.5703 4.28981 8.59092 4.20489 8.59054Z" fill="black"/>
<path d="M5.99984 8.59048C5.93229 8.59115 5.86528 8.57834 5.80274 8.55279C5.74019 8.52725 5.68338 8.48949 5.63561 8.44172C5.58784 8.39395 5.55007 8.33713 5.52453 8.27459C5.49899 8.21204 5.48617 8.14503 5.48684 8.07748C5.48755 8.01042 5.50149 7.94415 5.52784 7.88248C5.55149 7.81914 5.5883 7.76154 5.63584 7.71348C5.73501 7.62205 5.86496 7.57129 5.99984 7.57129C6.13473 7.57129 6.26467 7.62205 6.36384 7.71348C6.41139 7.76154 6.4482 7.81914 6.47184 7.88248C6.4982 7.94415 6.51213 8.01042 6.51284 8.07748C6.51351 8.14503 6.5007 8.21204 6.47515 8.27459C6.44961 8.33713 6.41185 8.39395 6.36408 8.44172C6.31631 8.48949 6.25949 8.52725 6.19695 8.55279C6.1344 8.57834 6.06739 8.59115 5.99984 8.59048Z" fill="black"/>
<path d="M7.79485 8.58966C7.65908 8.58762 7.52909 8.5344 7.43085 8.44066C7.38333 8.39258 7.34652 8.33498 7.32285 8.27166C7.29574 8.21023 7.28174 8.14381 7.28174 8.07666C7.28174 8.00951 7.29574 7.94309 7.32285 7.88166C7.34652 7.81834 7.38333 7.76074 7.43085 7.71266C7.4906 7.65349 7.56401 7.60994 7.64459 7.58587C7.72517 7.5618 7.81043 7.55795 7.89285 7.57466C7.92771 7.57923 7.96152 7.58971 7.99285 7.60566C8.02542 7.61684 8.05636 7.63231 8.08485 7.65166C8.11176 7.67074 8.13747 7.69144 8.16185 7.71366C8.23411 7.78541 8.28337 7.87705 8.30337 7.97689C8.32338 8.07673 8.31322 8.18027 8.27418 8.27432C8.23515 8.36837 8.169 8.44867 8.08418 8.50501C7.99935 8.56134 7.89968 8.59116 7.79785 8.59066L7.79485 8.58966Z" fill="black"/>
<path d="M10.3589 4.40524H1.64094C1.5888 4.4079 1.53666 4.39993 1.4877 4.38181C1.43873 4.36368 1.39396 4.33579 1.35612 4.29983C1.31827 4.26386 1.28813 4.22057 1.26754 4.1726C1.24695 4.12462 1.23633 4.07295 1.23633 4.02074C1.23633 3.96853 1.24695 3.91687 1.26754 3.86889C1.28813 3.82091 1.31827 3.77762 1.35612 3.74166C1.39396 3.70569 1.43873 3.6778 1.4877 3.65968C1.53666 3.64156 1.5888 3.63358 1.64094 3.63624H10.3589C10.4575 3.64127 10.5504 3.68398 10.6184 3.75553C10.6864 3.82709 10.7243 3.92203 10.7243 4.02074C10.7243 4.11945 10.6864 4.2144 10.6184 4.28595C10.5504 4.35751 10.4575 4.40021 10.3589 4.40524Z" fill="black"/>
<path d="M8.04983 11.0254H3.94983C3.55243 11.0667 3.1508 11.019 2.7742 10.8855C2.39761 10.752 2.05554 10.5362 1.77292 10.2537C1.4903 9.97131 1.27424 9.62939 1.1405 9.25289C1.00676 8.87638 0.958703 8.47479 0.999827 8.07736V3.71936C0.958383 3.32177 1.0062 2.91995 1.1398 2.54319C1.2734 2.16644 1.4894 1.82425 1.77206 1.54159C2.05472 1.25894 2.39691 1.04293 2.77366 0.909332C3.15042 0.775735 3.55224 0.727914 3.94983 0.769358H8.04983C8.44741 0.727914 8.84924 0.775735 9.22599 0.909332C9.60275 1.04293 9.94493 1.25894 10.2276 1.54159C10.5102 1.82425 10.7263 2.16644 10.8599 2.54319C10.9934 2.91995 11.0413 3.32177 10.9998 3.71936V8.07836C11.0408 8.47571 10.9926 8.87719 10.8588 9.25357C10.725 9.62995 10.5089 9.97174 10.2263 10.2541C9.94371 10.5364 9.60169 10.7521 9.22518 10.8855C8.84867 11.019 8.44714 11.0667 8.04983 11.0254ZM3.94983 1.53836C3.65309 1.49347 3.34996 1.51892 3.06486 1.61266C2.77976 1.70639 2.52067 1.86578 2.30846 2.07799C2.09625 2.2902 1.93686 2.5493 1.84313 2.83439C1.74939 3.11949 1.72394 3.42262 1.76883 3.71936V8.07836C1.72447 8.37487 1.75031 8.67765 1.84428 8.96235C1.93825 9.24705 2.09771 9.50573 2.30986 9.71759C2.522 9.92944 2.7809 10.0885 3.06573 10.1821C3.35056 10.2757 3.65338 10.3011 3.94983 10.2564H8.04983C8.34622 10.3008 8.64891 10.2751 8.93357 10.1813C9.21822 10.0875 9.47691 9.92829 9.68884 9.71637C9.90076 9.50444 10.06 9.24576 10.1538 8.9611C10.2476 8.67644 10.2733 8.37375 10.2288 8.07736V3.71936C10.2736 3.42281 10.2482 3.11989 10.1546 2.83497C10.0609 2.55005 9.90174 2.29109 9.68977 2.07892C9.47779 1.86676 9.21898 1.70731 8.93414 1.61343C8.64931 1.51954 8.34641 1.49382 8.04983 1.53836H3.94983Z" fill="black"/>
</g>
<defs>
<clipPath id="clip0_3883_10578">
<rect width="10" height="11.026" fill="white" transform="translate(1)"/>
</clipPath>
</defs>
</svg>
