<svg xmlns="http://www.w3.org/2000/svg" width="11.087" height="11.087" viewBox="0 0 11.087 11.087">
  <path id="calendar_5890309" d="M26.242,24.841a.841.841,0,0,1,1.682,0v.28h2.99v-.28a.841.841,0,1,1,1.682,0v.28H33.9a.934.934,0,0,1,.934.934V33.9a.934.934,0,0,1-.934.934H24.934A.934.934,0,0,1,24,33.9V26.055a.934.934,0,0,1,.934-.934h1.308Zm6.353.654v.467a.841.841,0,1,1-1.682,0v-.467h-2.99v.467a.841.841,0,1,1-1.682,0v-.467H24.934a.561.561,0,0,0-.561.561v.934h10.09v-.934a.561.561,0,0,0-.561-.561Zm-5.512-1.121a.467.467,0,0,0-.467.467v1.121a.467.467,0,0,0,.934,0V24.841A.467.467,0,0,0,27.083,24.374Zm-2.709,2.99V33.9a.561.561,0,0,0,.561.561H33.9a.561.561,0,0,0,.561-.561v-6.54Zm6.913-2.522a.467.467,0,1,1,.934,0v1.121a.467.467,0,0,1-.934,0Zm-5.792,4.017a.374.374,0,0,1,.374-.374H26.99a.374.374,0,0,1,.374.374v1.121a.374.374,0,0,1-.374.374H25.868a.374.374,0,0,1-.374-.374Zm1.495,0H25.868v1.121H26.99Zm-1.121,2.616a.374.374,0,0,0-.374.374v1.121a.374.374,0,0,0,.374.374H26.99a.374.374,0,0,0,.374-.374V31.848a.374.374,0,0,0-.374-.374Zm0,.374H26.99v1.121H25.868Zm2.616-2.99a.374.374,0,0,1,.374-.374h1.121a.374.374,0,0,1,.374.374v1.121a.374.374,0,0,1-.374.374H28.858a.374.374,0,0,1-.374-.374Zm1.495,0H28.858v1.121h1.121Zm-1.121,2.616a.374.374,0,0,0-.374.374v1.121a.374.374,0,0,0,.374.374h1.121a.374.374,0,0,0,.374-.374V31.848a.374.374,0,0,0-.374-.374Zm0,.374h1.121v1.121H28.858Zm2.616,0a.374.374,0,0,1,.374-.374h1.121a.374.374,0,0,1,.374.374v1.121a.374.374,0,0,1-.374.374H31.848a.374.374,0,0,1-.374-.374Zm1.495,0H31.848v1.121h1.121ZM33.5,28.59a.187.187,0,0,0-.308-.212l-.9,1.31-.5-.5a.187.187,0,0,0-.264.264l.654.654a.187.187,0,0,0,.286-.026Z" transform="translate(-23.875 -23.875)" fill="#fff" stroke="#fff" stroke-width="0.25" fill-rule="evenodd"/>
</svg>
