<svg xmlns="http://www.w3.org/2000/svg" width="17.629" height="7.319" viewBox="0 0 17.629 7.319">
  <g id="car_7176770" transform="translate(-0.001 -20.468)">
    <path id="Path_12692" data-name="Path 12692" d="M10.1,20.468a8.293,8.293,0,0,0-5.111,1.69c-.148.1-.275.19-.385.258-.462.009-2.9.11-4.177,1.254a.414.414,0,0,0-.03.03,1.97,1.97,0,0,0-.362.988v.005c0,.006,0,.012,0,.018v0c0,.006,0,.011,0,.017v.007c-.01.156-.018.636-.025,1.434a.367.367,0,0,0,.366.368H2.188a1.793,1.793,0,0,0,3.416,0h6.486a1.793,1.793,0,0,0,3.416,0h1.616a.508.508,0,0,0,.507-.548l-.247-3.151a.566.566,0,0,0-.259-.425l-.009-.007c-.05-.033-.11-.056-.888-.149-.32-.15-1.92-.9-2.005-.938a10.306,10.306,0,0,0-4.124-.853ZM.727,24.108l.829-.01c.039.056.028.076.017.095a.837.837,0,0,1-.378.233.818.818,0,0,1-.294.054H.578a1.524,1.524,0,0,1,.149-.371ZM3.9,27.283a1.29,1.29,0,1,1,1.29-1.29,1.291,1.291,0,0,1-1.29,1.29Zm9.9,0a1.29,1.29,0,1,1,1.29-1.29,1.291,1.291,0,0,1-1.29,1.29Zm2.616-4.094.472-.235.058.741H16.6a1.629,1.629,0,0,1-.213-.442A.052.052,0,0,1,16.414,23.189Zm-6.127-2.213a9.63,9.63,0,0,1,3.458.7l-.476.744H10.13Zm-.507,0-.157,1.439H5.5a7.56,7.56,0,0,1,4.28-1.439Zm-5.1,1.943h8.73a.252.252,0,0,0,.212-.116l.6-.93c.38.176,1.229.575,1.835.86a.255.255,0,0,0,.077.022l.029,0a.552.552,0,0,0-.248.648,2.046,2.046,0,0,0,.319.63.436.436,0,0,0,.342.162h.414l.14,1.838H15.59c0-.015,0-.029,0-.043a1.794,1.794,0,0,0-3.588,0c0,.014,0,.028,0,.043H5.687c0-.015,0-.029,0-.043a1.794,1.794,0,0,0-3.588,0c0,.014,0,.028,0,.043H.506c0-.4.01-.811.015-1.053H.9a1.323,1.323,0,0,0,.476-.088,1.193,1.193,0,0,0,.635-.453.579.579,0,0,0-.045-.639.5.5,0,0,0-.4-.2H1.418a8.577,8.577,0,0,1,3.258-.687Z" transform="translate(0)"/>
    <path id="Path_12693" data-name="Path 12693" d="M13.022,39.143a.822.822,0,1,0,.822.822A.822.822,0,0,0,13.022,39.143Zm0,1.14a.318.318,0,1,1,.318-.318.318.318,0,0,1-.318.318Z" transform="translate(-9.127 -13.972)"/>
    <path id="Path_12694" data-name="Path 12694" d="M52.344,39.143a.822.822,0,1,0,.822.822A.822.822,0,0,0,52.344,39.143Zm0,1.14a.318.318,0,1,1,.318-.318.318.318,0,0,1-.318.318Z" transform="translate(-38.546 -13.972)"/>
    <path id="Path_12695" data-name="Path 12695" d="M31.874,33.05h.649a.252.252,0,0,0,0-.5h-.649a.252.252,0,1,0,0,.5Z" transform="translate(-23.657 -9.036)"/>
    <path id="Path_12696" data-name="Path 12696" d="M47.314,33.05h.648a.252.252,0,0,0,0-.5h-.648a.252.252,0,1,0,0,.5Z" transform="translate(-35.209 -9.036)"/>
  </g>
</svg>
