<svg width="12" height="12" viewBox="0 0 12 12" fill="none" xmlns="http://www.w3.org/2000/svg">
<rect width="12" height="12" fill="white"/>
<g clip-path="url(#clip0_3282_7597)">
<path d="M6.80174 3.7161C5.65101 3.70321 4.52882 4.07427 3.61262 4.77062C3.52027 4.83301 3.44102 4.88917 3.37239 4.9316C3.08411 4.93722 1.56287 5.00024 0.766057 5.71406C0.759501 5.71998 0.753253 5.72622 0.747337 5.73278C0.617542 5.91399 0.539464 6.12709 0.52146 6.34926V6.35238C0.52146 6.35613 0.52146 6.35987 0.52146 6.36362C0.52146 6.36736 0.52146 6.37048 0.52146 6.37422V6.37859C0.51522 6.47593 0.510228 6.77544 0.50586 7.27337C0.505778 7.30344 0.51162 7.33323 0.523053 7.36105C0.534485 7.38886 0.551284 7.41415 0.572491 7.43547C0.593697 7.4568 0.618896 7.47373 0.646648 7.48532C0.6744 7.4969 0.704162 7.50291 0.734234 7.50299H1.86487C1.93704 7.72896 2.07918 7.92615 2.27075 8.06606C2.46231 8.20598 2.69339 8.28138 2.93061 8.28138C3.16784 8.28138 3.39892 8.20598 3.59048 8.06606C3.78205 7.92615 3.92419 7.72896 3.99636 7.50299H8.04344C8.11561 7.72896 8.25775 7.92615 8.44932 8.06606C8.64088 8.20598 8.87196 8.28138 9.10918 8.28138C9.34641 8.28138 9.57749 8.20598 9.76905 8.06606C9.96062 7.92615 10.1028 7.72896 10.1749 7.50299H11.1833C11.227 7.50304 11.2703 7.49403 11.3104 7.47652C11.3505 7.45902 11.3866 7.4334 11.4163 7.40127C11.446 7.36915 11.4688 7.33123 11.4831 7.28988C11.4974 7.24854 11.5031 7.20468 11.4996 7.16105L11.3455 5.19492C11.3406 5.14132 11.3234 5.08957 11.2954 5.04361C11.2674 4.99764 11.2293 4.95869 11.1839 4.92973L11.1783 4.92536C11.1471 4.90477 11.1096 4.89042 10.6242 4.83239C10.4245 4.73879 9.42616 4.27081 9.37312 4.2471C8.56115 3.89446 7.68511 3.71326 6.79986 3.71485L6.80174 3.7161ZM0.953248 5.98736L1.47052 5.98112C1.49486 6.01606 1.48799 6.02854 1.48113 6.0404C1.41703 6.10921 1.33554 6.15944 1.24527 6.18578C1.18671 6.20819 1.12452 6.21961 1.06182 6.21948H0.860276C0.880967 6.13856 0.912226 6.06011 0.953248 5.98736ZM2.93311 7.96847C2.77391 7.96847 2.61829 7.92126 2.48592 7.83282C2.35355 7.74437 2.25038 7.61866 2.18946 7.47158C2.12854 7.3245 2.1126 7.16265 2.14365 7.00651C2.17471 6.85037 2.25137 6.70695 2.36394 6.59438C2.47651 6.48181 2.61994 6.40515 2.77608 6.37409C2.93222 6.34303 3.09406 6.35897 3.24114 6.41989C3.38822 6.48082 3.51393 6.58399 3.60238 6.71635C3.69083 6.84872 3.73803 7.00435 3.73803 7.16355C3.73787 7.37698 3.65301 7.58161 3.5021 7.73253C3.35118 7.88345 3.14654 7.96831 2.93311 7.96847ZM9.11043 7.96847C8.95123 7.96847 8.79561 7.92126 8.66324 7.83282C8.53087 7.74437 8.4277 7.61866 8.36678 7.47158C8.30586 7.3245 8.28992 7.16265 8.32098 7.00651C8.35203 6.85037 8.4287 6.70695 8.54127 6.59438C8.65384 6.48181 8.79726 6.40515 8.9534 6.37409C9.10954 6.34303 9.27138 6.35897 9.41846 6.41989C9.56554 6.48082 9.69126 6.58399 9.7797 6.71635C9.86815 6.84872 9.91536 7.00435 9.91536 7.16355C9.91519 7.37698 9.83033 7.58161 9.67942 7.73253C9.5285 7.88345 9.32386 7.96831 9.11043 7.96847ZM10.7427 5.41393L11.0373 5.2673L11.0734 5.72966H10.8576C10.7996 5.64496 10.7548 5.55198 10.7246 5.45386C10.722 5.4463 10.7223 5.43804 10.7254 5.43067C10.7285 5.4233 10.7343 5.41734 10.7415 5.41393H10.7427ZM6.91967 4.03308C7.65966 4.04455 8.39117 4.19263 9.07736 4.46986L8.78035 4.9341H6.82046L6.91967 4.03308ZM6.60331 4.03308L6.50535 4.93098H3.93147C4.70941 4.36661 5.64118 4.05333 6.60207 4.03308H6.60331ZM3.42106 5.24546H8.86833C8.89468 5.24544 8.9206 5.23881 8.94371 5.22616C8.96683 5.21351 8.98639 5.19526 9.00061 5.17308L9.375 4.59278C9.61211 4.7026 10.1419 4.95157 10.52 5.1294C10.5352 5.13648 10.5514 5.14111 10.568 5.14313H10.5861C10.518 5.18266 10.4654 5.24436 10.4373 5.31794C10.4091 5.39152 10.407 5.47253 10.4314 5.54746C10.4744 5.68904 10.5418 5.82206 10.6304 5.94056C10.6561 5.97236 10.6886 5.99796 10.7256 6.01546C10.7625 6.03296 10.8029 6.04191 10.8438 6.04165H11.1022L11.1895 7.18851H10.2273C10.2273 7.17915 10.2273 7.17041 10.2273 7.16167C10.2273 6.86479 10.1094 6.58007 9.89948 6.37014C9.68955 6.16021 9.40482 6.04227 9.10794 6.04227C8.81105 6.04227 8.52633 6.16021 8.3164 6.37014C8.10647 6.58007 7.98853 6.86479 7.98853 7.16167C7.98853 7.17041 7.98853 7.17915 7.98853 7.18851H4.04815C4.04815 7.17915 4.04815 7.17041 4.04815 7.16167C4.04815 6.86479 3.93021 6.58007 3.72028 6.37014C3.51035 6.16021 3.22563 6.04227 2.92874 6.04227C2.63186 6.04227 2.34713 6.16021 2.1372 6.37014C1.92727 6.58007 1.80934 6.86479 1.80934 7.16167C1.80934 7.17041 1.80934 7.17915 1.80934 7.18851H0.81535C0.81535 6.93892 0.82159 6.68246 0.82471 6.53146H1.0612C1.16273 6.53158 1.26342 6.51297 1.35821 6.47655C1.51822 6.42939 1.65776 6.32985 1.75443 6.19389C1.7895 6.13205 1.80555 6.06122 1.80055 5.9903C1.79556 5.91937 1.76974 5.8515 1.72635 5.79518C1.69729 5.75643 1.65961 5.72498 1.61628 5.70332C1.57296 5.68166 1.52519 5.67038 1.47676 5.67038H1.38441C2.02754 5.39607 2.71818 5.25044 3.41731 5.24171L3.42106 5.24546Z" fill="black"/>
<path d="M2.9299 6.65039C2.82845 6.65039 2.72929 6.68047 2.64494 6.73683C2.5606 6.79319 2.49486 6.87329 2.45604 6.96701C2.41721 7.06073 2.40706 7.16386 2.42685 7.26336C2.44664 7.36285 2.49549 7.45424 2.56722 7.52597C2.63895 7.5977 2.73034 7.64655 2.82983 7.66634C2.92933 7.68613 3.03246 7.67598 3.12618 7.63716C3.2199 7.59834 3.3 7.5326 3.35636 7.44825C3.41272 7.3639 3.4428 7.26474 3.4428 7.16329C3.4428 7.09594 3.42954 7.02924 3.40376 6.96701C3.37798 6.90478 3.3402 6.84824 3.29258 6.80062C3.24495 6.75299 3.18841 6.71521 3.12618 6.68943C3.06395 6.66366 2.99725 6.65039 2.9299 6.65039ZM2.9299 7.36172C2.89065 7.36172 2.85229 7.35008 2.81966 7.32828C2.78703 7.30647 2.7616 7.27548 2.74658 7.23923C2.73156 7.20297 2.72763 7.16307 2.73529 7.12458C2.74294 7.08609 2.76184 7.05074 2.78959 7.02299C2.81734 6.99524 2.8527 6.97634 2.89119 6.96868C2.92968 6.96103 2.96957 6.96496 3.00583 6.97998C3.04209 6.99499 3.07308 7.02043 3.09488 7.05306C3.11668 7.08569 3.12832 7.12405 3.12832 7.16329C3.12832 7.21592 3.10741 7.26639 3.0702 7.3036C3.03299 7.34081 2.98252 7.36172 2.9299 7.36172Z" fill="black"/>
<path d="M9.10959 6.65039C9.00814 6.65039 8.90898 6.68047 8.82463 6.73683C8.74028 6.79319 8.67454 6.87329 8.63572 6.96701C8.5969 7.06073 8.58674 7.16386 8.60654 7.26336C8.62633 7.36285 8.67517 7.45424 8.7469 7.52597C8.81864 7.5977 8.91003 7.64655 9.00952 7.66634C9.10902 7.68613 9.21214 7.67598 9.30586 7.63716C9.39959 7.59834 9.47969 7.5326 9.53605 7.44825C9.59241 7.3639 9.62249 7.26474 9.62249 7.16329C9.62249 7.09594 9.60922 7.02924 9.58345 6.96701C9.55767 6.90478 9.51989 6.84824 9.47226 6.80062C9.42464 6.75299 9.36809 6.71521 9.30586 6.68943C9.24364 6.66366 9.17694 6.65039 9.10959 6.65039ZM9.10959 7.36172C9.07034 7.36172 9.03198 7.35008 8.99935 7.32828C8.96672 7.30647 8.94128 7.27548 8.92626 7.23923C8.91125 7.20297 8.90732 7.16307 8.91497 7.12458C8.92263 7.08609 8.94153 7.05074 8.96928 7.02299C8.99703 6.99524 9.03238 6.97634 9.07087 6.96868C9.10936 6.96103 9.14926 6.96496 9.18552 6.97998C9.22178 6.99499 9.25276 7.02043 9.27457 7.05306C9.29637 7.08569 9.30801 7.12405 9.30801 7.16329C9.30801 7.21592 9.2871 7.26639 9.24989 7.3036C9.21268 7.34081 9.16221 7.36172 9.10959 7.36172Z" fill="black"/>
<path d="M5.62721 5.92847H6.03216C6.07014 5.92366 6.10505 5.90516 6.13036 5.87644C6.15567 5.84772 6.16963 5.81075 6.16963 5.77248C6.16963 5.7342 6.15567 5.69723 6.13036 5.66851C6.10505 5.6398 6.07014 5.6213 6.03216 5.61648H5.62721C5.60507 5.61368 5.58258 5.61562 5.56125 5.62217C5.53991 5.62873 5.52022 5.63975 5.50347 5.65451C5.48673 5.66926 5.47332 5.68741 5.46413 5.70775C5.45495 5.72809 5.4502 5.75016 5.4502 5.77248C5.4502 5.79479 5.45495 5.81686 5.46413 5.8372C5.47332 5.85754 5.48673 5.87569 5.50347 5.89045C5.52022 5.9052 5.53991 5.91622 5.56125 5.92278C5.58258 5.92934 5.60507 5.93127 5.62721 5.92847Z" fill="black"/>
<path d="M8.05299 5.92847H8.45732C8.4953 5.92366 8.53021 5.90516 8.55552 5.87644C8.58083 5.84772 8.59479 5.81075 8.59479 5.77248C8.59479 5.7342 8.58083 5.69723 8.55552 5.66851C8.53021 5.6398 8.4953 5.6213 8.45732 5.61648H8.05299C8.03085 5.61368 8.00836 5.61562 7.98703 5.62217C7.96569 5.62873 7.946 5.63975 7.92926 5.65451C7.91251 5.66926 7.8991 5.68741 7.88991 5.70775C7.88073 5.72809 7.87598 5.75016 7.87598 5.77248C7.87598 5.79479 7.88073 5.81686 7.88991 5.8372C7.8991 5.85754 7.91251 5.87569 7.92926 5.89045C7.946 5.9052 7.96569 5.91622 7.98703 5.92278C8.00836 5.92934 8.03085 5.93127 8.05299 5.92847Z" fill="black"/>
</g>
<defs>
<clipPath id="clip0_3282_7597">
<rect width="11" height="4.56623" fill="white" transform="translate(0.5 3.7168)"/>
</clipPath>
</defs>
</svg>
