<svg id="car_683092" xmlns="http://www.w3.org/2000/svg" width="49.6" height="15.496" viewBox="0 0 49.6 15.496">
  <g id="Group_3970" data-name="Group 3970" transform="translate(6.596 7.361)">
    <path id="Path_12455" data-name="Path 12455" d="M52.007,255.877a3.93,3.93,0,0,0,.3,1.511,3.883,3.883,0,1,0-.3-1.511Z" transform="translate(-21.789 -252.003)" fill="#aab2bd"/>
    <path id="Path_12456" data-name="Path 12456" d="M367.808,252a3.876,3.876,0,0,0-3.874,3.874,3.929,3.929,0,0,0,.3,1.511,3.882,3.882,0,0,0,7.276-.356,4.053,4.053,0,0,0,.17-1.155A3.876,3.876,0,0,0,367.808,252Z" transform="translate(-363.934 -252.002)" fill="#aab2bd"/>
  </g>
  <path id="Path_12457" data-name="Path 12457" d="M475.907,247.723v.775l2.324-.775v-1.317A8.125,8.125,0,0,0,475.907,247.723Z" transform="translate(-474.735 -239.587)" fill="#e6e9ed"/>
  <path id="Path_12458" data-name="Path 12458" d="M17.2,201.229a42.614,42.614,0,0,0-10.073,2.557V205.1l-2.324.775v1.55l-.782.775.782.775v.775H9.449l1.077-.039a3.929,3.929,0,0,1-.3-1.511,3.874,3.874,0,1,1,7.748,0,4.053,4.053,0,0,1-.17,1.155l.945.4h20.92l1.077-.039a3.928,3.928,0,0,1-.3-1.511,3.874,3.874,0,1,1,7.283,1.844l1.24-.294s2.712,0,3.1-2.324c.318-1.906.775-3.874.775-3.874H48.965L51.29,202v-.775l-6.973-.775a18.893,18.893,0,0,0-2.913-1.24v.008l-.961.457s-1.55,1.55-21.695,1.55Z" transform="translate(-3.628 -196.967)" fill="#ed5565"/>
  <g id="Group_3971" data-name="Group 3971" transform="translate(37.449 2.247)" opacity="0.3">
    <path id="Path_12459" data-name="Path 12459" d="M11.132,209.751s2.712,0,3.1-2.324c.318-1.906.775-3.874.775-3.874L13.456,202v-.775l-6.973-.775a18.17,18.17,0,0,0-2.464-1.077l.325-.155v-.008a18.9,18.9,0,0,1,2.913,1.24l6.973.775V202l1.55,1.55s-.457,1.968-.775,3.874c-.387,2.324-3.1,2.324-3.1,2.324l-1.24.294c.036-.066.064-.138.1-.206Z" transform="translate(-4.019 -199.213)" fill="#fff"/>
  </g>
  <g id="Group_3972" data-name="Group 3972" transform="translate(0.39 4.262)" opacity="0.2">
    <path id="Path_12460" data-name="Path 12460" d="M350.969,226.209v-2.324a8.127,8.127,0,0,1,2.324-1.317c1.829-.783,10.073-2.557,10.073-2.557h2.106s-9.442,1.937-11.271,2.72a9.731,9.731,0,0,0-2.458,1.38v2.1l-.782.775.782.775v.775h-.775v-.775l-.782-.775Z" transform="translate(-350.187 -220.01)"/>
  </g>
  <path id="Path_12461" data-name="Path 12461" d="M134.467,180.019c-5.23,0-10.546,2.781-12.4,3.874h1.55c20.145,0,21.695-1.55,21.695-1.55l.961-.457v-.008A36.4,36.4,0,0,0,134.467,180.019Z" transform="translate(-108.501 -179.632)" fill="#5d9cec"/>
  <g id="Group_3973" data-name="Group 3973" transform="translate(22.656 0.492)" opacity="0.3">
    <path id="Path_12462" data-name="Path 12462" d="M253.159,184.753l-.918-3.424c.51-.1,1.023-.178,1.542-.235l.966,3.606C254.241,184.719,253.713,184.737,253.159,184.753Z" transform="translate(-252.241 -181.094)" fill="#fff"/>
  </g>
  <g id="Group_3974" data-name="Group 3974" transform="translate(21.896 0.801)" opacity="0.3">
    <path id="Path_12463" data-name="Path 12463" d="M273.649,187.662l-.881-3.288c.126-.029.253-.056.379-.083l.9,3.361Z" transform="translate(-272.768 -184.291)" fill="#fff"/>
  </g>
  <path id="Path_12464" data-name="Path 12464" d="M6.343,228.008l-2.324,1.55H7.893Z" transform="translate(41.318 -222.972)" fill="#e6e9ed"/>
  <path id="Path_12465" data-name="Path 12465" d="M4.019,228.318l.465-.31,1.55,1.55H5.259Z" transform="translate(43.177 -222.972)" fill="#fff"/>
  <g id="Group_3975" data-name="Group 3975" transform="translate(40.3 7.361)" opacity="0.5">
    <path id="Path_12466" data-name="Path 12466" d="M55.494,255.877a3.863,3.863,0,0,0-3.487-3.835,3.865,3.865,0,1,1,.387,7.709,3.651,3.651,0,0,1-.387-.039A3.856,3.856,0,0,0,55.494,255.877Z" transform="translate(-52.007 -252.003)" fill="#fff"/>
  </g>
  <g id="Group_3976" data-name="Group 3976" transform="translate(36.814 7.361)" opacity="0.2">
    <path id="Path_12467" data-name="Path 12467" d="M88.774,255.876a3.862,3.862,0,0,0,3.487,3.835,3.632,3.632,0,0,1-.387.039,3.879,3.879,0,1,1,.387-7.709A3.857,3.857,0,0,0,88.774,255.876Z" transform="translate(-87.999 -252.002)"/>
  </g>
  <g id="Group_3977" data-name="Group 3977" transform="translate(10.082 7.361)" opacity="0.5">
    <path id="Path_12468" data-name="Path 12468" d="M367.421,255.877a3.862,3.862,0,0,0-3.487-3.835,3.865,3.865,0,1,1,.388,7.709,3.664,3.664,0,0,1-.388-.039A3.856,3.856,0,0,0,367.421,255.877Z" transform="translate(-363.934 -252.003)" fill="#fff"/>
  </g>
  <g id="Group_3978" data-name="Group 3978" transform="translate(6.596 7.361)" opacity="0.2">
    <path id="Path_12469" data-name="Path 12469" d="M400.7,255.876a3.862,3.862,0,0,0,3.487,3.835,3.648,3.648,0,0,1-.387.039,3.879,3.879,0,1,1,.387-7.709A3.857,3.857,0,0,0,400.7,255.876Z" transform="translate(-399.925 -252.002)"/>
  </g>
  <g id="Group_3979" data-name="Group 3979">
    <path id="Path_12470" data-name="Path 12470" d="M45.341,189.191a3.406,3.406,0,0,0,3.481-2.648c.312-1.872.765-3.831.77-3.85a.388.388,0,0,0-.1-.362l-1.436-1.436v-.614a.387.387,0,0,0-.345-.385l-6.9-.766c-.7-.382-6.011-3.11-14.842-3.11a23.744,23.744,0,0,0-12.545,3.892C3.418,181.462,1,183.782.9,183.881a.387.387,0,0,0-.114.274v2.162l-.671.661a.385.385,0,0,0,0,.551L.9,188.3a.387.387,0,1,0,.544-.551l-.506-.5.506-.5a.388.388,0,0,0,.116-.275v-2.144c.572-.442,3.461-2.347,12.069-3.672a.393.393,0,0,0,.166-.067,23.362,23.362,0,0,1,12.172-3.8c9.072,0,14.476,3.018,14.53,3.048a.392.392,0,0,0,.149.049l6.629.737v.428a.387.387,0,0,0,.113.274l1.4,1.4c-.126.561-.476,2.152-.732,3.688-.33,1.978-2.62,2-2.717,2a.387.387,0,0,0,0,.775Z" transform="translate(-0.002 -176.019)"/>
    <path id="Path_12471" data-name="Path 12471" d="M16.384,226.33a.387.387,0,0,0,.214-.065l2.324-1.55a.387.387,0,1,0-.43-.645l-2.324,1.55a.387.387,0,0,0,.215.71Z" transform="translate(28.955 -219.357)"/>
    <path id="Path_12472" data-name="Path 12472" d="M.387,240.78H4.262a.387.387,0,0,0,0-.775H.387a.387.387,0,0,0,0,.775Z" transform="translate(44.951 -233.806)"/>
    <path id="Path_12473" data-name="Path 12473" d="M192.342,189.189a.387.387,0,0,0,.351-.223l.775-1.645a.387.387,0,0,0-.7-.33l-.775,1.645a.387.387,0,0,0,.185.515A.381.381,0,0,0,192.342,189.189Z" transform="translate(-162.5 -185.727)"/>
    <path id="Path_12474" data-name="Path 12474" d="M208.338,240.78h1.55a.387.387,0,1,0,0-.775h-1.55a.387.387,0,0,0,0,.775Z" transform="translate(-180.821 -233.806)"/>
    <path id="Path_12475" data-name="Path 12475" d="M88.566,288.768a.39.39,0,0,0,.391-.387.384.384,0,0,0-.384-.388h-.008a.387.387,0,1,0,0,.775Z" transform="translate(-47.9 -277.146)" fill="#3a3847"/>
    <path id="Path_12476" data-name="Path 12476" d="M52.25,256.526a4.261,4.261,0,1,0-4.261-4.261A4.266,4.266,0,0,0,52.25,256.526Zm0-7.748a3.487,3.487,0,1,1-3.487,3.487A3.49,3.49,0,0,1,52.25,248.778Z" transform="translate(-11.561 -241.03)"/>
    <path id="Path_12477" data-name="Path 12477" d="M88.367,265.549a.387.387,0,0,0,.387-.387v-.775a.387.387,0,1,0-.775,0v.775A.387.387,0,0,0,88.367,265.549Z" transform="translate(-47.678 -255.476)" fill="#3a3847"/>
    <path id="Path_12478" data-name="Path 12478" d="M88.367,305.539a.387.387,0,0,0,.387-.387v-.775a.387.387,0,1,0-.775,0v.775A.387.387,0,0,0,88.367,305.539Z" transform="translate(-47.678 -291.592)" fill="#3a3847"/>
    <path id="Path_12479" data-name="Path 12479" d="M64.372,288.768h.775a.387.387,0,1,0,0-.775h-.775a.387.387,0,1,0,0,.775Z" transform="translate(-22.133 -277.146)" fill="#3a3847"/>
    <path id="Path_12480" data-name="Path 12480" d="M104.363,288.768h.775a.387.387,0,1,0,0-.775h-.775a.387.387,0,1,0,0,.775Z" transform="translate(-65.998 -277.146)" fill="#3a3847"/>
    <path id="Path_12481" data-name="Path 12481" d="M71.4,272.352a.386.386,0,0,0,.274-.114l.548-.548a.387.387,0,1,0-.548-.548l-.548.548a.387.387,0,0,0,.274.661Z" transform="translate(-29.618 -261.825)" fill="#3a3847"/>
    <path id="Path_12482" data-name="Path 12482" d="M99.676,300.627a.386.386,0,0,0,.274-.114l.548-.548a.387.387,0,0,0-.548-.548l-.548.548a.387.387,0,0,0,.274.661Z" transform="translate(-60.63 -287.361)" fill="#3a3847"/>
    <path id="Path_12483" data-name="Path 12483" d="M71.951,300.627a.387.387,0,0,0,.274-.661l-.548-.548a.387.387,0,0,0-.548.548l.548.548A.386.386,0,0,0,71.951,300.627Z" transform="translate(-29.618 -287.361)" fill="#3a3847"/>
    <path id="Path_12484" data-name="Path 12484" d="M100.225,272.352a.387.387,0,0,0,.274-.661l-.548-.548a.387.387,0,1,0-.548.548l.548.548A.386.386,0,0,0,100.225,272.352Z" transform="translate(-60.631 -261.825)" fill="#3a3847"/>
    <path id="Path_12485" data-name="Path 12485" d="M400.492,288.768a.39.39,0,0,0,.391-.387.384.384,0,0,0-.384-.388h-.008a.387.387,0,0,0,0,.775Z" transform="translate(-390.044 -277.146)" fill="#3a3847"/>
    <path id="Path_12486" data-name="Path 12486" d="M364.173,256.526a4.261,4.261,0,1,0-4.262-4.261A4.266,4.266,0,0,0,364.173,256.526Zm0-7.748a3.487,3.487,0,1,1-3.487,3.487A3.491,3.491,0,0,1,364.173,248.778Z" transform="translate(-353.7 -241.03)"/>
    <path id="Path_12487" data-name="Path 12487" d="M400.289,265.549a.388.388,0,0,0,.387-.387v-.775a.387.387,0,1,0-.775,0v.775A.387.387,0,0,0,400.289,265.549Z" transform="translate(-389.816 -255.476)" fill="#3a3847"/>
    <path id="Path_12488" data-name="Path 12488" d="M400.289,305.539a.388.388,0,0,0,.387-.387v-.775a.387.387,0,1,0-.775,0v.775A.387.387,0,0,0,400.289,305.539Z" transform="translate(-389.816 -291.592)" fill="#3a3847"/>
    <path id="Path_12489" data-name="Path 12489" d="M376.294,288.768h.775a.387.387,0,1,0,0-.775h-.775a.387.387,0,0,0,0,.775Z" transform="translate(-364.273 -277.146)" fill="#3a3847"/>
    <path id="Path_12490" data-name="Path 12490" d="M416.287,288.768h.775a.387.387,0,0,0,0-.775h-.775a.387.387,0,1,0,0,.775Z" transform="translate(-408.139 -277.146)" fill="#3a3847"/>
    <path id="Path_12491" data-name="Path 12491" d="M383.325,272.352a.387.387,0,0,0,.274-.114l.548-.548a.387.387,0,1,0-.548-.548l-.548.548a.387.387,0,0,0,.274.661Z" transform="translate(-371.757 -261.825)" fill="#3a3847"/>
    <path id="Path_12492" data-name="Path 12492" d="M411.6,300.627a.387.387,0,0,0,.274-.114l.548-.548a.387.387,0,0,0-.548-.548l-.548.548a.387.387,0,0,0,.274.661Z" transform="translate(-402.77 -287.361)" fill="#3a3847"/>
    <path id="Path_12493" data-name="Path 12493" d="M383.873,300.627a.387.387,0,0,0,.274-.661l-.548-.548a.387.387,0,1,0-.548.548l.548.548A.385.385,0,0,0,383.873,300.627Z" transform="translate(-371.757 -287.361)" fill="#3a3847"/>
    <path id="Path_12494" data-name="Path 12494" d="M412.147,272.352a.387.387,0,0,0,.274-.661l-.548-.548a.387.387,0,1,0-.548.548l.548.548A.385.385,0,0,0,412.147,272.352Z" transform="translate(-402.77 -261.825)" fill="#3a3847"/>
    <path id="Path_12495" data-name="Path 12495" d="M128.357,202.338c19.736,0,21.8-1.493,21.969-1.663a.387.387,0,0,0-.522-.571c-.14.092-2.548,1.46-21.446,1.46a.387.387,0,0,0,0,.775Z" transform="translate(-113.236 -197.689)"/>
    <path id="Path_12496" data-name="Path 12496" d="M136.355,304.764h20.92a.387.387,0,0,0,0-.775h-20.92a.387.387,0,1,0,0,.775Z" transform="translate(-121.234 -291.592)"/>
    <path id="Path_12497" data-name="Path 12497" d="M448.278,304.764h5.436a.387.387,0,1,0,0-.775h-5.436a.387.387,0,1,0,0,.775Z" transform="translate(-447.891 -291.592)"/>
    <path id="Path_12498" data-name="Path 12498" d="M472.278,257.552a.386.386,0,0,0,.123-.02l2.325-.775a.387.387,0,0,0-.245-.735l-2.324.774a.387.387,0,0,0,.123.755Z" transform="translate(-471.104 -248.255)"/>
    <path id="Path_12499" data-name="Path 12499" d="M472.272,244.523a.388.388,0,0,0,.387-.387v-1.314a.387.387,0,1,0-.775,0v1.314A.387.387,0,0,0,472.272,244.523Z" transform="translate(-468.774 -236)"/>
  </g>
</svg>
