<svg xmlns="http://www.w3.org/2000/svg" width="95.304" height="31.599" viewBox="0 0 95.304 31.599">
  <g id="Artboard_2" data-name="Artboard 2" transform="translate(-80.014 -597.152)">
    <path id="Union_1" data-name="Union 1" d="M2822.53,11712.748c-.208-.306-.4-.62-.608-.929h.044a2.178,2.178,0,0,0-.021-.379,26.312,26.312,0,0,1-.523-11.57,19.062,19.062,0,0,1,1.3-4.159c.226-.535.985-1.211,1.461-1.182.553.032,1.155.7,1.561,1.226a5.136,5.136,0,0,1,.723,1.705,24.377,24.377,0,0,1,.82,8.978c-.153,1.787-.488,3.557-.747,5.382h27.6a1.18,1.18,0,0,0-.1-.282,14.162,14.162,0,0,1-2.716-11.117,8.617,8.617,0,0,1,3.2-6.032,5.433,5.433,0,0,1,8.507,2.978,4.024,4.024,0,0,1-.265-.306,5.719,5.719,0,0,0-5.85-2.7c-2.369.37-3.663,2.063-4.377,4.159-1.658,4.88-.594,9.26,2.678,13.164.265.314.585.585.967.964h-31.065c-.009-.1-.038-.171-.021-.221a25.139,25.139,0,0,0,.894-12.634,14.5,14.5,0,0,0-1.261-3.871c-.435-.941-1.223-.888-1.811-.024v0a3.229,3.229,0,0,0-.541,1.079,37.978,37.978,0,0,0-.937,4.933,23.778,23.778,0,0,0,1.24,10.838Zm63.167-1.54c-1.837-2.037-3.66-4.086-5.438-6.17a2.123,2.123,0,0,1-.023-3.055c.532-.69,1.2-1.284,1.681-2a5.053,5.053,0,0,1,4.732-2.2c6.514.1,13.028.088,19.539.123a6.536,6.536,0,0,1,1.026.065c2.075.347,4.594,4.659,3.789,6.705-.617,1.572-1.5,3.039-2.269,4.553-.068-.029-.138-.062-.209-.091.426-1.12.779-2.278,1.3-3.354a4.449,4.449,0,0,0-.379-4.762,8.659,8.659,0,0,1-.573-.964,2.436,2.436,0,0,0-2.369-1.37q-10.331-.031-20.662-.053a3.447,3.447,0,0,0-2.781,1.3c-.635.768-1.3,1.518-1.922,2.29-.876,1.085-.87,1.522.059,2.607,1.4,1.635,2.813,3.251,4.221,4.877a6.025,6.025,0,0,0,4.835,2.178q10.26.022,20.518.05a21.251,21.251,0,0,1-3.9.512.88.88,0,0,0-.6.235q-8.347,0-16.7.006h-.019A4.873,4.873,0,0,1,2885.7,11711.208Zm25.13-.564c.867-.314,1.723-.655,2.6-.935a1.522,1.522,0,0,0,1.208-1.385c.064-1.479.021-2.963.021-4.5-.506-.048-1.017-.1-1.526-.145l-.009-.111c.711-.153,1.426-.3,2.246-.479-.159-1.373-.309-2.684-.465-4.033-1.32.218-2.49.409-3.739.617.079-.155.085-.2.106-.205.688-.291,1.373-.585,2.063-.864.561-.227,1.026-.479.764-1.232-.408-1.176-.9-1.643-1.676-1.431-.976.265-1.931.594-2.9.894-.027-.041-.047-.083-.071-.124,1.014-.617,2.028-1.234,3.1-1.884-.206-.156-.412-.4-.485-.361-1.1.537-2.187,1.11-3.257,1.666-5.077-4.054-11.317-4.876-17.711-6.055.726,0,1.194-.039,1.652.006,2.387.226,4.777.429,7.158.72a54.6,54.6,0,0,1,10.87,2.223,6.608,6.608,0,0,1,4.233,3.941c1.57,3.945,1.529,8.034.879,12.146a1.74,1.74,0,0,1-1.658,1.531c-1.114.105-2.234.149-3.348.218v0C2910.868,11710.787,2910.848,11710.717,2910.827,11710.644Zm-37.976.079a2.566,2.566,0,0,1-2.243-1.316c-.908-1.556-1.808-3.122-2.61-4.732-.57-1.144-.159-1.762,1.12-1.7,2.731.135,5.459.355,8.187.544-.015.047-.032.091-.047.138-.153.012-.309.029-.465.032-2.022.026-4.045.035-6.07.085-.976.024-1.185.371-.773,1.244.344.731.773,1.423,1.111,2.157a4.03,4.03,0,0,0,3.354,2.481c.8.1,1.584.32,2.375.487.841.174,1.681.353,2.522.529-1.478.04-2.941.063-4.4.063Q2873.881,11710.739,2872.851,11710.723Zm-31.679-1.322a9.938,9.938,0,0,1-4.2-1.617,46.272,46.272,0,0,1-4.665-4.4h0c.076-.1.15-.206.226-.309,5.6,3.483,11.77,5.547,18.1,7.223C2847.457,11710.085,2844.291,11709.888,2841.172,11709.4Zm24.045-14.7a4.9,4.9,0,0,1-.229-.958,3.221,3.221,0,0,1,1.046-.1q4.489,1.11,8.957,2.29c.911.24,1.8.564,2.7.853-.012.044-.024.088-.038.132l-10.047-2.143c-.035.1-.073.2-.109.3a6.171,6.171,0,0,0,4.941,3.712c1.961.3,3.924.573,5.873.858-1.827,0-3.652-.021-5.476.006l-.17,0A7.642,7.642,0,0,1,2865.218,11694.7Zm13.1,4.95Zm1.141-3.121c-5.538-1.667-11.064-3.366-16.611-5a39.081,39.081,0,0,0-13.619-1.2c-2.549.162-5.1.412-7.649.45a7.325,7.325,0,0,1-5.944-2.657c-.7-.823-.7-1.673.167-2.246a11.258,11.258,0,0,1,7.278-2.2,5.179,5.179,0,0,1,4.212,4.415c-.365-.5-.685-.994-1.058-1.449a5.045,5.045,0,0,0-6.067-1.838,19.658,19.658,0,0,0-2.26.886c-2.237,1.008-2.275,1.643-.25,3.109,1.94,1.408,4.115,1.417,6.361,1.149a66.538,66.538,0,0,1,18.634.085,42.133,42.133,0,0,1,14.18,4.472c1.02.576,1.978,1.261,3.177,2.031-.241,0-.366.009-.447.009A.361.361,0,0,1,2879.454,11696.528Zm-52.385-7.607c2.4-.406,5.306,1.4,6.24,3.965l-.82-.523a11.966,11.966,0,0,0-5.57-1.975,3,3,0,0,0-2.957,1.393c-.579.873-1.067,1.806-1.555,2.646A5.591,5.591,0,0,1,2827.069,11688.921Zm26.015-.515a190.04,190.04,0,0,1,32.085.926C2874.345,11689.021,2863.524,11688.706,2853.083,11688.406Zm29.957-2.058a19.54,19.54,0,0,0-9.019-3.061,147.565,147.565,0,0,0-22.328-.265c-1.54.068-3.072.33-4.639.506.761,1.563,1.432,2.942,2.1,4.321a20.179,20.179,0,0,1-1.893-2.646c-1.423-2.24-3.474-2.852-5.991-2.369a25.015,25.015,0,0,0-7.843,3.175c-.285.167-.576.326-.864.487,3.369-2.7,7.119-4.65,11.49-4.909a192.8,192.8,0,0,1,28.775.2c5.662.512,10.027,3.583,14.236,7C2885.7,11688.024,2884.345,11687.222,2883.04,11686.349Z" transform="translate(-2741 -11084)"/>
  </g>
</svg>
