<svg xmlns="http://www.w3.org/2000/svg" width="41.274" height="41.594" viewBox="0 0 41.274 41.594">
  <g id="pail_1619258" transform="translate(-0.418 -0.001)">
    <path id="Path_12854" data-name="Path 12854" d="M45.027,7.84H38.59a17.31,17.31,0,0,0-14.634,8.066l-2.894,4.583L8.185,25.639A5.992,5.992,0,0,0,4.418,31.2v3.933a5.991,5.991,0,0,0,5.991,5.991H45.027Zm0,0" transform="translate(-3.668 -7.187)" fill="#e678a0"/>
    <path id="Path_12855" data-name="Path 12855" d="M4.418,319.84v1.331a5.991,5.991,0,0,0,5.991,5.991H45.027v-1.331H10.409A5.991,5.991,0,0,1,4.418,319.84Zm0,0" transform="translate(-3.667 -293.224)" fill="#d2648c"/>
    <path id="Path_12856" data-name="Path 12856" d="M38.59,7.84a17.31,17.31,0,0,0-14.634,8.066l-2.894,4.583L8.185,25.639A5.992,5.992,0,0,0,4.419,31.2v1.331A5.991,5.991,0,0,1,8.185,26.97L21.062,21.82l2.895-4.583A17.308,17.308,0,0,1,38.59,9.171h6.437V7.84Zm0,0" transform="translate(-3.668 -7.186)" fill="#fa8cb4"/>
    <path id="Path_12857" data-name="Path 12857" d="M41.359,37.791H6.742A6.332,6.332,0,0,1,.418,31.467V27.535a6.3,6.3,0,0,1,3.976-5.872l12.776-5.11,2.837-4.492A17.554,17.554,0,0,1,34.923,3.84h6.437a.333.333,0,0,1,.333.333V37.458a.333.333,0,0,1-.333.333ZM34.923,4.506A16.888,16.888,0,0,0,20.57,12.416L17.676,17a.331.331,0,0,1-.158.131L4.641,22.281a5.633,5.633,0,0,0-3.557,5.254v3.933a5.665,5.665,0,0,0,5.659,5.659H41.027V4.506Zm0,0" transform="translate(0 -3.519)"/>
    <path id="Path_12858" data-name="Path 12858" d="M256.161,41.166l-.239.424a1.332,1.332,0,0,0,1.16,1.985H275.3v-10.5l-5.045-.053a15.977,15.977,0,0,0-14.093,8.144Zm0,0" transform="translate(-234.084 -30.272)" fill="#aad2ff"/>
    <path id="Path_12859" data-name="Path 12859" d="M270.258,33.029a15.975,15.975,0,0,0-14.094,8.143l-.239.424a1.317,1.317,0,0,0,.008,1.317l.231-.41a15.975,15.975,0,0,1,14.094-8.143l5.045.053V33.082Zm0,0" transform="translate(-234.087 -30.279)" fill="#bee6ff"/>
    <path id="Path_12860" data-name="Path 12860" d="M271.635,40.24h-5.155a.333.333,0,1,1,0-.666H271.3V29.738l-4.716-.05a15.623,15.623,0,0,0-13.8,7.974l-.238.425a1,1,0,0,0,.87,1.488.333.333,0,0,1,0,.666,1.665,1.665,0,0,1-1.45-2.48l.238-.425a16.3,16.3,0,0,1,14.387-8.313l5.045.053a.333.333,0,0,1,.33.333v10.5a.333.333,0,0,1-.333.333Zm0,0" transform="translate(-230.419 -26.606)"/>
    <path id="Path_12861" data-name="Path 12861" d="M343.142,156.506h-2.751a.333.333,0,0,1,0-.666h2.751a.333.333,0,0,1,0,.666Zm0,0" transform="translate(-311.377 -142.871)"/>
    <path id="Path_12862" data-name="Path 12862" d="M10.376,231.84H7.432a5.982,5.982,0,0,0-2.253,3.888v2.1H9.267a2,2,0,0,0,1.745-1.028l1.11-2a2,2,0,0,0-1.746-2.967Zm0,0" transform="translate(-4.365 -212.547)" fill="#ffe885"/>
    <path id="Path_12863" data-name="Path 12863" d="M7.432,233.171h2.945a1.986,1.986,0,0,1,1.88,1.333,2,2,0,0,0-1.88-2.665H7.432a5.982,5.982,0,0,0-2.253,3.888v1.331a5.982,5.982,0,0,1,2.253-3.888Zm0,0" transform="translate(-4.365 -212.547)" fill="#fffa96"/>
    <path id="Path_12864" data-name="Path 12864" d="M3.411,234.5h-1.9a.333.333,0,0,1-.333-.333v-2.1a6.294,6.294,0,0,1,2.381-4.151.326.326,0,0,1,.2-.071H6.71A2.33,2.33,0,0,1,8.747,231.3a.333.333,0,0,1-.582-.323,1.664,1.664,0,0,0-1.456-2.472H3.881a5.62,5.62,0,0,0-2.039,3.6l0,1.724H3.411a.333.333,0,0,1,0,.666Zm0,0" transform="translate(-0.698 -208.88)"/>
    <path id="Path_12865" data-name="Path 12865" d="M50.634,289.184a.333.333,0,1,1,0-.666,1.667,1.667,0,0,0,1.455-.856.333.333,0,1,1,.582.323A2.333,2.333,0,0,1,50.634,289.184Zm0,0" transform="translate(-45.732 -263.566)"/>
    <path id="Path_12866" data-name="Path 12866" d="M145.061,304.161a8.321,8.321,0,1,1-8.321-8.321A8.321,8.321,0,0,1,145.061,304.161Zm0,0" transform="translate(-117.349 -271.221)" fill="#8d7bd4"/>
    <path id="Path_12867" data-name="Path 12867" d="M136.739,395.5a8.317,8.317,0,0,1-8.288-7.656c-.018.22-.033.44-.033.666a8.321,8.321,0,0,0,16.643,0c0-.225-.016-.446-.033-.666A8.318,8.318,0,0,1,136.739,395.5Zm0,0" transform="translate(-117.349 -355.565)" fill="#826ec8"/>
    <path id="Path_12868" data-name="Path 12868" d="M136.739,297.171a8.317,8.317,0,0,1,8.288,7.656c.017-.22.033-.441.033-.666a8.321,8.321,0,0,0-16.643,0c0,.225.016.445.033.666A8.317,8.317,0,0,1,136.739,297.171Zm0,0" transform="translate(-117.349 -271.221)" fill="#968cd2"/>
    <path id="Path_12869" data-name="Path 12869" d="M133.072,309.149a8.654,8.654,0,1,1,8.654-8.654A8.664,8.664,0,0,1,133.072,309.149Zm0-16.643a7.989,7.989,0,1,0,7.989,7.989A8,8,0,0,0,133.072,292.506Zm0,0" transform="translate(-113.681 -267.554)"/>
    <path id="Path_12870" data-name="Path 12870" d="M188.407,351.834a3.994,3.994,0,1,1-3.994-3.994A3.994,3.994,0,0,1,188.407,351.834Zm0,0" transform="translate(-165.021 -318.894)" fill="#c9c9c9"/>
    <path id="Path_12871" data-name="Path 12871" d="M190.226,425.373a.348.348,0,0,1-.135-.028,4.379,4.379,0,0,1-1.488-1.087.333.333,0,0,1,.5-.442,3.7,3.7,0,0,0,1.26.92.333.333,0,0,1-.135.637Zm0,0" transform="translate(-172.448 -388.445)"/>
    <path id="Path_12872" data-name="Path 12872" d="M182.531,352.074a.333.333,0,0,1-.149-.63,3.662,3.662,0,1,0-5.3-3.277.333.333,0,0,1-.666,0,4.327,4.327,0,1,1,6.261,3.872A.334.334,0,0,1,182.531,352.074Zm0,0" transform="translate(-161.354 -315.226)"/>
    <path id="Path_12873" data-name="Path 12873" d="M395.081,59.84l.941,1.721,1.722.941-1.722.941-.941,1.722-.941-1.722-1.721-.941,1.721-.941Zm0,0" transform="translate(-359.38 -54.859)" fill="#ffe885"/>
    <path id="Path_12874" data-name="Path 12874" d="M394.139,62.227l.941-1.056.941,1.056,1.722.276-1.722-.941-.941-1.721-.941,1.721-1.721.941Zm0,0" transform="translate(-359.38 -54.859)" fill="#fffa96"/>
    <path id="Path_12875" data-name="Path 12875" d="M27.081,99.84l.941,1.722,1.721.941-1.721.941-.941,1.722-.941-1.722-1.721-.941,1.721-.941Zm0,0" transform="translate(-22.003 -91.531)" fill="#ffe885"/>
    <path id="Path_12876" data-name="Path 12876" d="M26.139,102.227l.941-1.056.941,1.056,1.721.276-1.721-.941-.941-1.722-.941,1.722-1.721.941Zm0,0" transform="translate(-22.003 -91.53)" fill="#fffa96"/>
    <path id="Path_12877" data-name="Path 12877" d="M140.412,3.84l1.412,2.582,2.582,1.412-2.582,1.412-1.412,2.583L139,9.246l-2.582-1.412L139,6.422Zm0,0" transform="translate(-124.683 -3.519)" fill="#ffe885"/>
    <path id="Path_12878" data-name="Path 12878" d="M139,7.753l1.412-2.582,1.412,2.582,2.031.081h.551l-2.582-1.412L140.412,3.84,139,6.422l-2.582,1.412h.551Zm0,0" transform="translate(-124.683 -3.519)" fill="#fffa96"/>
    <path id="Path_12879" data-name="Path 12879" d="M391.414,61.979a.332.332,0,0,1-.292-.173l-.895-1.636-1.636-.895a.332.332,0,0,1,0-.584l1.636-.895.895-1.636a.346.346,0,0,1,.584,0L392.6,57.8l1.636.895a.332.332,0,0,1,0,.583l-1.636.895-.895,1.636A.333.333,0,0,1,391.414,61.979Zm-1.969-3,1.188.649a.335.335,0,0,1,.132.133l.649,1.187.65-1.188a.336.336,0,0,1,.133-.133l1.187-.649-1.187-.65a.336.336,0,0,1-.133-.133l-.649-1.187-.65,1.187a.333.333,0,0,1-.132.133Zm0,0" transform="translate(-355.713 -51.34)"/>
    <path id="Path_12880" data-name="Path 12880" d="M23.414,101.979a.332.332,0,0,1-.292-.173l-.895-1.636-1.636-.9a.332.332,0,0,1,0-.583l1.636-.895.895-1.636a.346.346,0,0,1,.584,0L24.6,97.8l1.636.895a.332.332,0,0,1,0,.583l-1.636.895-.9,1.636A.332.332,0,0,1,23.414,101.979Zm-1.969-3,1.188.649a.335.335,0,0,1,.132.133l.649,1.187.65-1.188a.336.336,0,0,1,.133-.133l1.187-.649-1.187-.65a.336.336,0,0,1-.133-.133l-.649-1.187-.65,1.187a.333.333,0,0,1-.132.133Zm0,0" transform="translate(-18.336 -88.011)"/>
    <path id="Path_12881" data-name="Path 12881" d="M136.745,8.642a.332.332,0,0,1-.292-.173l-1.366-2.5-2.5-1.365a.333.333,0,0,1,0-.584l2.5-1.366,1.365-2.5a.346.346,0,0,1,.584,0l1.366,2.5,2.5,1.366a.332.332,0,0,1,0,.583l-2.5,1.366-1.366,2.5a.333.333,0,0,1-.292.173Zm-3.3-4.327,2.049,1.12a.338.338,0,0,1,.133.133l1.119,2.048,1.12-2.049A.334.334,0,0,1,138,5.434l2.048-1.119L138,3.194a.334.334,0,0,1-.133-.133l-1.12-2.048-1.12,2.048a.333.333,0,0,1-.132.133Zm0,0" transform="translate(-121.016)"/>
    <path id="Path_12882" data-name="Path 12882" d="M263.522,296.346h-13.7a.755.755,0,0,1-.752-.692l-1.451-17.416h18.108l-1.451,17.416a.754.754,0,0,1-.752.692Zm0,0" transform="translate(-226.629 -255.084)" fill="#ffe885"/>
    <g id="Group_4293" data-name="Group 4293" transform="translate(20.988 23.154)">
      <path id="Path_12883" data-name="Path 12883" d="M274.491,404.359a7.928,7.928,0,0,1-5.161,1.909h-6.035a7.928,7.928,0,0,1-5.161-1.909l.075.9a8.574,8.574,0,0,0,5.086,1.673h6.035a8.579,8.579,0,0,0,5.086-1.673Zm0,0" transform="translate(-257.258 -393.864)" fill="#f0dc78"/>
      <path id="Path_12884" data-name="Path 12884" d="M312.156,417.168V414.9a.666.666,0,0,1,.666-.666h6.79a.666.666,0,0,1,.666.666v2.263a.666.666,0,0,1-.666.666h-6.79A.666.666,0,0,1,312.156,417.168Zm0,0" transform="translate(-306.785 -402.922)" fill="#f0dc78"/>
      <path id="Path_12885" data-name="Path 12885" d="M279.5,477.563h-15.21c-.023,0-.044-.011-.067-.013l.069.83a.754.754,0,0,0,.751.691h13.7a.754.754,0,0,0,.752-.691l.069-.83C279.547,477.553,279.527,477.563,279.5,477.563Zm0,0" transform="translate(-262.845 -460.965)" fill="#f0dc78"/>
      <path id="Path_12886" data-name="Path 12886" d="M265.6,279.748l.126-1.509H247.617l.126,1.509Zm0,0" transform="translate(-247.617 -278.238)" fill="#f0dc78"/>
    </g>
    <path id="Path_12887" data-name="Path 12887" d="M259.859,293h-13.7a1.093,1.093,0,0,1-1.083-1l-1.451-17.416a.332.332,0,0,1,.3-.36.328.328,0,0,1,.359.3l1.451,17.416a.423.423,0,0,0,.419.387h13.7a.424.424,0,0,0,.42-.387l1.451-17.416a.329.329,0,0,1,.359-.3.333.333,0,0,1,.3.36L260.942,292A1.093,1.093,0,0,1,259.859,293Zm0,0" transform="translate(-222.966 -251.404)"/>
    <path id="Path_12888" data-name="Path 12888" d="M231.086,278.667h-6.035a8.642,8.642,0,0,1-8.632-8.632v-4.527a.333.333,0,0,1,.333-.333H218.2a.333.333,0,1,1,0,.666h-1.12v4.194A7.975,7.975,0,0,0,225.051,278h6.035a7.975,7.975,0,0,0,7.966-7.966v-4.194H237.89a.333.333,0,1,1,0-.666h1.5a.333.333,0,0,1,.333.333v4.527a8.642,8.642,0,0,1-8.632,8.632Zm0,0" transform="translate(-198.026 -243.108)"/>
    <path id="Path_12889" data-name="Path 12889" d="M320.156,414.238h6.79V416.5h-6.79Zm0,0" transform="translate(-293.131 -379.767)" fill="#c9c9c9"/>
    <path id="Path_12890" data-name="Path 12890" d="M320.156,414.238h6.79v1.132h-6.79Zm0,0" transform="translate(-293.131 -379.767)" fill="#c9c9c9"/>
    <path id="Path_12891" data-name="Path 12891" d="M323.279,413.168h-6.79a.333.333,0,0,1-.333-.333v-2.263a.333.333,0,0,1,.333-.333h1.7a.333.333,0,1,1,0,.666h-1.371v1.6h6.124v-1.6H320.4a.333.333,0,1,1,0-.666h2.883a.333.333,0,0,1,.333.333v2.263A.332.332,0,0,1,323.279,413.168Zm0,0" transform="translate(-289.464 -376.1)"/>
    <path id="Path_12892" data-name="Path 12892" d="M238.555,251.039h19.616V253.3H238.555Zm0,0" transform="translate(-218.321 -230.148)" fill="#ffe885"/>
    <path id="Path_12893" data-name="Path 12893" d="M238.555,251.039h19.616v.754H238.555Zm0,0" transform="translate(-218.321 -230.148)" fill="#fffa96"/>
    <path id="Path_12894" data-name="Path 12894" d="M304.329,274.9h-3.257a.333.333,0,1,1,0-.666h3.257a.333.333,0,1,1,0,.666Zm0,0" transform="translate(-275.33 -251.416)"/>
    <path id="Path_12895" data-name="Path 12895" d="M254.5,249.968h-7.413a.333.333,0,1,1,0-.666h7.08v-1.6H235.221v1.6h1.918a.333.333,0,0,1,0,.666h-2.251a.333.333,0,0,1-.333-.333v-2.263a.333.333,0,0,1,.333-.333H254.5a.333.333,0,0,1,.333.333v2.263A.333.333,0,0,1,254.5,249.968Zm0,0" transform="translate(-214.653 -226.481)"/>
  </g>
</svg>
