<svg width="14" height="14" viewBox="0 0 14 14" fill="none" xmlns="http://www.w3.org/2000/svg">
<g clip-path="url(#clip0_116_3975)">
<path d="M4.68501 11.869C4.48367 11.869 4.28683 11.9287 4.11942 12.0406C3.95201 12.1524 3.82154 12.3114 3.74449 12.4974C3.66744 12.6834 3.64728 12.8881 3.68656 13.0856C3.72584 13.2831 3.8228 13.4645 3.96517 13.6068C4.10754 13.7492 4.28893 13.8462 4.4864 13.8855C4.68387 13.9247 4.88856 13.9045 5.07458 13.8275C5.26059 13.7504 5.41958 13.62 5.53144 13.4526C5.6433 13.2852 5.703 13.0884 5.703 12.887C5.70247 12.6172 5.59504 12.3585 5.40424 12.1677C5.21345 11.9769 4.95483 11.8695 4.68501 11.869ZM4.68501 13.499C4.56416 13.499 4.44602 13.4632 4.34554 13.396C4.24507 13.3289 4.16675 13.2335 4.12051 13.1218C4.07426 13.0102 4.06217 12.8873 4.08575 12.7688C4.10932 12.6503 4.1675 12.5414 4.25295 12.4559C4.3384 12.3705 4.44728 12.3123 4.5658 12.2887C4.68433 12.2652 4.80717 12.2773 4.91882 12.3235C5.03046 12.3697 5.1259 12.4481 5.19303 12.5485C5.26017 12.649 5.296 12.7672 5.296 12.888C5.29573 13.05 5.23128 13.2052 5.11675 13.3197C5.00223 13.4343 4.84697 13.4987 4.68501 13.499Z" fill="white"/>
<path d="M4.877 13.377C5.15314 13.377 5.377 13.1531 5.377 12.877C5.377 12.6009 5.15314 12.377 4.877 12.377C4.60086 12.377 4.377 12.6009 4.377 12.877C4.377 13.1531 4.60086 13.377 4.877 13.377Z" fill="white"/>
<path d="M11.665 11.869C11.4637 11.869 11.2668 11.9287 11.0994 12.0406C10.932 12.1524 10.8015 12.3114 10.7245 12.4974C10.6474 12.6834 10.6273 12.8881 10.6666 13.0856C10.7058 13.2831 10.8028 13.4645 10.9452 13.6068C11.0875 13.7492 11.2689 13.8462 11.4664 13.8855C11.6639 13.9247 11.8685 13.9045 12.0546 13.8275C12.2406 13.7504 12.3996 13.62 12.5114 13.4526C12.6233 13.2852 12.683 13.0884 12.683 12.887C12.6825 12.6172 12.575 12.3585 12.3842 12.1677C12.1934 11.9769 11.9348 11.8695 11.665 11.869ZM11.665 13.499C11.5442 13.499 11.426 13.4632 11.3256 13.396C11.2251 13.3289 11.1468 13.2335 11.1005 13.1218C11.0543 13.0102 11.0422 12.8873 11.0657 12.7688C11.0893 12.6503 11.1475 12.5414 11.233 12.4559C11.3184 12.3705 11.4273 12.3123 11.5458 12.2887C11.6643 12.2652 11.7872 12.2773 11.8988 12.3235C12.0105 12.3697 12.1059 12.4481 12.173 12.5485C12.2402 12.649 12.276 12.7672 12.276 12.888C12.2757 13.05 12.2113 13.2052 12.0967 13.3197C11.9822 13.4343 11.827 13.4987 11.665 13.499Z" fill="white"/>
<path d="M3.364 9.858L4.847 9.017H8.175C8.41007 9.01719 8.63799 8.93618 8.82021 8.78767C9.00243 8.63917 9.12776 8.43228 9.175 8.202H11.296C11.6124 8.20187 11.9197 8.09645 12.1696 7.90236C12.4195 7.70826 12.5976 7.43653 12.676 7.13L13.9 2.345C13.9085 2.31467 13.9098 2.28274 13.9036 2.25183C13.8975 2.22092 13.8841 2.1919 13.8646 2.16714C13.8451 2.14238 13.82 2.12257 13.7914 2.10934C13.7628 2.09611 13.7315 2.08983 13.7 2.091H3.7L3.6 1.685C3.47673 1.20231 3.196 0.774511 2.80224 0.46932C2.40848 0.164128 1.92418 -0.00102316 1.426 4.76961e-06H0.611C0.448953 4.76961e-06 0.293543 0.0643778 0.178958 0.178963C0.064373 0.293547 0 0.448958 0 0.611005C0 0.773052 0.064373 0.928462 0.178958 1.04305C0.293543 1.15763 0.448953 1.222 0.611 1.222H1.426C1.65229 1.22168 1.87222 1.29684 2.05099 1.43558C2.22976 1.57432 2.35715 1.76872 2.413 1.988L3.977 8.10001L2.761 8.79C2.48708 8.94504 2.27216 9.18635 2.14973 9.47631C2.02729 9.76627 2.00423 10.0886 2.08413 10.393C2.16404 10.6975 2.34242 10.9669 2.59147 11.1594C2.84052 11.3518 3.14625 11.4565 3.461 11.457H12.48C12.642 11.457 12.7975 11.3926 12.912 11.278C13.0266 11.1635 13.091 11.0081 13.091 10.846C13.091 10.684 13.0266 10.5285 12.912 10.414C12.7975 10.2994 12.642 10.235 12.48 10.235H3.463C3.41615 10.2388 3.36943 10.2261 3.33107 10.1989C3.2927 10.1717 3.26513 10.1319 3.25319 10.0864C3.24126 10.041 3.24572 9.99275 3.2658 9.95025C3.28588 9.90774 3.3203 9.87367 3.363 9.854L3.364 9.858ZM10.914 5.894H9.662L9.738 4.4H11.138L10.914 5.894ZM11.555 4.4H12.955L12.573 5.894H11.326L11.555 4.4ZM10.855 6.3L10.626 7.794H9.565L9.641 6.3H10.855ZM9.255 5.893H8L7.924 4.4H9.331L9.255 5.893ZM9.76 3.993L9.836 2.5H11.436L11.207 3.994L9.76 3.993ZM9.352 3.993H7.9L7.827 2.5H9.427L9.352 3.993ZM7.496 3.993H6.689C6.63503 3.993 6.58327 4.01444 6.5451 4.05261C6.50694 4.09077 6.4855 4.14253 6.4855 4.1965C6.4855 4.25048 6.50694 4.30224 6.5451 4.3404C6.58327 4.37856 6.63503 4.4 6.689 4.4H7.516L7.592 5.894H6.341L5.82 2.5H7.42L7.496 3.993ZM5.929 5.893H4.673L4.291 4.4H5.7L5.929 5.893ZM5.992 6.3L6.22 7.795H5.16L4.777 6.3H5.992ZM6.633 7.794L6.4 6.3H7.61L7.69 7.795L6.633 7.794ZM8.098 7.794L8.021 6.3H9.233L9.157 7.795L8.098 7.794ZM12.282 7.028C12.226 7.24721 12.0986 7.44151 11.9198 7.58022C11.7411 7.71894 11.5212 7.79416 11.295 7.794H11.035L11.263 6.3H12.463L12.282 7.028ZM13.058 3.992H11.618L11.847 2.5H13.44L13.058 3.992ZM5.407 2.5L5.636 3.994H4.187L3.805 2.5H5.407ZM1.426 0.815005H0.611C0.557028 0.815005 0.505267 0.793565 0.467104 0.755401C0.42894 0.717237 0.4075 0.665476 0.4075 0.611505C0.4075 0.557533 0.42894 0.505772 0.467104 0.467609C0.505267 0.429445 0.557028 0.408005 0.611 0.408005H1.426C1.84168 0.407614 2.24513 0.548679 2.57 0.808005L2.28 1.098C2.0334 0.913862 1.73377 0.814572 1.426 0.815005ZM3.463 10.647H12.48C12.534 10.647 12.5857 10.6684 12.6239 10.7066C12.6621 10.7448 12.6835 10.7965 12.6835 10.8505C12.6835 10.9045 12.6621 10.9562 12.6239 10.9944C12.5857 11.0326 12.534 11.054 12.48 11.054H3.463C3.23793 11.0541 3.01918 10.9796 2.84095 10.8422C2.66271 10.7048 2.53504 10.5121 2.47791 10.2944C2.42077 10.0768 2.43738 9.84626 2.52515 9.63901C2.61292 9.43177 2.7669 9.25945 2.963 9.149L4.315 8.38301C4.35499 8.3619 4.38664 8.32787 4.4048 8.28646C4.42296 8.24506 4.42656 8.19872 4.415 8.155L2.815 1.887C2.76894 1.70626 2.68773 1.53636 2.576 1.387L2.866 1.097C3.02844 1.29992 3.14572 1.53515 3.21 1.787L4.8 8.049C4.81114 8.09319 4.83705 8.13225 4.87342 8.15971C4.90979 8.18717 4.95445 8.20139 5 8.2H8.75C8.7077 8.31898 8.62965 8.42196 8.52652 8.49482C8.4234 8.56769 8.30027 8.60687 8.174 8.60701H4.793C4.75787 8.60707 4.72338 8.61638 4.693 8.634L3.163 9.5C3.0455 9.56638 2.95327 9.66978 2.90072 9.79408C2.84817 9.91838 2.83825 10.0566 2.87251 10.1871C2.90677 10.3177 2.98328 10.4332 3.09011 10.5156C3.19693 10.5981 3.32805 10.6429 3.463 10.643V10.647Z" fill="white"/>
</g>
<defs>
<clipPath id="clip0_116_3975">
<rect width="13.906" height="13.906" fill="white"/>
</clipPath>
</defs>
</svg>
