<svg width="25" height="25" viewBox="0 0 25 25" fill="none" xmlns="http://www.w3.org/2000/svg">
<g clip-path="url(#clip0_277_5433)">
<path d="M12.5 25C19.4036 25 25 19.4036 25 12.5C25 5.59644 19.4036 0 12.5 0C5.59644 0 0 5.59644 0 12.5C0 19.4036 5.59644 25 12.5 25Z" fill="#4DD973"/>
<path d="M10.8909 17.727C10.7686 17.8493 10.6028 17.9179 10.4299 17.9179C10.257 17.9179 10.0912 17.8493 9.96889 17.727L6.28689 14.044C6.10351 13.8606 6.00049 13.6119 6.00049 13.3525C6.00049 13.0932 6.10351 12.8444 6.28689 12.661L6.74789 12.2C6.93129 12.0166 7.18003 11.9136 7.43939 11.9136C7.69874 11.9136 7.94748 12.0166 8.13089 12.2L10.4309 14.5L16.6419 8.28701C16.8253 8.10363 17.074 8.00061 17.3334 8.00061C17.5927 8.00061 17.8415 8.10363 18.0249 8.28701L18.4859 8.74801C18.6693 8.93142 18.7723 9.18015 18.7723 9.43951C18.7723 9.69887 18.6693 9.9476 18.4859 10.131L10.8909 17.727Z" fill="white"/>
</g>
<defs>
<clipPath id="clip0_277_5433">
<rect width="25" height="25" fill="white"/>
</clipPath>
</defs>
</svg>
