<svg width="25" height="25" viewBox="0 0 25 25" fill="none" xmlns="http://www.w3.org/2000/svg">
<g clip-path="url(#clip0_276_5416)">
<path d="M12.5 25C19.4036 25 25 19.4036 25 12.5C25 5.59644 19.4036 0 12.5 0C5.59644 0 0 5.59644 0 12.5C0 19.4036 5.59644 25 12.5 25Z" fill="#D12828"/>
<path d="M8.41566 16.511C8.33384 16.5105 8.25397 16.486 8.18604 16.4403C8.11811 16.3947 8.06514 16.3301 8.03376 16.2545C8.00238 16.1789 7.99398 16.0958 8.00962 16.0155C8.02525 15.9352 8.06423 15.8612 8.12166 15.803L15.8057 8.12097C15.8438 8.08027 15.8897 8.04765 15.9407 8.02505C15.9917 8.00246 16.0467 7.99034 16.1025 7.98944C16.1582 7.98853 16.2136 7.99884 16.2653 8.01976C16.317 8.04068 16.364 8.07179 16.4034 8.11122C16.4428 8.15066 16.474 8.19762 16.4949 8.24932C16.5158 8.30102 16.5261 8.3564 16.5252 8.41216C16.5243 8.46793 16.5122 8.52294 16.4896 8.57393C16.467 8.62492 16.4344 8.67084 16.3937 8.70897L8.70566 16.389C8.66713 16.4277 8.62131 16.4584 8.57086 16.4794C8.5204 16.5003 8.46629 16.511 8.41166 16.511H8.41566Z" fill="white" stroke="white"/>
<path d="M16.0948 16.511C15.9852 16.5106 15.8802 16.4667 15.8028 16.389L8.12085 8.70897C8.08015 8.67084 8.04753 8.62492 8.02493 8.57393C8.00234 8.52294 7.99022 8.46793 7.98931 8.41216C7.9884 8.3564 7.99872 8.30102 8.01964 8.24932C8.04056 8.19762 8.07166 8.15066 8.1111 8.11122C8.15054 8.07179 8.1975 8.04068 8.2492 8.01976C8.3009 7.99884 8.35628 7.98853 8.41204 7.98944C8.46781 7.99034 8.52282 8.00246 8.57381 8.02505C8.6248 8.04765 8.67072 8.08027 8.70885 8.12097L16.3888 15.803C16.4466 15.8612 16.4859 15.9352 16.5017 16.0157C16.5176 16.0962 16.5092 16.1795 16.4778 16.2553C16.4464 16.3311 16.3933 16.3959 16.3251 16.4415C16.257 16.4872 16.1769 16.5107 16.0948 16.511Z" fill="white" stroke="white"/>
</g>
<defs>
<clipPath id="clip0_276_5416">
<rect width="25" height="25" fill="white"/>
</clipPath>
</defs>
</svg>
