<svg id="car_683092" xmlns="http://www.w3.org/2000/svg" width="95.795" height="29.929" viewBox="0 0 95.795 29.929">
  <g id="Group_4582" data-name="Group 4582" transform="translate(12.739 14.216)">
    <path id="Path_14253" data-name="Path 14253" d="M52.007,259.485a7.589,7.589,0,0,0,.584,2.918,7.5,7.5,0,1,0-.584-2.918Z" transform="translate(6.354 -252.003)" fill="#aab2bd"/>
    <path id="Path_14254" data-name="Path 14254" d="M371.416,252a7.485,7.485,0,0,0-7.482,7.482,7.589,7.589,0,0,0,.583,2.918,7.5,7.5,0,0,0,14.052-.688,7.828,7.828,0,0,0,.329-2.23A7.485,7.485,0,0,0,371.416,252Z" transform="translate(-363.934 -252.002)" fill="#aab2bd"/>
  </g>
  <path id="Path_14255" data-name="Path 14255" d="M475.907,248.95v1.5l4.489-1.5v-2.544A15.69,15.69,0,0,0,475.907,248.95Z" transform="translate(-473.643 -233.237)" fill="#e6e9ed"/>
  <path id="Path_14256" data-name="Path 14256" d="M29.472,203.1c-9.892,1.526-15.922,3.427-19.454,4.939v2.544l-4.489,1.5v2.993l-1.511,1.5,1.511,1.5v1.5h8.979l2.079-.074A7.589,7.589,0,0,1,16,216.573a7.482,7.482,0,1,1,14.964,0,7.829,7.829,0,0,1-.329,2.23l1.825.763h40.4l2.08-.074a7.586,7.586,0,0,1-.584-2.918,7.482,7.482,0,1,1,14.066,3.561l2.394-.568s5.238,0,5.986-4.489c.614-3.681,1.5-7.482,1.5-7.482H90.826l4.489-2.993v-1.5l-13.468-1.5a36.49,36.49,0,0,0-5.626-2.394v.015l-1.856.883s-2.993,2.993-41.9,2.993Z" transform="translate(-3.265 -194.874)" fill="#ed5565"/>
  <g id="Group_4583" data-name="Group 4583" transform="translate(72.327 4.34)" opacity="0.3">
    <path id="Path_14257" data-name="Path 14257" d="M17.756,219.565s5.237,0,5.986-4.489c.614-3.681,1.5-7.482,1.5-7.482L22.245,204.6v-1.5l-13.468-1.5a35.1,35.1,0,0,0-4.758-2.08l.628-.3v-.015a36.512,36.512,0,0,1,5.626,2.394l13.468,1.5v1.5l2.993,2.993s-.883,3.8-1.5,7.482c-.748,4.489-5.986,4.489-5.986,4.489l-2.394.568c.069-.128.123-.266.184-.4Z" transform="translate(-4.019 -199.213)" fill="#fff"/>
  </g>
  <g id="Group_4584" data-name="Group 4584" transform="translate(0.753 8.231)" opacity="0.2">
    <path id="Path_14258" data-name="Path 14258" d="M351.7,231.982v-4.489a15.7,15.7,0,0,1,4.489-2.544c3.532-1.512,19.454-4.939,19.454-4.939h4.068s-18.236,3.742-21.768,5.254a18.792,18.792,0,0,0-4.747,2.665v4.053l-1.511,1.5,1.511,1.5v1.5h-1.5v-1.5l-1.511-1.5Z" transform="translate(-350.187 -220.01)"/>
  </g>
  <path id="Path_14259" data-name="Path 14259" d="M146.013,180.019c-10.1,0-20.367,5.372-23.943,7.482h2.993c38.907,0,41.9-2.993,41.9-2.993l1.856-.883v-.015A70.305,70.305,0,0,0,146.013,180.019Z" transform="translate(-95.863 -179.271)" fill="#5d9cec"/>
  <g id="Group_4585" data-name="Group 4585" transform="translate(43.756 0.95)" opacity="0.3">
    <path id="Path_14260" data-name="Path 14260" d="M254.014,188.16l-1.773-6.613c.985-.188,1.976-.343,2.978-.454l1.866,6.964C256.1,188.095,255.084,188.129,254.014,188.16Z" transform="translate(-252.241 -181.094)" fill="#fff"/>
  </g>
  <g id="Group_4586" data-name="Group 4586" transform="translate(42.289 1.548)" opacity="0.3">
    <path id="Path_14261" data-name="Path 14261" d="M274.469,190.8l-1.7-6.35c.244-.056.488-.108.732-.16l1.739,6.491Z" transform="translate(-272.768 -184.291)" fill="#fff"/>
  </g>
  <path id="Path_14262" data-name="Path 14262" d="M8.508,228.008,4.019,231H11.5Z" transform="translate(83.542 -218.281)" fill="#e6e9ed"/>
  <path id="Path_14263" data-name="Path 14263" d="M4.019,228.607l.9-.6L7.91,231h-1.5Z" transform="translate(87.133 -218.281)" fill="#fff"/>
  <g id="Group_4587" data-name="Group 4587" transform="translate(77.834 14.216)" opacity="0.5">
    <path id="Path_14264" data-name="Path 14264" d="M58.741,259.485a7.46,7.46,0,0,0-6.734-7.407,7.464,7.464,0,1,1,.748,14.889,7.055,7.055,0,0,1-.748-.076A7.448,7.448,0,0,0,58.741,259.485Z" transform="translate(-52.007 -252.003)" fill="#fff"/>
  </g>
  <g id="Group_4588" data-name="Group 4588" transform="translate(71.1 14.216)" opacity="0.2">
    <path id="Path_14265" data-name="Path 14265" d="M89.5,259.484a7.459,7.459,0,0,0,6.734,7.406,7.018,7.018,0,0,1-.748.076,7.492,7.492,0,1,1,.748-14.889A7.449,7.449,0,0,0,89.5,259.484Z" transform="translate(-87.999 -252.002)"/>
  </g>
  <g id="Group_4589" data-name="Group 4589" transform="translate(19.472 14.216)" opacity="0.5">
    <path id="Path_14266" data-name="Path 14266" d="M370.668,259.485a7.459,7.459,0,0,0-6.734-7.407,7.464,7.464,0,1,1,.748,14.889,7.081,7.081,0,0,1-.748-.076A7.447,7.447,0,0,0,370.668,259.485Z" transform="translate(-363.934 -252.003)" fill="#fff"/>
  </g>
  <g id="Group_4590" data-name="Group 4590" transform="translate(12.739 14.216)" opacity="0.2">
    <path id="Path_14267" data-name="Path 14267" d="M401.422,259.484a7.458,7.458,0,0,0,6.734,7.406,7.046,7.046,0,0,1-.748.076,7.492,7.492,0,1,1,.748-14.889A7.449,7.449,0,0,0,401.422,259.484Z" transform="translate(-399.925 -252.002)"/>
  </g>
  <g id="Group_4591" data-name="Group 4591">
    <path id="Path_14268" data-name="Path 14268" d="M87.566,201.458c2.031,0,6.049-1.07,6.724-5.115.6-3.616,1.478-7.4,1.487-7.436a.749.749,0,0,0-.2-.7L92.8,185.436v-1.187a.748.748,0,0,0-.666-.744l-13.318-1.48c-1.354-.739-11.61-6.007-28.665-6.007a45.858,45.858,0,0,0-24.229,7.517c-19.328,3-24,7.476-24.185,7.666a.748.748,0,0,0-.219.529v4.176l-1.3,1.277a.745.745,0,0,0,0,1.064l1.518,1.5a.747.747,0,1,0,1.051-1.064l-.978-.964.978-.965a.749.749,0,0,0,.224-.532V192.08c1.1-.853,6.684-4.534,23.309-7.091a.758.758,0,0,0,.32-.13c.1-.074,10.45-7.343,23.508-7.343,17.522,0,27.958,5.829,28.062,5.887a.757.757,0,0,0,.288.094l12.8,1.423v.826a.748.748,0,0,0,.219.529l2.7,2.7c-.243,1.083-.918,4.156-1.413,7.123-.637,3.82-5.06,3.864-5.248,3.864a.748.748,0,1,0,0,1.5Z" transform="translate(-0.002 -176.019)" fill="#3a3847"/>
    <path id="Path_14269" data-name="Path 14269" d="M16.745,228.5a.748.748,0,0,0,.414-.126l4.489-2.993a.748.748,0,1,0-.83-1.245l-4.489,2.993a.748.748,0,0,0,.416,1.371Z" transform="translate(70.82 -215.027)" fill="#3a3847"/>
    <path id="Path_14270" data-name="Path 14270" d="M.748,241.5H8.23a.748.748,0,0,0,0-1.5H.748a.748.748,0,0,0,0,1.5Z" transform="translate(86.816 -228.033)" fill="#3a3847"/>
    <path id="Path_14271" data-name="Path 14271" d="M192.7,191.444a.747.747,0,0,0,.677-.43l1.5-3.177a.748.748,0,0,0-1.353-.637l-1.5,3.177a.747.747,0,0,0,.358,1A.736.736,0,0,0,192.7,191.444Z" transform="translate(-135.067 -184.758)" fill="#3a3847"/>
    <path id="Path_14272" data-name="Path 14272" d="M208.7,241.5h2.993a.748.748,0,0,0,0-1.5H208.7a.748.748,0,0,0,0,1.5Z" transform="translate(-155.553 -228.033)" fill="#3a3847"/>
    <path id="Path_14273" data-name="Path 14273" d="M88.927,289.489a.754.754,0,0,0,.756-.748.742.742,0,0,0-.741-.748h-.015a.748.748,0,0,0,0,1.5Z" transform="translate(-10.386 -267.043)" fill="#3a3847"/>
    <path id="Path_14274" data-name="Path 14274" d="M56.219,264.464a8.23,8.23,0,1,0-8.23-8.23A8.239,8.239,0,0,0,56.219,264.464Zm0-14.964a6.734,6.734,0,1,1-6.734,6.734A6.741,6.741,0,0,1,56.219,249.5Z" transform="translate(22.366 -234.535)" fill="#3a3847"/>
    <path id="Path_14275" data-name="Path 14275" d="M88.728,266.992a.748.748,0,0,0,.748-.748v-1.5a.748.748,0,1,0-1.5,0v1.5A.748.748,0,0,0,88.728,266.992Z" transform="translate(-10.143 -247.538)" fill="#3a3847"/>
    <path id="Path_14276" data-name="Path 14276" d="M88.728,306.982a.748.748,0,0,0,.748-.748v-1.5a.748.748,0,1,0-1.5,0v1.5A.748.748,0,0,0,88.728,306.982Z" transform="translate(-10.143 -280.046)" fill="#3a3847"/>
    <path id="Path_14277" data-name="Path 14277" d="M64.733,289.489h1.5a.748.748,0,1,0,0-1.5h-1.5a.748.748,0,1,0,0,1.5Z" transform="translate(16.845 -267.043)" fill="#3a3847"/>
    <path id="Path_14278" data-name="Path 14278" d="M104.724,289.489h1.5a.748.748,0,1,0,0-1.5h-1.5a.748.748,0,0,0,0,1.5Z" transform="translate(-30.628 -267.043)" fill="#3a3847"/>
    <path id="Path_14279" data-name="Path 14279" d="M71.764,273.584a.746.746,0,0,0,.529-.219l1.058-1.058a.748.748,0,0,0-1.058-1.058l-1.058,1.058a.748.748,0,0,0,.529,1.277Z" transform="translate(8.938 -253.253)" fill="#3a3847"/>
    <path id="Path_14280" data-name="Path 14280" d="M100.037,301.859a.746.746,0,0,0,.529-.219l1.058-1.058a.748.748,0,0,0-1.058-1.058l-1.058,1.058a.748.748,0,0,0,.529,1.277Z" transform="translate(-24.625 -276.238)" fill="#3a3847"/>
    <path id="Path_14281" data-name="Path 14281" d="M72.822,301.859a.748.748,0,0,0,.529-1.277l-1.058-1.058a.748.748,0,0,0-1.058,1.058l1.058,1.058A.746.746,0,0,0,72.822,301.859Z" transform="translate(8.938 -276.238)" fill="#3a3847"/>
    <path id="Path_14282" data-name="Path 14282" d="M101.1,273.584a.748.748,0,0,0,.529-1.277l-1.058-1.058a.748.748,0,0,0-1.058,1.058l1.058,1.058A.746.746,0,0,0,101.1,273.584Z" transform="translate(-24.626 -253.253)" fill="#3a3847"/>
    <path id="Path_14283" data-name="Path 14283" d="M400.853,289.489a.754.754,0,0,0,.755-.748.742.742,0,0,0-.741-.748h-.015a.748.748,0,0,0,0,1.5Z" transform="translate(-380.673 -267.043)" fill="#3a3847"/>
    <path id="Path_14284" data-name="Path 14284" d="M368.142,264.464a8.23,8.23,0,1,0-8.231-8.23A8.239,8.239,0,0,0,368.142,264.464Zm0-14.964a6.734,6.734,0,1,1-6.734,6.734A6.742,6.742,0,0,1,368.142,249.5Z" transform="translate(-347.916 -234.535)" fill="#3a3847"/>
    <path id="Path_14285" data-name="Path 14285" d="M400.649,266.992a.749.749,0,0,0,.748-.748v-1.5a.748.748,0,1,0-1.5,0v1.5A.747.747,0,0,0,400.649,266.992Z" transform="translate(-380.424 -247.538)" fill="#3a3847"/>
    <path id="Path_14286" data-name="Path 14286" d="M400.649,306.982a.749.749,0,0,0,.748-.748v-1.5a.748.748,0,1,0-1.5,0v1.5A.747.747,0,0,0,400.649,306.982Z" transform="translate(-380.424 -280.046)" fill="#3a3847"/>
    <path id="Path_14287" data-name="Path 14287" d="M376.655,289.489h1.5a.748.748,0,1,0,0-1.5h-1.5a.748.748,0,0,0,0,1.5Z" transform="translate(-353.437 -267.043)" fill="#3a3847"/>
    <path id="Path_14288" data-name="Path 14288" d="M416.647,289.489h1.5a.748.748,0,0,0,0-1.5h-1.5a.748.748,0,1,0,0,1.5Z" transform="translate(-400.911 -267.043)" fill="#3a3847"/>
    <path id="Path_14289" data-name="Path 14289" d="M383.686,273.584a.748.748,0,0,0,.529-.219l1.058-1.058a.748.748,0,0,0-1.058-1.058l-1.058,1.058a.748.748,0,0,0,.529,1.277Z" transform="translate(-361.344 -253.253)" fill="#3a3847"/>
    <path id="Path_14290" data-name="Path 14290" d="M411.96,301.859a.748.748,0,0,0,.529-.219l1.058-1.058a.748.748,0,0,0-1.058-1.058l-1.058,1.058a.748.748,0,0,0,.529,1.277Z" transform="translate(-394.909 -276.238)" fill="#3a3847"/>
    <path id="Path_14291" data-name="Path 14291" d="M384.744,301.859a.748.748,0,0,0,.529-1.277l-1.058-1.058a.748.748,0,1,0-1.058,1.058l1.058,1.058A.744.744,0,0,0,384.744,301.859Z" transform="translate(-361.344 -276.238)" fill="#3a3847"/>
    <path id="Path_14292" data-name="Path 14292" d="M413.018,273.584a.748.748,0,0,0,.529-1.277l-1.058-1.058a.748.748,0,0,0-1.058,1.058l1.058,1.058A.743.743,0,0,0,413.018,273.584Z" transform="translate(-394.909 -253.253)" fill="#3a3847"/>
    <path id="Path_14293" data-name="Path 14293" d="M128.718,204.5c38.116,0,42.1-2.883,42.429-3.212a.748.748,0,0,0-1.008-1.1c-.271.178-4.922,2.819-41.42,2.819a.748.748,0,0,0,0,1.5Z" transform="translate(-99.514 -195.524)" fill="#3a3847"/>
    <path id="Path_14294" data-name="Path 14294" d="M136.716,305.485h40.4a.748.748,0,0,0,0-1.5h-40.4a.748.748,0,1,0,0,1.5Z" transform="translate(-107.512 -280.046)" fill="#3a3847"/>
    <path id="Path_14295" data-name="Path 14295" d="M448.639,305.485h10.5a.748.748,0,1,0,0-1.5h-10.5a.748.748,0,1,0,0,1.5Z" transform="translate(-447.891 -280.046)" fill="#3a3847"/>
    <path id="Path_14296" data-name="Path 14296" d="M472.639,259a.744.744,0,0,0,.237-.038l4.489-1.5a.748.748,0,0,0-.474-1.419l-4.489,1.5a.748.748,0,0,0,.237,1.458Z" transform="translate(-470.371 -241.038)" fill="#3a3847"/>
    <path id="Path_14297" data-name="Path 14297" d="M472.633,246.469a.749.749,0,0,0,.748-.748v-2.539a.748.748,0,1,0-1.5,0v2.539A.747.747,0,0,0,472.633,246.469Z" transform="translate(-465.876 -230.008)" fill="#3a3847"/>
  </g>
</svg>
