<svg xmlns="http://www.w3.org/2000/svg" width="15.414" height="13.464" viewBox="0 0 15.414 13.464">
  <path id="headset_4129740" d="M13.238,36.363h-.579a4.952,4.952,0,1,0-9.9,0H2.176A2.178,2.178,0,0,0,0,38.539v1.506a2.178,2.178,0,0,0,2.176,2.176h1.06a.482.482,0,0,0,.482-.482V36.422a3.989,3.989,0,0,1,7.978,0v5.713A1.778,1.778,0,0,1,9.92,43.911H7.461a.482.482,0,0,0,0,.963H9.92a2.743,2.743,0,0,0,2.738-2.654h.58a2.178,2.178,0,0,0,2.176-2.176V38.539a2.178,2.178,0,0,0-2.176-2.176ZM2.754,41.258H2.176A1.214,1.214,0,0,1,.963,40.045V38.539a1.214,1.214,0,0,1,1.213-1.213h.578Zm11.7-1.213a1.214,1.214,0,0,1-1.213,1.213h-.578V37.327h.578a1.214,1.214,0,0,1,1.213,1.213Z" transform="translate(0 -31.411)"/>
</svg>
