<svg width="8" height="13" viewBox="0 0 8 13" fill="none" xmlns="http://www.w3.org/2000/svg">
<mask id="mask0_103_3890" style="mask-type:luminance" maskUnits="userSpaceOnUse" x="0" y="0" width="8" height="13">
<path d="M7.348 0H0V12.933H7.348V0Z" fill="white"/>
</mask>
<g mask="url(#mask0_103_3890)">
<path d="M7.303 4.83302L3.84699 0.08102C3.82588 0.05563 3.79944 0.0351898 3.76954 0.0211698C3.73964 0.00714978 3.70702 -0.000120163 3.674 -0.000120163C3.64097 -0.000120163 3.60835 0.00714978 3.57845 0.0211698C3.54855 0.0351898 3.52211 0.05563 3.50099 0.08102L0.0449911 4.83302C0.0209111 4.86308 0.0060311 4.89945 0.0021311 4.93777C-0.0017689 4.97609 0.0054713 5.01472 0.0229913 5.04902C0.0433813 5.08213 0.0719209 5.10944 0.105891 5.12836C0.139861 5.14727 0.178121 5.15714 0.216991 5.15702H2.37699V7.53302C2.37456 7.562 2.37848 7.59116 2.38848 7.61846C2.39848 7.64577 2.41431 7.67057 2.43487 7.69114C2.45544 7.7117 2.48024 7.72753 2.50754 7.73753C2.53485 7.74752 2.56401 7.75144 2.59299 7.74902H4.75299C4.78197 7.75144 4.81113 7.74752 4.83844 7.73753C4.86575 7.72753 4.89055 7.7117 4.91112 7.69114C4.93168 7.67057 4.94751 7.64577 4.9575 7.61846C4.9675 7.59116 4.97142 7.562 4.96899 7.53302V5.15702H7.129C7.1679 5.15714 7.2061 5.14727 7.2401 5.12836C7.2741 5.10944 7.3026 5.08213 7.323 5.04902C7.3408 5.0149 7.3484 4.97638 7.3448 4.93807C7.3413 4.89976 7.3268 4.86328 7.303 4.83302ZM4.754 4.72502C4.72502 4.72259 4.69586 4.72651 4.66855 4.73651C4.64124 4.7465 4.61643 4.76233 4.59587 4.7829C4.57531 4.80346 4.55948 4.82826 4.54948 4.85557C4.53949 4.88288 4.53557 4.91204 4.53799 4.94102V7.31702H2.81V4.94102C2.81242 4.91204 2.8085 4.88288 2.79851 4.85557C2.78851 4.82826 2.77268 4.80346 2.75211 4.7829C2.73155 4.76233 2.70675 4.7465 2.67944 4.73651C2.65213 4.72651 2.62297 4.72259 2.59399 4.72502H0.649991L3.67699 0.55602L6.701 4.72502H4.757H4.754Z" fill="white"/>
<path d="M4.32195 8.181H3.02194C2.84955 8.181 2.68423 8.2495 2.56233 8.3714C2.44043 8.4933 2.37195 8.6586 2.37195 8.831C2.37195 9.0034 2.44043 9.1688 2.56233 9.2906C2.68423 9.4125 2.84955 9.481 3.02194 9.481H4.32195C4.49434 9.481 4.65967 9.4125 4.78157 9.2906C4.90347 9.1688 4.97194 9.0034 4.97194 8.831C4.97194 8.6586 4.90347 8.4933 4.78157 8.3714C4.65967 8.2495 4.49434 8.181 4.32195 8.181ZM4.32195 9.045H3.02194C2.96466 9.045 2.90972 9.0223 2.86922 8.9818C2.82871 8.9412 2.80595 8.8863 2.80595 8.829C2.80595 8.7717 2.82871 8.7168 2.86922 8.6763C2.90972 8.6358 2.96466 8.613 3.02194 8.613H4.32195C4.37923 8.613 4.43418 8.6358 4.47469 8.6763C4.51519 8.7168 4.53795 8.7717 4.53795 8.829C4.53795 8.8863 4.51519 8.9412 4.47469 8.9818C4.43418 9.0223 4.37923 9.045 4.32195 9.045Z" fill="white"/>
<path d="M4.32195 9.9091H3.02194C2.84955 9.9091 2.68423 9.9775 2.56233 10.0994C2.44043 10.2213 2.37195 10.3867 2.37195 10.5591C2.37195 10.7314 2.44043 10.8968 2.56233 11.0187C2.68423 11.1406 2.84955 11.209 3.02194 11.209H4.32195C4.49434 11.209 4.65967 11.1406 4.78157 11.0187C4.90347 10.8968 4.97194 10.7314 4.97194 10.5591C4.97194 10.3867 4.90347 10.2213 4.78157 10.0994C4.65967 9.9775 4.49434 9.9091 4.32195 9.9091ZM4.32195 10.773H3.02194C2.96466 10.773 2.90972 10.7503 2.86922 10.7098C2.82871 10.6693 2.80595 10.6143 2.80595 10.557C2.80595 10.4998 2.82871 10.4448 2.86922 10.4043C2.90972 10.3638 2.96466 10.341 3.02194 10.341H4.32195C4.37923 10.341 4.43418 10.3638 4.47469 10.4043C4.51519 10.4448 4.53795 10.4998 4.53795 10.557C4.53795 10.6143 4.51519 10.6693 4.47469 10.7098C4.43418 10.7503 4.37923 10.773 4.32195 10.773Z" fill="white"/>
<path d="M4.32195 11.637H3.02194C2.84955 11.637 2.68423 11.7054 2.56233 11.8273C2.44043 11.9492 2.37195 12.1146 2.37195 12.287C2.37195 12.4593 2.44043 12.6247 2.56233 12.7466C2.68423 12.8685 2.84955 12.937 3.02194 12.937H4.32195C4.49434 12.937 4.65967 12.8685 4.78157 12.7466C4.90347 12.6247 4.97194 12.4593 4.97194 12.287C4.97194 12.1146 4.90347 11.9492 4.78157 11.8273C4.65967 11.7054 4.49434 11.637 4.32195 11.637ZM4.32195 12.5009H3.02194C2.96466 12.5009 2.90972 12.4782 2.86922 12.4377C2.82871 12.3972 2.80595 12.3423 2.80595 12.285C2.80595 12.2277 2.82871 12.1727 2.86922 12.1322C2.90972 12.0917 2.96466 12.069 3.02194 12.069H4.32195C4.37923 12.069 4.43418 12.0917 4.47469 12.1322C4.51519 12.1727 4.53795 12.2277 4.53795 12.285C4.53795 12.3423 4.51519 12.3972 4.47469 12.4377C4.43418 12.4782 4.37923 12.5009 4.32195 12.5009Z" fill="white"/>
</g>
</svg>
