<svg xmlns="http://www.w3.org/2000/svg" width="323" height="131.71" viewBox="0 0 323 131.71">
  <defs>
    <style>
      .cls-1 {
        fill: #f1f1f1;
        fill-rule: evenodd;
      }
    </style>
  </defs>
  <path id="Vector" class="cls-1" d="M20.881.117c0,4.207-2.6,7.618-5.8,7.618S9.28,4.324,9.28.117q0-.059,0-.117H0V323H9.281c0-.041,0-.078,0-.117,0-4.208,2.6-7.618,5.8-7.618s5.8,3.41,5.8,7.618c0,.039,0,.076,0,.117h9.46c0-.041,0-.078,0-.117,0-4.208,2.6-7.618,5.8-7.618s5.8,3.41,5.8,7.618V323h8.032c0-11.521,7.111-20.861,15.884-20.861S81.739,311.479,81.739,323h7.853c0-.041,0-.078,0-.117,0-4.208,2.6-7.618,5.8-7.618s5.8,3.41,5.8,7.618c0,.039,0,.076,0,.117h9.46c0-.02,0-.041,0-.061s0-.037,0-.056c0-4.208,2.6-7.618,5.8-7.618s5.8,3.41,5.8,7.618c0,.039,0,.076,0,.117h9.46V0h-9.46c0,.039,0,.078,0,.117,0,4.207-2.6,7.618-5.8,7.618s-5.8-3.411-5.8-7.618q0-.059,0-.117h-9.46c0,.039,0,.078,0,.117,0,4.207-2.6,7.618-5.8,7.618s-5.8-3.411-5.8-7.618c0-.039,0-.078,0-.117H81.739c0,11.521-7.112,20.861-15.884,20.861S49.971,11.521,49.971,0H41.939c0,.039,0,.078,0,.117,0,4.207-2.6,7.618-5.8,7.618s-5.8-3.411-5.8-7.618c0-.039,0-.078,0-.117H20.88C20.881.039,20.881.078,20.881.117Z" transform="translate(323) rotate(90)"/>
</svg>
