<svg xmlns="http://www.w3.org/2000/svg" width="16.181" height="18.568" viewBox="0 0 16.181 18.568">
  <g id="Group" transform="translate(-0.001)">
    <path id="Union_3" data-name="Union 3" d="M477.3,10707.568a4.3,4.3,0,1,1,0-8.6h5.434a.679.679,0,1,1,0,1.357H477.3a2.944,2.944,0,1,0,0,5.888h5.434a.68.68,0,1,1,0,1.359Zm10.717-1.682-1.44-1.44-1.44,1.44a.68.68,0,0,1-.962-.96l1.443-1.442-1.443-1.44a.68.68,0,0,1,.962-.96l1.44,1.44,1.44-1.44a.68.68,0,0,1,.962.96l-1.44,1.44,1.44,1.442a.68.68,0,0,1-.962.96Zm-12.3-12.585a4.3,4.3,0,1,1,4.3,4.3A4.3,4.3,0,0,1,475.718,10693.3Zm1.357,0a2.944,2.944,0,1,0,2.945-2.942A2.946,2.946,0,0,0,477.075,10693.3Z" transform="translate(-473 -10689)" fill="#d12828"/>
  </g>
</svg>
