<svg xmlns="http://www.w3.org/2000/svg" width="9.263" height="10.105" viewBox="0 0 9.263 10.105">
  <path id="delete" d="M8.815,3.684h2.526a.421.421,0,1,1,0,.842h-.465l-.634,5.706A2.105,2.105,0,0,1,8.15,12.1H6.113A2.105,2.105,0,0,1,4.02,10.232L3.386,4.526H2.921a.421.421,0,1,1,0-.842H5.447a1.684,1.684,0,0,1,3.368,0ZM7.131,2.842a.842.842,0,0,0-.842.842H7.973A.842.842,0,0,0,7.131,2.842ZM5.868,6.21V9.579a.421.421,0,1,0,.842,0V6.21a.421.421,0,0,0-.842,0Zm2.105-.421a.421.421,0,0,0-.421.421V9.579a.421.421,0,1,0,.842,0V6.21A.421.421,0,0,0,7.973,5.789Z" transform="translate(-2.5 -2)" fill="#e30000"/>
</svg>
