<svg width="12" height="15" viewBox="0 0 12 15" fill="none" xmlns="http://www.w3.org/2000/svg">
<path d="M11.2989 2.46991H9.76095V2.14791C9.76095 1.94555 9.68056 1.75148 9.53747 1.60839C9.39438 1.4653 9.20031 1.38491 8.99795 1.38491H7.31495C7.26848 1.00214 7.08348 0.649626 6.79487 0.393935C6.50627 0.138244 6.13403 -0.00292969 5.74845 -0.00292969C5.36287 -0.00292969 4.99063 0.138244 4.70202 0.393935C4.41342 0.649626 4.22841 1.00214 4.18195 1.38491H2.49995C2.29759 1.38491 2.10352 1.4653 1.96043 1.60839C1.81734 1.75148 1.73695 1.94555 1.73695 2.14791V2.46991H0.196948C0.143905 2.46991 0.093034 2.49098 0.0555267 2.52849C0.0180195 2.56599 -0.00305176 2.61686 -0.00305176 2.66991V13.3609C-0.00305176 13.6526 0.11284 13.9324 0.31913 14.1387C0.52542 14.345 0.80521 14.4609 1.09695 14.4609H10.3909C10.6827 14.4609 10.9625 14.345 11.1688 14.1387C11.3751 13.9324 11.4909 13.6526 11.4909 13.3609V2.66791C11.4909 2.61486 11.4699 2.56399 11.4324 2.52649C11.3949 2.48898 11.344 2.46791 11.2909 2.46791L11.2989 2.46991ZM2.13295 2.14791C2.13321 2.05065 2.17196 1.95746 2.24073 1.88869C2.3095 1.81992 2.40269 1.78117 2.49995 1.78091H4.36795C4.42099 1.78091 4.47186 1.75984 4.50937 1.72233C4.54688 1.68482 4.56795 1.63395 4.56795 1.58091V1.57391C4.5769 1.26624 4.7054 0.974177 4.92619 0.75972C5.14698 0.545262 5.44265 0.425299 5.75045 0.425299C6.05824 0.425299 6.35392 0.545262 6.57471 0.75972C6.79549 0.974177 6.924 1.26624 6.93295 1.57391V1.58291C6.93295 1.63595 6.95402 1.68682 6.99153 1.72433C7.02903 1.76184 7.07991 1.78291 7.13295 1.78291H9.00095C9.09664 1.78499 9.18775 1.82426 9.25496 1.89241C9.32217 1.96055 9.36019 2.0522 9.36095 2.14791V3.32591H2.13295V2.14791ZM11.1019 13.3609C11.1017 13.5481 11.0272 13.7275 10.8949 13.8598C10.7625 13.9922 10.5831 14.0666 10.3959 14.0669H1.10095C0.913786 14.0666 0.734366 13.9922 0.602023 13.8598C0.469679 13.7275 0.395213 13.5481 0.394948 13.3609V2.86491H1.73695V3.52291C1.73695 3.57595 1.75802 3.62682 1.79553 3.66433C1.83303 3.70184 1.88391 3.72291 1.93695 3.72291H9.56095C9.61399 3.72291 9.66486 3.70184 9.70237 3.66433C9.73988 3.62682 9.76095 3.57595 9.76095 3.52291V2.86491H11.1029L11.1019 13.3609Z" fill="white"/>
<path d="M5.74793 2.4178C5.93024 2.41789 6.10695 2.35476 6.24793 2.23917C6.38892 2.12358 6.48546 1.96269 6.52112 1.78389C6.55677 1.6051 6.52932 1.41948 6.44345 1.25865C6.35758 1.09783 6.2186 0.971752 6.0502 0.901911C5.88179 0.83207 5.69438 0.822783 5.5199 0.875633C5.34541 0.928484 5.19465 1.0402 5.09331 1.19175C4.99196 1.3433 4.94629 1.5253 4.96409 1.70674C4.98189 1.88818 5.06206 2.05784 5.19093 2.1868C5.26403 2.26003 5.35085 2.31812 5.44643 2.35776C5.542 2.3974 5.64446 2.4178 5.74793 2.4178ZM5.74793 1.2388C5.83862 1.23871 5.92654 1.27008 5.99671 1.32755C6.06687 1.38502 6.11493 1.46505 6.1327 1.55398C6.15047 1.64292 6.13686 1.73527 6.09417 1.81529C6.05148 1.89532 5.98237 1.95806 5.8986 1.99284C5.81484 2.02761 5.72161 2.03227 5.6348 2.00601C5.54799 1.97975 5.47297 1.9242 5.42252 1.84882C5.37208 1.77345 5.34934 1.68291 5.35816 1.59265C5.36699 1.50238 5.40684 1.41797 5.47093 1.3538C5.50705 1.31684 5.55011 1.28739 5.59765 1.26714C5.64519 1.24689 5.69626 1.23624 5.74793 1.2358V1.2388Z" fill="white"/>
<path d="M6.426 12.63H6.283V10.413C6.283 10.3599 6.26193 10.3091 6.22442 10.2716C6.18692 10.2341 6.13605 10.213 6.083 10.213H5.292C5.23896 10.213 5.18809 10.2341 5.15058 10.2716C5.11307 10.3091 5.092 10.3599 5.092 10.413V12.63H4.633V9.76299C4.633 9.70995 4.61193 9.65907 4.57442 9.62157C4.53692 9.58406 4.48605 9.56299 4.433 9.56299H3.642C3.58896 9.56299 3.53809 9.58406 3.50058 9.62157C3.46307 9.65907 3.442 9.70995 3.442 9.76299V12.63H2.983V11.283C2.983 11.2299 2.96193 11.1791 2.92442 11.1416C2.88692 11.1041 2.83605 11.083 2.783 11.083H1.992C1.93896 11.083 1.88809 11.1041 1.85058 11.1416C1.81307 11.1791 1.792 11.2299 1.792 11.283V12.63H1.653C1.59996 12.63 1.54909 12.6511 1.51158 12.6886C1.47407 12.7261 1.453 12.7769 1.453 12.83C1.453 12.883 1.47407 12.9339 1.51158 12.9714C1.54909 13.0089 1.59996 13.03 1.653 13.03H6.427C6.48005 13.03 6.53092 13.0089 6.56842 12.9714C6.60593 12.9339 6.627 12.883 6.627 12.83C6.627 12.7769 6.60593 12.7261 6.56842 12.6886C6.53092 12.6511 6.47905 12.63 6.426 12.63ZM2.187 12.63V11.48H2.587V12.63H2.187ZM3.841 12.63V9.95999H4.241V12.63H3.841ZM5.495 12.63V10.61H5.895V12.63H5.495Z" fill="white"/>
<path d="M8.13599 4.93018C7.63061 4.92957 7.14067 5.10424 6.74966 5.42442C6.35865 5.7446 6.09079 6.19047 5.99172 6.68604C5.89265 7.18161 5.96851 7.6962 6.20637 8.1421C6.44423 8.588 6.82936 8.9376 7.29613 9.13133C7.7629 9.32506 8.2824 9.35092 8.7661 9.2045C9.2498 9.05808 9.66775 8.74845 9.94871 8.32837C10.2297 7.9083 10.3563 7.40379 10.3069 6.90083C10.2575 6.39788 10.0353 5.9276 9.67799 5.57018C9.26916 5.16086 8.71451 4.93066 8.13599 4.93018ZM8.13599 8.89918C7.68054 8.89749 7.24292 8.72195 6.91255 8.40844C6.58217 8.09493 6.38397 7.6671 6.35844 7.21237C6.33291 6.75763 6.48197 6.31031 6.77517 5.96178C7.06838 5.61326 7.48359 5.38984 7.93599 5.33718V7.11318C7.93621 7.16565 7.95704 7.21593 7.99399 7.25318L9.24899 8.50918C8.93336 8.76237 8.54062 8.89999 8.13599 8.89918ZM9.53599 8.22818L8.33599 7.02818V5.33718C8.65395 5.37224 8.95666 5.492 9.21254 5.68397C9.46842 5.87594 9.66808 6.13308 9.79068 6.42854C9.91327 6.72399 9.95431 7.04695 9.90951 7.36368C9.86472 7.68041 9.73572 7.97831 9.53599 8.22818Z" fill="white"/>
<path d="M1.653 5.70615H5.159C5.21205 5.70615 5.26292 5.68508 5.30042 5.64757C5.33793 5.61007 5.359 5.5592 5.359 5.50615C5.359 5.45311 5.33793 5.40224 5.30042 5.36473C5.26292 5.32722 5.21205 5.30615 5.159 5.30615H1.653C1.59996 5.30615 1.54909 5.32722 1.51158 5.36473C1.47407 5.40224 1.453 5.45311 1.453 5.50615C1.453 5.5592 1.47407 5.61007 1.51158 5.64757C1.54909 5.68508 1.59996 5.70615 1.653 5.70615Z" fill="white"/>
<path d="M1.653 6.84092H5.159C5.21205 6.84092 5.26292 6.81985 5.30042 6.78234C5.33793 6.74483 5.359 6.69396 5.359 6.64092C5.359 6.58788 5.33793 6.537 5.30042 6.4995C5.26292 6.46199 5.21205 6.44092 5.159 6.44092H1.653C1.62674 6.44092 1.60073 6.44609 1.57647 6.45614C1.5522 6.46619 1.53015 6.48092 1.51158 6.4995C1.49301 6.51807 1.47828 6.54012 1.46823 6.56438C1.45818 6.58865 1.453 6.61465 1.453 6.64092C1.453 6.66718 1.45818 6.69319 1.46823 6.71745C1.47828 6.74172 1.49301 6.76377 1.51158 6.78234C1.53015 6.80091 1.5522 6.81564 1.57647 6.82569C1.60073 6.83574 1.62674 6.84092 1.653 6.84092Z" fill="white"/>
<path d="M1.653 7.97519H5.159C5.21205 7.97519 5.26292 7.95412 5.30042 7.91662C5.33793 7.87911 5.359 7.82824 5.359 7.7752C5.359 7.72215 5.33793 7.67128 5.30042 7.63377C5.26292 7.59627 5.21205 7.5752 5.159 7.5752H1.653C1.59996 7.5752 1.54909 7.59627 1.51158 7.63377C1.47407 7.67128 1.453 7.72215 1.453 7.7752C1.453 7.82824 1.47407 7.87911 1.51158 7.91662C1.54909 7.95412 1.59996 7.97519 1.653 7.97519Z" fill="white"/>
<path d="M10.12 10.3589H7.72002C7.66697 10.3589 7.61611 10.38 7.5786 10.4175C7.54109 10.455 7.52002 10.5058 7.52002 10.5589C7.52002 10.6119 7.54109 10.6628 7.5786 10.7003C7.61611 10.7378 7.66697 10.7589 7.72002 10.7589H10.12C10.1731 10.7589 10.2239 10.7378 10.2614 10.7003C10.2989 10.6628 10.32 10.6119 10.32 10.5589C10.32 10.5058 10.2989 10.455 10.2614 10.4175C10.2239 10.38 10.1731 10.3589 10.12 10.3589Z" fill="white"/>
<path d="M10.12 11.4951H7.72002C7.66697 11.4951 7.61611 11.5162 7.5786 11.5537C7.54109 11.5912 7.52002 11.6421 7.52002 11.6951C7.52002 11.7482 7.54109 11.799 7.5786 11.8365C7.61611 11.874 7.66697 11.8951 7.72002 11.8951H10.12C10.1731 11.8951 10.2239 11.874 10.2614 11.8365C10.2989 11.799 10.32 11.7482 10.32 11.6951C10.32 11.6421 10.2989 11.5912 10.2614 11.5537C10.2239 11.5162 10.1731 11.4951 10.12 11.4951Z" fill="white"/>
<path d="M10.12 12.6299H7.72002C7.66697 12.6299 7.61611 12.651 7.5786 12.6885C7.54109 12.726 7.52002 12.7768 7.52002 12.8299C7.52002 12.8829 7.54109 12.9338 7.5786 12.9713C7.61611 13.0088 7.66697 13.0299 7.72002 13.0299H10.12C10.1731 13.0299 10.2239 13.0088 10.2614 12.9713C10.2989 12.9338 10.32 12.8829 10.32 12.8299C10.32 12.7768 10.2989 12.726 10.2614 12.6885C10.2239 12.651 10.1731 12.6299 10.12 12.6299Z" fill="white"/>
</svg>
