<svg width="10" height="12" viewBox="0 0 10 12" fill="none" xmlns="http://www.w3.org/2000/svg">
<path d="M9.3785 2.04812H8.0977V1.78294C8.0974 1.61521 8.0307 1.45443 7.912 1.33583C7.7934 1.21722 7.6327 1.15047 7.4649 1.1502H6.06839C6.0295 0.83286 5.87585 0.54071 5.63642 0.32884C5.39699 0.11696 5.08832 0 4.76861 0C4.44889 0 4.14022 0.11696 3.90079 0.32884C3.66136 0.54071 3.50772 0.83286 3.46882 1.1502H2.07331C1.90558 1.15047 1.74479 1.21722 1.62619 1.33583C1.50759 1.45443 1.44084 1.61521 1.44057 1.78294V2.04812H0.16382C0.12037 2.04812 0.0787001 2.06538 0.0479801 2.0961C0.0172601 2.12683 0 2.16849 0 2.21194V11.0857C0.00027 11.3281 0.09669 11.5605 0.26809 11.7319C0.4395 11.9033 0.6719 11.9997 0.9143 12H8.627C8.8694 11.9997 9.1018 11.9033 9.2732 11.7319C9.4446 11.5605 9.541 11.3281 9.5413 11.0857V2.21399C9.5416 2.19239 9.5376 2.17095 9.5295 2.15091C9.5215 2.13086 9.5096 2.1126 9.4944 2.09719C9.4793 2.08177 9.4613 2.0695 9.4414 2.06108C9.4215 2.05266 9.4001 2.04826 9.3785 2.04812ZM1.77127 1.7809C1.77127 1.69943 1.80363 1.62131 1.86123 1.5637C1.91884 1.5061 1.99696 1.47374 2.07843 1.47374H3.62343C3.64494 1.47374 3.66624 1.4695 3.68612 1.46127C3.70599 1.45304 3.72405 1.44097 3.73926 1.42576C3.75447 1.41055 3.76654 1.39249 3.77477 1.37261C3.783 1.35274 3.78724 1.33144 3.78724 1.30992V1.30685C3.78724 1.04658 3.89064 0.79696 4.07468 0.61292C4.25872 0.42888 4.50833 0.32549 4.76861 0.32549C5.02888 0.32549 5.2785 0.42888 5.46254 0.61292C5.64658 0.79696 5.74997 1.04658 5.74997 1.30685V1.31402C5.74997 1.33553 5.75421 1.35683 5.76244 1.37671C5.77068 1.39658 5.78274 1.41464 5.79795 1.42985C5.81317 1.44507 5.83123 1.45713 5.8511 1.46537C5.87098 1.4736 5.89228 1.47784 5.91379 1.47784H7.4639C7.5454 1.47784 7.6235 1.5102 7.6811 1.5678C7.7387 1.6254 7.7711 1.70353 7.7711 1.78499V2.76482H1.7682L1.77127 1.7809ZM9.2147 11.0867C9.2144 11.242 9.1526 11.3908 9.0429 11.5005C8.9331 11.6103 8.7843 11.6721 8.6291 11.6724H0.91328C0.75804 11.6721 0.60924 11.6103 0.49946 11.5005C0.38969 11.3908 0.3279 11.242 0.32763 11.0867V2.3778H1.44057V2.92454C1.44057 2.94606 1.4448 2.96736 1.45303 2.98723C1.46127 3.00711 1.47333 3.02517 1.48855 3.04038C1.50376 3.05559 1.52182 3.06766 1.54169 3.07589C1.56157 3.08412 1.58287 3.08836 1.60438 3.08836H7.9339C7.9554 3.08836 7.9767 3.08412 7.9965 3.07589C8.0164 3.06766 8.0345 3.05559 8.0497 3.04038C8.0649 3.02517 8.077 3.00711 8.0852 2.98723C8.0934 2.96736 8.0977 2.94606 8.0977 2.92454V2.3778H9.2106L9.2147 11.0867Z" fill="white"/>
</svg>
