<svg xmlns="http://www.w3.org/2000/svg" width="14" height="14" viewBox="0 0 14 14">
  <path id="Symbol" d="M-8.511,1.921a7.04,7.04,0,0,0,7-7,7.038,7.038,0,0,0-7-7,7.034,7.034,0,0,0-7,7A7.04,7.04,0,0,0-8.511,1.921Zm-.744-3.669a.865.865,0,0,1-.7-.368l-1.608-1.935a.814.814,0,0,1-.194-.516.677.677,0,0,1,.683-.683.692.692,0,0,1,.569.3l1.233,1.533L-6.588-7.7a.705.705,0,0,1,.6-.388.677.677,0,0,1,.71.649.938.938,0,0,1-.181.5L-8.584-2.13A.788.788,0,0,1-9.254-1.748Z" transform="translate(15.511 12.079)" fill="#629677"/>
</svg>
