<svg width="12" height="12" viewBox="0 0 12 12" fill="none" xmlns="http://www.w3.org/2000/svg">
<g clip-path="url(#clip0_3527_8612)">
<path d="M10.5975 2H1.40371C1.03161 2.00064 0.674946 2.14873 0.411838 2.41184C0.14873 2.67495 0.000635511 3.03162 0 3.40371V9.34301C0.000635511 9.7151 0.14873 10.0718 0.411838 10.3349C0.674946 10.598 1.03161 10.7461 1.40371 10.7467H10.5975C10.9696 10.7461 11.3263 10.598 11.5894 10.3349C11.8525 10.0718 12.0006 9.7151 12.0012 9.34301V3.40371C12.0006 3.03162 11.8525 2.67495 11.5894 2.41184C11.3263 2.14873 10.9696 2.00064 10.5975 2ZM11.3907 9.34301C11.3908 9.44722 11.3704 9.55044 11.3306 9.64674C11.2908 9.74305 11.2324 9.83055 11.1587 9.90424C11.085 9.97792 10.9975 10.0363 10.9012 10.0761C10.8049 10.116 10.7017 10.1364 10.5975 10.1362H1.40371C1.2995 10.1364 1.19628 10.116 1.09998 10.0761C1.00367 10.0363 0.916169 9.97792 0.842483 9.90424C0.768797 9.83055 0.710377 9.74305 0.670572 9.64674C0.630766 9.55044 0.610358 9.44722 0.610516 9.34301V3.40371C0.610358 3.2995 0.630766 3.19628 0.670572 3.09998C0.710377 3.00367 0.768797 2.91617 0.842483 2.84248C0.916169 2.7688 1.00367 2.71038 1.09998 2.67057C1.19628 2.63077 1.2995 2.61036 1.40371 2.61052H3.82414L4.77116 3.74261C4.9014 3.89717 5.06388 4.02136 5.2472 4.10648C5.43051 4.1916 5.63023 4.23558 5.83235 4.23535H11.3895L11.3907 9.34301ZM11.3907 3.62724H5.82874C5.71572 3.62664 5.60415 3.60163 5.50169 3.55392C5.39922 3.50621 5.30827 3.43694 5.23505 3.35083L4.62694 2.61052H10.6023C10.7065 2.61036 10.8097 2.63077 10.906 2.67057C11.0023 2.71038 11.0898 2.7688 11.1635 2.84248C11.2372 2.91617 11.2956 3.00367 11.3354 3.09998C11.3752 3.19628 11.3957 3.2995 11.3955 3.40371L11.3907 3.62724Z" fill="#303754"/>
<path d="M5.83819 4.23181C5.63608 4.23204 5.43636 4.18805 5.25304 4.10294C5.06972 4.01782 4.90725 3.89363 4.777 3.73907L3.82397 2.60938H1.40354C1.29933 2.60922 1.19612 2.62963 1.09981 2.66943C1.00351 2.70924 0.916005 2.76766 0.842319 2.84134C0.768633 2.91503 0.710214 3.00253 0.670408 3.09884C0.630603 3.19514 0.610194 3.29836 0.610352 3.40257V9.34188C0.610194 9.44608 0.630603 9.5493 0.670408 9.6456C0.710214 9.74191 0.768633 9.82941 0.842319 9.9031C0.916005 9.97678 1.00351 10.0352 1.09981 10.075C1.19612 10.1148 1.29933 10.1352 1.40354 10.1351H10.5973C10.7015 10.1352 10.8048 10.1148 10.9011 10.075C10.9974 10.0352 11.0849 9.97678 11.1586 9.9031C11.2322 9.82941 11.2907 9.74191 11.3305 9.6456C11.3703 9.5493 11.3907 9.44608 11.3905 9.34188V4.23181H5.83819ZM7.3068 9.11353H4.69889C4.61793 9.11353 4.54028 9.08137 4.48304 9.02412C4.42579 8.96688 4.39363 8.88923 4.39363 8.80827C4.39363 8.72732 4.42579 8.64967 4.48304 8.59242C4.54028 8.53518 4.61793 8.50302 4.69889 8.50302H7.30199C7.38295 8.50302 7.46059 8.53518 7.51784 8.59242C7.57509 8.64967 7.60725 8.72732 7.60725 8.80827C7.60725 8.88923 7.57509 8.96688 7.51784 9.02412C7.46059 9.08137 7.38295 9.11353 7.30199 9.11353H7.3068ZM7.44501 7.45384L6.14345 8.10522L6.13744 8.10391L6.13143 8.10522C6.09202 8.12401 6.04891 8.13376 6.00524 8.13376C5.96158 8.13376 5.91847 8.12401 5.87906 8.10522L5.87305 8.10391L5.86704 8.10522L4.56549 7.45384C4.52938 7.436 4.4972 7.41113 4.47082 7.3807C4.44445 7.35026 4.42441 7.31487 4.41187 7.2766C4.39934 7.23833 4.39456 7.19794 4.39783 7.1578C4.40109 7.11766 4.41233 7.07857 4.43088 7.04283C4.4679 6.97082 4.53181 6.91631 4.60875 6.89112C4.68569 6.86592 4.76946 6.87207 4.8419 6.90822L5.69999 7.33967V5.55379C5.69999 5.47283 5.73215 5.39519 5.7894 5.33794C5.84664 5.2807 5.92429 5.24853 6.00524 5.24853C6.0862 5.24853 6.16385 5.2807 6.2211 5.33794C6.27834 5.39519 6.3105 5.47283 6.3105 5.55379V7.34448L7.16859 6.91303C7.24097 6.87655 7.32486 6.87023 7.40189 6.89546C7.47892 6.92069 7.54282 6.9754 7.57961 7.04763C7.59799 7.08367 7.60898 7.12302 7.6119 7.16337C7.61483 7.20372 7.60964 7.24425 7.59665 7.28256C7.58365 7.32088 7.56311 7.3562 7.53624 7.38644C7.50937 7.41668 7.47671 7.44124 7.4402 7.45865L7.44501 7.45384Z" fill="white"/>
<path d="M11.3896 3.40257V3.63091H5.83371C5.72069 3.63031 5.60912 3.6053 5.50666 3.55759C5.40419 3.50988 5.31324 3.4406 5.24002 3.35449L4.62109 2.60938H10.5965C10.7007 2.60922 10.8039 2.62963 10.9002 2.66943C10.9965 2.70924 11.084 2.76766 11.1577 2.84134C11.2314 2.91503 11.2898 3.00253 11.3296 3.09884C11.3694 3.19514 11.3898 3.29836 11.3896 3.40257Z" fill="#2C98F6"/>
<path d="M7.44075 7.46011L6.1392 8.11149C6.13731 8.11063 6.13526 8.11018 6.13319 8.11018C6.13112 8.11018 6.12907 8.11063 6.12718 8.11149C6.08777 8.13028 6.04465 8.14003 6.00099 8.14003C5.95733 8.14003 5.91422 8.13028 5.8748 8.11149C5.87292 8.11063 5.87087 8.11018 5.86879 8.11018C5.86672 8.11018 5.86467 8.11063 5.86278 8.11149L4.56123 7.46011C4.52513 7.44227 4.49295 7.4174 4.46657 7.38697C4.44019 7.35653 4.42015 7.32114 4.40762 7.28287C4.39509 7.2446 4.39031 7.20421 4.39357 7.16407C4.39684 7.12393 4.40808 7.08484 4.42663 7.0491C4.46365 6.9771 4.52756 6.92259 4.6045 6.89739C4.68144 6.87219 4.76521 6.87834 4.83765 6.9145L5.69573 7.34594V5.55526C5.69573 5.4743 5.72789 5.39665 5.78514 5.33941C5.84239 5.28216 5.92003 5.25 6.00099 5.25C6.08195 5.25 6.15959 5.28216 6.21684 5.33941C6.27409 5.39665 6.30625 5.4743 6.30625 5.55526V7.34594L7.16434 6.9145C7.23672 6.87802 7.32061 6.8717 7.39764 6.89692C7.47467 6.92215 7.53857 6.97687 7.57535 7.0491C7.59391 7.08484 7.60514 7.12393 7.60841 7.16407C7.61167 7.20421 7.6069 7.2446 7.59436 7.28287C7.58183 7.32114 7.56179 7.35653 7.53541 7.38697C7.50904 7.4174 7.47685 7.44227 7.44075 7.46011Z" fill="#303754"/>
<path d="M7.60759 8.80916C7.60696 8.88993 7.5746 8.96721 7.51749 9.02432C7.46037 9.08143 7.3831 9.11379 7.30233 9.11442H4.69442C4.61346 9.11442 4.53582 9.08226 4.47857 9.02501C4.42132 8.96777 4.38916 8.89012 4.38916 8.80916C4.38916 8.7282 4.42132 8.65056 4.47857 8.59331C4.53582 8.53607 4.61346 8.50391 4.69442 8.50391H7.30233C7.3831 8.50453 7.46037 8.5369 7.51749 8.59401C7.5746 8.65112 7.60696 8.7284 7.60759 8.80916Z" fill="#303754"/>
</g>
<defs>
<clipPath id="clip0_3527_8612">
<rect width="12" height="12" fill="white"/>
</clipPath>
</defs>
</svg>
