<svg xmlns="http://www.w3.org/2000/svg" width="8.864" height="8.864" viewBox="0 0 8.864 8.864">
  <g id="edit" transform="translate(-3 -2.939)">
    <path id="Path_12682" data-name="Path 12682" d="M13.171,3.955l.839.84m-.3-1.579L11.44,5.486a.84.84,0,0,0-.23.429L11,6.965l1.05-.21a.84.84,0,0,0,.429-.23L14.75,4.255A.735.735,0,0,0,13.71,3.215Z" transform="translate(-3.601 0.439)" fill="none" stroke="#ffcf49" stroke-linecap="round" stroke-linejoin="round" stroke-width="1"/>
    <path id="Path_12683" data-name="Path 12683" d="M10.8,9.531v1.359a.906.906,0,0,1-.906.906H4.906A.906.906,0,0,1,4,10.891V5.906A.906.906,0,0,1,4.906,5H6.266" transform="translate(0 -0.994)" fill="none" stroke="#ffcf49" stroke-linecap="round" stroke-linejoin="round" stroke-width="2"/>
  </g>
</svg>
