<svg xmlns="http://www.w3.org/2000/svg" width="10.128" height="10.128" viewBox="0 0 10.128 10.128">
  <g id="Group_4983" data-name="Group 4983" transform="translate(-71.5 -185.5)">
    <path id="Path_12723" data-name="Path 12723" d="M13.939,4.293,15.076,5.43M14.67,3.291,11.6,6.367a1.137,1.137,0,0,0-.311.581L11,8.369l1.422-.284A1.137,1.137,0,0,0,13,7.774L16.078,4.7A1,1,0,0,0,14.67,3.291Z" transform="translate(64.759 183)" fill="none" stroke="#02bb35" stroke-linecap="round" stroke-linejoin="round" stroke-width="1"/>
    <path id="Path_12724" data-name="Path 12724" d="M12.054,10.369V11.98a1.074,1.074,0,0,1-1.074,1.074H5.074A1.074,1.074,0,0,1,4,11.98V6.074A1.074,1.074,0,0,1,5.074,5H6.685" transform="translate(68 182.074)" fill="none" stroke="#02bb35" stroke-linecap="round" stroke-linejoin="round" stroke-width="1"/>
  </g>
</svg>
