<svg xmlns="http://www.w3.org/2000/svg" width="31.506" height="28.881" viewBox="0 0 31.506 28.881">
  <path id="Union_4" data-name="Union 4" d="M654.486,11134.785l-20.3-5.438a2.983,2.983,0,0,1-2.09-3.616l3.186-10.63v8.951a4.821,4.821,0,0,0,.226,1.422l.047.151a4.909,4.909,0,0,0,4.647,3.348h19.058l-1.182,3.761a2.925,2.925,0,0,1-2.836,2.146A3.08,3.08,0,0,1,654.486,11134.785Zm-13.953-7.78a3.286,3.286,0,0,1-3.281-3.283v-14.439a3.286,3.286,0,0,1,3.281-3.283h19.69a3.287,3.287,0,0,1,3.284,3.283v14.439a3.287,3.287,0,0,1-3.284,3.283Zm-.657-17.723v12.391l3.624-3.621a2.3,2.3,0,0,1,3.256,0l1.587,1.584,4.876-5.852a2.3,2.3,0,0,1,1.752-.83,2.353,2.353,0,0,1,1.76.808l4.147,4.838v-9.317a.656.656,0,0,0-.657-.656h-19.69A.656.656,0,0,0,639.876,11109.282Zm1.313,3.281a2.625,2.625,0,1,1,2.627,2.627A2.626,2.626,0,0,1,641.19,11112.563Z" transform="translate(-632 -11105.999)" fill="#aaa"/>
</svg>
