<svg width="12" height="12" viewBox="0 0 12 12" fill="none" xmlns="http://www.w3.org/2000/svg">
<g clip-path="url(#clip0_3527_8585)">
<path d="M11.625 10.125H6.375C6.168 10.125 6 9.957 6 9.75C6 9.543 6 2.457 6 2.25C6 2.043 6.168 1.875 6.375 1.875H11.625C11.832 1.875 12 2.043 12 2.25V9.75C12 9.957 11.832 10.125 11.625 10.125Z" fill="#ECEFF1"/>
<path d="M7.875 4.125H6.375C6.168 4.125 6 3.957 6 3.75C6 3.543 6.168 3.375 6.375 3.375H7.875C8.082 3.375 8.25 3.543 8.25 3.75C8.25 3.957 8.082 4.125 7.875 4.125Z" fill="#388E3C"/>
<path d="M7.875 5.625H6.375C6.168 5.625 6 5.457 6 5.25C6 5.043 6.168 4.875 6.375 4.875H7.875C8.082 4.875 8.25 5.043 8.25 5.25C8.25 5.457 8.082 5.625 7.875 5.625Z" fill="#388E3C"/>
<path d="M7.875 7.125H6.375C6.168 7.125 6 6.957 6 6.75C6 6.543 6.168 6.375 6.375 6.375H7.875C8.082 6.375 8.25 6.543 8.25 6.75C8.25 6.957 8.082 7.125 7.875 7.125Z" fill="#388E3C"/>
<path d="M7.875 8.625H6.375C6.168 8.625 6 8.457 6 8.25C6 8.043 6.168 7.875 6.375 7.875H7.875C8.082 7.875 8.25 8.043 8.25 8.25C8.25 8.457 8.082 8.625 7.875 8.625Z" fill="#388E3C"/>
<path d="M10.125 4.125H9.375C9.168 4.125 9 3.957 9 3.75C9 3.543 9.168 3.375 9.375 3.375H10.125C10.332 3.375 10.5 3.543 10.5 3.75C10.5 3.957 10.332 4.125 10.125 4.125Z" fill="#388E3C"/>
<path d="M10.125 5.625H9.375C9.168 5.625 9 5.457 9 5.25C9 5.043 9.168 4.875 9.375 4.875H10.125C10.332 4.875 10.5 5.043 10.5 5.25C10.5 5.457 10.332 5.625 10.125 5.625Z" fill="#388E3C"/>
<path d="M10.125 7.125H9.375C9.168 7.125 9 6.957 9 6.75C9 6.543 9.168 6.375 9.375 6.375H10.125C10.332 6.375 10.5 6.543 10.5 6.75C10.5 6.957 10.332 7.125 10.125 7.125Z" fill="#388E3C"/>
<path d="M10.125 8.625H9.375C9.168 8.625 9 8.457 9 8.25C9 8.043 9.168 7.875 9.375 7.875H10.125C10.332 7.875 10.5 8.043 10.5 8.25C10.5 8.457 10.332 8.625 10.125 8.625Z" fill="#388E3C"/>
<path d="M6.61425 0.461755C6.52875 0.390505 6.414 0.359755 6.306 0.382255L0.306 1.50726C0.12825 1.54026 0 1.69476 0 1.87551V10.1255C0 10.3055 0.12825 10.4608 0.306 10.4938L6.306 11.6188C6.3285 11.6233 6.35175 11.6255 6.375 11.6255C6.462 11.6255 6.54675 11.5955 6.61425 11.5393C6.7005 11.468 6.75 11.3615 6.75 11.2505V0.750505C6.75 0.638755 6.7005 0.533005 6.61425 0.461755Z" fill="#2E7D32"/>
<path d="M5.1569 7.25289L3.97115 5.89764L5.1704 4.35564C5.2979 4.19214 5.2679 3.95664 5.10515 3.82914C4.9424 3.70164 4.7069 3.73164 4.57865 3.89439L3.4679 5.32239L2.5319 4.25289C2.39465 4.09539 2.15765 4.08114 2.00315 4.21764C1.84715 4.35414 1.8314 4.59114 1.9679 4.74639L2.99915 5.92539L1.95365 7.26939C1.82615 7.43289 1.85615 7.66839 2.0189 7.79589C2.0879 7.84914 2.16965 7.87464 2.2499 7.87464C2.36165 7.87464 2.4719 7.82514 2.54615 7.72989L3.5024 6.49989L4.5929 7.74564C4.66715 7.83114 4.77065 7.87464 4.8749 7.87464C4.96265 7.87464 5.0504 7.84389 5.12165 7.78164C5.27765 7.64514 5.2934 7.40814 5.1569 7.25289Z" fill="#FAFAFA"/>
</g>
<defs>
<clipPath id="clip0_3527_8585">
<rect width="12" height="12" fill="white"/>
</clipPath>
</defs>
</svg>
