<svg xmlns="http://www.w3.org/2000/svg" width="16.483" height="16.483" viewBox="0 0 16.483 16.483">
  <g id="equalizer_876195" transform="translate(0 0)">
    <g id="Group_4169" data-name="Group 4169" transform="translate(0 5.886)">
      <g id="Group_4168" data-name="Group 4168">
        <path id="Path_12720" data-name="Path 12720" d="M15.894,172.433h-9.5a2.343,2.343,0,0,0-4.542,0H.589a.589.589,0,1,0,0,1.177H1.85a2.343,2.343,0,0,0,4.542,0h9.5a.589.589,0,1,0,0-1.177ZM4.121,174.2A1.177,1.177,0,1,1,5.3,173.021,1.177,1.177,0,0,1,4.121,174.2Z" transform="translate(0 -170.667)"/>
      </g>
    </g>
    <g id="Group_4171" data-name="Group 4171" transform="translate(0 0)">
      <g id="Group_4170" data-name="Group 4170" transform="translate(0 0)">
        <path id="Path_12721" data-name="Path 12721" d="M15.894,1.766h-1.85a2.343,2.343,0,0,0-4.542,0H.589a.589.589,0,1,0,0,1.177H9.5a2.343,2.343,0,0,0,4.542,0h1.85a.589.589,0,0,0,0-1.177ZM11.773,3.532a1.177,1.177,0,1,1,1.177-1.177A1.177,1.177,0,0,1,11.773,3.532Z" transform="translate(0 0)"/>
      </g>
    </g>
    <g id="Group_4173" data-name="Group 4173" transform="translate(0 11.773)">
      <g id="Group_4172" data-name="Group 4172">
        <path id="Path_12722" data-name="Path 12722" d="M15.894,343.1H12.867a2.343,2.343,0,0,0-4.542,0H.589a.589.589,0,1,0,0,1.177H8.325a2.344,2.344,0,0,0,4.542,0h3.027a.589.589,0,1,0,0-1.177Zm-5.3,1.766a1.177,1.177,0,1,1,1.177-1.177A1.177,1.177,0,0,1,10.6,344.866Z" transform="translate(0 -341.334)"/>
      </g>
    </g>
  </g>
</svg>
