<svg xmlns="http://www.w3.org/2000/svg" width="43.974" height="46.466" viewBox="0 0 43.974 46.466">
  <g id="Layer_2" transform="translate(-5.496 -4)">
    <g id="Group_4350" data-name="Group 4350" transform="translate(5.496 4)">
      <g id="Group_4348" data-name="Group 4348" transform="translate(0.367 0.39)">
        <g id="Group_4347" data-name="Group 4347" transform="translate(0 15.839)">
          <g id="Group_4346" data-name="Group 4346">
            <path id="Path_13007" data-name="Path 13007" d="M37.122,40.775l8.976-8.86a4.382,4.382,0,0,0,4.48-1.02,4.252,4.252,0,0,0,1.161-3.974l-1.634,1.618a1.573,1.573,0,0,1-2.2,0l-1.1-1.087a1.527,1.527,0,0,1,0-2.174l1.634-1.609a4.356,4.356,0,0,0-4.015,1.153,4.25,4.25,0,0,0-1.037,4.43L34.417,38.1a4.4,4.4,0,0,0-4.488,1.02,4.207,4.207,0,0,0-1.161,3.957L30.4,41.463a1.573,1.573,0,0,1,2.2,0l1.1,1.087a1.527,1.527,0,0,1,0,2.174l-1.634,1.618a4.382,4.382,0,0,0,4.024-1.153,4.219,4.219,0,0,0,1.029-4.414Z" transform="translate(-9.81 -23.562)" fill="#cfdce5"/>
            <path id="Path_13008" data-name="Path 13008" d="M14.41,29.236l8.976,8.86a4.382,4.382,0,0,1,4.48,1.02,4.252,4.252,0,0,1,1.161,3.974l-1.634-1.618a1.573,1.573,0,0,0-2.2,0l-1.1,1.087a1.527,1.527,0,0,0,0,2.174l1.634,1.609a4.356,4.356,0,0,1-4.015-1.153,4.25,4.25,0,0,1-1.037-4.43L11.7,31.915a4.4,4.4,0,0,1-4.488-1.02,4.207,4.207,0,0,1-1.161-3.957l1.634,1.609a1.573,1.573,0,0,0,2.2,0l1.1-1.087a1.527,1.527,0,0,0,0-2.174L9.349,23.669a4.382,4.382,0,0,1,4.024,1.153A4.239,4.239,0,0,1,14.41,29.236Z" transform="translate(-5.938 -23.563)" fill="#cfdce5"/>
          </g>
        </g>
        <path id="Path_13009" data-name="Path 13009" d="M44.387,50.887a1.185,1.185,0,0,1-1.195,1.17H12.6a1.177,1.177,0,0,1-1.186-1.17,11.766,11.766,0,0,1,3.518-8.379,12.087,12.087,0,0,1,8.5-3.468h8.951A11.927,11.927,0,0,1,44.387,50.887Z" transform="translate(-6.871 -10.361)" fill="#aa6a51"/>
        <path id="Path_13010" data-name="Path 13010" d="M25.76,29.91h9.159v6.819a5.773,5.773,0,0,1-2.29,4.7,3.561,3.561,0,0,1-4.579,0,5.773,5.773,0,0,1-2.29-4.7Z" transform="translate(-9.316 -8.805)" fill="#ffcebf"/>
        <path id="Path_13011" data-name="Path 13011" d="M36.461,18.15h-15v.025a3.448,3.448,0,0,0,0,6.853v.025H36.469a3.454,3.454,0,0,0-.008-6.9Z" transform="translate(-8.062 -6.801)" fill="#ffcebf"/>
        <path id="Path_13012" data-name="Path 13012" d="M29.739,31.791h-.158a7.774,7.774,0,0,1-7.831-7.715V14.768c4.729-4.181,9.972-4.413,15.821,0v9.308A7.779,7.779,0,0,1,29.739,31.791Z" transform="translate(-8.633 -5.675)" fill="#ffdfcf"/>
        <path id="Path_13013" data-name="Path 13013" d="M39.476,15.44v1.112a.814.814,0,0,1-.813.813H19.673a.809.809,0,0,1-.813-.813V15.44a9.939,9.939,0,0,1,2.447-6.546c.183-.207.357-.4.556-.589A9.929,9.929,0,0,1,28.84,5.46h.672a9.982,9.982,0,0,1,7,2.862c.2.2.382.4.556.606A9.989,9.989,0,0,1,39.476,15.44Z" transform="translate(-8.14 -4.639)" fill="#ffc344"/>
        <path id="Path_13014" data-name="Path 13014" d="M19.37,47.81H39.139v5.741H19.37Z" transform="translate(-8.227 -11.855)" fill="#fea613"/>
        <path id="Path_13015" data-name="Path 13015" d="M42.452,48.505H40.519a1.664,1.664,0,0,1-1.659-1.659V39.33a3.594,3.594,0,0,1,3.592,3.592Z" transform="translate(-11.548 -10.41)" fill="#e58200"/>
        <path id="Path_13016" data-name="Path 13016" d="M19.37,48.435H21.3a1.664,1.664,0,0,0,1.659-1.659V39.26a3.594,3.594,0,0,0-3.592,3.592Z" transform="translate(-8.227 -10.398)" fill="#e58200"/>
        <path id="Path_13017" data-name="Path 13017" d="M31.7,14.417H29.615a1.5,1.5,0,0,1-1.493-1.4L27.6,6.1A1.5,1.5,0,0,1,29.092,4.47H32.22A1.5,1.5,0,0,1,33.713,6.1l-.523,6.919A1.509,1.509,0,0,1,31.7,14.417Z" transform="translate(-9.629 -4.47)" fill="#fea613"/>
        <path id="Path_13018" data-name="Path 13018" d="M24.69,52.56H35.632v1.8H24.69Z" transform="translate(-9.134 -12.664)" fill="#e58200"/>
        <path id="Path_13019" data-name="Path 13019" d="M52.577,52.168l.207.083a.564.564,0,0,1,.249.871,7.821,7.821,0,0,1-1.385,1.385.578.578,0,0,1-.879-.232l-.108-.241a.582.582,0,0,0-.763-.3l-1.593.68a.569.569,0,0,0-.3.755l.091.2a.571.571,0,0,1-.448.8,7.793,7.793,0,0,1-1.966.008.567.567,0,0,1-.456-.78l.1-.249A.572.572,0,0,0,45,54.4l-1.609-.63a.572.572,0,0,0-.747.324l-.083.207a.576.576,0,0,1-.879.249A8.069,8.069,0,0,1,40.29,53.18a.57.57,0,0,1,.232-.871l.241-.108a.569.569,0,0,0,.3-.755l-.689-1.576a.582.582,0,0,0-.763-.3l-.2.091a.579.579,0,0,1-.8-.44,7.663,7.663,0,0,1-.008-1.95.578.578,0,0,1,.788-.456l.249.1a.572.572,0,0,0,.747-.324l.639-1.6a.572.572,0,0,0-.324-.747l-.207-.083a.564.564,0,0,1-.249-.871,7.821,7.821,0,0,1,1.385-1.385.578.578,0,0,1,.879.232l.108.241a.582.582,0,0,0,.763.3L44.969,42a.569.569,0,0,0,.3-.755l-.091-.2a.571.571,0,0,1,.448-.8,7.794,7.794,0,0,1,1.966-.008.567.567,0,0,1,.456.78l-.1.249a.572.572,0,0,0,.324.747l1.609.631a.572.572,0,0,0,.747-.324l.083-.207a.576.576,0,0,1,.879-.249,8.069,8.069,0,0,1,1.394,1.369.57.57,0,0,1-.232.871l-.241.108a.569.569,0,0,0-.3.755l.689,1.576a.582.582,0,0,0,.763.3l.2-.091a.579.579,0,0,1,.8.44,7.663,7.663,0,0,1,.008,1.95.578.578,0,0,1-.788.456l-.249-.1a.572.572,0,0,0-.747.324l-.639,1.6A.572.572,0,0,0,52.577,52.168Z" transform="translate(-11.494 -10.555)" fill="#cfdce5"/>
        <ellipse id="Ellipse_162" data-name="Ellipse 162" cx="4.953" cy="4.911" rx="4.953" ry="4.911" transform="translate(30.191 32.736)" fill="#eaf6ff"/>
        <path id="Path_13020" data-name="Path 13020" d="M39.37,16.78h-21a1.253,1.253,0,0,0,0,2.505h21a1.253,1.253,0,0,0,0-2.505Z" transform="translate(-7.844 -6.568)" fill="#fe9901"/>
      </g>
      <g id="Group_4349" data-name="Group 4349">
        <path id="Path_13021" data-name="Path 13021" d="M49.4,40.967a.988.988,0,0,0-1.361-.763c-.124.058-.348.191-.431,0l-.689-1.576c-.091-.2.207-.257.332-.324a.984.984,0,0,0,.39-1.5,8.635,8.635,0,0,0-1.468-1.444,1.015,1.015,0,0,0-1.585.622.168.168,0,0,1-.224.091l-1.609-.63c-.207-.083-.041-.324,0-.456a.982.982,0,0,0-.788-1.336,8.536,8.536,0,0,0-2.057.008.977.977,0,0,0-.763,1.361c.041.108.174.3.041.382a12.185,12.185,0,0,0-2.049-1.327l5.1-5.052a4.806,4.806,0,0,0,4.646-1.186,4.632,4.632,0,0,0,1.278-4.347.406.406,0,0,0-.68-.2l-1.643,1.618a1.142,1.142,0,0,1-1.618,0l-1.1-1.078a1.127,1.127,0,0,1,0-1.593l1.626-1.609a.41.41,0,0,0-.2-.689,4.733,4.733,0,0,0-4.372,1.253,4.653,4.653,0,0,0-1.22,4.6L31.98,32.688c-.041,0-.091-.008-.133-.008.008-.116.017-3.385.017-3.385a8.053,8.053,0,0,0,3.318-6.38A3.794,3.794,0,0,0,37.962,19.2a4.042,4.042,0,0,0-.382-1.692,1.633,1.633,0,0,0,1.444-1.618v-.05a1.641,1.641,0,0,0-1.5-1.626A10.318,10.318,0,0,0,30.23,5.278,1.923,1.923,0,0,0,28.446,4H25.327a1.9,1.9,0,0,0-1.784,1.286,10.315,10.315,0,0,0-7.292,8.935,1.657,1.657,0,0,0-.05,3.294,3.946,3.946,0,0,0-.382,1.692A3.792,3.792,0,0,0,18.6,22.915a8.052,8.052,0,0,0,3.318,6.38s.017,3.277.025,3.393c-.041,0-.083.008-.133.008l-6.977-6.9a4.662,4.662,0,0,0-1.211-4.6,4.768,4.768,0,0,0-4.4-1.253.41.41,0,0,0-.2.689l1.634,1.609a1.112,1.112,0,0,1,0,1.593l-1.1,1.087a1.167,1.167,0,0,1-1.626,0L6.312,23.313a.415.415,0,0,0-.7.191,4.623,4.623,0,0,0,1.278,4.347,4.768,4.768,0,0,0,4.646,1.186l5.094,5.036a12.278,12.278,0,0,0-6.62,10.835,1.592,1.592,0,0,0,1.593,1.585H34.129a.956.956,0,0,0,.183.772,8.586,8.586,0,0,0,1.46,1.444.992.992,0,0,0,1.51-.423c.05-.124.108-.382.307-.3l1.609.63c.207.083.041.324,0,.456a.982.982,0,0,0,.788,1.336,8.6,8.6,0,0,0,2.066-.008.981.981,0,0,0,.763-1.361c-.05-.133-.191-.332,0-.415l1.593-.68c.2-.091.265.2.332.332a.989.989,0,0,0,1.5.39,8.585,8.585,0,0,0,1.452-1.452.979.979,0,0,0-.423-1.5c-.124-.058-.373-.1-.3-.29l.639-1.6c.075-.207.34-.041.473.008a.986.986,0,0,0,1.336-.788,9.11,9.11,0,0,0-.017-2.074Zm-15.3-3.26a.991.991,0,0,0,.589.655c.124.05.373.1.3.29l-.639,1.6c-.174.282-.531-.124-.788-.066v-6.5a11.247,11.247,0,0,1,2.472.772v.788a.977.977,0,0,0-.324.158,8.586,8.586,0,0,0-1.452,1.452,1.015,1.015,0,0,0-.158.854Zm-12.1-4.231c1,6.139,8.752,6.139,9.756,0,.224.008.888.075,1,.083v6.355H21.021V33.559c.282-.025.738-.075.987-.083Zm1.626-3.2a8.592,8.592,0,0,0,7.417-.44s-.017,2.953-.041,3.177c-.622,5.683-7.649,5.641-8.246,0s0,0,0-.008c-.033-.232-.041-3.186-.041-3.186A9.359,9.359,0,0,0,23.634,30.274Zm-4.015,3.542c.191-.05.39-.083.589-.124v6.23H17.437V36.8a3.143,3.143,0,0,1,2.182-2.987Zm.589,6.927v.05a1.222,1.222,0,0,1-1.22,1.22H17.437V40.743Zm11.739,4.92H21.834v-.987h10.1v.987Zm2.97,0H32.76V44.269a.407.407,0,0,0-.407-.407H21.428a.407.407,0,0,0-.407.407v1.394H17.429V42.826H18.98a2.038,2.038,0,0,0,2.033-2.041v-.05H32.644a.739.739,0,0,0-.091.3,8.467,8.467,0,0,0,.008,2.049,1.018,1.018,0,0,0,1.568.672.164.164,0,0,1,.224.091l.689,1.576c.025.066.008.241-.124.241Zm1.95-10.81a11.977,11.977,0,0,1,1.477.937l-.78.34c-.2.091-.265-.2-.332-.324a.954.954,0,0,0-.365-.423ZM33.05,32.771,39.7,26.2a.417.417,0,0,0,.1-.423,3.826,3.826,0,0,1,.946-4,3.887,3.887,0,0,1,2.829-1.137l-1.029,1.02a1.94,1.94,0,0,0,0,2.746l1.1,1.078a1.953,1.953,0,0,0,2.763,0l1.054-1.037a3.794,3.794,0,0,1-1.153,2.812,3.969,3.969,0,0,1-4.048.921.4.4,0,0,0-.415.1L36.377,33.7A13.226,13.226,0,0,0,33.05,32.771ZM35.2,22.077V17.531h1.477a3.123,3.123,0,0,1,.473,1.668A3.061,3.061,0,0,1,35.2,22.077ZM33.5,14.2A8.85,8.85,0,0,1,34.56,9.077,9.493,9.493,0,0,1,36.717,14.2Zm.473-5.766a9.976,9.976,0,0,0-1.3,5.766H29.475a2.251,2.251,0,0,0,.357-1l.514-7.043A9.512,9.512,0,0,1,33.971,8.438ZM25.327,4.813h3.119a1.121,1.121,0,0,1,1.07.879c.025.1-.5,7.458-.5,7.458-.29,1.394-3.966,1.327-4.248,0,0,0-.523-7.342-.5-7.458a1.11,1.11,0,0,1,1.054-.879ZM23.435,6.165l.514,7.043a2.121,2.121,0,0,0,.357,1H21.154c.4-2.422-.913-5.052-1.319-5.8A9.573,9.573,0,0,1,23.435,6.165ZM19.254,9.044a8.944,8.944,0,0,1,1.078,5.16h-3.26A9.415,9.415,0,0,1,19.254,9.044Zm-3.692,6.8a.825.825,0,0,1,.83-.821H37.381a.83.83,0,0,1,.83.821v.05a.825.825,0,0,1-.83.821H16.392A.842.842,0,0,1,15.562,15.847Zm1.07,3.352a3.123,3.123,0,0,1,.473-1.668h1.477v4.538A3,3,0,0,1,16.633,19.2ZM19.4,22.791v-5.26H34.386v5.26a7.258,7.258,0,0,1-3.153,5.973,7.705,7.705,0,0,1-8.678-.008A7.234,7.234,0,0,1,19.4,22.791Zm-1.983,10.9-5.475-5.409a.425.425,0,0,0-.415-.1,3.97,3.97,0,0,1-4.057-.921,3.867,3.867,0,0,1-1.153-2.8L7.366,25.5a1.994,1.994,0,0,0,2.771,0l1.1-1.087a1.928,1.928,0,0,0,0-2.754l-1.037-1.02A3.993,3.993,0,0,1,13.04,21.77a3.847,3.847,0,0,1,.937,4,.4.4,0,0,0,.1.423l6.653,6.579A13.34,13.34,0,0,0,17.421,33.692ZM10.834,44.9a11.423,11.423,0,0,1,6.413-10.221,3.9,3.9,0,0,0-.63,2.132v8.852h-5a.76.76,0,0,1-.78-.763Zm37.772-1.983c-.041.241-.34.083-.481.025a.989.989,0,0,0-1.278.548l-.639,1.6a.989.989,0,0,0,.556,1.278c.141.05.415.141.282.324A7.539,7.539,0,0,1,45.735,48c-.207.141-.3-.166-.357-.315a.994.994,0,0,0-1.294-.514l-1.593.68a.987.987,0,0,0-.514,1.294c.066.133.2.39-.033.431a7.8,7.8,0,0,1-1.867.008c-.124-.033-.158-.091-.124-.224a1.033,1.033,0,0,0-.456-1.518l-1.609-.631a.988.988,0,0,0-1.278.548c-.05.149-.141.415-.332.282a7.26,7.26,0,0,1-1.319-1.3c-.141-.2.183-.29.315-.348a.987.987,0,0,0,.514-1.294L35.1,43.522a.976.976,0,0,0-1.294-.506c-.141.066-.4.191-.44-.033a7.268,7.268,0,0,1-.008-1.85c.033-.116.1-.158.232-.124a1.046,1.046,0,0,0,1.526-.448l.639-1.6a.986.986,0,0,0-.556-1.278c-.141-.05-.415-.141-.282-.324a7.539,7.539,0,0,1,1.311-1.311c.207-.141.3.174.357.315a.994.994,0,0,0,1.294.514l1.593-.68a.976.976,0,0,0,.506-1.294c-.066-.141-.2-.382.033-.431a7.8,7.8,0,0,1,1.867-.008c.249.041.083.332.025.473a.989.989,0,0,0,.556,1.278l1.609.631a.989.989,0,0,0,1.278-.548c.05-.149.141-.415.332-.282A7.26,7.26,0,0,1,47,37.317c.141.2-.183.29-.315.348a.987.987,0,0,0-.514,1.294l.689,1.576a.994.994,0,0,0,1.294.514c.133-.066.4-.191.44.033a7.525,7.525,0,0,1,.017,1.833Z" transform="translate(-5.496 -4)" fill="#1e1e1e"/>
        <path id="Path_13022" data-name="Path 13022" d="M49.136,43.8a5.371,5.371,0,0,0-6.944,2.987,5.307,5.307,0,0,0,3,6.9,5.366,5.366,0,0,0,6.944-2.987,5.307,5.307,0,0,0-3-6.9Zm2.257,6.6a4.547,4.547,0,0,1-8.387.116,4.422,4.422,0,0,1-.05-3.426,4.547,4.547,0,0,1,8.387-.116A4.459,4.459,0,0,1,51.392,50.4Z" transform="translate(-11.684 -10.719)" fill="#1e1e1e"/>
      </g>
    </g>
  </g>
</svg>
