<svg id="dashboard-interface_2311390" xmlns="http://www.w3.org/2000/svg" width="7.823" height="7.823" viewBox="0 0 7.823 7.823">
  <path id="Path_12837" data-name="Path 12837" d="M3.912,0A3.912,3.912,0,1,0,7.823,3.912,3.912,3.912,0,0,0,3.912,0Zm0,7.579A3.667,3.667,0,1,1,7.579,3.912,3.667,3.667,0,0,1,3.912,7.579Z" transform="translate(0 0)"/>
  <path id="Path_12838" data-name="Path 12838" d="M7.13,3.848a3.285,3.285,0,0,0-2.79,5.02.122.122,0,0,0,.166.041l.561-.323a.122.122,0,1,0-.122-.212l-.456.263A3.038,3.038,0,0,1,7.008,4.1v.518a.122.122,0,0,0,.244,0V4.1a3.038,3.038,0,0,1,2.52,4.538l-.456-.263a.122.122,0,0,0-.122.212l.561.324a.123.123,0,0,0,.165-.041,3.285,3.285,0,0,0-2.79-5.02Z" transform="translate(-3.219 -3.221)"/>
  <path id="Path_12839" data-name="Path 12839" d="M37.35,15.7l.144-.083a.122.122,0,1,0-.122-.212l-.144.083a.122.122,0,0,0,.122.212Z" transform="translate(-31.109 -12.88)"/>
  <path id="Path_12840" data-name="Path 12840" d="M8.626,15.716a.122.122,0,0,0,.061-.228L8.543,15.4a.122.122,0,0,0-.122.212l.144.083A.122.122,0,0,0,8.626,15.716Z" transform="translate(-6.997 -12.88)"/>
  <path id="Path_12841" data-name="Path 12841" d="M.96.079a.645.645,0,0,1,.313.387c0,.007,0,.014,0,.021L2.946.377a.124.124,0,0,1,.13.114.122.122,0,0,1-.114.13L1.294.731a.647.647,0,0,1-.46.542A.65.65,0,1,1,.96.079Zm-.7.686A.405.405,0,1,0,.293.456.405.405,0,0,0,.261.764Z" transform="matrix(0.875, 0.485, -0.485, 0.875, 3.735, 2.92)"/>
  <path id="Path_12842" data-name="Path 12842" d="M12.528,34.9a.122.122,0,1,0,0-.244h-.5a.122.122,0,0,0-.122.122v.812a.122.122,0,0,0,.122.122h.5a.122.122,0,1,0,0-.244h-.381v-.162h.267a.122.122,0,0,0,0-.244h-.267V34.9Z" transform="translate(-9.963 -29.007)"/>
  <path id="Path_12843" data-name="Path 12843" d="M32.305,34.656h-.5a.122.122,0,0,0-.122.122v.812a.122.122,0,1,0,.244,0v-.284h.267a.122.122,0,1,0,0-.244h-.267V34.9h.381a.122.122,0,1,0,0-.244Z" transform="translate(-26.516 -29.007)"/>
</svg>
