<svg xmlns="http://www.w3.org/2000/svg" width="8.612" height="11.751" viewBox="0 0 8.612 11.751">
  <g id="fuel_638449" transform="translate(0.124 0.126)">
    <path id="Union_2" data-name="Union 2" d="M902.249,10921.355a.946.946,0,0,1-.929-.959v-9.582a.946.946,0,0,1,.929-.96H906.9a.946.946,0,0,1,.929.96v6.252a1.193,1.193,0,0,1,.929,1.176v.956a.233.233,0,1,0,.466,0v-6.354l-.422-.345a1.2,1.2,0,0,1-.293-1.47l-.595-.512a.245.245,0,0,1-.03-.338.226.226,0,0,1,.326-.03l1.4,1.2a.245.245,0,0,1,.082.184v7.666a.7.7,0,1,1-1.392,0v-.956a.715.715,0,0,0-.466-.675v2.829a.946.946,0,0,1-.929.959Zm-.466-10.541v9.582a.472.472,0,0,0,.466.479H906.9a.472.472,0,0,0,.466-.479v-9.582a.474.474,0,0,0-.466-.48h-4.646A.474.474,0,0,0,901.783,10910.814Zm7.3,1.31.132.107v-.587l-.34-.29A.7.7,0,0,0,909.088,10912.124Zm-6.608,3.473a.231.231,0,0,1,0-.463h4.183a.231.231,0,1,1,0,.463Zm0-1.1a.23.23,0,0,1-.23-.23v-3.254a.232.232,0,0,1,.23-.232h4.183a.232.232,0,0,1,.233.232v3.254a.231.231,0,0,1-.233.23Zm.233-.464h3.719v-2.787h-3.719Z" transform="translate(-901.319 -10909.855)" fill="#fff" stroke="#fff" stroke-width="0.25"/>
  </g>
</svg>
