<svg id="fuel_638449" xmlns="http://www.w3.org/2000/svg" width="8.364" height="11.5" viewBox="0 0 8.364 11.5">
  <g id="Group_3930" data-name="Group 3930" transform="translate(0.929 0.929)">
    <g id="Group_3929" data-name="Group 3929">
      <path id="Path_12317" data-name="Path 12317" d="M111.08,42.667H106.9a.232.232,0,0,0-.232.232v3.253a.232.232,0,0,0,.232.232h4.182a.232.232,0,0,0,.232-.232V42.9A.232.232,0,0,0,111.08,42.667Zm-.232,3.253h-3.717V43.132h3.717Z" transform="translate(-106.666 -42.667)"/>
    </g>
  </g>
  <g id="Group_3932" data-name="Group 3932" transform="translate(0)">
    <g id="Group_3931" data-name="Group 3931">
      <path id="Path_12318" data-name="Path 12318" d="M72.281,1.493,70.887.3a.228.228,0,0,0-.327.03.245.245,0,0,0,.029.337l.6.512a1.2,1.2,0,0,0,.3,1.469l.42.347V9.344a.232.232,0,1,1-.465,0V8.385a1.191,1.191,0,0,0-.929-1.174V.958A.945.945,0,0,0,69.576,0H64.929A.945.945,0,0,0,64,.958v9.583a.945.945,0,0,0,.929.958h4.647a.945.945,0,0,0,.929-.958V7.711a.716.716,0,0,1,.465.675v.958a.7.7,0,1,0,1.394,0V1.677A.242.242,0,0,0,72.281,1.493Zm-2.24,9.048a.472.472,0,0,1-.465.479H64.929a.472.472,0,0,1-.465-.479V.958a.472.472,0,0,1,.465-.479h4.647a.472.472,0,0,1,.465.479ZM71.9,2.376h0l-.13-.107a.7.7,0,0,1-.21-.772l.34.292Z" transform="translate(-64 0)"/>
    </g>
  </g>
  <g id="Group_3934" data-name="Group 3934" transform="translate(0.929 5.278)">
    <g id="Group_3933" data-name="Group 3933">
      <path id="Path_12319" data-name="Path 12319" d="M111.08,234.667H106.9a.232.232,0,1,0,0,.465h4.182a.232.232,0,1,0,0-.465Z" transform="translate(-106.666 -234.667)"/>
    </g>
  </g>
</svg>
