<svg xmlns="http://www.w3.org/2000/svg" width="7.752" height="7.752" viewBox="0 0 7.752 7.752">
  <g id="petrol_2311324" transform="translate(0.008 0.001)">
    <path id="Path_12844" data-name="Path 12844" d="M1.4,8.449a.125.125,0,0,0-.177,0,5.186,5.186,0,0,0-1.21,2.057,1.174,1.174,0,0,0,.252.972,1.382,1.382,0,0,0,1.051.467,1.37,1.37,0,0,0,1.042-.462,1.18,1.18,0,0,0,.252-.977A5.191,5.191,0,0,0,1.4,8.449Zm.773,2.877a1.126,1.126,0,0,1-.856.376,1.137,1.137,0,0,1-.866-.381.925.925,0,0,1-.2-.775A4.687,4.687,0,0,1,1.311,8.714,4.682,4.682,0,0,1,2.37,10.547.93.93,0,0,1,2.172,11.326Z" transform="translate(0 -7.055)"/>
    <path id="Path_12845" data-name="Path 12845" d="M10.236,20.853a.121.121,0,1,0-.235.059c.006.026.012.052.016.078a.535.535,0,0,1-.11.449.63.63,0,0,1-.284.187.121.121,0,0,0,.038.236.118.118,0,0,0,.038-.006.874.874,0,0,0,.392-.26.77.77,0,0,0,.164-.646C10.251,20.917,10.244,20.885,10.236,20.853Z" transform="translate(-8.006 -17.409)"/>
    <path id="Path_12846" data-name="Path 12846" d="M14.67,7.417l-.151-.449a.121.121,0,0,0-.23.077l.11.329-.373.107-.2-.584.678-.214a.121.121,0,0,0,.078-.155l-.847-2.454.166-.228a.716.716,0,0,0-.169-1.01l-2.425-1.7a.121.121,0,0,0-.164.023l-.117.145L10.076.52A.122.122,0,0,0,10.039.5L8.6.006a.121.121,0,0,0-.152.07l-.181.46A.121.121,0,0,0,8.342.7l1.34.434.867.775-.125.156a.121.121,0,0,0,.189.151l.654-.816L13.6,3.036a.476.476,0,0,1,.2.313.47.47,0,0,1-.085.356l-.2.279a.122.122,0,0,0-.016.111l.827,2.4-.823.258-.179-.489a.122.122,0,0,0-.123-.079l-1.64.121a.517.517,0,0,1-.549-.424l-.352-1.5a.4.4,0,0,1,.07-.332l.617-.819a.121.121,0,0,0,0-.143l-.5-.7a.121.121,0,1,0-.2.141l.448.629-.563.749a.64.64,0,0,0-.113.533l.35,1.494a.756.756,0,0,0,.8.616l1.548-.114.187.512a.121.121,0,0,0,.15.074L13.6,6.97l.234.7a.121.121,0,0,0,.148.078l.606-.174a.121.121,0,0,0,.081-.155ZM9.825.932A.118.118,0,0,0,9.782.907L8.539.505,8.631.273,9.94.721l.941.77-.18.225Z" transform="translate(-6.931 0)"/>
    <path id="Path_12847" data-name="Path 12847" d="M26.791,25.342a.121.121,0,1,0,.228-.083l-.664-1.818a.121.121,0,0,0-.1-.079l-.953-.086a.123.123,0,0,0-.1.041l-.312.36a.237.237,0,0,0-.052.208l.3,1.3a.468.468,0,0,0,.456.36.32.32,0,0,0,.043,0l.888-.081a.121.121,0,0,0-.022-.241L25.6,25.3a.224.224,0,0,1-.24-.171l-.3-1.291.271-.313.24.022.234.733-.167.382a.121.121,0,0,0,.222.1l.186-.424a.121.121,0,0,0,0-.085l-.217-.679.312.028Z" transform="translate(-20.824 -19.517)"/>
  </g>
</svg>
