<svg xmlns="http://www.w3.org/2000/svg" width="45.581" height="44.241" viewBox="0 0 45.581 44.241">
  <g id="gas-pump_465090" transform="translate(0.999 -3.767)">
    <g id="Path_12746" data-name="Path 12746" transform="translate(-380.879 -74.683)" fill="#bdbfba">
      <path d="M 422.4889526367188 93.25468444824219 L 416.9524536132812 93.25468444824219 C 416.3252563476562 93.25468444824219 415.8149719238281 92.74441528320312 415.8149719238281 92.11721801757812 L 415.8149719238281 88.52785491943359 C 415.8149719238281 88.16172790527344 415.9927978515625 87.81591033935547 416.2906188964844 87.60276794433594 L 419.267333984375 85.47311401367188 C 419.4615173339844 85.33412933349609 419.6902160644531 85.26065063476562 419.9286499023438 85.26065063476562 C 420.2951049804688 85.26065063476562 420.6410827636719 85.43842315673828 420.8541870117188 85.73621368408203 C 421.2191467285156 86.24626922607422 421.1011657714844 86.95817565917969 420.5911865234375 87.32319641113281 L 418.0899047851562 89.11264038085938 L 418.0899047851562 90.97957611083984 L 422.4889526367188 90.97957611083984 C 423.1161499023438 90.97957611083984 423.6264038085938 91.48983764648438 423.6264038085938 92.11703491210938 C 423.62646484375 92.42090606689453 423.5081481933594 92.70663452148438 423.2933349609375 92.9215087890625 C 423.0784912109375 93.13636779785156 422.7928466796875 93.25468444824219 422.4889526367188 93.25468444824219 Z" stroke="none"/>
      <path d="M 422.4889526367188 92.75468444824219 C 422.841064453125 92.75468444824219 423.12646484375 92.4693603515625 423.1264038085938 92.11703491210938 C 423.1264038085938 91.76490020751953 422.841064453125 91.47957611083984 422.4889526367188 91.47957611083984 L 417.5899047851562 91.47957611083984 L 417.5899047851562 88.85556793212891 L 420.3001708984375 86.91661071777344 C 420.58642578125 86.71172332763672 420.6524658203125 86.31352996826172 420.4475708007812 86.02718353271484 C 420.2427978515625 85.74100494384766 419.8446044921875 85.67478942871094 419.5582580566406 85.8797607421875 L 416.5816040039062 88.00938415527344 C 416.4142456054688 88.129150390625 416.3149719238281 88.32212066650391 416.3149719238281 88.52785491943359 L 416.3149719238281 92.11721801757812 C 416.3149719238281 92.4693603515625 416.600341796875 92.75468444824219 416.9524536132812 92.75468444824219 L 422.4889526367188 92.75468444824219 M 422.4889526367188 93.75468444824219 L 416.9524536132812 93.75468444824219 C 416.0495300292969 93.75468444824219 415.3149719238281 93.02011871337891 415.3149719238281 92.11721801757812 L 415.3149719238281 88.52785491943359 C 415.3149719238281 88.00077819824219 415.5709228515625 87.50294494628906 415.9996643066406 87.19615936279297 L 418.9763793945312 85.06646728515625 C 419.2559204101562 84.86642456054688 419.5852355957031 84.76065063476562 419.9286499023438 84.76065063476562 C 420.4560241699219 84.76065063476562 420.9540405273438 85.01656341552734 421.2608032226562 85.44523620605469 C 421.7861938476562 86.17949676513672 421.6163330078125 87.20433044433594 420.8822021484375 87.72977447509766 L 418.5899047851562 89.36971282958984 L 418.5899047851562 90.47957611083984 L 422.4889526367188 90.47957611083984 C 423.391845703125 90.47957611083984 424.1264038085938 91.21413421630859 424.1264038085938 92.11703491210938 C 424.12646484375 92.55439758300781 423.9561767578125 92.96570587158203 423.6469116210938 93.27503967285156 C 423.337646484375 93.5843505859375 422.9263916015625 93.75468444824219 422.4889526367188 93.75468444824219 Z" stroke="none" fill="#000"/>
    </g>
    <g id="Path_12747" data-name="Path 12747" transform="translate(-405.502)" fill="#525360">
      <path d="M 446.4744873046875 10.12038421630859 C 446.398681640625 10.12038421630859 446.3369750976562 10.05871391296387 446.3369750976562 9.982913970947266 L 446.3369750976562 7.185093879699707 L 446.3369750976562 6.946804046630859 L 446.1518859863281 6.79672384262085 L 443.7798767089844 4.873424053192139 C 443.7432556152344 4.843743801116943 443.7323608398438 4.806754112243652 443.7296752929688 4.780933856964111 C 443.7269592285156 4.755094051361084 443.72998046875 4.716593742370605 443.7596435546875 4.679984092712402 C 443.7955322265625 4.635724067687988 443.8421630859375 4.629113674163818 443.8667602539062 4.629113674163818 C 443.8888244628906 4.629113674163818 443.9217529296875 4.634453773498535 443.953125 4.659904003143311 L 446.5611267089844 6.774533748626709 C 446.5935363769531 6.800784111022949 446.612060546875 6.83967399597168 446.612060546875 6.881303787231445 L 446.612060546875 9.982833862304688 C 446.6120300292969 10.05860424041748 446.5503234863281 10.12038421630859 446.4744873046875 10.12038421630859 Z" stroke="none"/>
      <path d="M 446.4744873046875 10.62038421630859 C 446.122314453125 10.62038421630859 445.8369750976562 10.33506393432617 445.8369750976562 9.982913970947266 L 445.8369750976562 7.185093879699707 L 443.4649658203125 5.261794090270996 C 443.1914672851562 5.040143966674805 443.1494750976562 4.638713836669922 443.3712158203125 4.365143775939941 C 443.5929260253906 4.091639518737793 443.994384765625 4.049688339233398 444.2680053710938 4.271503925323486 L 446.8760375976562 6.386153697967529 C 447.025390625 6.507194042205811 447.112060546875 6.689094066619873 447.112060546875 6.881303787231445 L 447.112060546875 9.982833862304688 C 447.1119384765625 10.33506393432617 446.8265991210938 10.62038421630859 446.4744873046875 10.62038421630859 Z" stroke="none" fill="#000"/>
    </g>
    <g id="Path_12748" data-name="Path 12748" transform="translate(-312.433 -143.004)" fill="#bdbfba">
      <path d="M 347.7721557617188 182.4212036132812 C 344.0385131835938 182.4212036132812 341.0009765625 179.5474090576172 341.0009765625 176.0150451660156 L 341.0009765625 170.244140625 C 341.0009765625 169.6169281005859 341.51123046875 169.1066589355469 342.1384582519531 169.1066589355469 C 342.7656555175781 169.1066589355469 343.2759094238281 169.6169281005859 343.2759094238281 170.244140625 L 343.2759094238281 176.0150451660156 C 343.2759094238281 178.2929534912109 345.2929077148438 180.1461791992188 347.7721557617188 180.1461791992188 C 350.2512817382812 180.1461791992188 352.2681884765625 178.2929534912109 352.2681884765625 176.0150451660156 L 352.2681884765625 161.0754699707031 C 352.2681884765625 160.4482727050781 352.7784729003906 159.9380035400391 353.4056701660156 159.9380035400391 C 354.0328674316406 159.9380035400391 354.5431213378906 160.4482727050781 354.5431213378906 161.0754699707031 L 354.5431213378906 176.0150451660156 C 354.5431213378906 179.5474090576172 351.5056762695312 182.4212036132812 347.7721557617188 182.4212036132812 Z" stroke="none"/>
      <path d="M 353.4056701660156 160.4380035400391 C 353.0535278320312 160.4380035400391 352.7681884765625 160.7233276367188 352.7681884765625 161.0754699707031 C 352.7681884765625 162.5626220703125 352.7681884765625 175.7389068603516 352.7681884765625 176.0150451660156 C 352.7681884765625 178.5687255859375 350.5268859863281 180.6461791992188 347.7721557617188 180.6461791992188 C 345.0172119140625 180.6461791992188 342.7759094238281 178.5686492919922 342.7759094238281 176.0150451660156 L 342.7759094238281 170.244140625 C 342.7759094238281 169.8919830322266 342.4906005859375 169.6066589355469 342.1384582519531 169.6066589355469 C 341.786376953125 169.6066589355469 341.5009765625 169.8919830322266 341.5009765625 170.244140625 L 341.5009765625 176.0150451660156 C 341.5009765625 179.2716674804688 344.314208984375 181.9212036132812 347.7721557617188 181.9212036132812 C 351.22998046875 181.9212036132812 354.0431213378906 179.2716674804688 354.0431213378906 176.0150451660156 C 354.0431213378906 175.7389831542969 354.0431213378906 162.5626220703125 354.0431213378906 161.0754699707031 C 354.0431213378906 160.7234191894531 353.7578125 160.4380035400391 353.4056701660156 160.4380035400391 M 353.4056701660156 159.4380035400391 C 354.3085632324219 159.4380035400391 355.0431213378906 160.1725616455078 355.0431213378906 161.0754699707031 L 355.0431213378906 176.0150451660156 C 355.0431213378906 179.8231201171875 351.7813720703125 182.9212036132812 347.7721557617188 182.9212036132812 C 343.7628173828125 182.9212036132812 340.5009765625 179.8231201171875 340.5009765625 176.0150451660156 L 340.5009765625 170.244140625 C 340.5009765625 169.3412322998047 341.2355346679688 168.6066589355469 342.1384582519531 168.6066589355469 C 343.0413513183594 168.6066589355469 343.7759094238281 169.3412322998047 343.7759094238281 170.244140625 L 343.7759094238281 176.0150451660156 C 343.7759094238281 178.0172576904297 345.5686340332031 179.6461791992188 347.7721557617188 179.6461791992188 C 349.9755859375 179.6461791992188 351.7681884765625 178.0172576904297 351.7681884765625 176.0150451660156 L 351.7681884765625 161.0754699707031 C 351.7681884765625 160.1725616455078 352.5027465820312 159.4380035400391 353.4056701660156 159.4380035400391 Z" stroke="none" fill="#000"/>
    </g>
    <g id="Path_12749" data-name="Path 12749" transform="translate(-50.585 -6.853)" fill="#ff8c01">
      <path d="M 79.05262756347656 51.71759796142578 L 78.55262756347656 51.71759796142578 L 55.2910041809082 51.71759796142578 L 54.7910041809082 51.71759796142578 L 54.7910041809082 51.21759796142578 L 54.7910041809082 12.88880634307861 C 54.7910041809082 11.91347694396973 55.5844841003418 11.11999607086182 56.5598030090332 11.11999607086182 L 77.28382110595703 11.11999607086182 C 78.25914764404297 11.11999607086182 79.05262756347656 11.91347694396973 79.05262756347656 12.88880634307861 L 79.05262756347656 51.21759796142578 L 79.05262756347656 51.71759796142578 Z" stroke="none"/>
      <path d="M 78.55262756347656 51.21759796142578 L 78.55262756347656 12.88880634307861 C 78.55262756347656 12.18809700012207 77.98470306396484 11.61999607086182 77.28382110595703 11.61999607086182 L 56.5598030090332 11.61999607086182 C 55.85892486572266 11.61999607086182 55.2910041809082 12.18809700012207 55.2910041809082 12.88880634307861 L 55.2910041809082 51.21759796142578 L 78.55262756347656 51.21759796142578 M 79.55262756347656 52.21759796142578 L 54.2910041809082 52.21759796142578 L 54.2910041809082 12.88880634307861 C 54.2910041809082 11.63777637481689 55.30878448486328 10.61999607086182 56.5598030090332 10.61999607086182 L 77.28382110595703 10.61999607086182 C 78.53484344482422 10.61999607086182 79.55262756347656 11.63777637481689 79.55262756347656 12.88880634307861 L 79.55262756347656 52.21759796142578 Z" stroke="none" fill="#000"/>
    </g>
    <path id="Path_12750" data-name="Path 12750" d="M58.694,11.62H56.56a1.269,1.269,0,0,0-1.269,1.269V51.218h2.134V12.889A1.269,1.269,0,0,1,58.694,11.62Z" transform="translate(-50.585 -6.853)" fill="#e8650c"/>
    <g id="Path_12751" data-name="Path 12751" transform="translate(-0.012 -432.45)" fill="#636570">
      <path d="M 31.3635368347168 479.95751953125 L 1.33466625213623 479.95751953125 C 0.3301962316036224 479.95751953125 -0.4870037436485291 479.1403198242188 -0.4870037436485291 478.1358337402344 C -0.4870037436485291 477.1312561035156 0.3301962316036224 476.3139953613281 1.33466625213623 476.3139953613281 L 31.36344718933105 476.3139953613281 C 32.36791610717773 476.3139953613281 33.18511581420898 477.1312561035156 33.18511581420898 478.1358337402344 C 33.18511581420898 479.1403198242188 32.36795806884766 479.95751953125 31.3635368347168 479.95751953125 Z" stroke="none"/>
      <path d="M 31.3635368347168 479.45751953125 C 32.09344482421875 479.45751953125 32.68511581420898 478.8658142089844 32.68511581420898 478.1358337402344 C 32.68511581420898 477.4058532714844 32.09344482421875 476.8139953613281 31.36344718933105 476.8139953613281 L 1.33466625213623 476.8139953613281 C 0.6048462390899658 476.8139953613281 0.01299624424427748 477.4058532714844 0.01299624424427748 478.1358337402344 C 0.01299624424427748 478.8658142089844 0.6048462390899658 479.45751953125 1.33466625213623 479.45751953125 L 31.3635368347168 479.45751953125 M 31.3635368347168 480.45751953125 L 1.33466625213623 480.45751953125 C 0.05449624359607697 480.45751953125 -0.9870037436485291 479.416015625 -0.9870037436485291 478.1358337402344 C -0.9870037436485291 476.8555603027344 0.05449624359607697 475.8139953613281 1.33466625213623 475.8139953613281 L 31.36344718933105 475.8139953613281 C 32.64361572265625 475.8139953613281 33.68511581420898 476.8555603027344 33.68511581420898 478.1358337402344 C 33.68511581420898 479.416015625 32.64365768432617 480.45751953125 31.3635368347168 480.45751953125 Z" stroke="none" fill="#000"/>
    </g>
    <path id="Path_12752" data-name="Path 12752" d="M31.351,485.241H1.322a1.32,1.32,0,0,1-1.143-.661,1.321,1.321,0,0,0,1.143,1.982H31.351a1.321,1.321,0,0,0,1.143-1.982A1.32,1.32,0,0,1,31.351,485.241Z" transform="translate(0 -439.555)" fill="#393a47"/>
    <path id="Path_12753" data-name="Path 12753" d="M111.812,51.369H98.172A1.269,1.269,0,0,0,96.9,52.638v9.773h16.178V52.638A1.269,1.269,0,0,0,111.812,51.369Z" transform="translate(-88.655 -43.219)" fill="#c8e5fc"/>
    <path id="Path_12754" data-name="Path 12754" d="M194.329,51.369h-6.086a24.15,24.15,0,0,0-.862,11.042H195.6V52.638A1.269,1.269,0,0,0,194.329,51.369Z" transform="translate(-171.173 -43.219)" fill="#e0f1fc"/>
    <path id="Path_12755" data-name="Path 12755" d="M105.8,238.164a1.269,1.269,0,0,1-1.269,1.269H98.172a1.269,1.269,0,0,1-1.269-1.269v-1.3a1.269,1.269,0,0,1,1.269-1.269h6.362a1.269,1.269,0,0,1,1.269,1.269Z" transform="translate(-88.655 -211.76)" fill="#ffdaa4"/>
    <path id="Path_12756" data-name="Path 12756" d="M104.521,247.834H98.159a1.268,1.268,0,0,1-1.229-.961,7.241,7.241,0,0,0-.039,1.613,1.269,1.269,0,0,0,1.269,1.269h6.362a1.269,1.269,0,0,0,1.269-1.269v-1.3a1.271,1.271,0,0,0-.039-.308A1.268,1.268,0,0,1,104.521,247.834Z" transform="translate(-88.643 -222.081)" fill="#ffc35a"/>
    <path id="Path_12757" data-name="Path 12757" d="M232.944,236.866h-4.388a.637.637,0,1,1,0-1.275h4.388a.637.637,0,1,1,0,1.275Z" transform="translate(-208.518 -211.76)" fill="#e8650c"/>
    <path id="Path_12758" data-name="Path 12758" d="M100.3,51.369H98.172A1.269,1.269,0,0,0,96.9,52.638v9.773h2.125V52.638A1.269,1.269,0,0,1,100.3,51.369Z" transform="translate(-88.655 -43.219)" fill="#8fc8f2"/>
    <g id="Path_12759" data-name="Path 12759" transform="translate(-300.602 -218.611)" fill="#636570">
      <path d="M 329.767333984375 247.4216613769531 L 328.5690307617188 247.4216613769531 L 328.0690307617188 247.4216613769531 L 328.0690307617188 246.9216613769531 L 328.0690307617188 243.0800018310547 L 328.0690307617188 242.5800018310547 L 328.5690307617188 242.5800018310547 L 329.767333984375 242.5800018310547 C 330.74267578125 242.5800018310547 331.5361633300781 243.3734893798828 331.5361633300781 244.3488006591797 L 331.5361633300781 245.6528472900391 C 331.5361633300781 246.628173828125 330.74267578125 247.4216613769531 329.767333984375 247.4216613769531 Z" stroke="none"/>
      <path d="M 328.5690307617188 243.0800018310547 L 328.5690307617188 246.9216613769531 L 329.767333984375 246.9216613769531 C 330.4680786132812 246.9216613769531 331.0361633300781 246.3535614013672 331.0361633300781 245.6528472900391 L 331.0361633300781 244.3488006591797 C 331.0361633300781 243.6480865478516 330.4680786132812 243.0800018310547 329.767333984375 243.0800018310547 L 328.5690307617188 243.0800018310547 M 327.5690307617188 242.0800018310547 L 329.767333984375 242.0800018310547 C 331.0183715820312 242.0800018310547 332.0361633300781 243.0977783203125 332.0361633300781 244.3488006591797 L 332.0361633300781 245.6528472900391 C 332.0361633300781 246.9038696289062 331.0183715820312 247.9216613769531 329.767333984375 247.9216613769531 L 327.5690307617188 247.9216613769531 L 327.5690307617188 242.0800018310547 Z" stroke="none" fill="#000"/>
    </g>
    <g id="Path_12760" data-name="Path 12760" transform="translate(-412.355 -62.917)" fill="#fca84c">
      <path d="M 454.6673583984375 81.48882293701172 L 451.9888305664062 81.48882293701172 C 451.0134887695312 81.48882293701172 450.219970703125 80.69534301757812 450.219970703125 79.72002410888672 L 450.219970703125 74.16881561279297 C 450.219970703125 73.1934814453125 451.0134887695312 72.40000152587891 451.9888305664062 72.40000152587891 L 454.6673583984375 72.40000152587891 C 455.6426696777344 72.40000152587891 456.4361572265625 73.1934814453125 456.4361572265625 74.16881561279297 L 456.4361572265625 79.72002410888672 C 456.4361572265625 80.69534301757812 455.6426696777344 81.48882293701172 454.6673583984375 81.48882293701172 Z" stroke="none"/>
      <path d="M 454.6673583984375 80.98882293701172 C 455.3681030273438 80.98882293701172 455.9361572265625 80.42081451416016 455.9361572265625 79.72002410888672 L 455.9361572265625 74.16881561279297 C 455.9361572265625 73.46810150146484 455.3681030273438 72.90000152587891 454.6673583984375 72.90000152587891 L 451.9888305664062 72.90000152587891 C 451.2880859375 72.90000152587891 450.719970703125 73.46809387207031 450.719970703125 74.16881561279297 L 450.719970703125 79.72002410888672 C 450.719970703125 80.42081451416016 451.2880859375 80.98882293701172 451.9888305664062 80.98882293701172 L 454.6673583984375 80.98882293701172 M 454.6673583984375 81.98882293701172 L 451.9888305664062 81.98882293701172 C 450.73779296875 81.98882293701172 449.719970703125 80.97103881835938 449.719970703125 79.72002410888672 L 449.719970703125 74.16881561279297 C 449.719970703125 72.91778564453125 450.73779296875 71.90000152587891 451.9888305664062 71.90000152587891 L 454.6673583984375 71.90000152587891 C 455.9183654785156 71.90000152587891 456.9361572265625 72.91778564453125 456.9361572265625 74.16881561279297 L 456.9361572265625 79.72002410888672 C 456.9361572265625 80.97103881835938 455.9183654785156 81.98882293701172 454.6673583984375 81.98882293701172 Z" stroke="none" fill="#000"/>
    </g>
    <path id="Path_12761" data-name="Path 12761" d="M453.327,79.72V74.169A1.269,1.269,0,0,1,454.6,72.9h-2.608a1.269,1.269,0,0,0-1.269,1.269V79.72a1.269,1.269,0,0,0,1.269,1.269H454.6A1.269,1.269,0,0,1,453.327,79.72Z" transform="translate(-412.354 -62.917)" fill="#ff8c01"/>
    <path id="Path_12762" data-name="Path 12762" d="M172.873,89.783l-1.261-1.971a.425.425,0,0,0-.716,0l-1.261,1.971a1.922,1.922,0,0,0,3.237,2.072l.028-.043.008-.012A1.913,1.913,0,0,0,172.873,89.783Z" transform="translate(-154.917 -76.381)" fill="#577ddd"/>
    <path id="Path_12763" data-name="Path 12763" d="M170.758,90.242c.457-2.5.405-2.436.591-2.57a.424.424,0,0,0-.57.138l-1.261,1.971a1.923,1.923,0,0,0,2.64,2.664A1.918,1.918,0,0,1,170.758,90.242Z" transform="translate(-154.8 -76.379)" fill="#4369b5"/>
    <path id="Path_12764" data-name="Path 12764" d="M96.9,178.96v1.6a1.269,1.269,0,0,0,1.269,1.269h13.64a1.269,1.269,0,0,0,1.269-1.269v-1.6Z" transform="translate(-88.656 -159.949)" fill="#636570"/>
    <path id="Path_12765" data-name="Path 12765" d="M99.029,180.556v-1.6H96.9v1.6a1.269,1.269,0,0,0,1.269,1.269H100.3A1.269,1.269,0,0,1,99.029,180.556Z" transform="translate(-88.656 -159.95)" fill="#393a47"/>
  </g>
</svg>
