<svg width="12" height="12" viewBox="0 0 12 12" fill="none" xmlns="http://www.w3.org/2000/svg">
<path d="M12.0002 3.34375L10.5716 4.12946L9.14307 5.48661V10.1437H11.1431C11.6165 10.1437 12.0002 9.76003 12.0002 9.28661V3.34375Z" fill="#4CAF50"/>
<path d="M0 3.34375L1.03257 3.83232L2.85714 5.48661V10.1437H0.857143C0.383714 10.1437 0 9.76003 0 9.28661V3.34375Z" fill="#1E88E5"/>
<path d="M9.14272 1.91406L5.99986 4.27121L2.857 1.91406L2.57129 3.57121L2.857 5.48549L5.99986 7.84263L9.14272 5.48549L9.42843 3.57121L9.14272 1.91406Z" fill="#E53935"/>
<path d="M0 2.228V3.34286L2.85714 5.48571V1.91429L1.96457 1.24543C1.752 1.086 1.49371 1 1.228 1C0.549714 1 0 1.54971 0 2.228Z" fill="#C62828"/>
<path d="M12.0002 2.228V3.34286L9.14307 5.48571V1.91429L10.0356 1.24543C10.2482 1.086 10.5065 1 10.7722 1C11.4505 1 12.0002 1.54971 12.0002 2.228Z" fill="#FBC02D"/>
</svg>
