<svg width="14" height="14" viewBox="0 0 14 14" fill="none" xmlns="http://www.w3.org/2000/svg">
<path fill-rule="evenodd" clip-rule="evenodd" d="M7.69974 13H6.29933C6.26953 12.9993 6.24066 12.9894 6.2167 12.9717C6.19274 12.954 6.17486 12.9293 6.16551 12.9009L5.75034 11.6765C5.33936 11.566 4.94444 11.4027 4.57543 11.1907L3.41633 11.7608C3.39061 11.7752 3.36093 11.781 3.3317 11.7772C3.30246 11.7734 3.27523 11.7602 3.25405 11.7397L2.2646 10.7471C2.24347 10.7265 2.22936 10.6997 2.22426 10.6706C2.21915 10.6415 2.22331 10.6115 2.23615 10.5849L2.81359 9.4163C2.59989 9.0503 2.43649 8.65727 2.32782 8.24768L1.0918 7.83356C1.06435 7.82379 1.0407 7.80558 1.02423 7.78154C1.00776 7.7575 0.99933 7.72887 1.00012 7.69974V6.29933C0.99887 6.26985 1.0071 6.24075 1.02359 6.21628C1.04009 6.19182 1.064 6.17329 1.0918 6.1634L2.32361 5.74823C2.4323 5.33665 2.59568 4.94149 2.80938 4.57332L2.23194 3.41422C2.21928 3.38724 2.21562 3.35691 2.2215 3.32769C2.22738 3.29848 2.24249 3.27193 2.2646 3.25195L3.25195 2.2646C3.27244 2.24319 3.29923 2.22888 3.32842 2.22377C3.35761 2.21865 3.38767 2.22299 3.41422 2.23615L4.57332 2.81359C4.94004 2.59698 5.33561 2.43343 5.74823 2.32782L6.1634 1.0918C6.17329 1.064 6.19182 1.04009 6.21628 1.02359C6.24075 1.0071 6.26985 0.99887 6.29933 1.00012H7.69974C7.72887 0.99933 7.7575 1.00776 7.78154 1.02423C7.80558 1.0407 7.82379 1.06435 7.83356 1.0918L8.24873 2.32361C8.65832 2.43228 9.0514 2.59567 9.4173 2.80938L10.5891 2.23194C10.6157 2.2191 10.6457 2.21494 10.6748 2.22004C10.7039 2.22514 10.7307 2.23926 10.7513 2.26039L11.744 3.253C11.7645 3.27418 11.7776 3.30141 11.7814 3.33064C11.7852 3.35988 11.7794 3.38956 11.765 3.41527L11.195 4.57438C11.407 4.94339 11.5702 5.33831 11.6807 5.74929L12.9052 6.16445C12.9335 6.1738 12.9582 6.19169 12.9759 6.21565C12.9937 6.23961 13.0035 6.26847 13.0042 6.29828V7.69974C13.0035 7.72954 12.9937 7.75841 12.9759 7.78237C12.9582 7.80633 12.9335 7.82421 12.9052 7.83356L11.6807 8.24873C11.569 8.65727 11.4057 9.0499 11.195 9.4173L11.765 10.5859C11.7791 10.6117 11.7847 10.6413 11.7809 10.6705C11.7771 10.6996 11.7642 10.7268 11.744 10.7482L10.7513 11.7408C10.73 11.761 10.7028 11.7739 10.6736 11.7777C10.6445 11.7815 10.6149 11.776 10.5891 11.7619L9.4205 11.1918C9.0531 11.4026 8.66043 11.5658 8.25189 11.6776L7.83672 12.902C7.82702 12.9306 7.80858 12.9555 7.784 12.9731C7.75943 12.9906 7.72996 13.0001 7.69974 13ZM8.55853 7.92524C8.53412 7.92438 8.51031 7.91744 8.48927 7.90503C8.46823 7.89263 8.45062 7.87516 8.43805 7.85422C8.42549 7.83327 8.41836 7.80952 8.41731 7.78511C8.41627 7.76071 8.42135 7.73643 8.43208 7.71449L9.1781 6.42683H8.60068C8.58118 6.42852 8.56155 6.42614 8.54302 6.41984C8.52449 6.41354 8.50748 6.40345 8.49305 6.39022C8.47863 6.377 8.46712 6.36091 8.45924 6.343C8.45136 6.32509 8.44729 6.30573 8.44729 6.28616C8.44729 6.26659 8.45136 6.24723 8.45924 6.22932C8.46712 6.21141 8.47863 6.19533 8.49305 6.1821C8.50748 6.16887 8.52449 6.15879 8.54302 6.15248C8.56155 6.14618 8.58118 6.1438 8.60068 6.14549H9.4236C9.4482 6.14565 9.4723 6.15227 9.4935 6.16469C9.5147 6.17711 9.5323 6.19488 9.5445 6.21623C9.5566 6.23758 9.563 6.26175 9.5628 6.28632C9.5627 6.3109 9.5561 6.33501 9.5438 6.35623L8.67865 7.85464C8.66614 7.87552 8.64859 7.89293 8.6276 7.90526C8.60661 7.9176 8.58286 7.92447 8.55853 7.92524ZM6.91155 7.92524C6.7282 7.92524 6.77035 7.67866 6.77035 7.46792H6.05803C6.03159 7.46698 6.00595 7.45868 5.98396 7.44397C5.96198 7.42925 5.94454 7.4087 5.9336 7.38462C5.92265 7.36054 5.91863 7.33388 5.922 7.30765C5.92537 7.28141 5.93598 7.25663 5.95265 7.2361L6.81144 6.19501C6.82982 6.17262 6.85473 6.15652 6.8827 6.14897C6.91066 6.14141 6.94029 6.14278 6.96744 6.15288C6.99459 6.16297 7.01791 6.18129 7.03415 6.20528C7.05039 6.22927 7.05873 6.25773 7.05802 6.28669V7.18763C7.13494 7.18763 7.28352 7.18025 7.28352 7.32883C7.28352 7.4774 7.13599 7.47003 7.05802 7.47003C7.05275 7.67866 7.10227 7.92524 6.91155 7.92524ZM6.35518 7.18763H6.77035V6.67973L6.35518 7.18763ZM5.67974 7.92524H4.64603C4.61675 7.92481 4.58833 7.91529 4.5647 7.89799C4.54107 7.8807 4.5234 7.85648 4.51414 7.8287C4.50488 7.80092 4.50448 7.77095 4.51301 7.74294C4.52154 7.71492 4.53856 7.69025 4.56173 7.67234C4.85045 7.4616 5.48375 7.11597 5.48375 6.80618C5.4823 6.75451 5.47045 6.70366 5.44891 6.65668C5.42737 6.60969 5.39658 6.56753 5.35838 6.53271C5.32018 6.49789 5.27536 6.47113 5.22658 6.45402C5.17781 6.43692 5.12609 6.42982 5.07451 6.43315C5.02293 6.43648 4.97255 6.45017 4.92638 6.47341C4.88021 6.49664 4.8392 6.52895 4.80579 6.56839C4.77239 6.60783 4.74727 6.6536 4.73196 6.70297C4.71664 6.75233 4.71142 6.80428 4.71663 6.8557C4.7377 7.03167 4.43528 7.12335 4.43528 6.80618C4.43528 6.62983 4.50534 6.46071 4.63003 6.33602C4.75472 6.21132 4.92384 6.14127 5.10019 6.14127C5.27653 6.14127 5.44565 6.21132 5.57035 6.33602C5.69504 6.46071 5.76509 6.62983 5.76509 6.80618C5.76509 7.15075 5.42684 7.41839 5.10335 7.64389H5.68079C5.70029 7.6422 5.71992 7.64458 5.73845 7.65089C5.75698 7.65719 5.77399 7.66727 5.78842 7.6805C5.80284 7.69373 5.81436 7.70981 5.82223 7.72772C5.83011 7.74564 5.83418 7.76499 5.83418 7.78456C5.83418 7.80413 5.83011 7.82349 5.82223 7.8414C5.81436 7.85932 5.80284 7.8754 5.78842 7.88863C5.77399 7.90185 5.75698 7.91194 5.73845 7.91824C5.71992 7.92454 5.69924 7.92693 5.67974 7.92524ZM7.65021 8.48161C7.62936 8.48127 7.60882 8.47645 7.58999 8.46747C7.57116 8.45849 7.55448 8.44557 7.54108 8.42958C7.52769 8.41358 7.51789 8.3949 7.51236 8.37478C7.50683 8.35467 7.50569 8.3336 7.50901 8.31301L8.06011 5.62389C8.06752 5.58658 8.08944 5.55374 8.12106 5.5326C8.15268 5.51145 8.1914 5.50374 8.22871 5.51114C8.26602 5.51855 8.29886 5.54047 8.32 5.57209C8.34115 5.60371 8.34887 5.64243 8.34146 5.67974L7.79141 8.36886C7.78462 8.40092 7.76696 8.42965 7.74142 8.45019C7.71589 8.47074 7.68299 8.48183 7.65021 8.48161ZM6.99585 10.6628C6.27178 10.662 5.56421 10.4466 4.96251 10.0438C4.36082 9.641 3.89201 9.0689 3.61531 8.3998C3.3386 7.73069 3.26642 6.99457 3.40788 6.28446C3.54935 5.57435 3.89811 4.92209 4.4101 4.4101C4.92209 3.89811 5.57435 3.54935 6.28446 3.40788C6.99457 3.26642 7.73069 3.3386 8.3998 3.61531C9.0689 3.89201 9.641 4.36082 10.0438 4.96251C10.4466 5.56421 10.662 6.27178 10.6628 6.99585C10.6634 7.47747 10.5689 7.95447 10.3849 8.39955C10.2009 8.84463 9.9309 9.2491 9.5904 9.5897C9.2499 9.9303 8.84555 10.2004 8.40053 10.3845C7.9555 10.5687 7.47747 10.6632 6.99585 10.6628ZM6.99585 3.61127C6.3261 3.61064 5.67121 3.80867 5.11403 4.18031C4.55685 4.55195 4.12241 5.0805 3.86568 5.69908C3.60894 6.31767 3.54144 6.99851 3.67172 7.65547C3.802 8.31242 4.1242 8.91598 4.59756 9.3898C5.07093 9.8636 5.67418 10.1864 6.33102 10.3172C6.98785 10.4481 7.66875 10.3813 8.28758 10.1251C8.90641 9.869 9.4354 9.435 9.8075 8.87819C10.1797 8.32135 10.3783 7.66665 10.3783 6.9969C10.3769 6.10013 10.0204 5.24043 9.3866 4.60592C8.75293 3.97141 7.89261 3.61377 6.99585 3.61127ZM6.39733 12.7187H7.60174L8.00954 11.5153C8.01496 11.4919 8.02731 11.4706 8.04497 11.4542C8.06263 11.4379 8.08479 11.4272 8.10859 11.4236C8.54262 11.3128 8.95776 11.1381 9.3404 10.9052C9.3613 10.8919 9.3853 10.8842 9.41 10.8829C9.4348 10.8816 9.4594 10.8867 9.4816 10.8978L10.6217 11.4605L11.4647 10.6175L10.9052 9.4742C10.8959 9.4529 10.8918 9.4297 10.8931 9.4064C10.8943 9.3832 10.901 9.3606 10.9126 9.3404C11.144 8.95752 11.3173 8.54238 11.4268 8.10859C11.4304 8.08479 11.441 8.06263 11.4574 8.04497C11.4737 8.02731 11.495 8.01496 11.5185 8.00954L12.7218 7.60174V6.39838L11.5185 5.99059C11.4962 5.98296 11.4761 5.96992 11.4601 5.95263C11.4441 5.93534 11.4327 5.91435 11.4268 5.89154C11.3138 5.45542 11.1381 5.03801 10.9052 4.65235C10.8936 4.63216 10.887 4.60954 10.8857 4.58631C10.8844 4.56308 10.8885 4.53987 10.8978 4.51853L11.4605 3.37839L10.6175 2.52698L9.47 3.08967C9.4493 3.10014 9.4263 3.10559 9.4031 3.10559C9.3799 3.10559 9.3569 3.10014 9.3362 3.08967C8.95577 2.85756 8.54164 2.68587 8.10859 2.58072C8.08582 2.57475 8.06487 2.56326 8.04759 2.54727C8.03032 2.53128 8.01725 2.51129 8.00954 2.48905L7.60174 1.28147H6.39838L5.98954 2.48483C5.98075 2.50644 5.96733 2.52585 5.95021 2.54169C5.9331 2.55753 5.9127 2.56942 5.89048 2.5765C5.45374 2.6841 5.0359 2.85749 4.6513 3.09072C4.63055 3.10119 4.60763 3.10664 4.58439 3.10664C4.56115 3.10664 4.53823 3.10119 4.51748 3.09072L3.37945 2.52698L2.52803 3.37839L3.09072 4.51853C3.10119 4.53928 3.10664 4.5622 3.10664 4.58544C3.10664 4.60868 3.10119 4.6316 3.09072 4.65235C2.85896 5.03721 2.68699 5.45504 2.58072 5.89154C2.57475 5.91431 2.56326 5.93526 2.54727 5.95253C2.53128 5.96981 2.51129 5.98288 2.48905 5.99059L1.28569 6.39838V7.60174L2.48905 8.00954C2.51129 8.01725 2.53128 8.03032 2.54727 8.04759C2.56326 8.06487 2.57475 8.08582 2.58072 8.10859C2.6871 8.54341 2.86059 8.959 3.09494 9.3404C3.10541 9.3611 3.11086 9.3841 3.11086 9.4073C3.11086 9.4306 3.10541 9.4535 3.09494 9.4742L2.52698 10.6207L3.37839 11.4637L4.51853 10.9052C4.53985 10.8958 4.56307 10.8916 4.58632 10.8929C4.60957 10.8942 4.63218 10.9009 4.65235 10.9126C5.03843 11.1429 5.45582 11.3161 5.89154 11.4268C5.91533 11.4304 5.93749 11.441 5.95516 11.4574C5.97282 11.4737 5.98516 11.495 5.99059 11.5185L6.39733 12.7187Z" fill="white" stroke="white" stroke-width="0.2"/>
</svg>
