<svg xmlns="http://www.w3.org/2000/svg" width="11.274" height="10.16" viewBox="0 0 11.274 10.16">
  <path id="heart_107804" d="M11.156,14.679a3.255,3.255,0,0,0-3.077-2.543,3.063,3.063,0,0,0-2.443,1.29,3.06,3.06,0,0,0-2.442-1.29A3.255,3.255,0,0,0,.118,14.679,4.574,4.574,0,0,0,.846,18.31a12.212,12.212,0,0,0,4.625,3.943.344.344,0,0,0,.33,0,12.216,12.216,0,0,0,4.627-3.943A4.573,4.573,0,0,0,11.156,14.679Zm-5.52,6.879C.309,18.59.575,15.678.786,14.849a2.568,2.568,0,0,1,2.409-2.024,2.543,2.543,0,0,1,2.147,1.388.344.344,0,0,0,.295.166h0a.344.344,0,0,0,.294-.166,2.545,2.545,0,0,1,2.148-1.388,2.569,2.569,0,0,1,2.41,2.024C10.7,15.678,10.966,18.59,5.636,21.558Z" transform="translate(0 -12.136)"/>
</svg>
