<svg xmlns="http://www.w3.org/2000/svg" width="41.274" height="41" viewBox="0 0 41.274 41">
  <g id="hospital_3209074" transform="translate(0 -1.7)">
    <g id="Group_4243" data-name="Group 4243" transform="translate(14.282 31.633)">
      <path id="Path_12797" data-name="Path 12797" d="M189.283,373.021h-11.52a.582.582,0,0,0-.595.564v9.9h12.707v-9.9A.58.58,0,0,0,189.283,373.021Z" transform="translate(-177.168 -373.021)" fill="#f9f7f8" fill-rule="evenodd"/>
    </g>
    <g id="Group_4244" data-name="Group 4244" transform="translate(7.813 10.043)">
      <path id="Path_12798" data-name="Path 12798" d="M97.451,108.967h24.585a.531.531,0,0,0,.529-.529v-2.719a.531.531,0,0,0-.529-.529H97.451a.533.533,0,0,0-.532.529v2.719A.532.532,0,0,0,97.451,108.967Z" transform="translate(-96.919 -105.189)" fill="#e0dfe1" fill-rule="evenodd"/>
    </g>
    <g id="Group_4245" data-name="Group 4245" transform="translate(29.844 10.043)">
      <path id="Path_12799" data-name="Path 12799" d="M370.741,105.718v2.719a.531.531,0,0,1-.525.529H373.3a.53.53,0,0,0,.529-.529v-2.719a.53.53,0,0,0-.529-.529h-3.085A.53.53,0,0,1,370.741,105.718Z" transform="translate(-370.212 -105.189)" fill="#d3cfd2" fill-rule="evenodd"/>
    </g>
    <g id="Group_4246" data-name="Group 4246" transform="translate(0.605 20.302)">
      <path id="Path_12800" data-name="Path 12800" d="M7.5,232.451h8.566v21.794H7.5Z" transform="translate(-7.5 -232.451)" fill="#c3ddff" fill-rule="evenodd"/>
    </g>
    <g id="Group_4247" data-name="Group 4247" transform="translate(9.17 13.821)">
      <path id="Path_12801" data-name="Path 12801" d="M113.756,158.536V180.33h5.112v-9.9a.582.582,0,0,1,.595-.564h11.52a.58.58,0,0,1,.592.564v9.9h5.114V152.055H113.756v6.481Z" transform="translate(-113.756 -152.055)" fill="#edf4ff" fill-rule="evenodd"/>
    </g>
    <g id="Group_4248" data-name="Group 4248" transform="translate(32.104 20.302)">
      <path id="Path_12802" data-name="Path 12802" d="M398.244,232.451h8.566v21.794h-8.566Z" transform="translate(-398.244 -232.451)" fill="#c3ddff" fill-rule="evenodd"/>
    </g>
    <g id="Group_4249" data-name="Group 4249" transform="translate(0.605 16.752)">
      <path id="Path_12803" data-name="Path 12803" d="M16.066,188.42H7.955a.456.456,0,0,0-.455.457v3.092h8.566Z" transform="translate(-7.5 -188.42)" fill="#e0dfe1" fill-rule="evenodd"/>
    </g>
    <g id="Group_4250" data-name="Group 4250" transform="translate(32.104 16.752)">
      <path id="Path_12804" data-name="Path 12804" d="M398.244,188.42v3.549h8.566v-3.092a.457.457,0,0,0-.455-.457Z" transform="translate(-398.244 -188.42)" fill="#e0dfe1" fill-rule="evenodd"/>
    </g>
    <g id="Group_4251" data-name="Group 4251" transform="translate(7.158 20.302)">
      <path id="Path_12805" data-name="Path 12805" d="M88.79,232.451H90.8v21.794H88.79Z" transform="translate(-88.79 -232.451)" fill="#a4ccff" fill-rule="evenodd"/>
    </g>
    <g id="Group_4252" data-name="Group 4252" transform="translate(29.942 13.821)">
      <path id="Path_12806" data-name="Path 12806" d="M371.427,152.055V180.33h2.162V152.055Z" transform="translate(-371.427 -152.055)" fill="#dbeaff" fill-rule="evenodd"/>
    </g>
    <g id="Group_4253" data-name="Group 4253" transform="translate(13.349 23.191)">
      <path id="Path_12807" data-name="Path 12807" d="M165.851,268.3a.255.255,0,0,0-.254.257v2.542a.255.255,0,0,0,.254.254h2.8a.257.257,0,0,0,.257-.254v-2.542a.257.257,0,0,0-.257-.257Z" transform="translate(-165.597 -268.295)" fill="#f9f7f8" fill-rule="evenodd"/>
    </g>
    <g id="Group_4254" data-name="Group 4254" transform="translate(18.981 23.191)">
      <path id="Path_12808" data-name="Path 12808" d="M235.46,268.552v2.542a.257.257,0,0,0,.257.254h2.8a.255.255,0,0,0,.254-.254v-2.542a.255.255,0,0,0-.254-.257h-2.8A.257.257,0,0,0,235.46,268.552Z" transform="translate(-235.46 -268.295)" fill="#f9f7f8" fill-rule="evenodd"/>
    </g>
    <g id="Group_4255" data-name="Group 4255" transform="translate(24.616 23.191)">
      <path id="Path_12809" data-name="Path 12809" d="M305.353,268.552v2.542a.255.255,0,0,0,.257.254h2.8a.255.255,0,0,0,.257-.254v-2.542a.256.256,0,0,0-.257-.257h-2.8A.256.256,0,0,0,305.353,268.552Z" transform="translate(-305.353 -268.295)" fill="#f9f7f8" fill-rule="evenodd"/>
    </g>
    <g id="Group_4256" data-name="Group 4256" transform="translate(24.616 17.65)">
      <path id="Path_12810" data-name="Path 12810" d="M305.353,199.815v2.542a.257.257,0,0,0,.257.257h2.8a.257.257,0,0,0,.257-.257v-2.542a.257.257,0,0,0-.257-.257h-2.8A.257.257,0,0,0,305.353,199.815Z" transform="translate(-305.353 -199.558)" fill="#f9f7f8" fill-rule="evenodd"/>
    </g>
    <g id="Group_4257" data-name="Group 4257" transform="translate(18.981 17.65)">
      <path id="Path_12811" data-name="Path 12811" d="M235.46,199.815v2.542a.259.259,0,0,0,.257.257h2.8a.257.257,0,0,0,.254-.257v-2.542a.257.257,0,0,0-.254-.257h-2.8A.259.259,0,0,0,235.46,199.815Z" transform="translate(-235.46 -199.558)" fill="#f9f7f8" fill-rule="evenodd"/>
    </g>
    <g id="Group_4258" data-name="Group 4258" transform="translate(13.349 17.65)">
      <path id="Path_12812" data-name="Path 12812" d="M165.851,199.558a.257.257,0,0,0-.254.257v2.542a.257.257,0,0,0,.254.257h2.8a.259.259,0,0,0,.257-.257v-2.542a.259.259,0,0,0-.257-.257Z" transform="translate(-165.597 -199.558)" fill="#f9f7f8" fill-rule="evenodd"/>
    </g>
    <g id="Group_4259" data-name="Group 4259" transform="translate(38.048 16.752)">
      <path id="Path_12813" data-name="Path 12813" d="M472.439,188.877v3.092h2.166v-3.092a.457.457,0,0,0-.455-.457h-2.167A.457.457,0,0,1,472.439,188.877Z" transform="translate(-471.984 -188.42)" fill="#d3cfd2" fill-rule="evenodd"/>
    </g>
    <g id="Group_4260" data-name="Group 4260" transform="translate(38.503 20.302)">
      <path id="Path_12814" data-name="Path 12814" d="M477.625,232.451h2.166v21.794h-2.166Z" transform="translate(-477.625 -232.451)" fill="#a4ccff" fill-rule="evenodd"/>
    </g>
    <g id="Group_4261" data-name="Group 4261" transform="translate(7.158 16.752)">
      <path id="Path_12815" data-name="Path 12815" d="M88.79,188.42H90.8v3.549H88.79Z" transform="translate(-88.79 -188.42)" fill="#d3cfd2" fill-rule="evenodd"/>
    </g>
    <g id="Group_4262" data-name="Group 4262" transform="translate(13.825 2.305)">
      <path id="Path_12816" data-name="Path 12816" d="M171.5,20.716h13.624V9.6a.406.406,0,0,0-.406-.4H171.9a.405.405,0,0,0-.4.4Z" transform="translate(-171.498 -9.2)" fill="#faf5dc" fill-rule="evenodd"/>
    </g>
    <g id="Group_4263" data-name="Group 4263" transform="translate(24.681 2.305)">
      <path id="Path_12817" data-name="Path 12817" d="M306.569,9.6V20.716h2.362V9.6a.406.406,0,0,0-.406-.4h-2.362a.406.406,0,0,1,.406.4Z" transform="translate(-306.163 -9.2)" fill="#f5ebcd" fill-rule="evenodd"/>
    </g>
    <g id="Group_4264" data-name="Group 4264" transform="translate(17.309 4.735)">
      <path id="Path_12818" data-name="Path 12818" d="M220.606,41.346h-1.236V40.112a.769.769,0,0,0-.765-.767h-1.119a.769.769,0,0,0-.767.767v1.234h-1.234a.769.769,0,0,0-.767.767V43.23a.769.769,0,0,0,.767.767h1.234v1.236a.769.769,0,0,0,.767.767h1.119a.769.769,0,0,0,.765-.767V44h1.236a.769.769,0,0,0,.767-.767V42.113A.769.769,0,0,0,220.606,41.346Z" transform="translate(-214.718 -39.345)" fill="#f37c7c" fill-rule="evenodd"/>
    </g>
    <g id="Group_4265" data-name="Group 4265" transform="translate(0 1.7)">
      <path id="Path_12819" data-name="Path 12819" d="M282.344,428.216a.6.6,0,0,0,.6-.6v-1.63a.6.6,0,1,0-1.209,0v1.63A.6.6,0,0,0,282.344,428.216Z" transform="translate(-259.027 -391.223)"/>
      <path id="Path_12820" data-name="Path 12820" d="M215.836,428.358a.6.6,0,0,0,.6-.6v-1.628a.6.6,0,1,0-1.209,0v1.628A.6.6,0,0,0,215.836,428.358Z" transform="translate(-197.881 -391.355)"/>
      <path id="Path_12821" data-name="Path 12821" d="M422.881,324.811h3.482a.6.6,0,1,0,0-1.209h-3.482a.6.6,0,1,0,0,1.209Z" transform="translate(-388.235 -297.652)"/>
      <path id="Path_12822" data-name="Path 12822" d="M422.881,374.136h3.482a.6.6,0,0,0,0-1.209h-3.482a.6.6,0,0,0,0,1.209Z" transform="translate(-388.235 -343.001)"/>
      <path id="Path_12823" data-name="Path 12823" d="M422.881,423.461h3.482a.6.6,0,1,0,0-1.209h-3.482a.6.6,0,1,0,0,1.209Z" transform="translate(-388.235 -388.35)"/>
      <path id="Path_12824" data-name="Path 12824" d="M422.881,275.485h3.482a.6.6,0,1,0,0-1.209h-3.482a.6.6,0,1,0,0,1.209Z" transform="translate(-388.235 -252.303)"/>
      <path id="Path_12825" data-name="Path 12825" d="M35.619,323.6H32.138a.6.6,0,1,0,0,1.209h3.482a.6.6,0,1,0,0-1.209Z" transform="translate(-28.991 -297.652)"/>
      <path id="Path_12826" data-name="Path 12826" d="M35.619,372.927H32.138a.6.6,0,0,0,0,1.209h3.482a.6.6,0,0,0,0-1.209Z" transform="translate(-28.991 -343.001)"/>
      <path id="Path_12827" data-name="Path 12827" d="M35.619,422.252H32.138a.6.6,0,1,0,0,1.209h3.482a.6.6,0,1,0,0-1.209Z" transform="translate(-28.991 -388.35)"/>
      <path id="Path_12828" data-name="Path 12828" d="M35.619,274.276H32.138a.6.6,0,1,0,0,1.209h3.482a.6.6,0,1,0,0-1.209Z" transform="translate(-28.991 -252.303)"/>
      <path id="Path_12829" data-name="Path 12829" d="M161.754,192.058h-2.8a.861.861,0,0,0-.859.861v2.542a.861.861,0,0,0,.859.861h2.8a.862.862,0,0,0,.861-.861v-2.542A.862.862,0,0,0,161.754,192.058Zm-.348,3.055h-2.1v-1.846h2.1Z" transform="translate(-145.352 -176.713)"/>
      <path id="Path_12830" data-name="Path 12830" d="M228.822,192.058a.862.862,0,0,0-.861.861v2.542a.862.862,0,0,0,.861.861h2.8a.861.861,0,0,0,.859-.861v-2.542a.861.861,0,0,0-.859-.861Zm2.448,3.055h-2.1v-1.846h2.1Z" transform="translate(-209.584 -176.713)"/>
      <path id="Path_12831" data-name="Path 12831" d="M298.714,196.322h2.8a.862.862,0,0,0,.861-.861v-2.542a.862.862,0,0,0-.861-.861h-2.8a.862.862,0,0,0-.861.861v2.542A.862.862,0,0,0,298.714,196.322Zm.348-3.055h2.1v1.846h-2.1Z" transform="translate(-273.842 -176.713)"/>
      <path id="Path_12832" data-name="Path 12832" d="M161.754,260.795h-2.8a.861.861,0,0,0-.859.861V264.2a.86.86,0,0,0,.859.859h2.8a.861.861,0,0,0,.861-.859v-2.542A.862.862,0,0,0,161.754,260.795Zm-.348,3.053h-2.1V262h2.1Z" transform="translate(-145.352 -239.908)"/>
      <path id="Path_12833" data-name="Path 12833" d="M231.62,260.795h-2.8a.862.862,0,0,0-.861.861V264.2a.861.861,0,0,0,.861.859h2.8a.86.86,0,0,0,.859-.859v-2.542A.861.861,0,0,0,231.62,260.795Zm-.35,3.053h-2.1V262h2.1Z" transform="translate(-209.583 -239.908)"/>
      <path id="Path_12834" data-name="Path 12834" d="M298.714,265.057h2.8a.861.861,0,0,0,.861-.859v-2.542a.862.862,0,0,0-.861-.861h-2.8a.862.862,0,0,0-.861.861V264.2A.861.861,0,0,0,298.714,265.057Zm.348-3.053h2.1v1.844h-2.1Z" transform="translate(-273.842 -239.908)"/>
      <path id="Path_12835" data-name="Path 12835" d="M40.215,16.148H32.708V14.425h.221a1.135,1.135,0,0,0,1.134-1.134V10.572a1.135,1.135,0,0,0-1.134-1.134H28.054V2.708A1.01,1.01,0,0,0,27.043,1.7H14.229a1.009,1.009,0,0,0-1.008,1.008v6.73H8.345a1.137,1.137,0,0,0-1.136,1.134v2.719a1.136,1.136,0,0,0,1.136,1.134h.221v1.722H1.059A1.062,1.062,0,0,0,0,17.209V42.1a.6.6,0,0,0,.6.6H40.669a.6.6,0,0,0,.6-.6V17.209A1.062,1.062,0,0,0,40.215,16.148Zm-12.161-5.5h4.8v2.569h-4.8ZM8.418,13.216V10.647h4.8v2.569ZM1.209,17.357H8.566V19.7H1.209ZM20.032,32.473v9.018H14.887V32.238H20.08A.6.6,0,0,0,20.032,32.473Zm6.353,9.018H21.242V32.473a.6.6,0,0,0-.047-.235h5.191v9.252Zm5.114,0h-3.9V32.2a1.185,1.185,0,0,0-1.2-1.169H14.877a1.186,1.186,0,0,0-1.2,1.169v9.293h-3.9V32.177a.6.6,0,1,0-1.209,0v9.314H1.209V20.906H8.566v8.421a.6.6,0,1,0,1.209,0v-14.9h9.8a.6.6,0,1,0,0-1.209H14.43V2.909H26.844V13.216H22.423a.6.6,0,0,0,0,1.209H31.5Zm8.566,0H32.708V20.906h7.356Zm0-21.794H32.708v-2.34h7.356Z" transform="translate(0 -1.7)"/>
      <path id="Path_12836" data-name="Path 12836" d="M213.079,38.338v-.631h.631a1.373,1.373,0,0,0,1.372-1.372V35.218a1.373,1.373,0,0,0-1.372-1.372h-.631v-.629a1.372,1.372,0,0,0-1.37-1.372H210.59a1.373,1.373,0,0,0-1.372,1.372v.629h-.629a1.373,1.373,0,0,0-1.372,1.372v1.117a1.373,1.373,0,0,0,1.372,1.372h.629v.631a1.373,1.373,0,0,0,1.372,1.372h1.119A1.372,1.372,0,0,0,213.079,38.338Zm-2.652,0V37.1a.6.6,0,0,0-.6-.6h-1.234a.165.165,0,0,1-.163-.163V35.218a.165.165,0,0,1,.163-.163h1.234a.6.6,0,0,0,.6-.6V33.217a.165.165,0,0,1,.163-.163h1.119a.164.164,0,0,1,.16.163v1.234a.6.6,0,0,0,.6.6h1.236a.165.165,0,0,1,.163.163v1.117a.165.165,0,0,1-.163.163h-1.236a.6.6,0,0,0-.6.6v1.236a.164.164,0,0,1-.16.163H210.59a.165.165,0,0,1-.163-.163Z" transform="translate(-190.513 -29.415)"/>
    </g>
  </g>
</svg>
