<svg xmlns="http://www.w3.org/2000/svg" width="15.772" height="15.888" viewBox="0 0 15.772 15.888">
  <g id="Group_4284" data-name="Group 4284" transform="translate(-220.49 -233.676)">
    <g id="Layer_x0020_1" transform="translate(220.49 233.676)">
      <g id="_410241096" transform="translate(0 0)">
        <path id="_410241840" d="M6.82,1.272H3.949a.138.138,0,0,1,0-.277H6.82a.138.138,0,1,1,0,.277Zm5.318,0H9.267a.138.138,0,0,1,0-.277h2.87a.138.138,0,0,1,0,.277Zm3.654,8.672H.3a.138.138,0,0,1-.138-.138V1.133A.138.138,0,0,1,.3.995H1.5a.138.138,0,0,1,0,.277H.434v8.4H15.653v-8.4H14.585a.138.138,0,1,1,0-.277h1.206a.138.138,0,0,1,.138.138V9.805a.138.138,0,0,1-.138.138Z" transform="translate(-0.157 -0.63)" fill-rule="evenodd"/>
        <path id="_410241624" d="M18.235.729h2.171V.277H18.235Zm2.309.277H18.1a.138.138,0,0,1-.138-.138V.138A.138.138,0,0,1,18.1,0h2.448a.138.138,0,0,1,.138.138V.868A.138.138,0,0,1,20.544,1.006Z" transform="translate(-11.434 0)" fill-rule="evenodd"/>
        <path id="_410241960" d="M32.745.729h2.171V.277H32.745Zm2.309.277H32.607a.138.138,0,0,1-.138-.138V.138A.138.138,0,0,1,32.607,0h2.448a.138.138,0,0,1,.138.138V.868a.138.138,0,0,1-.138.138Z" transform="translate(-20.626 0)" fill-rule="evenodd"/>
        <path id="_410241504" d="M3.725.729H5.9V.277H3.725Zm2.309.277H3.587A.138.138,0,0,1,3.448.868V.138A.138.138,0,0,1,3.587,0H6.034a.138.138,0,0,1,.138.138V.868a.138.138,0,0,1-.138.138Z" transform="translate(-2.242 0)" fill-rule="evenodd"/>
        <path id="_410241048" d="M11.382,32.142h1v-5.77h-1Zm1.138.277H11.244a.138.138,0,0,1-.138-.138V26.234a.138.138,0,0,1,.138-.138H12.52a.138.138,0,0,1,.138.138v6.047A.138.138,0,0,1,12.52,32.419Z" transform="translate(-7.093 -16.531)" fill-rule="evenodd"/>
        <path id="_410240832" d="M10.821,25.184h1.412v-.25H10.821Zm1.44.277h-1.47a.248.248,0,0,1-.248-.248V24.82a.163.163,0,0,1,.163-.163h1.639a.163.163,0,0,1,.163.163v.393a.248.248,0,0,1-.248.248Z" transform="translate(-6.737 -15.62)" fill-rule="evenodd"/>
        <path id="_410240712" d="M28.121,32.142h1v-5.77h-1Zm1.138.277H27.982a.138.138,0,0,1-.138-.138V26.234a.138.138,0,0,1,.138-.138h1.277a.138.138,0,0,1,.138.138v6.047A.138.138,0,0,1,29.259,32.419Z" transform="translate(-17.697 -16.531)" fill-rule="evenodd"/>
        <path id="_410240952" d="M29.084,24.934h0Zm-1.525.25H28.97v-.25H27.558ZM29,25.461H27.53a.248.248,0,0,1-.248-.248V24.82a.163.163,0,0,1,.163-.163h1.639a.163.163,0,0,1,.163.163v.393A.248.248,0,0,1,29,25.461Z" transform="translate(-17.341 -15.62)" fill-rule="evenodd"/>
      </g>
    </g>
    <text id="Astral" transform="translate(228.376 239.854)" stroke="#000" stroke-width="0.5" font-size="3" font-family="SegoeUI-Light, Segoe UI" font-weight="300"><tspan x="-2.04" y="0">KM</tspan></text>
  </g>
</svg>
