<svg xmlns="http://www.w3.org/2000/svg" width="12.974" height="13.223" viewBox="0 0 12.974 13.223">
  <path id="translate_9502737" d="M25.2,11.149H20.184L20.036,9.97A1.022,1.022,0,0,0,19.05,9H14.74a.99.99,0,0,0-.989.989v8.537a.99.99,0,0,0,.989.989h3.34V20.7a1.276,1.276,0,0,0,1.275,1.274H25.2A1.276,1.276,0,0,0,26.475,20.7V12.425A1.276,1.276,0,0,0,25.2,11.149Zm-11.082,7.38V9.993a.622.622,0,0,1,.621-.621h4.31a.671.671,0,0,1,.622.644l1.14,9.135H14.74A.622.622,0,0,1,14.119,18.529ZM18.447,20.7V19.518h2.114l-1.878,1.794a.9.9,0,0,1-.236-.609Zm7.66,0a.908.908,0,0,1-.907.907H19.354a.9.9,0,0,1-.369-.078l2.161-2.064h0l.011-.011a.184.184,0,0,0,.045-.144l-.973-7.794H25.2a.908.908,0,0,1,.907.907Zm-.894-5.42a.184.184,0,0,1-.184.184H24.41c0,.11-.013.221-.027.333a3.774,3.774,0,0,1-.8,1.9,1.614,1.614,0,0,0,1.087.495.184.184,0,1,1,0,.368,1.978,1.978,0,0,1-1.335-.594A1.964,1.964,0,0,1,22,18.559a.184.184,0,0,1,0-.368,1.605,1.605,0,0,0,1.087-.5,3.707,3.707,0,0,1-.744-1.58.184.184,0,1,1,.36-.076,3.378,3.378,0,0,0,.634,1.382,3.417,3.417,0,0,0,.683-1.669c.012-.1.02-.191.024-.286H21.682a.184.184,0,0,1,0-.368h1.49v-.347a.184.184,0,1,1,.368,0V15.1h1.49a.184.184,0,0,1,.184.184Zm-6.751-.263.522,1.13A.184.184,0,1,0,19.317,16l-1.674-3.623a.184.184,0,0,0-.334,0L15.636,16a.184.184,0,1,0,.334.154l.522-1.13Zm-.985-2.132.815,1.764h-1.63Z" transform="translate(-13.626 -8.879)" stroke="#000" stroke-width="0.25"/>
</svg>
