<svg xmlns="http://www.w3.org/2000/svg" width="14.419" height="19.582" viewBox="0 0 14.419 19.582">
  <g id="placeholder-filled-point_58960" transform="translate(-12.883)">
    <path id="Path_12574" data-name="Path 12574" d="M20.092,0a7.218,7.218,0,0,0-7.209,7.209,7.032,7.032,0,0,0,.63,2.943,45.455,45.455,0,0,0,6.275,9.291.4.4,0,0,0,.608,0,45.477,45.477,0,0,0,6.275-9.291,7.029,7.029,0,0,0,.63-2.943A7.218,7.218,0,0,0,20.092,0Zm0,10.954a3.745,3.745,0,1,1,3.745-3.745A3.749,3.749,0,0,1,20.092,10.954Z" transform="translate(0)"/>
  </g>
</svg>
