<svg id="container-truck_8397505" xmlns="http://www.w3.org/2000/svg" width="63.937" height="44.955" viewBox="0 0 63.937 44.955">
  <g id="Group_4595" data-name="Group 4595" transform="translate(0.999 0.999)">
    <ellipse id="Ellipse_200" data-name="Ellipse 200" cx="2" cy="1" rx="2" ry="1" transform="translate(34.001 36.001)" fill="#999"/>
    <path id="Path_14319" data-name="Path 14319" d="M6.35,50.992a5.8,5.8,0,0,1-.35-2,5.994,5.994,0,1,1,11.988,0,5.8,5.8,0,0,1-.35,2,5.984,5.984,0,0,1-11.289,0Zm7.642-2a2,2,0,1,0-2,2A2,2,0,0,0,13.992,48.994Z" transform="translate(-1.005 -12.031)" fill="#666"/>
    <circle id="Ellipse_201" data-name="Ellipse 201" cx="1" cy="1" r="1" transform="translate(10.001 36.001)" fill="#999"/>
    <path id="Path_14320" data-name="Path 14320" d="M62.959,12V38.973H22V12Z" transform="translate(-1.021 -12)" fill="#d74c4c"/>
    <path id="Path_14321" data-name="Path 14321" d="M62.994,43v7.992H58.8a10.039,10.039,0,0,0,.2-2A9.925,9.925,0,0,0,56.99,43Z" transform="translate(-1.055 -12.031)" fill="#187c47"/>
    <circle id="Ellipse_202" data-name="Ellipse 202" cx="1" cy="1" r="1" transform="translate(47.001 36.001)" fill="#999"/>
    <path id="Path_14322" data-name="Path 14322" d="M54.638,50.992a5.978,5.978,0,1,1,.35-2A5.8,5.8,0,0,1,54.638,50.992Zm-3.646-2a2,2,0,1,0-2,2A2,2,0,0,0,50.992,48.994Z" transform="translate(-1.042 -12.031)" fill="#666"/>
    <path id="Path_14323" data-name="Path 14323" d="M31.35,50.992a5.8,5.8,0,0,1-.35-2,6.018,6.018,0,1,1,.35,2Zm7.642-2a2,2,0,1,0-2,2A2,2,0,0,0,38.992,48.994Z" transform="translate(-1.03 -12.031)" fill="#666"/>
    <path id="Path_14324" data-name="Path 14324" d="M58.769,50.988H54.623a5.8,5.8,0,0,0,.35-2,5.994,5.994,0,0,0-11.988,0A5.994,5.994,0,0,0,31,48.99a5.8,5.8,0,0,0,.35,2H27.2a10.039,10.039,0,0,1-.2-2,9.98,9.98,0,0,1,15.984-7.982,9.99,9.99,0,0,1,15.784,9.98Z" transform="translate(-1.026 -12.027)" fill="#999"/>
    <path id="Path_14325" data-name="Path 14325" d="M18,48.994V43H29a9.925,9.925,0,0,0-2.008,5.994,10.038,10.038,0,0,0,.2,2H17.65a5.8,5.8,0,0,0,.35-2Z" transform="translate(-1.016 -12.031)" fill="#187c47"/>
    <path id="Path_14326" data-name="Path 14326" d="M6,33v4L1,38V33Z" transform="translate(-1 -12.021)" fill="#d74c4c"/>
    <path id="Path_14327" data-name="Path 14327" d="M17.983,48.97A5.994,5.994,0,1,0,6,48.97a5.8,5.8,0,0,0,.35,2H1V37.981l5-1v-4h5.994l2-4V24H2a4.98,4.98,0,0,1,5-5H17.983Z" transform="translate(-1 -12.007)" fill="#27935d"/>
    <path id="Path_14328" data-name="Path 14328" d="M13.987,24v5l-2,4H1L2,24Z" transform="translate(-1 -12.012)" fill="#9ae1e8"/>
  </g>
  <g id="Group_4596" data-name="Group 4596">
    <path id="Path_14329" data-name="Path 14329" d="M12,46a3,3,0,1,0,3,3A3,3,0,0,0,12,46Zm0,4a1,1,0,1,1,1-1A1,1,0,0,1,12,50Z" transform="translate(-0.009 -11.035)" fill="#252525"/>
    <path id="Path_14330" data-name="Path 14330" d="M37,46a3,3,0,1,0,3,3A3,3,0,0,0,37,46Zm0,4a1,1,0,1,1,1-1A1,1,0,0,1,37,50Z" transform="translate(-0.034 -11.035)" fill="#252525"/>
    <path id="Path_14331" data-name="Path 14331" d="M49,46a3,3,0,1,0,3,3A3,3,0,0,0,49,46Zm0,4a1,1,0,1,1,1-1A1,1,0,0,1,49,50Z" transform="translate(-0.046 -11.035)" fill="#252525"/>
    <path id="Path_14332" data-name="Path 14332" d="M63.937,38.972V12a1,1,0,0,0-1-1H21.978a1,1,0,0,0-1,1V38.972a1,1,0,0,0,1,1h8.684a10.983,10.983,0,0,0-2.144,2H18.981V18.992a1,1,0,0,0-1-1H6.993A5.979,5.979,0,0,0,1,23.929L0,32.92V50.96a1,1,0,0,0,1,1h4.7a6.955,6.955,0,0,0,12.589,0H30.67a6.963,6.963,0,0,0,12.288.586,6.964,6.964,0,0,0,12.289-.586h7.691a1,1,0,0,0,1-1V42.968a1,1,0,0,0-1-1H57.4a11.016,11.016,0,0,0-2.145-2h7.685a1,1,0,0,0,1-1Zm-36.756,5a10.864,10.864,0,0,0-1.207,5c0,.334.02.667.05,1H18.9a6.925,6.925,0,0,0,.086-1v-5ZM5,33.977v2.179l-3,.6V33.978H5Zm-2.88-2,.777-6.993H12.987v3.76l-1.616,3.233ZM2,38.792l4.192-.838a1,1,0,0,0,.8-.979v-3h5a1,1,0,0,0,.894-.552l2.1-4.207V23.988a1,1,0,0,0-1-1H3.138a3.933,3.933,0,0,1,3.855-3h9.99V35.976h-2a1,1,0,0,0,0,2h2v6.1A6.986,6.986,0,0,0,5,48.963a6.9,6.9,0,0,0,.086,1H2V38.793Zm14.691,11.84a4.986,4.986,0,0,1-9.408-.015,4.838,4.838,0,0,1-.289-1.655,5,5,0,1,1,9.99,0A4.87,4.87,0,0,1,16.689,50.633Zm20.274,3.325a4.978,4.978,0,0,1-4.706-3.34,4.838,4.838,0,0,1-.289-1.655,5,5,0,1,1,5,5Zm16.689-3.325a4.98,4.98,0,1,1,.294-1.67A4.87,4.87,0,0,1,53.653,50.633Zm8.286-.671H59.891c.03-.332.05-.665.05-1a10.858,10.858,0,0,0-1.207-5h3.2Zm-5.8-6.391a8.884,8.884,0,0,1,1.806,5.392,9.26,9.26,0,0,1-.059,1H55.859a6.925,6.925,0,0,0,.086-1,6.986,6.986,0,0,0-12.987-3.583A6.986,6.986,0,0,0,29.97,48.962a6.9,6.9,0,0,0,.086,1H28.032a9.011,9.011,0,0,1-.059-1,8.98,8.98,0,0,1,14.386-7.182,1,1,0,0,0,1.2,0,8.961,8.961,0,0,1,12.58,1.79Zm5.8-5.6H22.977V13H61.939Z" transform="translate(0 -11)" fill="#252525"/>
    <path id="Path_14333" data-name="Path 14333" d="M27.5,34.981a1,1,0,0,0,1-1V17a1,1,0,1,0-2,0V33.982A1,1,0,0,0,27.5,34.981Z" transform="translate(-0.026 -11.005)" fill="#252525"/>
    <path id="Path_14334" data-name="Path 14334" d="M32.5,34.981a1,1,0,0,0,1-1V17a1,1,0,1,0-2,0V33.982A1,1,0,0,0,32.5,34.981Z" transform="translate(-0.031 -11.005)" fill="#252525"/>
    <path id="Path_14335" data-name="Path 14335" d="M37.5,34.981a1,1,0,0,0,1-1V17a1,1,0,1,0-2,0V33.982A1,1,0,0,0,37.5,34.981Z" transform="translate(-0.036 -11.005)" fill="#252525"/>
    <path id="Path_14336" data-name="Path 14336" d="M42.5,34.981a1,1,0,0,0,1-1V17a1,1,0,1,0-2,0V33.982A1,1,0,0,0,42.5,34.981Z" transform="translate(-0.041 -11.005)" fill="#252525"/>
    <path id="Path_14337" data-name="Path 14337" d="M47.5,34.981a1,1,0,0,0,1-1V17a1,1,0,1,0-2,0V33.982A1,1,0,0,0,47.5,34.981Z" transform="translate(-0.046 -11.005)" fill="#252525"/>
    <path id="Path_14338" data-name="Path 14338" d="M52.5,34.981a1,1,0,0,0,1-1V17a1,1,0,1,0-2,0V33.982A1,1,0,0,0,52.5,34.981Z" transform="translate(-0.051 -11.005)" fill="#252525"/>
    <path id="Path_14339" data-name="Path 14339" d="M57.5,34.981a1,1,0,0,0,1-1V17a1,1,0,1,0-2,0V33.982A1,1,0,0,0,57.5,34.981Z" transform="translate(-0.056 -11.005)" fill="#252525"/>
  </g>
</svg>
