<svg xmlns="http://www.w3.org/2000/svg" width="7.981" height="7.887" viewBox="0 0 7.981 7.887">
  <g id="money_631180" transform="translate(0 -3)">
    <g id="Group_4273" data-name="Group 4273" transform="translate(4.676 6.947)">
      <g id="Group_4272" data-name="Group 4272">
        <path id="Path_12848" data-name="Path 12848" d="M300.609,257.326a.3.3,0,1,1,.343-.3.156.156,0,1,0,.312,0,.62.62,0,0,0-.5-.591v-.081a.156.156,0,0,0-.312,0v.081a.62.62,0,0,0-.5.591.634.634,0,0,0,.655.609.3.3,0,1,1-.343.3.156.156,0,1,0-.312,0,.62.62,0,0,0,.5.591v.067a.156.156,0,0,0,.312,0v-.067a.62.62,0,0,0,.5-.591A.634.634,0,0,0,300.609,257.326Z" transform="translate(-299.954 -256.201)"/>
      </g>
    </g>
    <g id="Group_4275" data-name="Group 4275" transform="translate(5.985 6.395)">
      <g id="Group_4274" data-name="Group 4274" transform="translate(0 0)">
        <path id="Path_12849" data-name="Path 12849" d="M384.977,221.534a2.031,2.031,0,0,0-.83-.734.156.156,0,1,0-.135.281,1.716,1.716,0,0,1,.773,2.351.156.156,0,1,0,.275.146,2.029,2.029,0,0,0-.083-2.044Z" transform="translate(-383.924 -220.785)"/>
      </g>
    </g>
    <g id="Group_4277" data-name="Group 4277" transform="translate(5.409 6.211)">
      <g id="Group_4276" data-name="Group 4276">
        <path id="Path_12850" data-name="Path 12850" d="M347.166,209h-.01a.156.156,0,0,0,0,.312h.01a.156.156,0,0,0,0-.312Z" transform="translate(-347 -209.001)"/>
      </g>
    </g>
    <g id="Group_4279" data-name="Group 4279" transform="translate(3.305 7.204)">
      <g id="Group_4278" data-name="Group 4278" transform="translate(0 0)">
        <path id="Path_12851" data-name="Path 12851" d="M213.287,275.291a1.716,1.716,0,0,1-.773-2.351.156.156,0,0,0-.275-.146,2.027,2.027,0,0,0,.913,2.778.156.156,0,1,0,.135-.281Z" transform="translate(-212.002 -272.711)"/>
      </g>
    </g>
    <g id="Group_4281" data-name="Group 4281" transform="translate(4.932 9.952)">
      <g id="Group_4280" data-name="Group 4280">
        <path id="Path_12852" data-name="Path 12852" d="M316.543,449h-.009a.156.156,0,0,0,0,.312h.01a.156.156,0,1,0,0-.312Z" transform="translate(-316.378 -448.999)"/>
      </g>
    </g>
    <g id="Group_4283" data-name="Group 4283" transform="translate(0 3)">
      <g id="Group_4282" data-name="Group 4282" transform="translate(0 0)">
        <path id="Path_12853" data-name="Path 12853" d="M6.039,5.684a.716.716,0,0,0-.069-.127h.406a.717.717,0,1,0,0-1.434H5.127A.717.717,0,0,0,4.536,3H.717a.717.717,0,1,0,0,1.434H1.965a.715.715,0,0,0,0,.811H1.559a.717.717,0,0,0-.446,1.278.716.716,0,0,0,0,1.122.716.716,0,0,0,0,1.122.717.717,0,0,0,.446,1.278H3.4A2.649,2.649,0,1,0,6.039,5.684Zm.337-1.25a.405.405,0,1,1,0,.811H2.556a.405.405,0,1,1,0-.811ZM.717,4.122a.405.405,0,0,1,0-.811H4.536a.405.405,0,1,1,0,.811Zm.842,1.434H5.378a.405.405,0,0,1,.177.041c-.074-.006-.148-.01-.224-.01a2.642,2.642,0,0,0-1.875.779h-1.9a.405.405,0,1,1,0-.811Zm0,1.122H3.19a2.642,2.642,0,0,0-.4.811H1.559a.405.405,0,0,1,0-.811Zm0,1.122H2.717a2.652,2.652,0,0,0-.01.811H1.559a.405.405,0,0,1,0-.811Zm0,1.933a.405.405,0,0,1,0-.811H2.771a2.64,2.64,0,0,0,.374.811Zm3.772.842A2.338,2.338,0,1,1,7.669,8.238,2.341,2.341,0,0,1,5.331,10.576Z" transform="translate(0 -3)"/>
      </g>
    </g>
  </g>
</svg>
