<svg width="12" height="12" viewBox="0 0 12 12" fill="none" xmlns="http://www.w3.org/2000/svg">
<g clip-path="url(#clip0_3527_8581)">
<path d="M8.29758 0.742188H1.35703C0.608672 0.742188 0 1.35086 0 2.09922V8.18125C0 8.4693 0.325758 8.63167 0.555703 8.46742L2.48859 7.08836C2.65078 6.97281 2.84156 6.91164 3.04078 6.91164H7.29211C8.04047 6.91164 8.64914 6.30297 8.64914 5.55461V1.09375C8.64914 0.899688 8.49164 0.742188 8.29758 0.742188ZM6.58992 5.00102H2.52797C2.33391 5.00102 2.17641 4.84375 2.17641 4.64945C2.17641 4.45539 2.33391 4.29789 2.52797 4.29789H6.58992C6.78398 4.29789 6.94148 4.45539 6.94148 4.64945C6.94148 4.84375 6.78398 5.00102 6.58992 5.00102ZM6.58992 3.36039H2.52797C2.33391 3.36039 2.17641 3.20312 2.17641 3.00883C2.17641 2.81477 2.33391 2.65727 2.52797 2.65727H6.58992C6.78398 2.65727 6.94148 2.81477 6.94148 3.00883C6.94148 3.20312 6.78398 3.36039 6.58992 3.36039Z" fill="#FBC02D"/>
<path d="M12.0002 4.82602V10.9078C12.0002 11.1939 11.6761 11.3594 11.4445 11.194L9.51162 9.81516C9.34943 9.69961 9.15865 9.63844 8.95943 9.63844H4.70811C3.95975 9.63844 3.35107 9.02953 3.35107 8.28117V7.61461H7.29232C8.42834 7.61461 9.35248 6.69047 9.35248 5.55445V3.46875H10.6432C11.3915 3.46875 12.0002 4.07766 12.0002 4.82602Z" fill="#FBC02D"/>
</g>
<defs>
<clipPath id="clip0_3527_8581">
<rect width="12" height="12" fill="white"/>
</clipPath>
</defs>
</svg>
