<svg xmlns="http://www.w3.org/2000/svg" width="19" height="19" viewBox="0 0 19 19">
  <g id="ring_246688" transform="translate(0)">
    <g id="Group_4084" data-name="Group 4084" transform="translate(0)">
      <path id="Path_12653" data-name="Path 12653" d="M18.72,13.578c-2.235-2.235-2.571-3.357-2.571-6.928a6.649,6.649,0,1,0-13.3,0,11.234,11.234,0,0,1-.316,3.527,8.147,8.147,0,0,1-2.255,3.4A.95.95,0,0,0,.952,15.2H6.223l-.048.475a3.324,3.324,0,1,0,6.649,0l-.048-.475h5.272A.95.95,0,0,0,18.72,13.578ZM9.5,18.05a2.375,2.375,0,0,1-2.375-2.375l.048-.475h4.653l.048.475A2.375,2.375,0,0,1,9.5,18.05ZM.952,14.25C3.8,11.4,3.8,9.5,3.8,6.65a5.7,5.7,0,1,1,11.4,0c0,2.85,0,4.75,2.849,7.6Z" transform="translate(0)"/>
    </g>
  </g>
</svg>
