<svg id="Group_2610536" data-name="Group 2610536" xmlns="http://www.w3.org/2000/svg" width="21.833" height="26.2" viewBox="0 0 21.833 26.2">
  <path id="Path_14476" data-name="Path 14476" d="M21.155,18.463a7.312,7.312,0,0,1-2.6-5.595V9.825a7.648,7.648,0,0,0-6.55-7.554V1.092a1.092,1.092,0,0,0-2.183,0V2.271a7.647,7.647,0,0,0-6.55,7.554v3.044a7.32,7.32,0,0,1-2.607,5.6A1.91,1.91,0,0,0,1.91,21.833H19.923a1.91,1.91,0,0,0,1.233-3.37Z" fill="#ffcf49"/>
  <path id="Path_14477" data-name="Path 14477" d="M10.917,26.2a4.1,4.1,0,0,0,4.011-3.275H6.906A4.1,4.1,0,0,0,10.917,26.2Z" fill="#ffcf49"/>
</svg>
