<svg width="12" height="12" viewBox="0 0 12 12" fill="none" xmlns="http://www.w3.org/2000/svg">
<path fill-rule="evenodd" clip-rule="evenodd" d="M3.07491 0H7.0869L10.4872 3.54423V10.4378C10.4872 11.3014 9.78855 12 8.92797 12H3.07491C2.21134 12 1.5127 11.3014 1.5127 10.4378V1.56221C1.51268 0.698648 2.21133 0 3.07491 0Z" fill="#E5252A"/>
<path opacity="0.302" fill-rule="evenodd" clip-rule="evenodd" d="M7.08398 0V3.51724H10.4873L7.08398 0Z" fill="white"/>
<path d="M3.24902 8.95362V6.76172H4.18156C4.41245 6.76172 4.59536 6.82469 4.73329 6.95362C4.87122 7.07956 4.94019 7.25048 4.94019 7.46337C4.94019 7.67626 4.87122 7.84718 4.73329 7.97311C4.59536 8.10205 4.41245 8.16502 4.18156 8.16502H3.80974V8.95362H3.24902ZM3.80974 7.68827H4.11859C4.20254 7.68827 4.26851 7.67027 4.3135 7.6283C4.35847 7.58932 4.38247 7.53534 4.38247 7.46338C4.38247 7.39143 4.35849 7.33745 4.3135 7.29847C4.26853 7.25648 4.20256 7.2385 4.11859 7.2385H3.80974V7.68827ZM5.17106 8.95362V6.76172H5.94767C6.1006 6.76172 6.24453 6.7827 6.37945 6.82769C6.51438 6.87266 6.63733 6.93564 6.74527 7.0226C6.85322 7.10655 6.94017 7.22049 7.00314 7.36442C7.06311 7.50835 7.0961 7.67327 7.0961 7.85917C7.0961 8.04209 7.06312 8.207 7.00314 8.35092C6.94017 8.49485 6.85322 8.60879 6.74527 8.69275C6.63731 8.7797 6.51438 8.84267 6.37945 8.88765C6.24453 8.93262 6.1006 8.95362 5.94767 8.95362H5.17106ZM5.71979 8.47687H5.8817C5.96866 8.47687 6.04962 8.46788 6.12458 8.44688C6.19654 8.4259 6.26551 8.3929 6.33148 8.34793C6.39445 8.30296 6.44542 8.23998 6.4814 8.15603C6.51738 8.07208 6.53538 7.97311 6.53538 7.85917C6.53538 7.74223 6.51738 7.64328 6.4814 7.55933C6.44542 7.47538 6.39445 7.41241 6.33148 7.36742C6.26551 7.32245 6.19656 7.28946 6.12458 7.26848C6.04962 7.24749 5.96866 7.23849 5.8817 7.23849H5.71979V8.47687ZM7.37796 8.95362V6.76172H8.93719V7.23849H7.93868V7.5893H8.73628V8.06307H7.93868V8.95362H7.37796Z" fill="white"/>
</svg>
