<svg xmlns="http://www.w3.org/2000/svg" width="9.451" height="16.678" viewBox="0 0 9.451 16.678">
  <g id="badge_1130041" transform="translate(0 -0.001)">
    <path id="Path_13071" data-name="Path 13071" d="M88.482,5H86.074a.743.743,0,0,1-.742-.742V.742A.743.743,0,0,1,86.074,0h2.408a.743.743,0,0,1,.742.742v3.52A.743.743,0,0,1,88.482,5ZM86.074.557a.186.186,0,0,0-.186.186v3.52a.186.186,0,0,0,.186.186h2.408a.186.186,0,0,0,.186-.186V.743a.186.186,0,0,0-.186-.186Zm0,0" transform="translate(-82.552)"/>
    <path id="Path_13072" data-name="Path 13072" d="M120.855,102.955h-1.112a.278.278,0,1,1,0-.556h1.112a.278.278,0,1,1,0,.556Zm0,0" transform="translate(-115.573 -99.062)"/>
    <path id="Path_13073" data-name="Path 13073" d="M120.855,35.8h-1.112a.278.278,0,0,1-.278-.278V34.411a.278.278,0,0,1,.278-.278h1.112a.278.278,0,0,1,.278.278v1.112A.278.278,0,0,1,120.855,35.8Zm-.834-.556h.556v-.556h-.556Zm0,0" transform="translate(-115.573 -33.02)"/>
    <path id="Path_13074" data-name="Path 13074" d="M8.316,66.21H1.135A1.136,1.136,0,0,1,0,65.075V52.334A1.136,1.136,0,0,1,1.135,51.2H3.058a.278.278,0,0,1,.278.278v2.316a.186.186,0,0,0,.186.186H5.93a.186.186,0,0,0,.186-.186V51.477a.278.278,0,0,1,.278-.278H8.316a1.136,1.136,0,0,1,1.135,1.135v12.74A1.136,1.136,0,0,1,8.316,66.21ZM1.135,51.755a.58.58,0,0,0-.579.579v12.74a.58.58,0,0,0,.579.579H8.316a.58.58,0,0,0,.579-.579V52.334a.58.58,0,0,0-.579-.579H6.671v2.038a.743.743,0,0,1-.742.742H3.522a.743.743,0,0,1-.742-.742V51.755Zm0,0" transform="translate(0 -49.531)"/>
    <path id="Path_13075" data-name="Path 13075" d="M62.514,185.87a.278.278,0,0,1-.116-.025c-2.347-1.079-2.663-3.122-2.663-4.978a.278.278,0,0,1,.143-.243l2.5-1.39a.278.278,0,0,1,.27,0l2.5,1.39a.278.278,0,0,1,.143.243c0,1.856-.317,3.9-2.663,4.978a.278.278,0,0,1-.116.025Zm-2.223-4.841c.029,2.253.682,3.5,2.223,4.255,1.541-.753,2.193-2,2.223-4.255l-2.223-1.235Zm0,0" transform="translate(-57.788 -173.36)"/>
    <path id="Path_13076" data-name="Path 13076" d="M94.7,224.913a.278.278,0,0,1-.244-.144,4.843,4.843,0,0,1-.59-2.063.279.279,0,0,1,.153-.266l1.112-.556a.278.278,0,1,1,.249.5l-.944.472a4.267,4.267,0,0,0,.507,1.647.279.279,0,0,1-.243.413Zm0,0" transform="translate(-90.81 -214.627)"/>
    <path id="Path_13077" data-name="Path 13077" d="M46.837,410.158H42.946a.278.278,0,0,1,0-.556h3.892a.278.278,0,0,1,0,.556Zm0,0" transform="translate(-41.278 -396.258)"/>
    <path id="Path_13078" data-name="Path 13078" d="M197.656,410.158h-1.112a.278.278,0,1,1,0-.556h1.112a.278.278,0,0,1,0,.556Zm0,0" transform="translate(-189.873 -396.258)"/>
    <path id="Path_13079" data-name="Path 13079" d="M115.1,444.29h-3.892a.278.278,0,0,1,0-.556H115.1a.278.278,0,0,1,0,.556Zm0,0" transform="translate(-107.32 -429.279)"/>
    <path id="Path_13080" data-name="Path 13080" d="M44.058,444.29H42.946a.278.278,0,0,1,0-.556h1.112a.278.278,0,1,1,0,.556Zm0,0" transform="translate(-41.278 -429.279)"/>
  </g>
</svg>
