<svg xmlns="http://www.w3.org/2000/svg" width="10.173" height="10.173" viewBox="0 0 10.173 10.173">
  <path id="repairing-service_75668" d="M10.143,4.521a.331.331,0,0,0-.327-.251,1.123,1.123,0,0,1-.769-1.955.283.283,0,0,0,.031-.384,5.036,5.036,0,0,0-.806-.814.283.283,0,0,0-.387.031,1.172,1.172,0,0,1-1.269.285A1.13,1.13,0,0,1,5.93.33a.282.282,0,0,0-.25-.3,5.076,5.076,0,0,0-1.144,0,.283.283,0,0,0-.252.291,1.132,1.132,0,0,1-.7,1.085A1.176,1.176,0,0,1,2.328,1.12a.283.283,0,0,0-.384-.032,5.057,5.057,0,0,0-.823.814.283.283,0,0,0,.03.386,1.127,1.127,0,0,1,.284,1.269,1.176,1.176,0,0,1-1.107.688.277.277,0,0,0-.294.25,5.1,5.1,0,0,0,0,1.157.337.337,0,0,0,.334.25,1.116,1.116,0,0,1,1.047.7,1.132,1.132,0,0,1-.285,1.258.282.282,0,0,0-.031.383,5.054,5.054,0,0,0,.8.814.283.283,0,0,0,.387-.031,1.171,1.171,0,0,1,1.268-.285,1.128,1.128,0,0,1,.688,1.1.282.282,0,0,0,.25.3,5.065,5.065,0,0,0,1.144,0,.283.283,0,0,0,.252-.291,1.131,1.131,0,0,1,.7-1.085,1.174,1.174,0,0,1,1.26.287.284.284,0,0,0,.384.032,5.063,5.063,0,0,0,.823-.814.283.283,0,0,0-.03-.387A1.127,1.127,0,0,1,8.74,6.615a1.139,1.139,0,0,1,1.041-.69l.063,0a.283.283,0,0,0,.3-.25A5.077,5.077,0,0,0,10.143,4.521Zm-5.055,3.5A2.932,2.932,0,1,1,7.606,6.59L6.322,5.305a1.8,1.8,0,0,0-2.13-2.436.2.2,0,0,0-.141.142.2.2,0,0,0,.056.194s.634.639.846.851a.132.132,0,0,1,.019.094l0,.014a4.054,4.054,0,0,1-.1.621L4.861,4.8l-.014.014a4,4,0,0,1-.63.1h0l-.011,0H4.2a.136.136,0,0,1-.1-.041c-.221-.221-.83-.826-.83-.826A.207.207,0,0,0,3.12,3.98a.2.2,0,0,0-.19.153A1.8,1.8,0,0,0,5.368,6.259l1.3,1.3A2.918,2.918,0,0,1,5.088,8.018Z" transform="translate(-0.002 0.001)" fill="#fff"/>
</svg>
