<svg xmlns="http://www.w3.org/2000/svg" width="11.744" height="11.716" viewBox="0 0 11.744 11.716">
  <g id="repair_5063903" transform="translate(0.084 0.08)">
    <g id="Group_4133" data-name="Group 4133" transform="translate(-0.03 -0.028)">
      <g id="Group_4129" data-name="Group 4129" transform="translate(0 0)">
        <path id="Path_12697" data-name="Path 12697" d="M5.162,11.585H5.072l-.417-.073a.548.548,0,0,1-.472-.544V9.826a.258.258,0,0,0-.036-.109.181.181,0,0,1,.29-.218.506.506,0,0,1,.109.326v1.143a.213.213,0,0,0,.163.2l.417.073a.187.187,0,0,0,.218-.127l.363-1.088a.543.543,0,0,1,.472-.381,2.6,2.6,0,0,0,.4-.073.527.527,0,0,1,.562.218l.671.925a.2.2,0,0,0,.254.054l.381-.2a.208.208,0,0,0,.109-.236L8.21,9.246a.564.564,0,0,1,.145-.58A.552.552,0,0,0,8.5,8.52a1.037,1.037,0,0,0,.127-.145.547.547,0,0,1,.58-.163l1.088.345a.189.189,0,0,0,.236-.109l.2-.381a.218.218,0,0,0-.054-.254l-.907-.671a.527.527,0,0,1-.218-.562,3.753,3.753,0,0,0,.073-.4.543.543,0,0,1,.381-.472l1.088-.363a.2.2,0,0,0,.127-.218l-.073-.417a.213.213,0,0,0-.2-.163H9.806A.558.558,0,0,1,9.3,4.221a3.382,3.382,0,0,0-.181-.363.553.553,0,0,1,.036-.6l.671-.925a.194.194,0,0,0-.018-.254L9.5,1.773a.194.194,0,0,0-.254-.018l-.925.653a.553.553,0,0,1-.6.036,3.382,3.382,0,0,0-.363-.181.558.558,0,0,1-.326-.508L7.013.612a.213.213,0,0,0-.163-.2L6.432.34a.177.177,0,0,0-.218.127L5.852,1.555a.543.543,0,0,1-.472.381,3.752,3.752,0,0,0-.4.073.558.558,0,0,1-.562-.218L3.748.866A.2.2,0,0,0,3.494.812l-.381.2a.18.18,0,0,0-.091.236l.345,1.088a.538.538,0,0,1-.163.58c-.054.036-.091.091-.145.127l-.145.145a.53.53,0,0,1-.58.145L1.245,2.988a.189.189,0,0,0-.236.109l-.2.381a.218.218,0,0,0,.054.254l.925.671a.527.527,0,0,1,.218.562,2.6,2.6,0,0,0-.073.4.546.546,0,0,1-.381.49L.465,6.217a.177.177,0,0,0-.127.218l.073.417a.213.213,0,0,0,.2.163l1.143.018a.739.739,0,0,1,.326.091.184.184,0,0,1-.2.308A.258.258,0,0,0,1.771,7.4L.628,7.377a.548.548,0,0,1-.544-.472l-.109-.417a.546.546,0,0,1,.381-.617l1.088-.363a.174.174,0,0,0,.127-.163,2.717,2.717,0,0,1,.073-.435.216.216,0,0,0-.073-.2L.646,4.04a.56.56,0,0,1-.163-.707l.2-.381a.6.6,0,0,1,.671-.29l1.088.345a.2.2,0,0,0,.2-.054L2.8,2.789a1.173,1.173,0,0,1,.163-.145.226.226,0,0,0,.054-.218L2.678,1.338A.556.556,0,0,1,2.95.667l.381-.2A.56.56,0,0,1,4.038.63l.671.907a.216.216,0,0,0,.2.073,3.522,3.522,0,0,0,.435-.036.194.194,0,0,0,.163-.127L5.87.358a.576.576,0,0,1,.617-.381L6.9.05a.548.548,0,0,1,.472.544l.018,1.143a.2.2,0,0,0,.109.181,4.092,4.092,0,0,1,.4.2A.194.194,0,0,0,8.119,2.1l.925-.671a.576.576,0,0,1,.725.054l.308.308a.554.554,0,0,1,.054.725l-.671.925a.194.194,0,0,0-.018.218,4.092,4.092,0,0,1,.2.4.182.182,0,0,0,.181.109h1.143a.581.581,0,0,1,.562.472l.073.417a.546.546,0,0,1-.381.617l-1.088.363a.174.174,0,0,0-.127.163,3.632,3.632,0,0,1-.073.435.216.216,0,0,0,.073.2l.907.671a.56.56,0,0,1,.163.707l-.2.381a.575.575,0,0,1-.671.29L9.116,8.538a.238.238,0,0,0-.218.054c-.054.054-.091.109-.145.163l-.163.163a.2.2,0,0,0-.054.2l.345,1.088a.555.555,0,0,1-.29.671l-.381.2a.56.56,0,0,1-.707-.163l-.671-.925a.216.216,0,0,0-.2-.073,3.632,3.632,0,0,1-.435.073.174.174,0,0,0-.163.127L5.67,11.2a.507.507,0,0,1-.508.381Z" transform="translate(0.03 0.028)" stroke="#000" stroke-width="0.1"/>
      </g>
      <g id="Group_4130" data-name="Group 4130" transform="translate(2.596 2.603)">
        <path id="Path_12698" data-name="Path 12698" d="M17.5,20.759a3.542,3.542,0,0,1-.617-.054.185.185,0,1,1,.073-.363A2.86,2.86,0,1,0,14.7,18.093a.185.185,0,0,1-.363.073A3.233,3.233,0,1,1,19.8,19.834,3.346,3.346,0,0,1,17.5,20.759Z" transform="translate(-14.284 -14.325)" stroke="#000" stroke-width="0.1"/>
      </g>
      <g id="Group_4131" data-name="Group 4131" transform="translate(0.332 3.747)">
        <path id="Path_12699" data-name="Path 12699" d="M3.287,28.169a.165.165,0,0,1-.127-.054.175.175,0,0,1,0-.254l2.666-2.666a1.793,1.793,0,0,1,1.288-.508h.018a1.854,1.854,0,0,0,1.306-.544,1.832,1.832,0,0,0,.526-1.487l-.744.744a1.019,1.019,0,0,1-1.415,0l-.236-.236a1.019,1.019,0,0,1,0-1.415L7.314,21a1.843,1.843,0,0,0-2.031,1.832,1.868,1.868,0,0,1-.508,1.306L2.108,26.808a.18.18,0,1,1-.254-.254l2.666-2.666a1.469,1.469,0,0,0,.4-1.034,2.254,2.254,0,0,1,.653-1.578,2.178,2.178,0,0,1,1.777-.635.381.381,0,0,1,.308.236.344.344,0,0,1-.091.381L6.824,22a.614.614,0,0,0,0,.889l.236.236a.614.614,0,0,0,.889,0l.744-.744a.358.358,0,0,1,.617.218,2.158,2.158,0,0,1-.635,1.777,2.223,2.223,0,0,1-1.578.653,1.438,1.438,0,0,0-1.034.4L3.414,28.114a.2.2,0,0,1-.127.054Z" transform="translate(-1.8 -20.629)" stroke="#000" stroke-width="0.1"/>
      </g>
      <g id="Group_4132" data-name="Group 4132" transform="translate(0.332 3.747)">
        <path id="Path_12700" data-name="Path 12700" d="M3.287,28.169a.165.165,0,0,1-.127-.054.175.175,0,0,1,0-.254l2.666-2.666a1.793,1.793,0,0,1,1.288-.508h.018a1.854,1.854,0,0,0,1.306-.544,1.832,1.832,0,0,0,.526-1.487l-.744.744a1.019,1.019,0,0,1-1.415,0l-.236-.236a1.019,1.019,0,0,1,0-1.415L7.314,21a1.843,1.843,0,0,0-2.031,1.832,1.868,1.868,0,0,1-.508,1.306L2.108,26.808a.18.18,0,1,1-.254-.254l2.666-2.666a1.469,1.469,0,0,0,.4-1.034,2.254,2.254,0,0,1,.653-1.578,2.178,2.178,0,0,1,1.777-.635.381.381,0,0,1,.308.236.344.344,0,0,1-.091.381L6.824,22a.614.614,0,0,0,0,.889l.236.236a.614.614,0,0,0,.889,0l.744-.744a.358.358,0,0,1,.617.218,2.158,2.158,0,0,1-.635,1.777,2.223,2.223,0,0,1-1.578.653,1.438,1.438,0,0,0-1.034.4L3.414,28.114a.2.2,0,0,1-.127.054Z" transform="translate(-1.8 -20.629)" stroke="#000" stroke-width="0.1"/>
      </g>
    </g>
  </g>
</svg>
