<svg width="11" height="15" viewBox="0 0 11 15" fill="none" xmlns="http://www.w3.org/2000/svg">
<path d="M10.029 1.17298H7.593C7.55556 1.03786 7.47504 0.918659 7.36368 0.833471C7.25232 0.748282 7.1162 0.701762 6.976 0.700977H6.683V0.644977C6.68273 0.474085 6.61466 0.310284 6.49373 0.189539C6.3728 0.0687942 6.20889 0.000976357 6.038 0.000976563H4.629C4.45794 0.000976563 4.29388 0.0689317 4.17292 0.189893C4.05195 0.310854 3.984 0.474912 3.984 0.645977V0.700977H3.691C3.55119 0.701578 3.41536 0.747664 3.30405 0.832274C3.19274 0.916884 3.11199 1.03542 3.074 1.16998H0.645C0.473935 1.16998 0.309877 1.23793 0.188916 1.35889C0.0679552 1.47985 0 1.64391 0 1.81498V14.245C0 14.416 0.0679552 14.5801 0.188916 14.7011C0.309877 14.822 0.473935 14.89 0.645 14.89H10.029C10.2001 14.89 10.3641 14.822 10.4851 14.7011C10.606 14.5801 10.674 14.416 10.674 14.245V1.81698C10.674 1.64591 10.606 1.48185 10.4851 1.36089C10.3641 1.23993 10.2001 1.17298 10.029 1.17298ZM3.405 1.34898C3.40526 1.27135 3.43622 1.19698 3.49111 1.14209C3.546 1.08719 3.62037 1.05624 3.698 1.05598H4.167C4.21368 1.05598 4.25844 1.03743 4.29145 1.00443C4.32446 0.971421 4.343 0.926655 4.343 0.879977V0.644977C4.34323 0.568543 4.37322 0.495203 4.42661 0.440507C4.48 0.38581 4.55259 0.354056 4.629 0.351977H6.036C6.11363 0.35224 6.188 0.383194 6.24289 0.438085C6.29778 0.492977 6.32874 0.567349 6.329 0.644977V0.878977C6.329 0.925655 6.34754 0.970421 6.38055 1.00343C6.41356 1.03643 6.45832 1.05498 6.505 1.05498H6.974C7.05163 1.05524 7.126 1.08619 7.18089 1.14109C7.23578 1.19598 7.26674 1.27035 7.267 1.34798V2.04798C7.26674 2.1256 7.23578 2.19998 7.18089 2.25487C7.126 2.30976 7.05163 2.34071 6.974 2.34098H3.693C3.61537 2.34071 3.541 2.30976 3.48611 2.25487C3.43122 2.19998 3.40026 2.1256 3.4 2.04798L3.405 1.34898ZM3.693 2.70098H6.976C7.11582 2.70038 7.25164 2.65429 7.36295 2.56968C7.47426 2.48507 7.55501 2.36653 7.593 2.23198H9.614V13.835H1.055V2.22798H3.076C3.11399 2.36253 3.19474 2.48107 3.30605 2.56568C3.41736 2.65029 3.55318 2.69638 3.693 2.69698V2.70098ZM10.317 14.249C10.3167 14.3266 10.2858 14.401 10.2309 14.4559C10.176 14.5108 10.1016 14.5417 10.024 14.542H0.645C0.567373 14.5417 0.493 14.5108 0.438109 14.4559C0.383218 14.401 0.352264 14.3266 0.352 14.249V1.81698C0.352264 1.73935 0.383218 1.66498 0.438109 1.61009C0.493 1.55519 0.567373 1.52424 0.645 1.52398H3.045V1.87598H0.879C0.832322 1.87598 0.787556 1.89452 0.75455 1.92753C0.721543 1.96053 0.703001 2.0053 0.703001 2.05198V14.01C0.703001 14.0331 0.707553 14.056 0.716398 14.0773C0.725243 14.0987 0.738206 14.1181 0.75455 14.1344C0.770893 14.1508 0.790295 14.1637 0.811648 14.1726C0.833001 14.1814 0.855888 14.186 0.879 14.186H9.789C9.83568 14.186 9.88044 14.1674 9.91345 14.1344C9.94646 14.1014 9.965 14.0567 9.965 14.01V2.05198C9.965 2.0053 9.94646 1.96053 9.91345 1.92753C9.88044 1.89452 9.83568 1.87598 9.789 1.87598H7.621V1.52398H10.021C10.0986 1.52424 10.173 1.55519 10.2279 1.61009C10.2828 1.66498 10.3137 1.73935 10.314 1.81698L10.317 14.249Z" fill="white"/>
<path d="M4.39695 1.99311H6.27295C6.31963 1.99311 6.36439 1.97457 6.3974 1.94156C6.4304 1.90856 6.44895 1.86379 6.44895 1.81711C6.44895 1.77044 6.4304 1.72567 6.3974 1.69266C6.36439 1.65966 6.31963 1.64111 6.27295 1.64111H4.39695C4.35027 1.64111 4.3055 1.65966 4.2725 1.69266C4.23949 1.72567 4.22095 1.77044 4.22095 1.81711C4.22095 1.86379 4.23949 1.90856 4.2725 1.94156C4.3055 1.97457 4.35027 1.99311 4.39695 1.99311Z" fill="white"/>
<path d="M4.86496 1.28901H5.80297C5.84964 1.28901 5.89441 1.27047 5.92742 1.23746C5.96042 1.20446 5.97896 1.15969 5.97896 1.11301C5.97896 1.06633 5.96042 1.02157 5.92742 0.988561C5.89441 0.955555 5.84964 0.937012 5.80297 0.937012H4.86496C4.81829 0.937012 4.77352 0.955555 4.74051 0.988561C4.70751 1.02157 4.68896 1.06633 4.68896 1.11301C4.68896 1.15969 4.70751 1.20446 4.74051 1.23746C4.77352 1.27047 4.81829 1.28901 4.86496 1.28901Z" fill="white"/>
<path d="M1.81699 6.44779H4.16199C4.20867 6.44779 4.25344 6.42925 4.28644 6.39624C4.31945 6.36324 4.33799 6.31847 4.33799 6.27179V6.04079C4.33754 5.7857 4.26477 5.53597 4.12813 5.32056C3.99149 5.10515 3.79657 4.9329 3.56599 4.82379C3.70119 4.70633 3.79728 4.55037 3.8414 4.37679C3.88552 4.20321 3.87557 4.02029 3.81287 3.85253C3.75017 3.68476 3.63772 3.54015 3.49057 3.43806C3.34342 3.33596 3.16859 3.28125 2.98949 3.28125C2.81039 3.28125 2.63557 3.33596 2.48842 3.43806C2.34127 3.54015 2.22881 3.68476 2.16611 3.85253C2.10342 4.02029 2.09346 4.20321 2.13758 4.37679C2.1817 4.55037 2.27779 4.70633 2.41299 4.82379C2.18241 4.9329 1.98749 5.10515 1.85085 5.32056C1.71421 5.53597 1.64144 5.7857 1.64099 6.04079V6.27479C1.64099 6.32147 1.65953 6.36624 1.69254 6.39924C1.72555 6.43225 1.77031 6.45079 1.81699 6.45079V6.44779ZM2.99199 3.63379C3.11416 3.63363 3.2326 3.67583 3.32713 3.75321C3.42166 3.83059 3.48644 3.93836 3.51042 4.05814C3.5344 4.17793 3.51611 4.30233 3.45865 4.41014C3.40119 4.51794 3.30812 4.60249 3.19531 4.64937C3.0825 4.69625 2.95692 4.70256 2.83998 4.66722C2.72303 4.63189 2.62196 4.5571 2.55399 4.45559C2.48601 4.35409 2.45533 4.23215 2.46719 4.11056C2.47904 3.98897 2.53269 3.87526 2.61899 3.78879C2.71787 3.68973 2.85203 3.63398 2.99199 3.63379ZM1.99199 6.03379C2.01295 5.78393 2.12702 5.55105 2.31158 5.38132C2.49615 5.21159 2.73775 5.11739 2.98849 5.11739C3.23924 5.11739 3.48083 5.21159 3.6654 5.38132C3.84996 5.55105 3.96403 5.78393 3.98499 6.03379V6.09279H1.99199V6.03379Z" fill="white"/>
<path d="M1.81699 9.96495H4.16199C4.20867 9.96495 4.25344 9.94641 4.28644 9.9134C4.31945 9.8804 4.33799 9.83563 4.33799 9.78895V9.55495C4.33754 9.29986 4.26477 9.05013 4.12813 8.83472C3.99149 8.61931 3.79657 8.44706 3.56599 8.33795C3.70119 8.22049 3.79728 8.06453 3.8414 7.89095C3.88552 7.71737 3.87557 7.53445 3.81287 7.36669C3.75017 7.19892 3.63772 7.05431 3.49057 6.95222C3.34342 6.85012 3.16859 6.79541 2.98949 6.79541C2.81039 6.79541 2.63557 6.85012 2.48842 6.95222C2.34127 7.05431 2.22881 7.19892 2.16611 7.36669C2.10342 7.53445 2.09346 7.71737 2.13758 7.89095C2.1817 8.06453 2.27779 8.22049 2.41299 8.33795C2.18241 8.44706 1.98749 8.61931 1.85085 8.83472C1.71421 9.05013 1.64144 9.29986 1.64099 9.55495V9.78895C1.64099 9.83563 1.65953 9.8804 1.69254 9.9134C1.72555 9.94641 1.77031 9.96495 1.81699 9.96495ZM2.99199 7.15095C3.11416 7.15079 3.2326 7.19299 3.32713 7.27037C3.42166 7.34775 3.48644 7.45552 3.51042 7.5753C3.5344 7.69509 3.51611 7.81949 3.45865 7.9273C3.40119 8.03511 3.30812 8.11965 3.19531 8.16653C3.0825 8.21341 2.95692 8.21972 2.83998 8.18438C2.72303 8.14905 2.62196 8.07426 2.55399 7.97275C2.48601 7.87125 2.45533 7.74931 2.46719 7.62772C2.47904 7.50613 2.53269 7.39242 2.61899 7.30595C2.71787 7.20689 2.85203 7.15114 2.99199 7.15095ZM1.99199 9.55095C2.01295 9.30108 2.12702 9.06821 2.31158 8.89848C2.49615 8.72875 2.73775 8.63455 2.98849 8.63455C3.23924 8.63455 3.48083 8.72875 3.6654 8.89848C3.84996 9.06821 3.96403 9.30108 3.98499 9.55095V9.60995H1.99199V9.55095Z" fill="white"/>
<path d="M1.81699 13.4821H4.16199C4.20867 13.4821 4.25344 13.4636 4.28644 13.4306C4.31945 13.3976 4.33799 13.3528 4.33799 13.3061V13.0691C4.33754 12.814 4.26477 12.5643 4.12813 12.3489C3.99149 12.1335 3.79657 11.9612 3.56599 11.8521C3.70119 11.7347 3.79728 11.5787 3.8414 11.4051C3.88552 11.2315 3.87557 11.0486 3.81287 10.8808C3.75017 10.7131 3.63772 10.5685 3.49057 10.4664C3.34342 10.3643 3.16859 10.3096 2.98949 10.3096C2.81039 10.3096 2.63557 10.3643 2.48842 10.4664C2.34127 10.5685 2.22881 10.7131 2.16611 10.8808C2.10342 11.0486 2.09346 11.2315 2.13758 11.4051C2.1817 11.5787 2.27779 11.7347 2.41299 11.8521C2.18241 11.9612 1.98749 12.1335 1.85085 12.3489C1.71421 12.5643 1.64144 12.814 1.64099 13.0691V13.3031C1.64099 13.3498 1.65953 13.3946 1.69254 13.4276C1.72555 13.4606 1.77031 13.4791 1.81699 13.4791V13.4821ZM2.99199 10.6691C3.11416 10.669 3.2326 10.7112 3.32713 10.7885C3.42166 10.8659 3.48644 10.9737 3.51042 11.0935C3.5344 11.2133 3.51611 11.3376 3.45865 11.4455C3.40119 11.5533 3.30812 11.6378 3.19531 11.6847C3.0825 11.7316 2.95692 11.7379 2.83998 11.7025C2.72303 11.6672 2.62196 11.5924 2.55399 11.4909C2.48601 11.3894 2.45533 11.2675 2.46719 11.1459C2.47904 11.0243 2.53269 10.9106 2.61899 10.8241C2.71787 10.7251 2.85203 10.6693 2.99199 10.6691ZM1.99199 13.0691C2.01295 12.8192 2.12702 12.5864 2.31158 12.4166C2.49615 12.2469 2.73775 12.1527 2.98849 12.1527C3.23924 12.1527 3.48083 12.2469 3.6654 12.4166C3.84996 12.5864 3.96403 12.8192 3.98499 13.0691V13.1281H1.99199V13.0691Z" fill="white"/>
<path d="M5.09995 4.10298H7.20995C7.25663 4.10298 7.3014 4.08443 7.3344 4.05143C7.36741 4.01842 7.38595 3.97365 7.38595 3.92698C7.38595 3.8803 7.36741 3.83553 7.3344 3.80253C7.3014 3.76952 7.25663 3.75098 7.20995 3.75098H5.09995C5.05327 3.75098 5.00851 3.76952 4.9755 3.80253C4.94249 3.83553 4.92395 3.8803 4.92395 3.92698C4.92395 3.97365 4.94249 4.01842 4.9755 4.05143C5.00851 4.08443 5.05327 4.10298 5.09995 4.10298Z" fill="white"/>
<path d="M5.09995 5.97895H8.85195C8.89863 5.97895 8.9434 5.96041 8.9764 5.9274C9.00941 5.8944 9.02795 5.84963 9.02795 5.80295C9.02795 5.75628 9.00941 5.71151 8.9764 5.6785C8.9434 5.6455 8.89863 5.62695 8.85195 5.62695H5.09995C5.05327 5.62695 5.00851 5.6455 4.9755 5.6785C4.94249 5.71151 4.92395 5.75628 4.92395 5.80295C4.92395 5.84963 4.94249 5.8944 4.9755 5.9274C5.00851 5.96041 5.05327 5.97895 5.09995 5.97895Z" fill="white"/>
<path d="M5.09995 5.04097H8.85195C8.89863 5.04097 8.9434 5.02242 8.9764 4.98942C9.00941 4.95641 9.02795 4.91164 9.02795 4.86497C9.02795 4.81829 9.00941 4.77352 8.9764 4.74051C8.9434 4.70751 8.89863 4.68896 8.85195 4.68896H5.09995C5.05327 4.68896 5.00851 4.70751 4.9755 4.74051C4.94249 4.77352 4.92395 4.81829 4.92395 4.86497C4.92395 4.91164 4.94249 4.95641 4.9755 4.98942C5.00851 5.02242 5.05327 5.04097 5.09995 5.04097Z" fill="white"/>
<path d="M5.09995 7.62104H7.20995C7.25663 7.62104 7.3014 7.6025 7.3344 7.56949C7.36741 7.53649 7.38595 7.49172 7.38595 7.44504C7.38595 7.39836 7.36741 7.3536 7.3344 7.32059C7.3014 7.28758 7.25663 7.26904 7.20995 7.26904H5.09995C5.05327 7.26904 5.00851 7.28758 4.9755 7.32059C4.94249 7.3536 4.92395 7.39836 4.92395 7.44504C4.92395 7.49172 4.94249 7.53649 4.9755 7.56949C5.00851 7.6025 5.05327 7.62104 5.09995 7.62104Z" fill="white"/>
<path d="M5.09995 9.49702H8.85195C8.89863 9.49702 8.9434 9.47848 8.9764 9.44547C9.00941 9.41246 9.02795 9.3677 9.02795 9.32102C9.02795 9.27434 9.00941 9.22957 8.9764 9.19657C8.9434 9.16356 8.89863 9.14502 8.85195 9.14502H5.09995C5.05327 9.14502 5.00851 9.16356 4.9755 9.19657C4.94249 9.22957 4.92395 9.27434 4.92395 9.32102C4.92395 9.3677 4.94249 9.41246 4.9755 9.44547C5.00851 9.47848 5.05327 9.49702 5.09995 9.49702Z" fill="white"/>
<path d="M5.09995 8.55903H8.85195C8.89863 8.55903 8.9434 8.54049 8.9764 8.50748C9.00941 8.47448 9.02795 8.42971 9.02795 8.38303C9.02795 8.33635 9.00941 8.29159 8.9764 8.25858C8.9434 8.22557 8.89863 8.20703 8.85195 8.20703H5.09995C5.05327 8.20703 5.00851 8.22557 4.9755 8.25858C4.94249 8.29159 4.92395 8.33635 4.92395 8.38303C4.92395 8.42971 4.94249 8.47448 4.9755 8.50748C5.00851 8.54049 5.05327 8.55903 5.09995 8.55903Z" fill="white"/>
<path d="M5.09995 11.1381H7.20995C7.23306 11.1381 7.25595 11.1336 7.2773 11.1247C7.29866 11.1159 7.31806 11.1029 7.3344 11.0866C7.35075 11.0702 7.36371 11.0508 7.37255 11.0295C7.3814 11.0081 7.38595 10.9852 7.38595 10.9621C7.38595 10.939 7.3814 10.9161 7.37255 10.8948C7.36371 10.8734 7.35075 10.854 7.3344 10.8377C7.31806 10.8213 7.29866 10.8084 7.2773 10.7995C7.25595 10.7907 7.23306 10.7861 7.20995 10.7861H5.09995C5.05327 10.7861 5.00851 10.8047 4.9755 10.8377C4.94249 10.8707 4.92395 10.9155 4.92395 10.9621C4.92395 11.0088 4.94249 11.0536 4.9755 11.0866C5.00851 11.1196 5.05327 11.1381 5.09995 11.1381Z" fill="white"/>
<path d="M5.09995 13.0141H8.85195C8.87506 13.0141 8.89795 13.0096 8.9193 13.0007C8.94066 12.9919 8.96006 12.9789 8.9764 12.9626C8.99275 12.9462 9.00571 12.9268 9.01455 12.9055C9.0234 12.8841 9.02795 12.8612 9.02795 12.8381C9.02795 12.815 9.0234 12.7921 9.01455 12.7708C9.00571 12.7494 8.99275 12.73 8.9764 12.7137C8.96006 12.6973 8.94066 12.6844 8.9193 12.6755C8.89795 12.6667 8.87506 12.6621 8.85195 12.6621H5.09995C5.05327 12.6621 5.00851 12.6807 4.9755 12.7137C4.94249 12.7467 4.92395 12.7914 4.92395 12.8381C4.92395 12.8848 4.94249 12.9296 4.9755 12.9626C5.00851 12.9956 5.05327 13.0141 5.09995 13.0141Z" fill="white"/>
<path d="M5.09995 12.0761H8.85195C8.87506 12.0761 8.89795 12.0716 8.9193 12.0627C8.94066 12.0539 8.96006 12.0409 8.9764 12.0246C8.99275 12.0082 9.00571 11.9888 9.01455 11.9675C9.0234 11.9461 9.02795 11.9232 9.02795 11.9001C9.02795 11.877 9.0234 11.8541 9.01455 11.8328C9.00571 11.8114 8.99275 11.792 8.9764 11.7757C8.96006 11.7593 8.94066 11.7464 8.9193 11.7375C8.89795 11.7287 8.87506 11.7241 8.85195 11.7241H5.09995C5.05327 11.7241 5.00851 11.7427 4.9755 11.7757C4.94249 11.8087 4.92395 11.8534 4.92395 11.9001C4.92395 11.9468 4.94249 11.9916 4.9755 12.0246C5.00851 12.0576 5.05327 12.0761 5.09995 12.0761Z" fill="white"/>
</svg>
