<svg xmlns="http://www.w3.org/2000/svg" width="49.226" height="32.316" viewBox="0 0 49.226 32.316">
  <g id="Layer_1" data-name="Layer 1" transform="translate(-1.822 -89.137)">
    <path id="Path_12918" data-name="Path 12918" d="M227.25,119.029l-1.085-1.877,23.03-13.3.586,1.014Z" transform="translate(-202.619 -13.286)" fill="#ffda8f"/>
    <path id="Path_12919" data-name="Path 12919" d="M211.127,227.8h-5.306l.816-6.974h3.691Z" transform="translate(-184.245 -118.937)" fill="#68544f"/>
    <path id="Path_12920" data-name="Path 12920" d="M224.4,240.076a1.059,1.059,0,1,1-1.059-1.059A1.059,1.059,0,0,1,224.4,240.076Z" transform="translate(-199.113 -135.366)" fill="#ff5959"/>
    <path id="Path_12921" data-name="Path 12921" d="M455.154,95.51a1.373,1.373,0,1,1-1.373-1.373,1.373,1.373,0,0,1,1.373,1.373Z" transform="translate(-406.954 -4.516)" fill="#ff5959"/>
    <path id="Path_12922" data-name="Path 12922" d="M39.772,339.953A3.772,3.772,0,1,1,36,343.725a3.772,3.772,0,0,1,3.772-3.772Z" transform="translate(-30.869 -226.528)" fill="#68544f"/>
    <path id="Path_12923" data-name="Path 12923" d="M57.5,359.585a1.871,1.871,0,1,1-1.871,1.871,1.871,1.871,0,0,1,1.871-1.871Z" transform="translate(-48.597 -244.259)" fill="#ececec"/>
    <path id="Path_12924" data-name="Path 12924" d="M304.888,339.953a3.772,3.772,0,1,1-3.772,3.772A3.772,3.772,0,0,1,304.888,339.953Z" transform="translate(-270.312 -226.528)" fill="#68544f"/>
    <path id="Path_12925" data-name="Path 12925" d="M322.619,359.585a1.871,1.871,0,1,1-1.871,1.871,1.871,1.871,0,0,1,1.871-1.871Z" transform="translate(-288.043 -244.259)" fill="#ececec"/>
    <path id="Path_12926" data-name="Path 12926" d="M402.305,339.953a3.772,3.772,0,1,1-3.772,3.772A3.772,3.772,0,0,1,402.305,339.953Z" transform="translate(-358.296 -226.528)" fill="#68544f"/>
    <path id="Path_12927" data-name="Path 12927" d="M420.036,359.585a1.871,1.871,0,1,1-1.871,1.871,1.871,1.871,0,0,1,1.871-1.871Z" transform="translate(-376.027 -244.259)" fill="#ececec"/>
    <path id="Path_12928" data-name="Path 12928" d="M20.963,163.092v21.849H18.677c0-.306,0-.626,0-.951a5.261,5.261,0,0,0-5.255-5.255,5.181,5.181,0,0,0-5.255,5.255c0,.185,0,.373,0,.547l-.778-.125a.67.67,0,0,1-.565-.662v-9.733l.352-8.914a2.093,2.093,0,0,1,2.092-2.011Z" transform="translate(-4.515 -66.793)" fill="#ffda8f"/>
    <path id="Path_12929" data-name="Path 12929" d="M37.081,187.9a.75.75,0,0,1-.75.75l-4.919.038a.75.75,0,0,0-.541.231l-.728.759a.751.751,0,0,1-.541.231H27.5a.75.75,0,0,1-.75-.782s.134-4.89.246-7.381a.823.823,0,0,1,.822-.786l8.511-.039a.75.75,0,0,1,.75.75Z" transform="translate(-22.515 -82.892)" fill="#6cf"/>
    <path id="Path_12930" data-name="Path 12930" d="M177.57,334.66h-7.7a.706.706,0,0,1-.706-.706v-4.022a.706.706,0,0,1,.706-.706h7.7a.706.706,0,0,1,.706.706v4.022A.706.706,0,0,1,177.57,334.66Z" transform="translate(-151.141 -216.841)" fill="#6cf"/>
    <path id="Path_12931" data-name="Path 12931" d="M200.5,175.658v1.661H167.834V163.093h1.721v12.565Z" transform="translate(-149.937 -66.794)" fill="#ffda8f"/>
    <path id="Path_12932" data-name="Path 12932" d="M24.229,103.3a1.405,1.405,0,1,0,1.405,1.405A1.405,1.405,0,0,0,24.229,103.3Zm0,1.842a.437.437,0,1,1,.437-.437A.437.437,0,0,1,24.229,105.147ZM8.9,112.94A4.256,4.256,0,1,0,13.16,117.2,4.256,4.256,0,0,0,8.9,112.94Zm0,7.544a3.288,3.288,0,1,1,3.288-3.288A3.288,3.288,0,0,1,8.9,120.485Zm0-5.643a2.355,2.355,0,1,0,2.355,2.355A2.355,2.355,0,0,0,8.9,114.841Zm0,3.742A1.387,1.387,0,1,1,10.29,117.2,1.387,1.387,0,0,1,8.9,118.584Zm25.672-5.643a4.256,4.256,0,1,0,4.256,4.256,4.256,4.256,0,0,0-4.256-4.256Zm0,7.544a3.288,3.288,0,1,1,3.288-3.288,3.288,3.288,0,0,1-3.288,3.288Zm0-5.643a2.355,2.355,0,1,0,2.356,2.356,2.355,2.355,0,0,0-2.356-2.356Zm0,3.742a1.387,1.387,0,1,1,1.388-1.387,1.387,1.387,0,0,1-1.388,1.387Zm9.433-5.643a4.256,4.256,0,1,0,4.257,4.256,4.256,4.256,0,0,0-4.257-4.256Zm0,7.544A3.288,3.288,0,1,1,47.3,117.2a3.288,3.288,0,0,1-3.288,3.288Zm0-5.643a2.355,2.355,0,1,0,2.355,2.355,2.355,2.355,0,0,0-2.355-2.355Zm0,3.742A1.387,1.387,0,1,1,45.4,117.2a1.387,1.387,0,0,1-1.387,1.387ZM16.448,95.814H4.749A2.57,2.57,0,0,0,2.173,98.29L1.822,107.2v9.752a1.148,1.148,0,0,0,.972,1.14l.778.125a.484.484,0,0,0,.561-.478c0-.076,0-.441,0-.545A4.678,4.678,0,0,1,8.9,112.426a4.777,4.777,0,0,1,4.771,4.771c0,.166,0,.8,0,.951a.484.484,0,0,0,.484.484h2.286a.484.484,0,0,0,.484-.484V96.3a.484.484,0,0,0-.484-.484Zm-.484,21.849H14.645c0-.154,0-.31,0-.467a5.772,5.772,0,0,0-9.756-4.144,5.709,5.709,0,0,0-1.724,4.122l-.217-.035a.185.185,0,0,1-.157-.183v-9.724l.351-8.9a1.6,1.6,0,0,1,1.608-1.546H15.964ZM4,98.828c-.111,2.467-.245,7.34-.246,7.382A1.234,1.234,0,0,0,4.986,107.5h2.1a1.24,1.24,0,0,0,.891-.38l.728-.759a.27.27,0,0,1,.2-.082l4.915-.039A1.236,1.236,0,0,0,15.05,105V98.775a1.236,1.236,0,0,0-1.237-1.235L5.3,97.58A1.3,1.3,0,0,0,4,98.828Zm.967.044a.339.339,0,0,1,.341-.324l8.508-.039a.266.266,0,0,1,.266.266V105a.267.267,0,0,1-.27.266l-4.915.039a1.241,1.241,0,0,0-.891.38l-.728.759a.267.267,0,0,1-.192.082h-2.1a.265.265,0,0,1-.192-.082.27.27,0,0,1-.074-.2c0-.049.135-4.914.246-7.372ZM26.429,111.9h-7.7a1.191,1.191,0,0,0-1.19,1.19v4.022a1.191,1.191,0,0,0,1.19,1.19h7.7a1.191,1.191,0,0,0,1.19-1.19v-4.022a1.191,1.191,0,0,0-1.19-1.19Zm.222,5.212a.222.222,0,0,1-.222.222h-7.7a.222.222,0,0,1-.222-.222v-4.022a.222.222,0,0,1,.222-.222h7.7a.222.222,0,0,1,.222.222Zm23.64.715a.484.484,0,0,1-.939.237l-.906-3.587a2.824,2.824,0,0,0-2.8-1.962H33.2a2.858,2.858,0,0,0-2.716,1.706l-1.5,3.9a.484.484,0,0,1-.9-.347l1.5-3.9a3.83,3.83,0,0,1,3.62-2.327H45.647a3.752,3.752,0,0,1,3.736,2.693Zm.274-9.449H27.314l-.4-3.5,19.3-12.134q.064.023.131.041V98.7A1.87,1.87,0,1,0,48.7,100.5a.484.484,0,1,0-.968,0,.9.9,0,1,1-.9-.9.484.484,0,0,0,.484-.484V92.786a1.856,1.856,0,1,0-2.338-1.857L26.478,101.612a.483.483,0,0,0-.4-.207H22.392a.484.484,0,0,0-.481.428l-.766,6.546H20.1V96.3a.484.484,0,0,0-.484-.484H17.9a.484.484,0,0,0-.484.484v14.226a.484.484,0,0,0,.484.484H50.564a.484.484,0,0,0,.484-.484v-1.661A.484.484,0,0,0,50.564,108.379Zm-23.909-5.751L45.212,91.909a1.865,1.865,0,0,0,.152.226L26.791,103.813ZM46.827,90.106a.889.889,0,1,1-.889.889.889.889,0,0,1,.889-.889Zm-24,12.268h2.828l.688,6.006H22.12Zm27.257,7.667h-31.7V96.783h.753v12.081a.484.484,0,0,0,.484.484H50.08Z" transform="translate(0 0)"/>
  </g>
</svg>
