<svg xmlns="http://www.w3.org/2000/svg" width="43.582" height="43.574" viewBox="0 0 43.582 43.574">
  <g id="restaurant_2075450" transform="translate(-1 -1)">
    <path id="Path_12766" data-name="Path 12766" d="M41.245,2c9.074,0,14.4,10,9.206,17.292L41.245,31.518,32.039,19.292C26.847,12,32.171,2,41.245,2Z" transform="translate(-8.619 -0.297)" fill="#e0747c"/>
    <path id="Path_12767" data-name="Path 12767" d="M2,58H37.14v2.811H2Z" transform="translate(-0.297 -16.94)" fill="#645b54"/>
    <path id="Path_12768" data-name="Path 12768" d="M2,58H35.032v2.811H2Z" transform="translate(-0.297 -16.94)" fill="#857970"/>
    <path id="Path_12769" data-name="Path 12769" d="M33.518,36.273,24.312,24.047A10.716,10.716,0,0,1,22.281,18H4V46.112H36.329V32.54Z" transform="translate(-0.892 -5.052)" fill="#f8e8ce"/>
    <ellipse id="Ellipse_150" data-name="Ellipse 150" cx="8.5" cy="8" rx="8.5" ry="8" transform="translate(24 5)" fill="#baae9b"/>
    <ellipse id="Ellipse_151" data-name="Ellipse 151" cx="7.379" cy="8.361" rx="7.379" ry="8.361" transform="translate(24.193 4.587)" fill="#f8e8ce"/>
    <ellipse id="Ellipse_152" data-name="Ellipse 152" cx="1.5" cy="2" rx="1.5" ry="2" transform="translate(34 10)" fill="#c8af8f"/>
    <path id="Path_12770" data-name="Path 12770" d="M5.514,26.434A3.514,3.514,0,0,1,2,22.92V18H9.028v4.92A3.514,3.514,0,0,1,5.514,26.434Z" transform="translate(-0.297 -5.052)" fill="#a3a752"/>
    <path id="Path_12771" data-name="Path 12771" d="M4.46,26.255A3.5,3.5,0,0,0,6.92,22.92V18H2v4.92A3.5,3.5,0,0,0,4.46,26.255Z" transform="translate(-0.297 -5.052)" fill="#d9de6d"/>
    <path id="Path_12772" data-name="Path 12772" d="M15.514,26.434A3.514,3.514,0,0,1,12,22.92V18h7.028v4.92A3.514,3.514,0,0,1,15.514,26.434Z" transform="translate(-3.269 -5.052)" fill="#a3a752"/>
    <path id="Path_12773" data-name="Path 12773" d="M14.46,26.255a3.5,3.5,0,0,0,2.46-3.336V18H12v4.92A3.5,3.5,0,0,0,14.46,26.255Z" transform="translate(-3.269 -5.052)" fill="#d9de6d"/>
    <path id="Path_12774" data-name="Path 12774" d="M8,34h9.839v2.811H8Z" transform="translate(-2.08 -9.807)" fill="#96836b"/>
    <path id="Path_12775" data-name="Path 12775" d="M8,34h7.731v2.811H8Z" transform="translate(-2.08 -9.807)" fill="#c8af8f"/>
    <path id="Path_12776" data-name="Path 12776" d="M8,42h9.839V53.245H8Z" transform="translate(-2.08 -12.185)" fill="#96836b"/>
    <path id="Path_12777" data-name="Path 12777" d="M8,42h7.731V53.245H8Z" transform="translate(-2.08 -12.185)" fill="#c8af8f"/>
    <path id="Path_12778" data-name="Path 12778" d="M27.63,18H22v4.92a3.509,3.509,0,0,0,7.018.1A10.6,10.6,0,0,1,27.63,18Z" transform="translate(-6.241 -5.052)" fill="#a3a752"/>
    <path id="Path_12779" data-name="Path 12779" d="M24.461,26.255a3.5,3.5,0,0,0,2.449-3.233A10.6,10.6,0,0,1,25.522,18H22v4.92A3.5,3.5,0,0,0,24.461,26.255Z" transform="translate(-6.241 -5.052)" fill="#d9de6d"/>
    <path id="Path_12780" data-name="Path 12780" d="M26,38v9.839H40.056V42.217L36.881,38Z" transform="translate(-7.43 -10.996)" fill="#7194a3"/>
    <path id="Path_12781" data-name="Path 12781" d="M34.772,38H26v9.839H37.948V42.217Z" transform="translate(-7.43 -10.996)" fill="#96c5da"/>
    <path id="Path_12782" data-name="Path 12782" d="M49,38.688h1.406V52.261H49Z" transform="translate(-14.265 -11.201)"/>
    <path id="Path_12783" data-name="Path 12783" d="M3,29H4.406V49.381H3Z" transform="translate(-0.594 -8.321)"/>
    <path id="Path_12784" data-name="Path 12784" d="M25.217,27.136A4.221,4.221,0,0,1,21,22.92V18h1.406v4.92a2.811,2.811,0,0,0,5.622,0h1.406A4.221,4.221,0,0,1,25.217,27.136Z" transform="translate(-5.944 -5.052)"/>
    <path id="Path_12785" data-name="Path 12785" d="M15.217,27.136A4.221,4.221,0,0,1,11,22.92V18h1.406v4.92a2.811,2.811,0,1,0,5.622,0h1.406A4.221,4.221,0,0,1,15.217,27.136Z" transform="translate(-2.972 -5.052)"/>
    <path id="Path_12786" data-name="Path 12786" d="M5.217,26.839A4.221,4.221,0,0,1,1,22.622V17.7a.7.7,0,0,1,.7-.7H21.381v1.406H9.434v4.217A4.221,4.221,0,0,1,5.217,26.839ZM2.406,18.406v4.217a2.811,2.811,0,0,0,5.622,0V18.406Z" transform="translate(0 -4.755)"/>
    <path id="Path_12787" data-name="Path 12787" d="M18.245,52.948H16.839V42.406H8.406V52.948H7V41.7a.7.7,0,0,1,.7-.7h9.839a.7.7,0,0,1,.7.7Z" transform="translate(-1.783 -11.888)"/>
    <path id="Path_12788" data-name="Path 12788" d="M39.759,48.245H25.7a.7.7,0,0,1-.7-.7V37.7a.7.7,0,0,1,.7-.7H36.948v1.406H26.406v8.434h12.65V41.92h1.406v5.622A.7.7,0,0,1,39.759,48.245Z" transform="translate(-7.133 -10.699)"/>
    <path id="Path_12789" data-name="Path 12789" d="M36.843,61.217H1.7a.7.7,0,0,1-.7-.7V57.7a.7.7,0,0,1,.7-.7h35.14a.7.7,0,0,1,.7.7v2.811A.7.7,0,0,1,36.843,61.217ZM2.406,59.811H36.14V58.406H2.406Z" transform="translate(0 -16.643)"/>
    <path id="Path_12790" data-name="Path 12790" d="M40.944,31.923a.7.7,0,0,1-.562-.28L31.176,19.418A11.357,11.357,0,0,1,30.3,7.424a12.033,12.033,0,0,1,21.291,0A11.349,11.349,0,0,1,50.723,19.4L41.506,31.644a.7.7,0,0,1-.562.28Zm0-29.518a10.367,10.367,0,0,0-9.4,5.662,9.967,9.967,0,0,0,.763,10.52l8.634,11.466,8.645-11.48a9.958,9.958,0,0,0,.751-10.5,10.366,10.366,0,0,0-9.4-5.662Z" transform="translate(-8.318)"/>
    <path id="Path_12791" data-name="Path 12791" d="M17.542,37.217H7.7a.7.7,0,0,1-.7-.7V33.7a.7.7,0,0,1,.7-.7h9.839a.7.7,0,0,1,.7.7v2.811A.7.7,0,0,1,17.542,37.217ZM8.406,35.811h8.434V34.406H8.406Z" transform="translate(-1.783 -9.51)"/>
    <path id="Path_12792" data-name="Path 12792" d="M42.136,23.273a9.136,9.136,0,1,1,9.136-9.136A9.147,9.147,0,0,1,42.136,23.273Zm0-16.867a7.731,7.731,0,1,0,7.731,7.731A7.74,7.74,0,0,0,42.136,6.406Z" transform="translate(-9.51 -1.189)"/>
    <path id="Path_12793" data-name="Path 12793" d="M41.811,18.622H40.406A1.407,1.407,0,0,1,39,17.217V13h1.406v4.217h1.406V13h1.406v4.217A1.407,1.407,0,0,1,41.811,18.622Z" transform="translate(-11.293 -3.566)"/>
    <path id="Path_12794" data-name="Path 12794" d="M41,20h1.406v6.325H41Z" transform="translate(-11.888 -5.647)"/>
    <path id="Path_12795" data-name="Path 12795" d="M49,20h1.406v6.325H49Z" transform="translate(-14.265 -5.647)"/>
    <path id="Path_12796" data-name="Path 12796" d="M49.108,18.622c-1.183,0-2.108-1.235-2.108-2.811S47.926,13,49.108,13s2.108,1.235,2.108,2.811S50.291,18.622,49.108,18.622Zm0-4.217c-.287,0-.7.547-.7,1.406s.416,1.406.7,1.406.7-.547.7-1.406S49.4,14.406,49.108,14.406Z" transform="translate(-13.671 -3.566)"/>
  </g>
</svg>
