<svg width="25" height="25" viewBox="0 0 25 25" fill="none" xmlns="http://www.w3.org/2000/svg">
<g clip-path="url(#clip0_277_5423)">
<path d="M12.5 25C19.4036 25 25 19.4036 25 12.5C25 5.59644 19.4036 0 12.5 0C5.59644 0 0 5.59644 0 12.5C0 19.4036 5.59644 25 12.5 25Z" fill="#FFCF49"/>
<path d="M13.032 5.66901C13.032 5.49145 12.9615 5.32116 12.8359 5.1956C12.7104 5.07005 12.5401 4.99951 12.3625 4.99951C12.1849 4.99951 12.0146 5.07005 11.8891 5.1956C11.7635 5.32116 11.693 5.49145 11.693 5.66901V6.33801H9.016V5.66901C9.016 5.49145 8.94547 5.32116 8.81991 5.1956C8.69435 5.07005 8.52406 4.99951 8.3465 4.99951C8.16894 4.99951 7.99865 5.07005 7.87309 5.1956C7.74754 5.32116 7.677 5.49145 7.677 5.66901V6.33801C7.32529 6.33775 6.97699 6.40684 6.65202 6.54135C6.32704 6.67585 6.03178 6.87311 5.78314 7.12185C5.53449 7.37059 5.33733 7.66593 5.20295 7.99095C5.06857 8.31597 4.99961 8.6643 5 9.01601V16.379C4.99974 16.7306 5.0688 17.0789 5.20324 17.4038C5.33768 17.7287 5.53486 18.0239 5.78349 18.2725C6.03213 18.5212 6.32734 18.7183 6.65225 18.8528C6.97715 18.9872 7.32538 19.0563 7.677 19.056H11.693C11.8706 19.056 12.0409 18.9855 12.1664 18.8599C12.292 18.7344 12.3625 18.5641 12.3625 18.3865C12.3625 18.2089 12.292 18.0387 12.1664 17.9131C12.0409 17.7875 11.8706 17.717 11.693 17.717H7.677C7.50105 17.7174 7.32675 17.683 7.16412 17.6159C7.00149 17.5487 6.85372 17.4501 6.7293 17.3257C6.60489 17.2013 6.50627 17.0535 6.43912 16.8909C6.37197 16.7283 6.33761 16.554 6.338 16.378V9.01601C6.33761 8.84006 6.37197 8.66576 6.43912 8.50313C6.50627 8.3405 6.60489 8.19273 6.7293 8.06831C6.85372 7.9439 7.00149 7.84528 7.16412 7.77813C7.32675 7.71098 7.50105 7.67662 7.677 7.67701V8.34601C7.677 8.52357 7.74754 8.69386 7.87309 8.81942C7.99865 8.94498 8.16894 9.01551 8.3465 9.01551C8.52406 9.01551 8.69435 8.94498 8.81991 8.81942C8.94547 8.69386 9.016 8.52357 9.016 8.34601V7.67701H11.693V8.34601C11.693 8.52357 11.7635 8.69386 11.8891 8.81942C12.0146 8.94498 12.1849 9.01551 12.3625 9.01551C12.5401 9.01551 12.7104 8.94498 12.8359 8.81942C12.9615 8.69386 13.032 8.52357 13.032 8.34601V7.67701H15.709V8.34601C15.709 8.52357 15.7795 8.69386 15.9051 8.81942C16.0306 8.94498 16.2009 9.01551 16.3785 9.01551C16.5561 9.01551 16.7264 8.94498 16.8519 8.81942C16.9775 8.69386 17.048 8.52357 17.048 8.34601V7.67701C17.224 7.67662 17.3982 7.71098 17.5609 7.77813C17.7235 7.84528 17.8713 7.9439 17.9957 8.06831C18.1201 8.19273 18.2187 8.3405 18.2859 8.50313C18.353 8.66576 18.3874 8.84006 18.387 9.01601V11.359C18.387 11.5366 18.4575 11.7069 18.5831 11.8324C18.7086 11.958 18.8789 12.0285 19.0565 12.0285C19.2341 12.0285 19.4044 11.958 19.5299 11.8324C19.6555 11.7069 19.726 11.5366 19.726 11.359V9.01601C19.7263 8.66439 19.6572 8.31616 19.5228 7.99126C19.3883 7.66635 19.1911 7.37113 18.9425 7.1225C18.6939 6.87387 18.3987 6.67669 18.0738 6.54225C17.7488 6.40781 17.4006 6.33875 17.049 6.33901V5.66901C17.049 5.49145 16.9785 5.32116 16.8529 5.1956C16.7274 5.07005 16.5571 4.99951 16.3795 4.99951C16.2019 4.99951 16.0316 5.07005 15.9061 5.1956C15.7805 5.32116 15.71 5.49145 15.71 5.66901V6.33801H13.032V5.66901Z" fill="white"/>
<path d="M8.84819 10.606C8.79318 10.6056 8.73865 10.6161 8.68775 10.637C8.63686 10.6578 8.59062 10.6886 8.55173 10.7275C8.51283 10.7664 8.48206 10.8126 8.46119 10.8635C8.44033 10.9144 8.42979 10.969 8.43019 11.024V12.024C8.42979 12.079 8.44033 12.1335 8.46119 12.1844C8.48206 12.2353 8.51283 12.2815 8.55173 12.3204C8.59062 12.3593 8.63686 12.3901 8.68775 12.411C8.73865 12.4318 8.79318 12.4424 8.84819 12.442H9.84819C9.90319 12.4424 9.95772 12.4318 10.0086 12.411C10.0595 12.3901 10.1058 12.3593 10.1446 12.3204C10.1835 12.2815 10.2143 12.2353 10.2352 12.1844C10.256 12.1335 10.2666 12.079 10.2662 12.024V11.024C10.2666 10.969 10.256 10.9144 10.2352 10.8635C10.2143 10.8126 10.1835 10.7664 10.1446 10.7275C10.1058 10.6886 10.0595 10.6578 10.0086 10.637C9.95772 10.6161 9.90319 10.6056 9.84819 10.606H8.84819Z" fill="white"/>
<path d="M11.8599 10.606C11.8049 10.6056 11.7504 10.6161 11.6995 10.637C11.6486 10.6578 11.6023 10.6886 11.5634 10.7275C11.5246 10.7664 11.4938 10.8126 11.4729 10.8635C11.452 10.9144 11.4415 10.969 11.4419 11.024V12.024C11.4415 12.079 11.452 12.1335 11.4729 12.1844C11.4938 12.2353 11.5246 12.2815 11.5634 12.3204C11.6023 12.3593 11.6486 12.3901 11.6995 12.411C11.7504 12.4318 11.8049 12.4424 11.8599 12.442H12.8599C12.9149 12.4424 12.9694 12.4318 13.0203 12.411C13.0712 12.3901 13.1175 12.3593 13.1564 12.3204C13.1953 12.2815 13.226 12.2353 13.2469 12.1844C13.2678 12.1335 13.2783 12.079 13.2779 12.024V11.024C13.2783 10.969 13.2678 10.9144 13.2469 10.8635C13.226 10.8126 13.1953 10.7664 13.1564 10.7275C13.1175 10.6886 13.0712 10.6578 13.0203 10.637C12.9694 10.6161 12.9149 10.6056 12.8599 10.606H11.8599Z" fill="white"/>
<path d="M8.84819 13.6181C8.79318 13.6177 8.73865 13.6282 8.68775 13.6491C8.63686 13.6699 8.59062 13.7007 8.55173 13.7396C8.51283 13.7785 8.48206 13.8247 8.46119 13.8756C8.44033 13.9265 8.42979 13.981 8.43019 14.0361V15.0361C8.42979 15.0911 8.44033 15.1456 8.46119 15.1965C8.48206 15.2474 8.51283 15.2936 8.55173 15.3325C8.59062 15.3714 8.63686 15.4022 8.68775 15.423C8.73865 15.4439 8.79318 15.4545 8.84819 15.4541H9.84819C9.90319 15.4545 9.95772 15.4439 10.0086 15.423C10.0595 15.4022 10.1058 15.3714 10.1446 15.3325C10.1835 15.2936 10.2143 15.2474 10.2352 15.1965C10.256 15.1456 10.2666 15.0911 10.2662 15.0361V14.0361C10.2666 13.981 10.256 13.9265 10.2352 13.8756C10.2143 13.8247 10.1835 13.7785 10.1446 13.7396C10.1058 13.7007 10.0595 13.6699 10.0086 13.6491C9.95772 13.6282 9.90319 13.6177 9.84819 13.6181H8.84819Z" fill="white"/>
<path d="M16.7002 14.705C16.7002 14.5723 16.6475 14.4452 16.5537 14.3514C16.46 14.2576 16.3328 14.205 16.2002 14.205C16.0676 14.205 15.9404 14.2576 15.8466 14.3514C15.7529 14.4452 15.7002 14.5723 15.7002 14.705V15.705C15.7002 15.8376 15.7529 15.9647 15.8466 16.0585C15.9404 16.1523 16.0676 16.205 16.2002 16.205H17.1712C17.3038 16.205 17.431 16.1523 17.5247 16.0585C17.6185 15.9647 17.6712 15.8376 17.6712 15.705C17.6712 15.5723 17.6185 15.4452 17.5247 15.3514C17.431 15.2576 17.3038 15.205 17.1712 15.205H16.7022L16.7002 14.705Z" fill="white"/>
<path fill-rule="evenodd" clip-rule="evenodd" d="M12.8511 15.71C12.8511 15.0481 13.0474 14.401 13.4151 13.8505C13.7829 13.3001 14.3056 12.8711 14.9172 12.6178C15.5288 12.3645 16.2018 12.2982 16.851 12.4274C17.5003 12.5565 18.0967 12.8753 18.5648 13.3434C19.0328 13.8114 19.3516 14.4078 19.4808 15.0571C19.6099 15.7063 19.5436 16.3793 19.2903 16.9909C19.037 17.6025 18.608 18.1252 18.0576 18.493C17.5072 18.8607 16.86 19.057 16.1981 19.057C15.3104 19.057 14.4591 18.7044 13.8314 18.0767C13.2037 17.449 12.8511 16.5977 12.8511 15.71ZM16.1981 13.702C15.8009 13.702 15.4127 13.8198 15.0825 14.0404C14.7523 14.2611 14.4949 14.5747 14.3429 14.9416C14.1909 15.3085 14.1512 15.7123 14.2287 16.1018C14.3061 16.4913 14.4974 16.8491 14.7782 17.1299C15.059 17.4107 15.4168 17.602 15.8063 17.6795C16.1958 17.7569 16.5996 17.7172 16.9665 17.5652C17.3334 17.4132 17.647 17.1558 17.8677 16.8256C18.0883 16.4954 18.2061 16.1072 18.2061 15.71C18.2061 15.1775 17.9945 14.6667 17.6179 14.2902C17.2414 13.9136 16.7306 13.702 16.1981 13.702Z" fill="white"/>
</g>
<defs>
<clipPath id="clip0_277_5423">
<rect width="25" height="25" fill="white"/>
</clipPath>
</defs>
</svg>
