<svg width="12" height="12" viewBox="0 0 12 12" fill="none" xmlns="http://www.w3.org/2000/svg">
<path d="M1.2002 6.16326L10.1552 2.03026C10.2252 1.99887 10.3037 1.99166 10.3783 2.00976C10.4529 2.02787 10.5193 2.07025 10.5672 2.13026C10.6158 2.18964 10.643 2.26365 10.6445 2.34037C10.6459 2.41709 10.6215 2.49207 10.5752 2.55326L7.6302 6.47926L10.5752 10.4053C10.6215 10.4665 10.6459 10.5415 10.6446 10.6183C10.6433 10.6951 10.6164 10.7692 10.5681 10.8289C10.5197 10.8886 10.4529 10.9304 10.378 10.9477C10.3032 10.965 10.2248 10.9567 10.1552 10.9243L1.2002 6.78926C1.14044 6.76176 1.08982 6.71771 1.05434 6.66232C1.01886 6.60693 1 6.54253 1 6.47676C1 6.41098 1.01886 6.34658 1.05434 6.29119C1.08982 6.23581 1.14044 6.19075 1.2002 6.16326Z" fill="black"/>
</svg>
