<svg width="16" height="16" viewBox="0 0 16 16" fill="none" xmlns="http://www.w3.org/2000/svg">
<path d="M7.10454 4.19313H14.4869C14.5516 4.19984 14.6171 4.19288 14.679 4.17269C14.7409 4.15251 14.7979 4.11955 14.8462 4.07595C14.8946 4.03235 14.9332 3.97908 14.9597 3.91959C14.9862 3.8601 14.9998 3.79572 14.9998 3.73062C14.9998 3.66551 14.9862 3.60113 14.9597 3.54164C14.9332 3.48215 14.8946 3.42888 14.8462 3.38528C14.7979 3.34168 14.7409 3.30872 14.679 3.28854C14.6171 3.26835 14.5516 3.26139 14.4869 3.2681H7.10454C6.99013 3.27996 6.88418 3.33381 6.80716 3.41923C6.73013 3.50465 6.6875 3.61559 6.6875 3.73062C6.6875 3.84564 6.73013 3.95658 6.80716 4.042C6.88418 4.12742 6.99013 4.18127 7.10454 4.19313Z" fill="black"/>
<path d="M1.51294 4.18627H2.44193C2.51469 4.38415 2.63208 4.5626 2.78497 4.70777L3.11016 5.03793C3.23913 5.16743 3.3924 5.27018 3.56118 5.3403C3.72996 5.41041 3.91092 5.44651 4.09368 5.44651C4.27645 5.44651 4.45741 5.41041 4.62619 5.3403C4.79497 5.27018 4.94824 5.16743 5.0772 5.03793L5.3905 4.70876C5.52 4.5798 5.62276 4.42653 5.69287 4.25775C5.76299 4.08897 5.79908 3.90801 5.79908 3.72525C5.79908 3.54248 5.76299 3.36152 5.69287 3.19274C5.62276 3.02396 5.52 2.87069 5.3905 2.74173L5.06035 2.41157C4.93136 2.28126 4.77783 2.1778 4.60863 2.10715C4.43943 2.03651 4.25791 2.00009 4.07456 2C3.8912 1.99991 3.70965 2.03614 3.54037 2.10662C3.3711 2.17709 3.21747 2.2804 3.08835 2.41058L2.78001 2.74073C2.63501 2.88815 2.5252 3.06642 2.45878 3.26224H1.51294C1.44818 3.25552 1.38273 3.26249 1.32083 3.28267C1.25893 3.30286 1.20196 3.33582 1.15361 3.37942C1.10525 3.42302 1.06659 3.47628 1.04013 3.53577C1.01367 3.59526 1 3.65964 1 3.72475C1 3.78986 1.01367 3.85424 1.04013 3.91373C1.06659 3.97322 1.10525 4.02648 1.15361 4.07008C1.20196 4.11368 1.25893 4.14664 1.32083 4.16683C1.38273 4.18701 1.44818 4.19298 1.51294 4.18627ZM3.42346 3.39311L3.74866 3.06296C3.83577 2.97644 3.95356 2.92788 4.07633 2.92788C4.19911 2.92788 4.3169 2.97644 4.40401 3.06296L4.73416 3.39311C4.82068 3.48022 4.86923 3.59801 4.86923 3.72078C4.86923 3.84356 4.82068 3.96135 4.73416 4.04846L4.40897 4.37861C4.32186 4.46513 4.20406 4.51368 4.08129 4.51368C3.95852 4.51368 3.84073 4.46513 3.75362 4.37861L3.42842 4.04846C3.34071 3.96253 3.29054 3.8454 3.28887 3.72262C3.2872 3.59985 3.33416 3.48139 3.4195 3.39311H3.42346Z" fill="black"/>
<path d="M14.4797 7.8931H11.0364C10.9716 7.88639 10.9062 7.89335 10.8443 7.91354C10.7824 7.93372 10.7254 7.96668 10.677 8.01028C10.6287 8.05388 10.59 8.10715 10.5636 8.16664C10.5371 8.22613 10.5234 8.29051 10.5234 8.35562C10.5234 8.42072 10.5371 8.48511 10.5636 8.54459C10.59 8.60408 10.6287 8.65735 10.677 8.70095C10.7254 8.74455 10.7824 8.77751 10.8443 8.79769C10.9062 8.81788 10.9716 8.82484 11.0364 8.81813H14.5065C14.6209 8.80627 14.7268 8.75242 14.8038 8.667C14.8809 8.58158 14.9235 8.47064 14.9235 8.35562C14.9235 8.24059 14.8809 8.12965 14.8038 8.04423C14.7268 7.95881 14.6209 7.90496 14.5065 7.8931H14.4797Z" fill="black"/>
<path d="M1.51275 8.82378H6.36292C6.42934 9.0196 6.53915 9.19788 6.68415 9.34529L7.00935 9.67544C7.13831 9.80494 7.29158 9.9077 7.46036 9.97781C7.62914 10.0479 7.81011 10.084 7.99287 10.084C8.17563 10.084 8.3566 10.0479 8.52537 9.97781C8.69415 9.9077 8.84742 9.80494 8.97639 9.67544L9.30158 9.34529C9.43049 9.2164 9.53274 9.06337 9.60251 8.89496C9.67227 8.72655 9.70818 8.54604 9.70818 8.36375C9.70818 8.18146 9.67227 8.00095 9.60251 7.83254C9.53274 7.66413 9.43049 7.51111 9.30158 7.38221L8.97639 7.05702C8.84742 6.92752 8.69415 6.82476 8.52537 6.75465C8.3566 6.68453 8.17563 6.64844 7.99287 6.64844C7.81011 6.64844 7.62914 6.68453 7.46036 6.75465C7.29158 6.82476 7.13831 6.92752 7.00935 7.05702L6.68415 7.38717C6.53915 7.53458 6.42934 7.71286 6.36292 7.90868H1.51275C1.39834 7.92054 1.29238 7.97438 1.21536 8.0598C1.13833 8.14523 1.0957 8.25617 1.0957 8.37119C1.0957 8.48621 1.13833 8.59715 1.21536 8.68257C1.29238 8.768 1.39834 8.82184 1.51275 8.8337V8.82378ZM7.34446 8.03062L7.66966 7.70047C7.75677 7.61395 7.87456 7.5654 7.99733 7.5654C8.1201 7.5654 8.23789 7.61395 8.325 7.70047L8.65516 8.03062C8.74167 8.11773 8.79023 8.23552 8.79023 8.3583C8.79023 8.48107 8.74167 8.59886 8.65516 8.68597L8.32996 9.01613C8.24285 9.10264 8.12506 9.1512 8.00229 9.1512C7.87951 9.1512 7.76172 9.10264 7.67461 9.01613L7.34942 8.68597C7.2617 8.60005 7.21154 8.48291 7.20986 8.36014C7.20819 8.23736 7.25515 8.11891 7.34049 8.03062H7.34446Z" fill="black"/>
<path d="M12.8988 11.682C12.7698 11.5525 12.6165 11.4498 12.4477 11.3796C12.279 11.3095 12.098 11.2734 11.9152 11.2734C11.7325 11.2734 11.5515 11.3095 11.3827 11.3796C11.214 11.4498 11.0607 11.5525 10.9317 11.682L10.6016 12.0072C10.4566 12.1546 10.3468 12.3329 10.2803 12.5287H1.51294C1.44818 12.522 1.38273 12.529 1.32083 12.5492C1.25893 12.5693 1.20196 12.6023 1.15361 12.6459C1.10525 12.6895 1.06659 12.7428 1.04013 12.8023C1.01367 12.8617 1 12.9261 1 12.9912C1 13.0563 1.01367 13.1207 1.04013 13.1802C1.06659 13.2397 1.10525 13.293 1.15361 13.3366C1.20196 13.3802 1.25893 13.4131 1.32083 13.4333C1.38273 13.4535 1.44818 13.4605 1.51294 13.4537H10.2843C10.3507 13.6496 10.4605 13.8278 10.6055 13.9752L10.9307 14.3054C11.0597 14.4349 11.213 14.5377 11.3817 14.6078C11.5505 14.6779 11.7315 14.714 11.9142 14.714C12.097 14.714 12.278 14.6779 12.4468 14.6078C12.6155 14.5377 12.7688 14.4349 12.8978 14.3054L13.223 13.9752C13.3519 13.8464 13.4541 13.6933 13.5239 13.5249C13.5936 13.3565 13.6296 13.176 13.6296 12.9937C13.6296 12.8114 13.5936 12.6309 13.5239 12.4625C13.4541 12.2941 13.3519 12.1411 13.223 12.0122L12.8988 11.682ZM12.5736 13.3189L12.2484 13.6491C12.1613 13.7356 12.0435 13.7841 11.9207 13.7841C11.7979 13.7841 11.6801 13.7356 11.593 13.6491L11.2678 13.3189C11.1813 13.2318 11.1327 13.114 11.1327 12.9912C11.1327 12.8685 11.1813 12.7507 11.2678 12.6636L11.593 12.3334C11.6801 12.2469 11.7979 12.1983 11.9207 12.1983C12.0435 12.1983 12.1613 12.2469 12.2484 12.3334L12.5785 12.6636C12.6642 12.7514 12.7117 12.8697 12.7106 12.9925C12.7095 13.1152 12.6599 13.2326 12.5726 13.3189H12.5736Z" fill="black"/>
<path d="M14.4786 13.4492C14.4023 13.4497 14.327 13.4313 14.2595 13.3959C14.1919 13.3604 14.1342 13.3088 14.0912 13.2457C14.0483 13.1826 14.0216 13.1099 14.0134 13.0341C14.0052 12.9582 14.0159 12.8815 14.0443 12.8107C14.0674 12.7543 14.1011 12.7028 14.1435 12.659C14.2086 12.5941 14.2915 12.55 14.3818 12.5322C14.472 12.5144 14.5654 12.5238 14.6503 12.5591C14.7352 12.5945 14.8077 12.6542 14.8587 12.7307C14.9097 12.8073 14.9368 12.8972 14.9366 12.9892C14.9381 13.0498 14.9269 13.11 14.9036 13.166C14.8804 13.222 14.8457 13.2726 14.8018 13.3144C14.7157 13.3997 14.5998 13.4481 14.4786 13.4492Z" fill="black"/>
</svg>
