<svg xmlns="http://www.w3.org/2000/svg" width="9.451" height="9.451" viewBox="0 0 9.451 9.451">
  <path id="settings_6050820" d="M8.907,3.694l-.8-.13L8.08,3.481q-.047-.126-.1-.249L7.94,3.152,8.411,2.5a.647.647,0,0,0-.068-.836l-.554-.554a.647.647,0,0,0-.836-.068L6.3,1.51l-.081-.037q-.122-.056-.249-.1l-.083-.031-.13-.8A.645.645,0,0,0,5.116,0H4.333a.645.645,0,0,0-.639.543l-.13.8-.083.031q-.126.047-.249.1l-.081.037L2.5,1.039a.647.647,0,0,0-.836.068l-.554.554a.647.647,0,0,0-.068.836l.471.655-.037.081q-.056.122-.1.249l-.031.083-.8.13A.645.645,0,0,0,0,4.333v.783a.645.645,0,0,0,.543.639l.8.13.031.083q.047.126.1.248L1.51,6.3l-.471.655a.647.647,0,0,0,.068.836l.554.554a.648.648,0,0,0,.836.068l.655-.471.081.037q.123.056.249.1l.083.031.13.8a.645.645,0,0,0,.639.543h.783a.645.645,0,0,0,.639-.543l.13-.8.083-.031q.126-.047.248-.1L6.3,7.94l.655.471a.647.647,0,0,0,.836-.068l.554-.554a.647.647,0,0,0,.068-.836L7.94,6.3l.037-.081q.056-.122.1-.249l.031-.083.8-.13a.645.645,0,0,0,.543-.639V4.333a.645.645,0,0,0-.543-.639ZM4.725,6.207h0Zm0-3.459A1.977,1.977,0,1,1,2.748,4.725,1.977,1.977,0,0,1,4.725,2.748Z" transform="translate(0 0)" fill="#fff" fill-rule="evenodd"/>
</svg>
