<svg xmlns="http://www.w3.org/2000/svg" width="14.346" height="16.483" viewBox="0 0 14.346 16.483">
  <path id="share_1358023" d="M11.648,11.087a2.692,2.692,0,0,0-2,.884L5.211,9.22a2.688,2.688,0,0,0,0-1.956L9.653,4.513a2.7,2.7,0,1,0-.518-.836L4.692,6.428a2.7,2.7,0,1,0,0,3.628l4.442,2.751a2.7,2.7,0,1,0,2.514-1.72ZM9.933,2.7a1.714,1.714,0,1,1,1.714,1.714A1.716,1.716,0,0,1,9.933,2.7ZM2.7,9.956A1.714,1.714,0,1,1,4.411,8.242,1.716,1.716,0,0,1,2.7,9.956Zm7.236,3.829A1.714,1.714,0,1,1,11.648,15.5,1.716,1.716,0,0,1,9.933,13.785Zm0,0" transform="translate(0 -0.001)"/>
</svg>
