<svg xmlns="http://www.w3.org/2000/svg" width="67.567" height="63.608" viewBox="0 0 67.567 63.608">
  <g id="coming-soon_4771343" transform="translate(0 -15)">
    <circle id="Ellipse_230" data-name="Ellipse 230" cx="1.98" cy="1.98" r="1.98" transform="translate(31.804 15.99)" fill="#b6b5d8"/>
    <path id="Path_14455" data-name="Path 14455" d="M448.459,112.5H444.5v49.752h3.959a3.959,3.959,0,0,0,3.959-3.959V116.459A3.959,3.959,0,0,0,448.459,112.5Z" transform="translate(-385.84 -84.633)" fill="#807dbb"/>
    <path id="Path_14456" data-name="Path 14456" d="M69.129,158.293,63.19,141.335l5.939-24.876A3.959,3.959,0,0,0,65.17,112.5H11.459A3.959,3.959,0,0,0,7.5,116.459v41.834a3.959,3.959,0,0,0,3.959,3.959H65.17A3.959,3.959,0,0,0,69.129,158.293Z" transform="translate(-6.51 -84.633)" fill="#9b99c9"/>
    <path id="Path_14457" data-name="Path 14457" d="M392.286,142.5,384.5,163.417l7.786,20.917h4.091V142.5Z" transform="translate(-333.758 -110.674)" fill="#ec9345"/>
    <path id="Path_14458" data-name="Path 14458" d="M37.5,142.5H94.172v41.834H37.5Z" transform="translate(-32.551 -110.674)" fill="#ecc04b"/>
    <path id="Path_14459" data-name="Path 14459" d="M188.5,312.459v7.918a3.959,3.959,0,0,0,7.918,0v-7.918a3.959,3.959,0,1,0-7.918,0Zm1.98,0a1.98,1.98,0,0,1,3.959,0v7.918a1.98,1.98,0,1,1-3.959,0Z" transform="translate(-163.624 -263.674)"/>
    <path id="Path_14460" data-name="Path 14460" d="M344.439,309.488v9.035L340.4,309.1a.99.99,0,0,0-1.9.39v13.857a.99.99,0,0,0,1.98,0V314.31l4.039,9.424a.99.99,0,0,0,1.9-.39V309.488a.99.99,0,0,0-1.98,0Z" transform="translate(-293.83 -263.672)"/>
    <path id="Path_14461" data-name="Path 14461" d="M263.5,312.459v7.918a3.959,3.959,0,0,0,7.918,0v-7.918a3.959,3.959,0,1,0-7.918,0Zm1.98,0a1.98,1.98,0,0,1,3.959,0v7.918a1.98,1.98,0,1,1-3.959,0Z" transform="translate(-228.727 -263.674)"/>
    <path id="Path_14462" data-name="Path 14462" d="M113.5,312.459a3.96,3.96,0,0,0,1.343,2.971l3.923,3.462a1.979,1.979,0,1,1-3.287,1.486.99.99,0,0,0-1.98,0,3.959,3.959,0,1,0,6.575-2.971l-3.923-3.462a1.979,1.979,0,1,1,3.286-1.486.99.99,0,0,0,1.98,0,3.959,3.959,0,1,0-7.918,0Z" transform="translate(-98.522 -263.674)"/>
    <path id="Path_14469" data-name="Path 14469" d="M62.619,26.877H49.12L35.683,15.687a2.966,2.966,0,0,0-3.8,0S18.447,26.877,18.447,26.877H4.949A4.954,4.954,0,0,0,0,31.826V73.66a4.954,4.954,0,0,0,4.949,4.949h57.67a4.954,4.954,0,0,0,4.949-4.949V31.826A4.954,4.954,0,0,0,62.619,26.877ZM34.773,17.969a.99.99,0,1,1-.99-.99A.991.991,0,0,1,34.773,17.969ZM31,19a2.969,2.969,0,0,0,5.569,0l9.459,7.877H21.541ZM65.588,73.66a2.973,2.973,0,0,1-2.969,2.969H4.949A2.973,2.973,0,0,1,1.98,73.66V31.826a2.973,2.973,0,0,1,2.969-2.969h57.67a2.973,2.973,0,0,1,2.969,2.969Z" transform="translate(0)"/>
    <path id="Path_14470" data-name="Path 14470" d="M88.66,135H30.99a.99.99,0,0,0-.99.99v18.937a.99.99,0,1,0,1.98,0V136.98H87.67v39.854H31.98V158.886a.99.99,0,1,0-1.98,0v18.937a.99.99,0,0,0,.99.99H88.66a.99.99,0,0,0,.99-.99V135.99A.99.99,0,0,0,88.66,135Z" transform="translate(-26.041 -104.164)"/>
  </g>
</svg>
