<svg xmlns="http://www.w3.org/2000/svg" width="325.657" height="748.688" viewBox="0 0 325.657 748.688">
  <g id="Group_4397" data-name="Group 4397" transform="translate(-26 -45.174)">
    <path id="Path_13042" data-name="Path 13042" d="M129.623,135.075l-22.365,5.079,26.272,15.663ZM119.475,146.85,116,144.781l5.8-4.652,2.76,1.446Zm5.6-5.823-2.658-1.4,6.527-5.25,1.689.885Zm6.085-6.3-1.589-.838,2.648-2.122,1.221.592Z" transform="translate(-28.306 93.425)" fill="#232323" opacity="0.05"/>
    <path id="Path_13043" data-name="Path 13043" d="M107.258,131.075l26.365,9.079-26.271,15.663Zm14.148,15.775,3.477-2.069-5.8-4.652-2.76,1.446Zm-5.6-5.823,2.658-1.4-6.527-5.25-1.689.885Zm-6.085-6.3,1.589-.838-2.648-2.122-1.221.592Z" transform="translate(443.703 93.611) rotate(99)" fill="#232323" opacity="0.05"/>
    <path id="Path_13045" data-name="Path 13045" d="M107.258,131.075l26.365,9.079-26.271,15.663Zm14.148,15.775,3.477-2.069-5.8-4.652-2.76,1.446Zm-5.6-5.823,2.658-1.4-6.527-5.25-1.689.885Zm-6.085-6.3,1.589-.838-2.648-2.122-1.221.592Z" transform="translate(13.995 234.806) rotate(-76)" fill="#232323" opacity="0.05"/>
    <path id="Path_13046" data-name="Path 13046" d="M107.258,131.075l26.365,9.079-26.271,15.663Zm14.148,15.775,3.477-2.069-5.8-4.652-2.76,1.446Zm-5.6-5.823,2.658-1.4-6.527-5.25-1.689.885Zm-6.085-6.3,1.589-.838-2.648-2.122-1.221.592Z" transform="matrix(0.208, 0.978, -0.978, 0.208, 182.867, -9.245)" fill="#232323" opacity="0.05"/>
    <path id="Path_13047" data-name="Path 13047" d="M107.258,131.075l26.365,9.079-26.271,15.663Zm14.148,15.775,3.477-2.069-5.8-4.652-2.76,1.446Zm-5.6-5.823,2.658-1.4-6.527-5.25-1.689.885Zm-6.085-6.3,1.589-.838-2.648-2.122-1.221.592Z" transform="translate(-23.568 156.647) rotate(-81)" fill="#232323" opacity="0.05"/>
    <path id="Path_13044" data-name="Path 13044" d="M133.623,131.075l-26.365,9.079,26.271,15.663ZM119.475,146.85,116,144.781l5.8-4.652,2.76,1.446Zm5.6-5.823-2.658-1.4,6.527-5.25,1.689.885Zm6.085-6.3-1.589-.838,2.648-2.122,1.221.592Z" transform="matrix(0.602, 0.799, -0.799, 0.602, 344.078, -108.645)" fill="#232323" opacity="0.05"/>
    <path id="Path_13057" data-name="Path 13057" d="M107.258,131.075l33.365,9.446-33.247,16.3Zm17.9,16.412,4.4-2.152-7.342-4.84-3.493,1.5Zm-7.089-6.059,3.363-1.452-8.26-5.462-2.137.921Zm-7.7-6.555,2.011-.872-3.351-2.208-1.546.616Z" transform="matrix(0.719, -0.695, 0.695, 0.719, -3.331, 270.921)" fill="#232323" opacity="0.05"/>
    <path id="Path_13058" data-name="Path 13058" d="M107.258,131.075l26.365,9.079-26.271,15.663Zm14.148,15.775,3.477-2.069-5.8-4.652-2.76,1.446Zm-5.6-5.823,2.658-1.4-6.527-5.25-1.689.885Zm-6.085-6.3,1.589-.838-2.648-2.122-1.221.592Z" transform="matrix(-0.899, 0.438, -0.438, -0.899, 239.731, 412.001)" fill="#232323" opacity="0.05"/>
    <path id="Path_13059" data-name="Path 13059" d="M107.258,131.075l26.365,9.079-26.271,15.663Zm14.148,15.775,3.477-2.069-5.8-4.652-2.76,1.446Zm-5.6-5.823,2.658-1.4-6.527-5.25-1.689.885Zm-6.085-6.3,1.589-.838-2.648-2.122-1.221.592Z" transform="translate(193.289 157.796)" fill="#232323" opacity="0.05"/>
    <path id="Path_13060" data-name="Path 13060" d="M133.623,131.075l-26.365,9.079,26.272,15.663ZM119.475,146.85,116,144.781l5.8-4.652,2.76,1.446Zm5.6-5.823-2.658-1.4,6.527-5.25,1.689.885Zm6.085-6.3-1.589-.838,2.648-2.122,1.221.592Z" transform="translate(183.904 495.958) rotate(47)" fill="#232323" opacity="0.05"/>
    <path id="Path_13061" data-name="Path 13061" d="M107.258,131.075l26.365,9.079-26.271,15.663Zm14.148,15.775,3.477-2.069-5.8-4.652-2.76,1.446Zm-5.6-5.823,2.658-1.4-6.527-5.25-1.689.885Zm-6.085-6.3,1.589-.838-2.648-2.122-1.221.592Z" transform="matrix(-0.208, -0.978, 0.978, -0.208, 167.912, 802.764)" fill="#232323" opacity="0.05"/>
    <path id="Path_13062" data-name="Path 13062" d="M107.258,131.075l26.365,9.079-26.271,15.663Zm14.148,15.775,3.477-2.069-5.8-4.652-2.76,1.446Zm-5.6-5.823,2.658-1.4-6.527-5.25-1.689.885Zm-6.085-6.3,1.589-.838-2.648-2.122-1.221.592Z" transform="translate(34.995 652.808) rotate(-76)" fill="#232323" opacity="0.05"/>
    <path id="Path_13063" data-name="Path 13063" d="M107.258,131.075l26.365,9.079-26.271,15.663Zm14.148,15.775,3.477-2.069-5.8-4.652-2.76,1.446Zm-5.6-5.823,2.658-1.4-6.527-5.25-1.689.885Zm-6.085-6.3,1.589-.838-2.648-2.122-1.221.592Z" transform="matrix(0.799, -0.602, 0.602, 0.799, -110.919, 605.311)" fill="#232323" opacity="0.05"/>
    <path id="Path_13064" data-name="Path 13064" d="M107.258,131.075l26.365,9.079-26.271,15.663Zm14.148,15.775,3.477-2.069-5.8-4.652-2.76,1.446Zm-5.6-5.823,2.658-1.4-6.527-5.25-1.689.885Zm-6.085-6.3,1.589-.838-2.648-2.122-1.221.592Z" transform="translate(-27.488 380.685)" fill="#232323" opacity="0.05"/>
    <path id="Path_13065" data-name="Path 13065" d="M133.623,131.075l-26.365,9.079,26.271,15.663ZM119.475,146.85,116,144.781l5.8-4.652,2.76,1.446Zm5.6-5.823-2.658-1.4,6.527-5.25,1.689.885Zm6.085-6.3-1.589-.838,2.648-2.122,1.221.592Z" transform="translate(181.559 386.427)" fill="#232323" opacity="0.05"/>
    <path id="Path_13066" data-name="Path 13066" d="M107.258,131.075l26.365,9.079-26.271,15.663Zm14.148,15.775,3.477-2.069-5.8-4.652-2.76,1.446Zm-5.6-5.823,2.658-1.4-6.527-5.25-1.689.885Zm-6.085-6.3,1.589-.838-2.648-2.122-1.221.592Z" transform="matrix(0.485, -0.875, 0.875, 0.485, 2.466, 794.668)" fill="#232323" opacity="0.05"/>
    <path id="Path_13067" data-name="Path 13067" d="M107.258,131.075l26.365,9.079-26.271,15.663Zm14.148,15.775,3.477-2.069-5.8-4.652-2.76,1.446Zm-5.6-5.823,2.658-1.4-6.527-5.25-1.689.885Zm-6.085-6.3,1.589-.838-2.648-2.122-1.221.592Z" transform="translate(127.742 841.359) rotate(-70)" fill="#232323" opacity="0.05"/>
    <path id="Path_13068" data-name="Path 13068" d="M107.258,131.075l26.365,9.079-26.271,15.663Zm14.148,15.775,3.477-2.069-5.8-4.652-2.76,1.446Zm-5.6-5.823,2.658-1.4-6.527-5.25-1.689.885Zm-6.085-6.3,1.589-.838-2.648-2.122-1.221.592Z" transform="translate(-81.258 300.183)" fill="#232323" opacity="0.05"/>
    <path id="Path_13069" data-name="Path 13069" d="M107.258,131.075l26.365,9.079-26.271,15.663Zm14.148,15.775,3.477-2.069-5.8-4.652-2.76,1.446Zm-5.6-5.823,2.658-1.4-6.527-5.25-1.689.885Zm-6.085-6.3,1.589-.838-2.648-2.122-1.221.592Z" transform="matrix(-0.309, 0.951, -0.951, -0.309, 509.461, 335.781)" fill="#232323" opacity="0.05"/>
    <path id="Path_13070" data-name="Path 13070" d="M129.45,131.075l-22.192,10.638,22.113,18.352Zm-11.909,18.483-2.927-2.424,4.883-5.45,2.324,1.694Zm4.715-6.823-2.237-1.635,5.494-6.151,1.421,1.037Zm5.122-7.382-1.338-.982,2.229-2.486,1.028.694Z" transform="translate(-57.853 633.798)" fill="#232323" opacity="0.05"/>
  </g>
</svg>
