<svg xmlns="http://www.w3.org/2000/svg" width="14.154" height="13.906" viewBox="0 0 14.154 13.906">
  <g id="surprise_3656900" transform="translate(-0.001 -4.496)">
    <path id="Path_12714" data-name="Path 12714" d="M10.815,118.168H5.706l2.823-1.573a.616.616,0,0,0,.237-.835l-.421-.754a.615.615,0,0,0-.835-.237l-1.174.654a2.5,2.5,0,0,0,.256-.813,1.528,1.528,0,0,0-.288-1.147,1.385,1.385,0,0,0-1.668-.409.207.207,0,1,0,.17.378.972.972,0,0,1,1.17.285c.395.508.243,1.3-.4,2.131l-.25.14-.181-.325a.782.782,0,0,0-.178-.217,2.6,2.6,0,0,1,.3-.828.207.207,0,1,0-.354-.216,3,3,0,0,0-.336.866.78.78,0,0,0-.505.089L4,115.4a2.684,2.684,0,0,1,.273-1.46.207.207,0,1,0-.359-.208,3.2,3.2,0,0,0-.315,1.891l-.25.14c-1.058-.786-2.093-.947-2.788-.426A1.389,1.389,0,0,0,.1,116.958a1.811,1.811,0,0,0,1.641,1.025l-1.2.67a.614.614,0,0,0-.237.834l.421.755a.615.615,0,0,0,.835.237h0l1.355-.755V123.1a.737.737,0,0,0,.736.736h6.934a.737.737,0,0,0,.737-.736v-4.431a.5.5,0,0,0-.5-.5Zm-6.91.529-.614-1.1,1.871-1.043.614,1.1-.936.521a.206.206,0,0,0-.088.049Zm3.807-3.566a.2.2,0,0,1,.1-.025.2.2,0,0,1,.174.1l.42.754a.2.2,0,0,1-.077.271l-2.188,1.219-.614-1.1Zm-3.441.59a.368.368,0,0,1,.18-.047.379.379,0,0,1,.1.015.369.369,0,0,1,.224.177l.181.324-1.871,1.043-.181-.325a.367.367,0,0,1-.046-.208v-.006a.379.379,0,0,1,.013-.069.369.369,0,0,1,.177-.223ZM.484,116.8a.973.973,0,0,1,.324-1.137c.509-.381,1.294-.26,2.138.318l-.1.054a.779.779,0,0,0-.338.373,4.248,4.248,0,0,0-.872-.172.207.207,0,0,0-.045.412,3.763,3.763,0,0,1,.858.176.781.781,0,0,0,.093.28l.181.325-.226.126C1.471,117.673.719,117.392.484,116.8Zm.871,3.313a.2.2,0,0,1-.271-.077l-.42-.755a.2.2,0,0,1,.077-.27l1.918-1.069.018-.01.254-.141.614,1.1-.522.291,0,0ZM3.326,123.1v-3.608l1.635-.911h.956v1.836a.207.207,0,0,0,.415,0v-1.836H7.9v4.841H6.332V121.4a.207.207,0,0,0-.415,0v2.023H3.648A.322.322,0,0,1,3.326,123.1Zm7.577,0a.322.322,0,0,1-.322.322H8.312v-4.841h2.5a.09.09,0,0,1,.089.088Z" transform="translate(0 -105.437)"/>
    <path id="Path_12715" data-name="Path 12715" d="M339.878,126.275c0,.025.266,2.561-.622,3.523a.207.207,0,1,0,.3.281c1.014-1.1.741-3.737.729-3.849a.207.207,0,1,0-.412.045Z" transform="translate(-329.823 -118.189)"/>
    <path id="Path_12716" data-name="Path 12716" d="M415.684,74.2a3.512,3.512,0,0,0-.467,1.037.207.207,0,0,0,.4.092,3.161,3.161,0,0,1,.418-.914,2.733,2.733,0,0,1,1.689-1.2.207.207,0,0,0-.1-.4A3.178,3.178,0,0,0,415.684,74.2Z" transform="translate(-403.733 -66.417)"/>
    <path id="Path_12717" data-name="Path 12717" d="M260.539,17.064a.2.2,0,0,1,0,.041l-.049.6a.308.308,0,0,0,.1.3.318.318,0,0,0,.32.009l.554-.231a.117.117,0,0,1,.048,0l.558.232a.452.452,0,0,0,.168.04.241.241,0,0,0,.149-.049.308.308,0,0,0,.1-.3l-.048-.6a.231.231,0,0,1,0-.042l.4-.485a.273.273,0,0,0-.153-.49l-.612-.152-.322-.537a.318.318,0,0,0-.262-.183h0a.319.319,0,0,0-.262.182h0l-.319.533,0,0-.612.152a.273.273,0,0,0-.152.49Zm.481-.729a.328.328,0,0,0,.231-.176l.234-.391.236.394a.326.326,0,0,0,.229.172l.455.113-.293.353a.441.441,0,0,0-.093.338l.033.42-.384-.16a.5.5,0,0,0-.366,0l-.384.16.034-.421a.449.449,0,0,0-.092-.336l-.294-.354Z" transform="translate(-252.841 -10.426)"/>
    <path id="Path_12718" data-name="Path 12718" d="M409.511,188.991a.273.273,0,0,0-.152-.49l-.611-.152-.322-.538a.319.319,0,0,0-.262-.182h0a.317.317,0,0,0-.262.182l-.32.533,0,.005-.611.152a.273.273,0,0,0-.152.49l.4.485a.224.224,0,0,1,0,.041l-.049.6a.31.31,0,0,0,.1.3.318.318,0,0,0,.319.008l.554-.231a.12.12,0,0,1,.049,0l.558.232a.452.452,0,0,0,.168.04.242.242,0,0,0,.149-.049.31.31,0,0,0,.1-.3l-.049-.6a.232.232,0,0,1,0-.042Zm-.722.221a.442.442,0,0,0-.093.338l.034.42-.385-.16a.507.507,0,0,0-.366,0l-.385.16.034-.421a.44.44,0,0,0-.091-.335l-.294-.354.455-.113a.327.327,0,0,0,.23-.175l.235-.391.226.377.008.014a.327.327,0,0,0,.23.176l.455.113Z" transform="translate(-395.463 -178.07)"/>
    <path id="Path_12719" data-name="Path 12719" d="M395.51,6.569a1.037,1.037,0,1,0-1.037-1.036A1.038,1.038,0,0,0,395.51,6.569Zm0-1.658a.622.622,0,1,1-.623.622A.623.623,0,0,1,395.51,4.911Z" transform="translate(-383.567)"/>
  </g>
</svg>
