<svg xmlns="http://www.w3.org/2000/svg" width="10" height="11" viewBox="0 0 10 11">
  <g id="time_3777745" transform="translate(-21.713 0)">
    <path id="Path_12951" data-name="Path 12951" d="M22.958,2.454A4.814,4.814,0,0,0,21.73,5.323a4.762,4.762,0,0,0,3.389,5.013.247.247,0,0,0,.3-.184.26.26,0,0,0-.177-.316,4.23,4.23,0,0,1-3.036-4.1,4.231,4.231,0,0,1,3.021-4.116l-.521.6a.266.266,0,0,0,.018.365.241.241,0,0,0,.35-.018L26.084,1.4a.265.265,0,0,0,.063-.195.262.262,0,0,0-.093-.181L24.881.056A.241.241,0,0,0,24.532.1a.266.266,0,0,0,.04.363l.731.605a4.568,4.568,0,0,0-2.345,1.389Z" transform="translate(0 0)" fill="#aaa"/>
    <path id="Path_12952" data-name="Path 12952" d="M441.73,250.056a.248.248,0,0,0-.248-.248h-.529a.248.248,0,0,0,0,.5h.529A.248.248,0,0,0,441.73,250.056Z" transform="translate(-410.017 -244.432)" fill="#aaa"/>
    <path id="Path_12953" data-name="Path 12953" d="M428.105,326.543a.248.248,0,0,0-.181.462l.493.193a.248.248,0,0,0,.181-.462Z" transform="translate(-397.346 -319.492)" fill="#aaa"/>
    <path id="Path_12954" data-name="Path 12954" d="M387.813,393.669l.388.359a.248.248,0,1,0,.337-.364l-.388-.359a.248.248,0,1,0-.337.364Z" transform="translate(-358.141 -384.763)" fill="#aaa"/>
    <path id="Path_12955" data-name="Path 12955" d="M326.254,440.765a.248.248,0,0,0-.115.331l.23.476a.248.248,0,1,0,.447-.216l-.23-.476A.248.248,0,0,0,326.254,440.765Z" transform="translate(-297.887 -431.214)" fill="#aaa"/>
    <path id="Path_12956" data-name="Path 12956" d="M251.642,462.488a.248.248,0,0,0-.228.266l.041.528a.248.248,0,0,0,.247.229h.019a.248.248,0,0,0,.228-.266l-.041-.527A.248.248,0,0,0,251.642,462.488Z" transform="translate(-224.789 -452.511)" fill="#aaa"/>
    <path id="Path_12957" data-name="Path 12957" d="M257.265,21.7a.248.248,0,0,0,.245-.213l.075-.524a.248.248,0,1,0-.491-.071l-.075.524a.248.248,0,0,0,.246.284Z" transform="translate(-230.272 -20.256)" fill="#aaa"/>
    <path id="Path_12958" data-name="Path 12958" d="M331.353,48.464a.248.248,0,0,0,.216-.126l.261-.46a.248.248,0,1,0-.431-.245l-.261.46a.248.248,0,0,0,.216.371Z" transform="translate(-302.772 -46.526)" fill="#aaa"/>
    <path id="Path_12959" data-name="Path 12959" d="M391.926,102.854l-.411.333a.248.248,0,1,0,.312.386l.411-.333a.248.248,0,1,0-.312-.386Z" transform="translate(-361.754 -100.583)" fill="#aaa"/>
    <path id="Path_12960" data-name="Path 12960" d="M430.326,178.933l-.5.16a.248.248,0,1,0,.15.473l.5-.16a.248.248,0,0,0-.15-.473Z" transform="translate(-399.189 -175.068)" fill="#aaa"/>
    <path id="Path_12961" data-name="Path 12961" d="M242.4,130.948v2.343a.248.248,0,0,0,.248.248h2.1a.248.248,0,1,0,0-.5H242.9v-2.095a.248.248,0,1,0-.5,0Z" transform="translate(-215.923 -127.854)" fill="#aaa"/>
  </g>
</svg>
