<svg xmlns="http://www.w3.org/2000/svg" width="49.403" height="36.858" viewBox="0 0 49.403 36.858">
  <g id="filledoutline" transform="translate(-2 -8.242)">
    <path id="Path_13023" data-name="Path 13023" d="M16.174,44.468H3.823A.823.823,0,0,1,3,43.644V37.057l2.9-7.973A1.647,1.647,0,0,1,7.446,28h8.728Z" transform="translate(-0.177 -3.49)" fill="#ffc200"/>
    <path id="Path_13024" data-name="Path 13024" d="M19,40H53.582v3.294H19Z" transform="translate(-3.002 -5.609)" fill="#ffc200"/>
    <path id="Path_13025" data-name="Path 13025" d="M7.446,28h5.434v6.587L3,37.057l2.9-7.973A1.647,1.647,0,0,1,7.446,28Z" transform="translate(-0.177 -3.49)" fill="#5788f8"/>
    <path id="Path_13026" data-name="Path 13026" d="M3,44H6.294v3.294H3.823A.823.823,0,0,1,3,46.47Z" transform="translate(-0.177 -6.315)" fill="#3d76f8"/>
    <path id="Path_13027" data-name="Path 13027" d="M19,44h9.057v3.294H19Z" transform="translate(-3.002 -6.315)" fill="#949391"/>
    <path id="Path_13028" data-name="Path 13028" d="M55.172,29v3.294a2.47,2.47,0,0,1-2.47,2.47H28.823A.823.823,0,0,1,28,33.94V32.615a1.112,1.112,0,0,1,.181-.593,4.982,4.982,0,0,1,1.779-1.614,4.915,4.915,0,0,1,2.33-.585h4.356a.759.759,0,0,0,.3-.058c.082-.025.939-.766.939-.766Z" transform="translate(-4.592 -3.666)" fill="#ea4747"/>
    <circle id="Ellipse_163" data-name="Ellipse 163" cx="2.47" cy="2.47" r="2.47" transform="translate(26.702 29.451)" fill="#6d6b73"/>
    <circle id="Ellipse_164" data-name="Ellipse 164" cx="2.47" cy="2.47" r="2.47" transform="translate(42.346 29.451)" fill="#6d6b73"/>
    <path id="Path_13029" data-name="Path 13029" d="M45.562,26v4.117H41.011a1.647,1.647,0,0,1-.736-.174l-1.415-.707a.646.646,0,0,0,.231-.132,1.061,1.061,0,0,0,.132-.14L40.7,26.988A2.47,2.47,0,0,1,42.681,26Z" transform="translate(-6.51 -3.136)" fill="#5788f8"/>
    <path id="Path_13030" data-name="Path 13030" d="M52.039,27.746a2.492,2.492,0,0,0,1.548.716v.008l-2.058,1.37a1.647,1.647,0,0,1-.914.277H47V26h1.931a3.294,3.294,0,0,1,2.326.963Z" transform="translate(-7.948 -3.136)" fill="#5788f8"/>
    <circle id="Ellipse_165" data-name="Ellipse 165" cx="3.294" cy="3.294" r="3.294" transform="translate(37.406 37.685)" fill="#6d6b73"/>
    <circle id="Ellipse_166" data-name="Ellipse 166" cx="3.294" cy="3.294" r="3.294" transform="translate(9.41 37.685)" fill="#6d6b73"/>
    <path id="Path_13031" data-name="Path 13031" d="M20.869,25.519l-1.24-1.084,7.1-8.11,2.259-.081Z" transform="translate(-3.113 -1.413)" fill="#949391"/>
    <path id="Path_13032" data-name="Path 13032" d="M22.294,39.408H19V18h2.47Z" transform="translate(-3.002 -1.723)" fill="#ff9300"/>
    <path id="Path_13033" data-name="Path 13033" d="M40.266,9.724l.8.8a.823.823,0,0,1-.356,1.374L19,18.1V16.055a1.647,1.647,0,0,1,1.2-1.586L38.658,9.3A1.647,1.647,0,0,1,40.266,9.724Z" transform="translate(-3.002 -0.176)" fill="#ffc200"/>
    <path id="Path_13034" data-name="Path 13034" d="M13,39h2.47v1.647H13Z" transform="translate(-1.943 -5.432)"/>
    <path id="Path_13035" data-name="Path 13035" d="M50.58,24.51H45.837a1.657,1.657,0,0,1-1.163-.483l-.782-.782a4.146,4.146,0,0,0-2.912-1.2H36.171a3.308,3.308,0,0,0-2.635,1.317l-1.482,1.976H27.7a5.706,5.706,0,0,0-2.717.682,5.846,5.846,0,0,0-2.085,1.9,1.929,1.929,0,0,0-.311,1.034v1.326a1.647,1.647,0,0,0,1.647,1.647h1.647a3.26,3.26,0,0,0,.458,1.647h-6.38L19.513,22.1l5.04-5.764L36.582,12.9v1.223l-.165.082a1.647,1.647,0,0,0-.429,2.635l.6.6v.485a.823.823,0,1,1-1.647,0V17.1H33.289v.823a2.47,2.47,0,1,0,4.94,0V17.1a.823.823,0,0,0-.241-.582l-.839-.839.625-.312a.823.823,0,0,0,.455-.737V12.385a1.634,1.634,0,0,0,.416-2.621l-.8-.8a2.47,2.47,0,0,0-2.413-.632L16.978,13.5a2.479,2.479,0,0,0-1.8,2.379v7.808H7.27a2.485,2.485,0,0,0-2.322,1.629l-2.9,7.97a.823.823,0,0,0-.05.282v6.587A1.647,1.647,0,0,0,3.647,41.8H8.669a4.117,4.117,0,0,0,8.069,0H36.665a4.117,4.117,0,0,0,8.152-.823,4.074,4.074,0,0,0-.845-2.47H50.58a.823.823,0,0,0,.823-.823V34.391a.823.823,0,0,0-.823-.823H47.652a3.26,3.26,0,0,0,.458-1.647A3.294,3.294,0,0,0,51.4,28.627V25.334A.823.823,0,0,0,50.58,24.51ZM6.494,25.881a.832.832,0,0,1,.776-.548h4.611v5.121L4.126,32.394Zm-1.2,14.273H3.647V38.508H5.294Zm7.41,3.294a2.47,2.47,0,1,1,2.47-2.47A2.47,2.47,0,0,1,12.7,43.448Zm2.47-5.764v.021a4.074,4.074,0,0,0-2.47-.845,4.124,4.124,0,0,0-4.035,3.294H6.94v-2.47a.823.823,0,0,0-.823-.823H3.647V34.21L12.9,31.9a.823.823,0,0,0,.624-.8V25.334h1.647Zm24.7-14h1.1a2.487,2.487,0,0,1,1.748.722l.782.782a3.211,3.211,0,0,0,.386.315l-.973.65H39.876Zm-5.023.659a1.655,1.655,0,0,1,1.317-.659h2.058v2.47H34.306l-.591-.3ZM20.6,35.215l1.647,1.647H20.083l-.063-1.647ZM19.42,19.7l-.072-1.878,2.288-.654Zm-2.6-3.822a.823.823,0,0,1,.6-.793L35.878,9.918a.806.806,0,0,1,.221-.03.823.823,0,0,1,.582.241l.8.8-20.66,5.9Zm0,2.666.9-.257.717,18.573H16.821Zm7.41,21.61h-7.41V38.508h7.41Zm-1.306-4.94h1.788l1.647,1.647H24.572Zm13.739,4.94H25.878V38.508H37.427a4.079,4.079,0,0,0-.762,1.647Zm-7.835-4.94,1.647,1.647H28.689l-1.647-1.647Zm-1.305-3.294a1.647,1.647,0,1,1,1.647,1.647A1.647,1.647,0,0,1,27.525,31.921Zm4.483,1.647a3.26,3.26,0,0,0,.458-1.647h9.057a3.26,3.26,0,0,0,.458,1.647Zm10.821,3.294H41.04l-1.647-1.647h1.788Zm-9.881-1.647,1.647,1.647H32.806l-1.647-1.647Zm3.975,1.647-1.647-1.647h1.788l1.647,1.647ZM40.7,43.448a2.47,2.47,0,1,1,2.47-2.47,2.47,2.47,0,0,1-2.47,2.47Zm4.458-6.587L43.51,35.215H45.3l1.647,1.647Zm-1.988-4.94a1.647,1.647,0,1,1,1.647,1.647A1.647,1.647,0,0,1,43.169,31.921Zm6.587,3.294v1.647h-.483l-1.647-1.647Zm0-6.587a1.647,1.647,0,0,1-1.647,1.647h-.458a3.265,3.265,0,0,0-5.672,0H32.008a3.265,3.265,0,0,0-5.672,0h-2.1V28.949a.278.278,0,0,1,.04-.133,4.192,4.192,0,0,1,1.482-1.348,4.073,4.073,0,0,1,1.944-.487h4.356a1.565,1.565,0,0,0,.175-.021l1.515.758a.823.823,0,0,0,.368.086h9.057a.828.828,0,0,0,.457-.138l2.26-1.508h3.87Z" transform="translate(0)"/>
  </g>
</svg>
