<svg id="Layer_2" xmlns="http://www.w3.org/2000/svg" width="80.083" height="28.284" viewBox="0 0 80.083 28.284">
  <g id="Group_4599" data-name="Group 4599">
    <g id="Group_4598" data-name="Group 4598" transform="translate(0.79 0.79)">
      <path id="Path_14340" data-name="Path 14340" d="M131.253,291.172h27.911v2.914H131.253Z" transform="translate(-111.708 -272.264)" fill="#494a47"/>
      <path id="Path_14341" data-name="Path 14341" d="M131.253,291.172h3.682v2.914h-3.682Z" transform="translate(-111.708 -272.264)" fill="#333331"/>
      <path id="Path_14342" data-name="Path 14342" d="M327.787,291.172H355.7v2.914H327.787Z" transform="translate(-277.196 -272.264)" fill="#494a47"/>
      <path id="Path_14343" data-name="Path 14343" d="M131.253,171.475h27.911v14.769H131.253Z" transform="translate(-111.708 -171.475)" fill="#ccccc5"/>
      <path id="Path_14344" data-name="Path 14344" d="M131.253,171.475h3.682v14.769h-3.682Z" transform="translate(-111.708 -171.475)" fill="#989898"/>
      <path id="Path_14345" data-name="Path 14345" d="M131.253,264.969h27.911v4.139H131.253Z" transform="translate(-111.708 -250.2)" fill="#ccccc5"/>
      <path id="Path_14346" data-name="Path 14346" d="M131.253,264.969h3.682v4.139h-3.682Z" transform="translate(-111.708 -250.2)" fill="#989898"/>
      <path id="Path_14347" data-name="Path 14347" d="M327.787,171.475H355.7v14.769H327.787Z" transform="translate(-277.196 -171.475)" fill="#ccccc5"/>
      <path id="Path_14348" data-name="Path 14348" d="M327.787,264.969H355.7v4.139H327.787Z" transform="translate(-277.196 -250.2)" fill="#ccccc5"/>
      <path id="Path_14349" data-name="Path 14349" d="M15.741,187.8l-1.564,5.513-4.553.267a2.229,2.229,0,0,0-2.1,2.225v9.714H27.07v-19.53H18.136a2.49,2.49,0,0,0-2.4,1.81Z" transform="translate(-7.525 -183.698)" fill="#f8d250"/>
      <path id="Path_14350" data-name="Path 14350" d="M13.306,193.58l4.553-.267,1.564-5.513a2.49,2.49,0,0,1,2.4-1.81H18.136a2.49,2.49,0,0,0-2.4,1.81l-1.564,5.513-4.553.267a2.229,2.229,0,0,0-2.1,2.225v9.714h3.682v-9.714A2.229,2.229,0,0,1,13.306,193.58Z" transform="translate(-7.525 -183.697)" fill="#f8ae46"/>
      <circle id="Ellipse_203" data-name="Ellipse 203" cx="4.882" cy="4.882" r="4.882" transform="translate(3.453 16.94)" fill="#494a47"/>
      <path id="Path_14351" data-name="Path 14351" d="M33.066,283.6a4.882,4.882,0,0,1,3.041-4.522,4.882,4.882,0,1,0,0,9.043A4.882,4.882,0,0,1,33.066,283.6Z" transform="translate(-25.931 -261.775)" fill="#333331"/>
      <circle id="Ellipse_204" data-name="Ellipse 204" cx="1.769" cy="1.769" r="1.769" transform="translate(6.566 20.053)" fill="#f8d250"/>
      <circle id="Ellipse_205" data-name="Ellipse 205" cx="4.882" cy="4.882" r="4.882" transform="translate(32.317 16.94)" fill="#494a47"/>
      <circle id="Ellipse_206" data-name="Ellipse 206" cx="1.769" cy="1.769" r="1.769" transform="translate(35.43 20.053)" fill="#f8d250"/>
      <circle id="Ellipse_207" data-name="Ellipse 207" cx="4.882" cy="4.882" r="4.882" transform="translate(52.743 16.94)" fill="#494a47"/>
      <circle id="Ellipse_208" data-name="Ellipse 208" cx="1.769" cy="1.769" r="1.769" transform="translate(55.856 20.053)" fill="#f8d250"/>
      <circle id="Ellipse_209" data-name="Ellipse 209" cx="4.882" cy="4.882" r="4.882" transform="translate(66.586 16.94)" fill="#494a47"/>
      <circle id="Ellipse_210" data-name="Ellipse 210" cx="1.769" cy="1.769" r="1.769" transform="translate(69.699 20.053)" fill="#f8d250"/>
      <path id="Path_14352" data-name="Path 14352" d="M56.516,198.563h-5.29l-1.5,5.287h8.346v-3.73A1.557,1.557,0,0,0,56.516,198.563Z" transform="translate(-43.06 -194.284)" fill="#68c0e0"/>
      <path id="Path_14353" data-name="Path 14353" d="M54.907,198.563H51.226l-1.5,5.287h3.682Z" transform="translate(-43.06 -194.284)" fill="#3282a1"/>
    </g>
    <path id="Path_14354" data-name="Path 14354" d="M2.523,189.087a.79.79,0,0,0,.79.79h2.72a5.671,5.671,0,0,0,11.231,0H34.9a5.671,5.671,0,0,0,11.231,0h9.195a5.671,5.671,0,0,0,11.231,0h2.612a5.671,5.671,0,0,0,11.231,0h1.418a.79.79,0,0,0,.79-.79V167.265a.79.79,0,0,0-.79-.79H53.9a.79.79,0,0,0-.79.79V188.3H51.559V167.265a.79.79,0,0,0-.79-.79H22.858a.79.79,0,0,0-.79.79v1.5H13.924a3.293,3.293,0,0,0-3.155,2.385l-.05.175h0l-1.361,4.8-3.993.234a3.022,3.022,0,0,0-2.842,3.014v9.714Zm58.415,4.092a4.092,4.092,0,1,1,4.092-4.092A4.1,4.1,0,0,1,60.938,193.179Zm8.228-4.882H66.554a5.621,5.621,0,0,0-.358-1.335h3.328A5.62,5.62,0,0,0,69.166,188.3Zm5.616,4.882a4.092,4.092,0,1,1,4.092-4.092A4.1,4.1,0,0,1,74.781,193.179Zm6.244-4.882H80.4a5.621,5.621,0,0,0-.358-1.335h.987ZM54.694,168.055H81.025v13.189H54.694Zm0,14.769H81.025v2.559H79.071a5.66,5.66,0,0,0-8.58,0H65.228a5.66,5.66,0,0,0-8.58,0H54.694v-2.559Zm0,4.139h.987a5.618,5.618,0,0,0-.358,1.335h-.629Zm-14.182,6.217a4.092,4.092,0,1,1,4.092-4.092A4.1,4.1,0,0,1,40.512,193.179Zm9.467-4.882H46.128a5.621,5.621,0,0,0-.358-1.335h4.21ZM23.648,168.055H49.979v13.189H23.648Zm0,14.769H49.979v2.559H44.8a5.66,5.66,0,0,0-8.58,0H23.648Zm0,4.139H35.255A5.619,5.619,0,0,0,34.9,188.3H23.648v-1.335Zm-12,6.217a4.092,4.092,0,1,1,4.092-4.092A4.1,4.1,0,0,1,11.648,193.179Zm.428-20.846h4.693a.768.768,0,0,1,.767.767v2.94H11.024ZM4.1,179.373a1.441,1.441,0,0,1,1.355-1.437l4.553-.267a.785.785,0,0,0,.229-.049h8.086a.79.79,0,0,0,.79-.79V173.1a2.349,2.349,0,0,0-2.346-2.346H12.825a1.7,1.7,0,0,1,1.1-.406h8.144V188.3h-4.8a5.671,5.671,0,0,0-11.231,0H4.1Z" transform="translate(-2.523 -166.475)"/>
    <path id="Path_14355" data-name="Path 14355" d="M46.649,293.421a2.559,2.559,0,1,0,2.559,2.559A2.562,2.562,0,0,0,46.649,293.421Zm0,3.538a.979.979,0,1,1,.979-.979A.98.98,0,0,1,46.649,296.959Z" transform="translate(-37.524 -273.368)"/>
    <path id="Path_14356" data-name="Path 14356" d="M229.371,293.421a2.559,2.559,0,1,0,2.559,2.559A2.562,2.562,0,0,0,229.371,293.421Zm0,3.538a.979.979,0,1,1,.979-.979A.98.98,0,0,1,229.371,296.959Z" transform="translate(-191.382 -273.368)"/>
    <path id="Path_14357" data-name="Path 14357" d="M358.675,293.421a2.559,2.559,0,1,0,2.559,2.559A2.562,2.562,0,0,0,358.675,293.421Zm0,3.538a.979.979,0,1,1,.979-.979A.98.98,0,0,1,358.675,296.959Z" transform="translate(-300.26 -273.368)"/>
    <path id="Path_14358" data-name="Path 14358" d="M446.308,293.421a2.559,2.559,0,1,0,2.559,2.559A2.562,2.562,0,0,0,446.308,293.421Zm0,3.538a.979.979,0,1,1,.979-.979A.98.98,0,0,1,446.308,296.959Z" transform="translate(-374.05 -273.368)"/>
  </g>
</svg>
