<svg xmlns="http://www.w3.org/2000/svg" width="9.929" height="17.475" viewBox="0 0 9.929 17.475">
  <g id="up-arrow_275176" transform="translate(-109.323 1)">
    <g id="Group_4190" data-name="Group 4190" transform="translate(109.323 -1)">
      <g id="Group_4189" data-name="Group 4189" transform="translate(0 0)">
        <path id="Path_12725" data-name="Path 12725" d="M119.191,5.53l-4.67-6.421a.3.3,0,0,0-.467,0l-4.67,6.421a.268.268,0,0,0-.029.292.307.307,0,0,0,.263.146h2.919v3.21a.276.276,0,0,0,.292.292h2.919a.276.276,0,0,0,.292-.292V5.968h2.919a.307.307,0,0,0,.263-.146A.268.268,0,0,0,119.191,5.53Zm-3.444-.146a.276.276,0,0,0-.292.292v3.21H113.12V5.676a.276.276,0,0,0-.292-.292H110.2l4.086-5.633,4.086,5.633h-2.627Z" transform="translate(-109.323 1)"/>
        <path id="Path_12726" data-name="Path 12726" d="M205.894,322.2h-1.751a.876.876,0,1,0,0,1.751h1.751a.876.876,0,1,0,0-1.751Zm0,1.167h-1.751a.292.292,0,1,1,0-.584h1.751a.292.292,0,1,1,0,.584Z" transform="translate(-200.054 -311.146)"/>
        <path id="Path_12727" data-name="Path 12727" d="M205.894,390.467h-1.751a.876.876,0,1,0,0,1.751h1.751a.876.876,0,1,0,0-1.751Zm0,1.167h-1.751a.292.292,0,1,1,0-.584h1.751a.292.292,0,1,1,0,.584Z" transform="translate(-200.054 -377.078)"/>
        <path id="Path_12728" data-name="Path 12728" d="M205.894,458.733h-1.751a.876.876,0,1,0,0,1.751h1.751a.876.876,0,1,0,0-1.751Zm0,1.167h-1.751a.292.292,0,1,1,0-.584h1.751a.292.292,0,1,1,0,.584Z" transform="translate(-200.054 -443.009)"/>
      </g>
    </g>
  </g>
</svg>
