<svg xmlns="http://www.w3.org/2000/svg" width="9.973" height="13.981" viewBox="0 0 9.973 13.981">
  <g id="businessman_506185" transform="translate(-73.385 0)">
    <path id="Path_12611" data-name="Path 12611" d="M138.663,3.8V3.488a.307.307,0,0,1,.153-.262,2.05,2.05,0,0,0,.731-.7c.109-.152.2-.159.5-.215a6.864,6.864,0,0,1,2.594.058c.3.067.2.4.949.854h0l0,0a.312.312,0,0,1,.148.259V3.8a.8.8,0,0,1,.68.354V3.229a3.223,3.223,0,1,0-6.446,0v.924A.749.749,0,0,1,138.663,3.8Z" transform="translate(-62.834 -0.006)" fill="#7c6359"/>
    <path id="Path_12612" data-name="Path 12612" d="M138.662,3.223a3.223,3.223,0,0,1,2.883-3.2,3.223,3.223,0,0,0-3.563,3.2v.924a.749.749,0,0,1,.68-.354V3.223Z" transform="translate(-62.833)" fill="#604c42"/>
    <path id="Path_12613" data-name="Path 12613" d="M83.358,284.836l-.583-3.25a.966.966,0,0,0-.69-.778l-1.908-.432-.715-.481v-.767a2.546,2.546,0,0,1-2.181,0v.767l-.715.481-1.908.432a.966.966,0,0,0-.69.778l-.583,3.25a.606.606,0,0,0,.659.651H82.7A.606.606,0,0,0,83.358,284.836Z" transform="translate(0 -271.506)" fill="#f2bf81"/>
    <path id="Path_12614" data-name="Path 12614" d="M77.985,279.343a2.525,2.525,0,0,1-.7-.216v.767l-.715.481-1.908.432a.966.966,0,0,0-.69.778l-.583,3.25a.606.606,0,0,0,.659.651h3.94v-6.143Z" transform="translate(0 -271.505)" fill="#dda568"/>
    <path id="Path_12615" data-name="Path 12615" d="M83.358,312.171l-.583-3.25a.966.966,0,0,0-.69-.778l-1.908-.432-.715-.481-.087,1.452-1-.7h0l-1,.7-.087-1.452-.715.481-1.908.432a.966.966,0,0,0-.69.778l-.583,3.25a.606.606,0,0,0,.659.651H82.7A.606.606,0,0,0,83.358,312.171Z" transform="translate(0 -298.841)" fill="#484868"/>
    <path id="Path_12616" data-name="Path 12616" d="M74.063,341.46l.617-3.438a1.02,1.02,0,0,1,.376-.642l-.4.09a.966.966,0,0,0-.69.778l-.583,3.25a.606.606,0,0,0,.659.651h.715A.641.641,0,0,1,74.063,341.46Z" transform="translate(0 -328.167)" fill="#3d3d54"/>
    <path id="Path_12617" data-name="Path 12617" d="M218.252,334.792h0l-1.06.643h0l.3,4.2h1.511l.3-4.2Z" transform="translate(-139.88 -325.65)" fill="#dadada"/>
    <g id="Group_4061" data-name="Group 4061" transform="translate(75.078 3.737)">
      <path id="Path_12618" data-name="Path 12618" d="M135.377,137.495a.708.708,0,0,0,.78.632v-1.263A.708.708,0,0,0,135.377,137.495Z" transform="translate(-135.377 -136.863)" fill="#f2bf81"/>
      <path id="Path_12619" data-name="Path 12619" d="M348.861,137.495a.708.708,0,0,1-.78.632v-1.263A.708.708,0,0,1,348.861,137.495Z" transform="translate(-342.273 -136.863)" fill="#f2bf81"/>
    </g>
    <path id="Path_12620" data-name="Path 12620" d="M167.985,81.294v-1.11a.308.308,0,0,0-.151-.261h0c-1.12-.743-.352-.781-1.389-.937a6.8,6.8,0,0,0-2.358.064.4.4,0,0,0-.3.175,2.072,2.072,0,0,1-.733.7.308.308,0,0,0-.151.261v1.11h0v.846a2.542,2.542,0,1,0,5.085,0v-.846Z" transform="translate(-87.071 -76.759)" fill="#ffddab"/>
    <path id="Path_12621" data-name="Path 12621" d="M163.6,102.11v-.846h0v-1.82c-.4.458-.7.414-.7.71v1.11h0v.846a2.543,2.543,0,0,0,2.895,2.518A2.543,2.543,0,0,1,163.6,102.11Z" transform="translate(-87.071 -96.729)" fill="#f9ce95"/>
    <g id="Group_4062" data-name="Group 4062" transform="translate(75.021 11.671)">
      <path id="Path_12622" data-name="Path 12622" d="M133.707,429.722v-2.1a.211.211,0,0,0-.422,0v2.1Z" transform="translate(-133.285 -427.412)" fill="#3d3d54"/>
      <path id="Path_12623" data-name="Path 12623" d="M363.7,429.722v-2.1a.211.211,0,1,0-.422,0v2.1Z" transform="translate(-356.993 -427.412)" fill="#3d3d54"/>
    </g>
    <path id="Path_12624" data-name="Path 12624" d="M229.841,375.4l-.443-3.789.026-.046h-.677l.026.046-.443,3.789Z" transform="translate(-150.714 -361.415)" fill="#c42323"/>
    <g id="Group_4063" data-name="Group 4063" transform="translate(76.294 8.389)">
      <path id="Path_12625" data-name="Path 12625" d="M284.863,310.363l-.483-.6h0c-.079-.1-.022-.137.006-.149l.52-.183a.147.147,0,0,0,.089-.159h0l-.27-1.557-.715-.481-.335,5.592,1.2-2.289A.157.157,0,0,0,284.863,310.363Z" transform="translate(-280.843 -307.229)" fill="#60607c"/>
      <path id="Path_12626" data-name="Path 12626" d="M180.054,310.363l.483-.6s.095-.107-.006-.15l-.52-.183a.147.147,0,0,1-.089-.159l.27-1.557.715-.481.335,5.592-1.2-2.289A.157.157,0,0,1,180.054,310.363Z" transform="translate(-179.919 -307.229)" fill="#60607c"/>
    </g>
    <g id="Group_4064" data-name="Group 4064" transform="translate(77.281 8.389)">
      <path id="Path_12627" data-name="Path 12627" d="M216.066,307.229l1.09.753-1,.7Z" transform="translate(-216.066 -307.229)" fill="#ededed"/>
      <path id="Path_12628" data-name="Path 12628" d="M257.1,307.229l-1.09.753,1,.7Z" transform="translate(-254.915 -307.229)" fill="#ededed"/>
    </g>
    <path id="Path_12629" data-name="Path 12629" d="M229.368,371.561h-.621l.026.046-.443,3.789h.649l.42-3.789Z" transform="translate(-150.714 -361.415)" fill="#ad1e1e"/>
    <path id="Path_12630" data-name="Path 12630" d="M232.9,334.792l-.649.452.336.6h.626l.336-.6Z" transform="translate(-154.53 -325.65)" fill="#d22e2e"/>
    <path id="Path_12631" data-name="Path 12631" d="M232.9,334.792l-.649.452.336.6h.626l.336-.6Z" transform="translate(-154.53 -325.65)" fill="#e84646"/>
    <path id="Path_12632" data-name="Path 12632" d="M232.7,339.886l-.449.313.336.6h.625Z" transform="translate(-154.53 -330.605)" fill="#d22e2e"/>
  </g>
</svg>
