<svg xmlns="http://www.w3.org/2000/svg" width="18.522" height="16.202" viewBox="0 0 18.522 16.202">
  <g id="portfolio_9581642" transform="translate(0 -32.065)">
    <g id="Group_4300" data-name="Group 4300" transform="translate(0.271 32.336)">
      <path id="Path_12973" data-name="Path 12973" d="M24.319,119.726H8.66a1.16,1.16,0,0,0-1.16,1.16v6.96a1.734,1.734,0,0,0,.58,1.294v2.186a1.16,1.16,0,0,0,1.16,1.16h14.5a1.16,1.16,0,0,0,1.16-1.16V129.14a1.734,1.734,0,0,0,.58-1.294v-6.96a1.16,1.16,0,0,0-1.16-1.16Z" transform="translate(-7.5 -116.826)" fill="#e29a6c"/>
      <path id="Path_12974" data-name="Path 12974" d="M30.847,120.859v8.058a.87.87,0,0,1-.87.87H13.994a1.863,1.863,0,0,0,.345.445v.446H30.288v1.74a.29.29,0,0,1-.29.29H14.38a1.157,1.157,0,0,0,1.119.87H30a1.16,1.16,0,0,0,1.16-1.16v-2.186a1.734,1.734,0,0,0,.58-1.294v-6.96A1.176,1.176,0,0,0,30.847,120.859Z" transform="translate(-13.759 -117.918)" fill="#d48c64"/>
      <g id="Group_4299" data-name="Group 4299" transform="translate(3.19 4.35)">
        <path id="Path_12975" data-name="Path 12975" d="M384.258,360.21v1.16a.58.58,0,0,0,1.16,0v-1.16Z" transform="translate(-373.819 -352.96)" fill="#ffe09c"/>
        <path id="Path_12976" data-name="Path 12976" d="M186.441,163.445l-.323-.224a2.266,2.266,0,0,0,0-1.028l.323-.224a.294.294,0,0,0,.1-.354,2.791,2.791,0,0,0-.4-.688.294.294,0,0,0-.357-.089l-.357.168a2.314,2.314,0,0,0-.889-.516l-.032-.39a.294.294,0,0,0-.255-.265,2.793,2.793,0,0,0-.795,0,.294.294,0,0,0-.255.265l-.032.39a2.315,2.315,0,0,0-.889.516l-.357-.168a.294.294,0,0,0-.357.089,2.791,2.791,0,0,0-.4.688.294.294,0,0,0,.1.354l.323.224a2.266,2.266,0,0,0,0,1.028l-.323.224a.294.294,0,0,0-.1.354,2.791,2.791,0,0,0,.4.688.294.294,0,0,0,.357.089l.357-.168a2.315,2.315,0,0,0,.889.516l.032.39a.294.294,0,0,0,.255.265,2.793,2.793,0,0,0,.795,0,.294.294,0,0,0,.255-.265l.032-.39a2.315,2.315,0,0,0,.889-.516l.357.168a.294.294,0,0,0,.357-.089,2.793,2.793,0,0,0,.4-.688A.294.294,0,0,0,186.441,163.445Zm-2.584.422a1.16,1.16,0,1,1,1.16-1.16A1.16,1.16,0,0,1,183.857,163.867Z" transform="translate(-178.058 -159.807)" fill="#ffe09c"/>
        <path id="Path_12977" data-name="Path 12977" d="M95.677,360.21v1.16a.58.58,0,1,0,1.16,0v-1.16Z" transform="translate(-95.677 -352.96)" fill="#ffe09c"/>
      </g>
      <path id="Path_12978" data-name="Path 12978" d="M167.823,40.725h6.38v-.29a.87.87,0,0,0-.87-.87h-4.64a.87.87,0,0,0-.87.87Z" transform="translate(-162.023 -39.565)" fill="#d48c64"/>
      <path id="Path_12979" data-name="Path 12979" d="M188.841,197.545a2.831,2.831,0,0,0,.174-.358.294.294,0,0,0-.1-.354l-.323-.224a2.266,2.266,0,0,0,0-1.028l.323-.224a.294.294,0,0,0,.1-.354,2.831,2.831,0,0,0-.174-.358c-.04-.07-.088-.132-.133-.2l-.607.414a.869.869,0,0,0-.379.9l-.245.461a1.15,1.15,0,0,1-1.831.8l-.281.121a.891.891,0,0,0-.987-.137l-.663.32c.033.071.063.144.1.213a2.828,2.828,0,0,0,.223.33.294.294,0,0,0,.357.089l.357-.168a2.314,2.314,0,0,0,.889.516l.032.39a.294.294,0,0,0,.256.265,2.793,2.793,0,0,0,.794,0,.294.294,0,0,0,.256-.265l.032-.39a2.315,2.315,0,0,0,.889-.516l.357.168a.294.294,0,0,0,.357-.089A2.824,2.824,0,0,0,188.841,197.545Z" transform="translate(-177.34 -188.845)" fill="#ffd18d"/>
      <path id="Path_12980" data-name="Path 12980" d="M172.463,39.565h-3.77a.87.87,0,0,0-.87.87v.29h5.51v-.29A.87.87,0,0,0,172.463,39.565Z" transform="translate(-162.023 -39.565)" fill="#e29a6c"/>
    </g>
    <g id="Group_4301" data-name="Group 4301" transform="translate(0 32.065)">
      <path id="Path_12981" data-name="Path 12981" d="M18.522,36.4a1.433,1.433,0,0,0-1.431-1.431H12.722V33.206a1.143,1.143,0,0,0-1.141-1.141H6.941A1.143,1.143,0,0,0,5.8,33.206v1.759H1.431A1.433,1.433,0,0,0,0,36.4v6.96a2,2,0,0,0,.58,1.411v2.069a1.433,1.433,0,0,0,1.431,1.431h14.5a1.433,1.433,0,0,0,1.431-1.431V44.767a2,2,0,0,0,.58-1.411Zm-3.732,8.7a.309.309,0,1,1-.617,0v-.889h.617Zm-9.9-.271v-.617h8.737v.617Zm-1.16-.617H4.35V45.1a.309.309,0,1,1-.617,0Zm-1.721-.543a.309.309,0,0,1-.309-.309V35.507H16.819v7.848a.309.309,0,0,1-.309.309H2.011ZM6.342,33.206a.6.6,0,0,1,.6-.6h4.64a.6.6,0,0,1,.6.6v.019H6.342Zm0,.561h5.837v1.2H6.342ZM16.51,47.724H2.011a.89.89,0,0,1-.889-.889V45.159a2,2,0,0,0,.889.208H2.3a.271.271,0,0,0,0-.543h-.29A1.47,1.47,0,0,1,.543,43.356V36.4a.89.89,0,0,1,.617-.846v7.806a.852.852,0,0,0,.851.851H3.19V45.1a.851.851,0,0,0,1.658.271h8.826a.851.851,0,0,0,1.613,0H16.51a2,2,0,0,0,.889-.208v1.676a.89.89,0,0,1-.889.889Zm1.469-4.368a1.47,1.47,0,0,1-1.469,1.469H15.332v-.617H16.51a.852.852,0,0,0,.851-.851V35.55a.89.89,0,0,1,.617.846v6.96Z" transform="translate(0 -32.065)"/>
      <path id="Path_12982" data-name="Path 12982" d="M179.359,156l-.178-.124a2.5,2.5,0,0,0,0-.783l.178-.124a.564.564,0,0,0,.2-.678,3.064,3.064,0,0,0-.435-.754.563.563,0,0,0-.686-.167l-.2.093a2.612,2.612,0,0,0-.677-.393l-.018-.215a.564.564,0,0,0-.488-.511,3.08,3.08,0,0,0-.871,0,.564.564,0,0,0-.488.511l-.018.215a2.612,2.612,0,0,0-.677.393l-.2-.093a.564.564,0,0,0-.686.167,3.065,3.065,0,0,0-.435.754.564.564,0,0,0,.2.678l.178.124a2.5,2.5,0,0,0,0,.783l-.178.124a.564.564,0,0,0-.2.678,3.064,3.064,0,0,0,.435.754.564.564,0,0,0,.686.167l.2-.093a2.613,2.613,0,0,0,.677.393l.018.215a.564.564,0,0,0,.488.511,3.066,3.066,0,0,0,.871,0,.564.564,0,0,0,.488-.511l.018-.215a2.612,2.612,0,0,0,.677-.393l.2.093a.564.564,0,0,0,.686-.167,3.065,3.065,0,0,0,.435-.754A.564.564,0,0,0,179.359,156Zm-.742-.969a1.994,1.994,0,0,1,0,.908.271.271,0,0,0,.11.283l.323.224a.025.025,0,0,1,0,.029,2.523,2.523,0,0,1-.359.622.025.025,0,0,1-.028.011l-.357-.168a.271.271,0,0,0-.3.046,2.029,2.029,0,0,1-.785.456.271.271,0,0,0-.19.237l-.032.39c0,.011-.013.017-.023.019a2.534,2.534,0,0,1-.718,0c-.011,0-.022-.008-.023-.019l-.033-.39a.271.271,0,0,0-.19-.237,2.03,2.03,0,0,1-.785-.456.271.271,0,0,0-.3-.046l-.357.168a.025.025,0,0,1-.028-.011,2.522,2.522,0,0,1-.359-.622.025.025,0,0,1,0-.03l.323-.224a.271.271,0,0,0,.11-.283,1.995,1.995,0,0,1,0-.908.271.271,0,0,0-.11-.283l-.323-.224a.025.025,0,0,1,0-.029,2.521,2.521,0,0,1,.359-.622.025.025,0,0,1,.028-.011l.357.168a.271.271,0,0,0,.3-.046,2.029,2.029,0,0,1,.785-.456.271.271,0,0,0,.19-.237l.032-.39c0-.011.013-.017.023-.019a2.533,2.533,0,0,1,.718,0c.011,0,.022.008.023.019l.032.39a.271.271,0,0,0,.19.237,2.029,2.029,0,0,1,.785.456.271.271,0,0,0,.3.046l.357-.168a.025.025,0,0,1,.028.011,2.522,2.522,0,0,1,.359.622.025.025,0,0,1,0,.03l-.323.224A.271.271,0,0,0,178.617,155.028Z" transform="translate(-167.36 -147.961)"/>
      <path id="Path_12983" data-name="Path 12983" d="M218.923,201.282a.271.271,0,0,0-.2.33.887.887,0,1,1-.638-.638.271.271,0,0,0,.135-.526,1.43,1.43,0,1,0,1.028,1.029.271.271,0,0,0-.33-.2Z" transform="translate(-208.606 -194.313)"/>
    </g>
  </g>
</svg>
