<svg xmlns="http://www.w3.org/2000/svg" width="15.651" height="13.198" viewBox="0 0 15.651 13.198">
  <g id="goodbye_5860835" transform="translate(-2.67 -21.404) rotate(-7)">
    <g id="Group_4122" data-name="Group 4122" transform="translate(0.954 23.532)">
      <path id="Path_12670" data-name="Path 12670" d="M34.432,86.232l-.905.905,3.356,3.356,1.227-1.227,1.466-.367,4.673-4.673a.779.779,0,0,0-1.1-1.1l.489-.489a.779.779,0,0,0-1.1-1.1l.68-.68a.779.779,0,0,0-1.1-1.1l-.682.682a.779.779,0,1,0-1.1-1.1l-3.85,3.85.131-2.2a.87.87,0,0,0-.713-.869l-.575-.109-1.1,3.612Z" transform="translate(-33.527 -79.105)" fill="#ffdaaa" fill-rule="evenodd"/>
      <path id="Path_12671" data-name="Path 12671" d="M34.432,117.064l-.905.905,3.356,3.356.453-.453-2.9-2.9.661-.661-.218-2.785,1.086-3.561-.057-.013-.575-.109-1.1,3.612Z" transform="translate(-33.527 -109.937)" fill="#ffb680" fill-rule="evenodd"/>
    </g>
    <g id="Group_4123" data-name="Group 4123" transform="translate(0 21.905)">
      <path id="Path_12673" data-name="Path 12673" d="M0,0H.427V.427H0Z" transform="translate(2.329 11.336) rotate(-45)"/>
      <path id="Path_12674" data-name="Path 12674" d="M23.524,109.593l.824-.824-.209-2.67,1.034-3.391.387.073a.656.656,0,0,1,.54.646l-.137,2.293.671.671a1.5,1.5,0,0,1,0,2.112l-.6.6.3.3.6-.6a1.922,1.922,0,0,0,0-2.715l-.453-.453,2.6-2.6-.3-.3-2.353,2.353.1-1.636a1.08,1.08,0,0,0-.886-1.091l-.763-.145-1.169,3.834.2,2.554-.986.986,1.376,1.376.3-.3Z" transform="translate(-22.269 -99.934)"/>
      <path id="Path_12675" data-name="Path 12675" d="M112.315,76.391a.988.988,0,0,0-.823-.977.991.991,0,0,0-.6-1.59l.107-.107a.992.992,0,0,0-1.4-1.4l-.107.107a.988.988,0,0,0-.975-.815h0a.985.985,0,0,0-.7.29l-.8.8.3.3.8-.8a.565.565,0,0,1,.8.8l-2.871,2.871.3.3,3.553-3.553a.565.565,0,1,1,.8.8l-3.553,3.553.3.3,2.871-2.871a.565.565,0,0,1,.8.8l-2.871,2.871.3.3,2.38-2.38a.565.565,0,0,1,.8.8l-4.631,4.631-1.466.367-1.117,1.118-1.075-1.075-.3.3,1.376,1.376,1.336-1.336,1.466-.367,4.715-4.715A.985.985,0,0,0,112.315,76.391Z" transform="translate(-100.198 -70.192)"/>
      <path id="Path_12676" data-name="Path 12676" d="M416.847,269.4a2.349,2.349,0,0,1-2.347,2.347v.427a2.776,2.776,0,0,0,2.773-2.773Z" transform="translate(-402.71 -262.362)"/>
      <path id="Path_12677" data-name="Path 12677" d="M414.5,271.038a1.637,1.637,0,0,0,1.636-1.636h-.427a1.21,1.21,0,0,1-1.209,1.209Z" transform="translate(-402.71 -262.362)"/>
      <path id="Path_12678" data-name="Path 12678" d="M2.773,22.332V21.9A2.776,2.776,0,0,0,0,24.678H.427A2.349,2.349,0,0,1,2.773,22.332Z" transform="translate(0 -21.905)"/>
      <path id="Path_12679" data-name="Path 12679" d="M40.427,63.541a1.21,1.21,0,0,1,1.209-1.209V61.9A1.637,1.637,0,0,0,40,63.541Z" transform="translate(-38.862 -60.767)"/>
    </g>
  </g>
</svg>
