<svg width="12" height="12" viewBox="0 0 12 12" fill="none" xmlns="http://www.w3.org/2000/svg">
<g clip-path="url(#clip0_3527_8567)">
<path d="M0.278772 12C0.211389 12 0.145838 11.9734 0.097223 11.9242C0.0331361 11.8594 0.00841687 11.7653 0.0324952 11.6773L0.812616 8.82852C0.326929 7.95026 0.0708558 6.95673 0.071222 5.94818C0.0725953 2.6683 2.74172 0 6.02133 0C7.61205 0.00064087 9.10674 0.62027 10.2302 1.74454C11.3534 2.8689 11.9718 4.36349 11.9713 5.95294C11.9699 9.23291 9.30074 11.9014 6.02133 11.9014C6.02133 11.9014 6.01885 11.9014 6.01876 11.9014C5.06085 11.901 4.11117 11.6676 3.26559 11.2254L0.3435 11.9917C0.322077 11.9973 0.300287 12 0.278772 12Z" fill="#E5E5E5"/>
<path d="M0.278809 11.7432L1.08667 8.79312C0.588348 7.92969 0.326233 6.95026 0.326599 5.94684C0.327881 2.80777 2.88239 0.253906 6.02136 0.253906C7.54462 0.254547 8.9744 0.847443 10.0496 1.92355C11.1247 2.99966 11.7166 4.43008 11.716 5.95142C11.7147 9.09039 9.15979 11.6446 6.02136 11.6446C6.02145 11.6446 6.02118 11.6446 6.02136 11.6446H6.01889C5.06583 11.6443 4.12943 11.4052 3.29767 10.9516L0.278809 11.7432ZM3.43747 9.92096L3.61041 10.0234C4.33698 10.4546 5.17001 10.6827 6.01953 10.6831H6.02136C8.63007 10.6831 10.7534 8.56021 10.7545 5.95105C10.7549 4.68661 10.2631 3.49762 9.36945 2.60324C8.47571 1.70886 7.28745 1.21603 6.0231 1.21548C3.41229 1.21548 1.28909 3.33813 1.28809 5.9472C1.28772 6.84131 1.53784 7.71198 2.01172 8.46545L2.12433 8.64453L1.64606 10.3906L3.43747 9.92096Z" fill="white"/>
<path d="M0.476562 11.5447L1.2565 8.69662C0.775299 7.86313 0.522339 6.91748 0.522614 5.94894C0.523804 2.91855 2.98996 0.453125 6.02008 0.453125C7.49078 0.453766 8.87112 1.02615 9.90887 2.065C10.9469 3.10385 11.5182 4.48474 11.5176 5.95325C11.5164 8.98373 9.05011 11.4494 6.02035 11.4494C6.02045 11.4494 6.02008 11.4494 6.02035 11.4494H6.01788C5.09787 11.4491 4.19379 11.2182 3.39087 10.7805L0.476562 11.5447Z" fill="#64B161"/>
<path d="M0.278809 11.7432L1.08667 8.79312C0.588348 7.92969 0.326233 6.95026 0.326599 5.94684C0.327881 2.80777 2.88239 0.253906 6.02136 0.253906C7.54462 0.254547 8.9744 0.847443 10.0496 1.92355C11.1247 2.99966 11.7166 4.43008 11.716 5.95142C11.7147 9.09039 9.15979 11.6446 6.02136 11.6446C6.02145 11.6446 6.02118 11.6446 6.02136 11.6446H6.01889C5.06583 11.6443 4.12943 11.4052 3.29767 10.9516L0.278809 11.7432ZM3.43747 9.92096L3.61041 10.0234C4.33698 10.4546 5.17001 10.6827 6.01953 10.6831H6.02136C8.63007 10.6831 10.7534 8.56021 10.7545 5.95105C10.7549 4.68661 10.2631 3.49762 9.36945 2.60324C8.47571 1.70886 7.28745 1.21603 6.0231 1.21548C3.41229 1.21548 1.28909 3.33813 1.28809 5.9472C1.28772 6.84131 1.53784 7.71198 2.01172 8.46545L2.12433 8.64453L1.64606 10.3906L3.43747 9.92096Z" fill="white"/>
<path fill-rule="evenodd" clip-rule="evenodd" d="M4.59787 3.56561C4.4913 3.32868 4.37906 3.32392 4.27762 3.3198C4.19467 3.31622 4.09973 3.31641 4.00497 3.31641C3.91013 3.31641 3.75595 3.35211 3.62558 3.49448C3.49512 3.63684 3.12744 3.98108 3.12744 4.68118C3.12744 5.38138 3.63739 6.05786 3.70853 6.15289C3.77966 6.24784 4.6929 7.73044 6.13916 8.30081C7.34116 8.77487 7.58569 8.68057 7.84662 8.65686C8.10754 8.63315 8.68845 8.31262 8.80701 7.98038C8.92566 7.64813 8.92566 7.36341 8.89005 7.3038C8.85443 7.24457 8.75958 7.20896 8.61731 7.13782C8.47504 7.06668 7.77548 6.72235 7.64502 6.67493C7.51456 6.62741 7.41971 6.60379 7.32486 6.74625C7.22992 6.88852 6.95746 7.20896 6.87442 7.3038C6.79138 7.39893 6.70834 7.41083 6.56607 7.3396C6.4238 7.26828 5.96548 7.11814 5.42184 6.63336C4.99887 6.25626 4.71323 5.79044 4.63019 5.64798C4.54724 5.50571 4.62881 5.4354 4.69272 5.35767C4.8078 5.21768 5.00089 4.96601 5.04831 4.87116C5.09573 4.77612 5.07202 4.69309 5.0365 4.62186C5.00089 4.55072 4.7243 3.84705 4.59787 3.56561Z" fill="white"/>
</g>
<defs>
<clipPath id="clip0_3527_8567">
<rect width="12" height="12" fill="white"/>
</clipPath>
</defs>
</svg>
