<svg id="Layer_2" xmlns="http://www.w3.org/2000/svg" width="48.335" height="48.335" viewBox="0 0 48.335 48.335">
  <g id="Group_4606" data-name="Group 4606">
    <g id="Group_4605" data-name="Group 4605">
      <path id="Path_14359" data-name="Path 14359" d="M7.528,396.97l3.252.669v-4.312l-3.256,1.325Z" transform="translate(-7.047 -356.066)" fill="#494a47"/>
      <path id="Path_14360" data-name="Path 14360" d="M47.2,418.215l-2.025-.276-.94,1.317H34.893l1.468,4.527a2.275,2.275,0,0,0,2.164,1.573H40.7a2.757,2.757,0,0,0,2.248-1.162Z" transform="translate(-31.807 -378.332)" fill="#f4ce50"/>
      <g id="Group_4601" data-name="Group 4601" transform="translate(3.086 40.924)">
        <path id="Path_14361" data-name="Path 14361" d="M38.545,436.276l-1.468-4.527H34.893l1.468,4.527a2.275,2.275,0,0,0,2.164,1.573h2.181A2.275,2.275,0,0,1,38.545,436.276Z" transform="translate(-34.893 -431.749)" fill="#f8ae46"/>
      </g>
      <path id="Path_14362" data-name="Path 14362" d="M39.558,7.523l-4.215,3.549-.45,30.476h2.22l-.248,6.423h1.766l3.82-35.612Z" transform="translate(-31.807 -7.046)" fill="#f8d250"/>
      <path id="Path_14363" data-name="Path 14363" d="M37.112,41.545l.45-30.476L40.3,8.764l-.743-1.241-4.215,3.549-.45,30.476h2.22l-.248,6.423h1.766l.689-6.425Z" transform="translate(-31.807 -7.046)" fill="#f8ae46"/>
      <path id="Path_14364" data-name="Path 14364" d="M88.16,53.7,84.387,42.115a4.342,4.342,0,0,0-3.5-2.952l-17.12-2.5A1.712,1.712,0,0,0,63.051,40l14.421,4.107,2.077,12.8Z" transform="translate(-56.155 -33.391)" fill="#f8d250"/>
      <path id="Path_14365" data-name="Path 14365" d="M79.694,44.309,65.273,40.2a1.712,1.712,0,0,1,.065-3.31l-1.571-.229A1.712,1.712,0,0,0,63.051,40l14.421,4.107,2.077,12.8,2.065-.77Z" transform="translate(-56.155 -33.391)" fill="#f8ae46"/>
      <g id="Group_4603" data-name="Group 4603" transform="translate(16.151 14.852)">
        <path id="Path_14366" data-name="Path 14366" d="M198.95,415.647H176.605a4.681,4.681,0,1,1,0-9.362H198.95a4.681,4.681,0,1,1,0,9.362Z" transform="translate(-171.924 -382.641)" fill="#494a47"/>
        <path id="Path_14367" data-name="Path 14367" d="M174.146,410.966a4.681,4.681,0,0,1,4.681-4.681h-2.222a4.681,4.681,0,1,0,0,9.362h2.222A4.681,4.681,0,0,1,174.146,410.966Z" transform="translate(-171.924 -382.641)" fill="#333331"/>
        <circle id="Ellipse_211" data-name="Ellipse 211" cx="2.452" cy="2.452" r="2.452" transform="translate(2.492 25.874)" fill="#c9c9c2"/>
        <circle id="Ellipse_212" data-name="Ellipse 212" cx="2.452" cy="2.452" r="2.452" transform="translate(24.311 25.874)" fill="#c9c9c2"/>
        <path id="Path_14368" data-name="Path 14368" d="M211.425,254.48v7.6H198.064v3.8h29.215V257.5a3.021,3.021,0,0,0-3.021-3.021Z" transform="translate(-195.572 -245.309)" fill="#f8d250"/>
        <g id="Group_4602" data-name="Group 4602" transform="translate(2.492 16.774)">
          <path id="Path_14369" data-name="Path 14369" d="M198.064,334.227h2.222v3.8h-2.222Z" transform="translate(-198.064 -334.227)" fill="#f8ae46"/>
        </g>
        <path id="Path_14370" data-name="Path 14370" d="M211.425,175.068H198.064V162.776l5.524-4.482h7.837Z" transform="translate(-195.572 -158.294)" fill="#494a47"/>
        <path id="Path_14371" data-name="Path 14371" d="M205.81,158.294h-2.222l-5.524,4.482v12.292h2.222V162.776Z" transform="translate(-195.572 -158.294)" fill="#333331"/>
        <path id="Path_14372" data-name="Path 14372" d="M226.79,190.8h-9.741v-5.4l4.027-3.267h5.714Z" transform="translate(-212.747 -179.856)" fill="#68c0e0"/>
        <path id="Path_14373" data-name="Path 14373" d="M258.6,374.074h15.178v3.071H258.6Z" transform="translate(-250.34 -353.501)" fill="#494a47"/>
        <path id="Path_14374" data-name="Path 14374" d="M377.474,257.766h-7.239a1.119,1.119,0,0,1-1.119-1.119V254.48h9.476v2.168A1.119,1.119,0,0,1,377.474,257.766Z" transform="translate(-350.315 -245.309)" fill="#dd5f4f"/>
      </g>
      <path id="Path_14375" data-name="Path 14375" d="M202.918,27.859l3.537.517-.72-3.067-2.351-.252Z" transform="translate(-183.812 -22.909)" fill="#494a47"/>
      <g id="Group_4604" data-name="Group 4604">
        <path id="Path_14376" data-name="Path 14376" d="M196.016,424.665h-.023a2.929,2.929,0,1,0,0,5.857h21.818a2.929,2.929,0,1,0,0-5.857h-21.8Zm-2,2.928a1.975,1.975,0,1,1,1.975,1.975A1.977,1.977,0,0,1,194.017,427.593Zm4.136-1.975h17.5a2.922,2.922,0,0,0,0,3.95h-17.5a2.923,2.923,0,0,0,0-3.95Zm21.633,1.975a1.975,1.975,0,1,1-1.975-1.975A1.977,1.977,0,0,1,219.786,427.593Z" transform="translate(-174.897 -384.416)"/>
        <path id="Path_14377" data-name="Path 14377" d="M50.382,38.425a.477.477,0,0,0,.477-.477V29.568a3.5,3.5,0,0,0-3.5-3.5H35.005V17.375a.477.477,0,0,0-.477-.477H33.1L31.21,11.1a4.79,4.79,0,0,0-3.885-3.276l-1.767-.258-.645-2.751A.477.477,0,0,0,24.5,4.45L22.148,4.2a.477.477,0,0,0-.521.4l-.107.646L11.3,3.791l-.62-1.036a.477.477,0,0,0-.716-.12L5.754,6.184a.477.477,0,0,0-.17.358L5.133,37.017a.477.477,0,0,0,.477.484h.17v1.962l-2.959,1.2a.477.477,0,0,0-.3.442l0,2.318a.477.477,0,0,0,.381.466l2.513.516,1.2,3.711a2.745,2.745,0,0,0,2.618,1.9h2.176a3.238,3.238,0,0,0,2.637-1.362l4.253-5.98a.477.477,0,0,0-.324-.749l-2.024-.276a.477.477,0,0,0-.452.2l-.8,1.117H9.879l3.457-32.225,10.083,2.871.831,5.125-3.383,2.745a.477.477,0,0,0-.176.37V37.949a.477.477,0,0,0,.477.477h5.3v2.118H23.356a5.158,5.158,0,1,0,0,10.315H45.7a5.158,5.158,0,1,0,0-10.315H42.595V38.425Zm-12.429-11.4h8.523v1.691a.643.643,0,0,1-.642.642H38.6a.643.643,0,0,1-.642-.642V27.023ZM24.061,5.362l.482,2.056-2.363-.345.313-1.879Zm-2.7.818-.126.755L12.414,5.646l-.48-.8ZM7.335,37.5l-.211,5.47H6.734V37.5ZM3.478,41.43l2.3-.937v2.478H5.61a.476.476,0,0,0-.471.408l-1.658-.341Zm11.477,2.495a.477.477,0,0,0,.388-.2l.772-1.082.958.131-3.8,5.338a2.283,2.283,0,0,1-1.859.961H9.242a1.794,1.794,0,0,1-1.711-1.244l-1.266-3.9h8.689ZM8.92,42.971H8.077l.229-5.928a.477.477,0,0,0-.476-.5H6.094l.44-29.774,3.62-3.048L11.2,5.468,10.2,5.323a2.188,2.188,0,0,0-.916,4.27l3.117.887ZM24.311,13.165a.477.477,0,0,0-.34-.382L9.55,8.676a1.235,1.235,0,0,1,.517-2.41L22.516,8.085l2.583.377h0l2.088.305A3.842,3.842,0,0,1,30.3,11.4L32.1,16.9h-5.4a.477.477,0,0,0-.3.106L25.1,18.05Zm-2.667,8.919,5.216-4.232h7.192V33.673H21.644Zm0,12.542H34.529a.477.477,0,0,0,.477-.477V27.023H37v1.691a1.6,1.6,0,0,0,1.6,1.6h7.239a1.6,1.6,0,0,0,1.6-1.6V27.025a2.547,2.547,0,0,1,2.476,2.543v7.9H21.644V34.626ZM49.905,45.7a4.209,4.209,0,0,1-4.2,4.2H23.356a4.2,4.2,0,1,1,0-8.409H45.7A4.209,4.209,0,0,1,49.905,45.7Zm-8.264-5.158H27.416V38.425H41.641v2.118Z" transform="translate(-2.524 -2.524)"/>
        <path id="Path_14378" data-name="Path 14378" d="M222.267,177.129h-5.714a.477.477,0,0,0-.3.106l-4.027,3.267a.477.477,0,0,0-.176.37v5.4a.477.477,0,0,0,.477.477h9.741a.477.477,0,0,0,.477-.477v-8.666A.477.477,0,0,0,222.267,177.129ZM213,181.1l3.72-3.018h2.36V185.8H213Zm8.788,4.695h-1.754v-7.713h1.754Z" transform="translate(-192.072 -160.481)"/>
        <path id="Path_14379" data-name="Path 14379" d="M397.13,311.487a.477.477,0,0,0,.477-.477v-1.985a.477.477,0,0,0-.954,0v1.985A.477.477,0,0,0,397.13,311.487Z" transform="translate(-359.075 -279.371)"/>
        <path id="Path_14380" data-name="Path 14380" d="M418.13,311.487a.477.477,0,0,0,.477-.477v-1.985a.477.477,0,1,0-.953,0v1.985A.477.477,0,0,0,418.13,311.487Z" transform="translate(-378.073 -279.371)"/>
        <path id="Path_14381" data-name="Path 14381" d="M439.13,311.487a.477.477,0,0,0,.477-.477v-1.985a.477.477,0,0,0-.953,0v1.985A.477.477,0,0,0,439.13,311.487Z" transform="translate(-397.071 -279.371)"/>
      </g>
    </g>
    <ellipse id="Ellipse_213" data-name="Ellipse 213" cx="0.48" cy="0.48" rx="0.48" ry="0.48" transform="matrix(0.099, -0.995, 0.995, 0.099, 4.202, 33.055)"/>
    <circle id="Ellipse_214" data-name="Ellipse 214" cx="0.48" cy="0.48" r="0.48" transform="translate(1.793 39.127)"/>
    <path id="Path_14382" data-name="Path 14382" d="M52.6,443.809a.48.48,0,1,0-.48-.48A.48.48,0,0,0,52.6,443.809Z" transform="translate(-47.393 -400.867)"/>
    <path id="Path_14383" data-name="Path 14383" d="M77.545,50.275a.48.48,0,1,0,.48-.48A.48.48,0,0,0,77.545,50.275Z" transform="translate(-70.392 -45.288)"/>
    <path id="Path_14384" data-name="Path 14384" d="M447.585,450.826a.48.48,0,1,0,.48-.48A.48.48,0,0,0,447.585,450.826Z" transform="translate(-405.151 -407.649)"/>
    <circle id="Ellipse_215" data-name="Ellipse 215" cx="0.48" cy="0.48" r="0.48" transform="translate(20.615 42.697)"/>
    <circle id="Ellipse_216" data-name="Ellipse 216" cx="0.48" cy="0.48" r="0.48" transform="translate(31.525 42.697)"/>
    <circle id="Ellipse_217" data-name="Ellipse 217" cx="0.48" cy="0.48" r="0.48" transform="translate(34.48 42.697)"/>
    <circle id="Ellipse_218" data-name="Ellipse 218" cx="0.48" cy="0.48" r="0.48" transform="translate(37.436 42.697)"/>
    <circle id="Ellipse_219" data-name="Ellipse 219" cx="0.48" cy="0.48" r="0.48" transform="translate(28.569 42.697)"/>
    <circle id="Ellipse_220" data-name="Ellipse 220" cx="0.48" cy="0.48" r="0.48" transform="translate(25.613 42.697)"/>
    <circle id="Ellipse_221" data-name="Ellipse 221" cx="0.48" cy="0.48" r="0.48" transform="translate(31.525 36.481)"/>
    <circle id="Ellipse_222" data-name="Ellipse 222" cx="0.48" cy="0.48" r="0.48" transform="translate(28.569 36.481)"/>
    <circle id="Ellipse_223" data-name="Ellipse 223" cx="0.48" cy="0.48" r="0.48" transform="translate(34.48 36.481)"/>
  </g>
</svg>
