<svg id="wireframe_1931944" xmlns="http://www.w3.org/2000/svg" width="9.16" height="9.16" viewBox="0 0 9.16 9.16">
  <path id="Path_12968" data-name="Path 12968" d="M.668,2.29H8.492a.669.669,0,0,0,.668-.668V.668A.669.669,0,0,0,8.492,0H.668A.669.669,0,0,0,0,.668v.954A.669.669,0,0,0,.668,2.29ZM8.492.573a.1.1,0,0,1,.1.1v.954a.1.1,0,0,1-.1.1H.668a.1.1,0,0,1-.1-.1V.668a.1.1,0,0,1,.1-.1Z" fill="#aaa"/>
  <path id="Path_12969" data-name="Path 12969" d="M8.668,11.29h4.771a.669.669,0,0,0,.668-.668V9.668A.669.669,0,0,0,13.439,9H8.668A.669.669,0,0,0,8,9.668v.954A.669.669,0,0,0,8.668,11.29Zm4.771-1.718a.1.1,0,0,1,.1.1v.954a.1.1,0,0,1-.1.1H8.668a.1.1,0,0,1-.1-.1V9.668a.1.1,0,0,1,.1-.1Z" transform="translate(-8 -5.565)" fill="#aaa"/>
  <path id="Path_12970" data-name="Path 12970" d="M8.668,20.29h4.771a.669.669,0,0,0,.668-.668v-.954A.669.669,0,0,0,13.439,18H8.668A.669.669,0,0,0,8,18.668v.954A.669.669,0,0,0,8.668,20.29Zm4.771-1.718a.1.1,0,0,1,.1.1v.954a.1.1,0,0,1-.1.1H8.668a.1.1,0,0,1-.1-.1v-.954a.1.1,0,0,1,.1-.1Z" transform="translate(-8 -11.13)" fill="#aaa"/>
  <path id="Path_12971" data-name="Path 12971" d="M1.145,11.29A1.145,1.145,0,1,0,0,10.145,1.146,1.146,0,0,0,1.145,11.29Zm0-1.718a.573.573,0,1,1-.573.573A.573.573,0,0,1,1.145,9.573Z" transform="translate(6.87 -5.565)" fill="#aaa"/>
  <path id="Path_12972" data-name="Path 12972" d="M1.145,20.29A1.145,1.145,0,1,0,0,19.145,1.146,1.146,0,0,0,1.145,20.29Zm0-1.718a.573.573,0,1,1-.573.573A.573.573,0,0,1,1.145,18.573Z" transform="translate(6.87 -11.13)" fill="#aaa"/>
</svg>
