<svg id="wrench_499146" xmlns="http://www.w3.org/2000/svg" width="35.471" height="35.471" viewBox="0 0 35.471 35.471">
  <path id="Path_12729" data-name="Path 12729" d="M146.89,21.168V14.3h-3.259a14.726,14.726,0,0,0-1.815-4.374l2.307-2.307-4.854-4.854L136.96,5.074a14.711,14.711,0,0,0-4.374-1.815V0h-6.865V3.259A14.728,14.728,0,0,0,123.2,4.1l.229,3.337L120,10.3V25.173l3.433,3.433-.228,2.765a14.822,14.822,0,0,0,2.517.841v3.259h6.865V32.213a14.726,14.726,0,0,0,4.374-1.815l2.307,2.307,4.854-4.854-2.307-2.307a14.72,14.72,0,0,0,1.815-4.374Z" transform="translate(-111.418)" fill="#ffa64d"/>
  <g id="Group_4194" data-name="Group 4194">
    <path id="Path_12730" data-name="Path 12730" d="M12.587,7.1V2.052L10.535,0H8.01l0,4.579H4.575L4.577,0H2.052L0,2.052V7.1l3.433,3.433v14.4L0,28.369V33.42l2.052,2.052H4.577l0-4.579H8.011l0,4.579h2.525l2.052-2.052V28.369L9.154,24.936v-14.4ZM1.144,2.525,2.525,1.144h.907l0,4.579H9.156l0-4.579h.907l1.381,1.381v4.1l-3.1,3.1h-4.1l-3.1-3.1ZM8.01,24.6H4.577V10.87H5.721V21.74H6.865V10.87H8.01Zm3.433,8.345-1.381,1.381H9.154l0-4.579H3.431l0,4.579H2.525L1.144,32.946v-4.1l3.1-3.1h4.1l3.1,3.1Z" fill="#333"/>
    <rect id="Rectangle_2976" data-name="Rectangle 2976" width="1.335" height="1.335" transform="translate(5.436 22.122)" fill="#333"/>
    <path id="Path_12731" data-name="Path 12731" d="M136.582,128a8.582,8.582,0,1,0,8.582,8.582A8.592,8.592,0,0,0,136.582,128Zm0,16.019a7.438,7.438,0,1,1,7.438-7.438A7.446,7.446,0,0,1,136.582,144.019Z" transform="translate(-118.846 -118.846)" fill="#333"/>
    <path id="Path_12732" data-name="Path 12732" d="M196,192a4,4,0,1,0,4,4A4.01,4.01,0,0,0,196,192Zm0,6.865A2.861,2.861,0,1,1,198.865,196,2.864,2.864,0,0,1,196,198.865Z" transform="translate(-178.269 -178.269)" fill="#333"/>
    <rect id="Rectangle_2977" data-name="Rectangle 2977" width="1.335" height="0.667" transform="translate(22.79 17.45)" fill="#333"/>
    <rect id="Rectangle_2978" data-name="Rectangle 2978" width="1.335" height="0.667" transform="translate(11.443 17.45)" fill="#333"/>
    <rect id="Rectangle_2979" data-name="Rectangle 2979" width="0.667" height="1.335" transform="translate(17.45 11.443)" fill="#333"/>
    <rect id="Rectangle_2980" data-name="Rectangle 2980" width="0.667" height="1.335" transform="translate(17.45 22.79)" fill="#333"/>
  </g>
</svg>
