<svg xmlns="http://www.w3.org/2000/svg" width="12.585" height="12.755" viewBox="0 0 12.585 12.755">
  <g id="writing_7069134" transform="translate(-3.4)">
    <circle id="Ellipse_147" data-name="Ellipse 147" cx="0.199" cy="0.199" r="0.199" transform="translate(13.103 2.656)"/>
    <path id="Path_12701" data-name="Path 12701" d="M11.815,12.755H4.994A1.6,1.6,0,0,1,3.4,11.16V1.594A1.6,1.6,0,0,1,4.994,0h6.821a1.6,1.6,0,0,1,1.594,1.594V2.18a.2.2,0,0,1-.4,0V1.594a1.2,1.2,0,0,0-1.2-1.2H4.994a1.2,1.2,0,0,0-1.2,1.2V11.16a1.2,1.2,0,0,0,1.2,1.2h6.821a1.2,1.2,0,0,0,1.2-1.2V6.036a.2.2,0,1,1,.4,0V11.16A1.6,1.6,0,0,1,11.815,12.755Z"/>
    <g id="Group_4134" data-name="Group 4134" transform="translate(6.448 1.333)">
      <path id="Path_12702" data-name="Path 12702" d="M125.954,63.058a.206.206,0,0,1-.142-.057.2.2,0,0,1-.047-.207l1.046-2.974a.182.182,0,0,1,.047-.075l5.764-5.762a1.563,1.563,0,0,1,2.21,2.212l-5.762,5.759A.212.212,0,0,1,129,62l-2.974,1.046A.21.21,0,0,1,125.954,63.058Zm1.218-3.064-.892,2.538,2.538-.892,5.732-5.732a1.163,1.163,0,0,0-1.647-1.644Z" transform="translate(-125.754 -53.525)"/>
      <path id="Path_12703" data-name="Path 12703" d="M411.976,125.875a.211.211,0,0,1-.142-.057l-1.1-1.1a.2.2,0,1,1,.282-.282l1.1,1.1a.2.2,0,0,1,0,.281A.192.192,0,0,1,411.976,125.875Z" transform="translate(-403.577 -122.61)"/>
      <path id="Path_12704" data-name="Path 12704" d="M169.9,303.3a.211.211,0,0,1-.142-.057l-1.928-1.928a.2.2,0,0,1,.282-.281l1.928,1.928a.2.2,0,0,1-.139.339Z" transform="translate(-166.728 -294.811)"/>
      <path id="Path_12705" data-name="Path 12705" d="M206.675,156.755a.211.211,0,0,1-.142-.057.2.2,0,0,1,0-.281l4.683-4.683a.2.2,0,0,1,.281.282l-4.683,4.683A.2.2,0,0,1,206.675,156.755Z" transform="translate(-204.464 -149.23)"/>
      <path id="Path_12706" data-name="Path 12706" d="M357.927,72.881a.211.211,0,0,1-.142-.057L355.857,70.9a.2.2,0,0,1,0-.284l1.079-1.079a.2.2,0,0,1,.282,0l1.928,1.928a.2.2,0,0,1,0,.284l-1.079,1.079A.186.186,0,0,1,357.927,72.881Zm-1.647-2.127,1.647,1.647.8-.8-1.647-1.647Z" transform="translate(-350.069 -69.078)"/>
      <path id="Path_12707" data-name="Path 12707" d="M143.852,373.349a.211.211,0,0,1-.142-.057l-.777-.777a.2.2,0,0,1,.281-.282l.777.777a.2.2,0,0,1-.139.339Z" transform="translate(-142.448 -364.237)"/>
    </g>
    <path id="Path_12708" data-name="Path 12708" d="M68.855,80H62.1a.2.2,0,1,1,0-.4h6.756a.2.2,0,0,1,0,.4Z" transform="translate(-57.043 -77.617)"/>
    <path id="Path_12709" data-name="Path 12709" d="M67.166,148H62.1a.2.2,0,1,1,0-.4h5.067a.2.2,0,1,1,0,.4Z" transform="translate(-57.043 -143.923)"/>
    <path id="Path_12710" data-name="Path 12710" d="M65.7,216H62.1a.2.2,0,1,1,0-.4h3.6a.2.2,0,1,1,0,.4Z" transform="translate(-57.043 -210.229)"/>
    <path id="Path_12711" data-name="Path 12711" d="M64.154,284.1H62.1a.2.2,0,0,1,0-.4h2.055a.2.2,0,0,1,0,.4Z" transform="translate(-57.043 -276.633)"/>
    <path id="Path_12712" data-name="Path 12712" d="M63.544,352.1H62.1a.2.2,0,0,1,0-.4h1.445a.2.2,0,1,1,0,.4Z" transform="translate(-57.043 -342.939)"/>
    <path id="Path_12713" data-name="Path 12713" d="M70.608,420.6H63.9a.2.2,0,1,1,0-.4h6.709a.2.2,0,1,1,0,.4Z" transform="translate(-58.798 -409.732)"/>
  </g>
</svg>
