<svg xmlns="http://www.w3.org/2000/svg" width="10.651" height="10.793" viewBox="0 0 10.651 10.793">
  <g id="writing_7069134" transform="translate(-3.35 0.05)">
    <circle id="Ellipse_147" data-name="Ellipse 147" cx="0.167" cy="0.167" r="0.167" transform="translate(11.535 2.226)" fill="#fff" stroke="#fff" stroke-width="0.1"/>
    <path id="Path_12701" data-name="Path 12701" d="M10.455,10.693H4.737A1.338,1.338,0,0,1,3.4,9.356V1.337A1.338,1.338,0,0,1,4.737,0h5.718a1.338,1.338,0,0,1,1.337,1.337v.491a.167.167,0,0,1-.334,0V1.337a1,1,0,0,0-1-1H4.737a1,1,0,0,0-1,1v8.02a1,1,0,0,0,1,1h5.718a1,1,0,0,0,1-1V5.06a.167.167,0,1,1,.334,0v4.3A1.338,1.338,0,0,1,10.455,10.693Z" fill="#fff" stroke="#fff" stroke-width="0.1"/>
    <g id="Group_4134" data-name="Group 4134" transform="translate(5.955 1.118)">
      <path id="Path_12702" data-name="Path 12702" d="M125.922,61.517a.173.173,0,0,1-.119-.048.167.167,0,0,1-.04-.173l.877-2.494a.153.153,0,0,1,.04-.063l4.833-4.831a1.311,1.311,0,0,1,1.852,1.855l-4.831,4.829a.178.178,0,0,1-.063.04l-2.494.877A.176.176,0,0,1,125.922,61.517Zm1.021-2.569-.748,2.128,2.128-.748,4.806-4.806a.975.975,0,0,0-1.38-1.378Z" transform="translate(-125.754 -53.525)" fill="#fff" stroke="#fff" stroke-width="0.1"/>
      <path id="Path_12703" data-name="Path 12703" d="M411.766,125.633a.177.177,0,0,1-.119-.048l-.923-.925a.167.167,0,0,1,.236-.236l.923.923a.168.168,0,0,1,0,.236A.161.161,0,0,1,411.766,125.633Z" transform="translate(-404.724 -122.895)" fill="#fff" stroke="#fff" stroke-width="0.1"/>
      <path id="Path_12704" data-name="Path 12704" d="M169.559,302.924a.177.177,0,0,1-.119-.048l-1.616-1.617a.167.167,0,0,1,.236-.236l1.616,1.616a.166.166,0,0,1-.117.284Z" transform="translate(-166.897 -295.807)" fill="#fff" stroke="#fff" stroke-width="0.1"/>
      <path id="Path_12705" data-name="Path 12705" d="M206.643,155.934a.177.177,0,0,1-.119-.048.168.168,0,0,1,0-.236l3.926-3.926a.167.167,0,0,1,.236.236l-3.926,3.926A.168.168,0,0,1,206.643,155.934Z" transform="translate(-204.789 -149.625)" fill="#fff" stroke="#fff" stroke-width="0.1"/>
      <path id="Path_12706" data-name="Path 12706" d="M357.584,72.33a.177.177,0,0,1-.119-.048l-1.616-1.616a.172.172,0,0,1,0-.238l.9-.9a.168.168,0,0,1,.236,0L358.6,71.14a.171.171,0,0,1,0,.238l-.9.9A.156.156,0,0,1,357.584,72.33Zm-1.38-1.784,1.38,1.38.668-.668-1.38-1.38Z" transform="translate(-350.996 -69.142)" fill="#fff" stroke="#fff" stroke-width="0.1"/>
      <path id="Path_12707" data-name="Path 12707" d="M143.694,373.159a.177.177,0,0,1-.119-.048l-.652-.652a.167.167,0,1,1,.236-.236l.652.652a.166.166,0,0,1-.117.284Z" transform="translate(-142.517 -365.52)" fill="#fff" stroke="#fff" stroke-width="0.1"/>
    </g>
    <path id="Path_12708" data-name="Path 12708" d="M67.731,79.934H62.067a.167.167,0,1,1,0-.334h5.664a.167.167,0,1,1,0,.334Z" transform="translate(-57.278 -77.938)" fill="#fff" stroke="#fff" stroke-width="0.1"/>
    <path id="Path_12709" data-name="Path 12709" d="M66.315,147.934H62.067a.167.167,0,1,1,0-.334h4.248a.167.167,0,1,1,0,.334Z" transform="translate(-57.278 -144.517)" fill="#fff" stroke="#fff" stroke-width="0.1"/>
    <path id="Path_12710" data-name="Path 12710" d="M65.087,215.934h-3.02a.167.167,0,1,1,0-.334h3.02a.167.167,0,1,1,0,.334Z" transform="translate(-57.278 -211.097)" fill="#fff" stroke="#fff" stroke-width="0.1"/>
    <path id="Path_12711" data-name="Path 12711" d="M63.79,284.034H62.067a.167.167,0,0,1,0-.334H63.79a.167.167,0,0,1,0,.334Z" transform="translate(-57.278 -277.775)" fill="#fff" stroke="#fff" stroke-width="0.1"/>
    <path id="Path_12712" data-name="Path 12712" d="M63.278,352.034H62.067a.167.167,0,0,1,0-.334h1.211a.167.167,0,1,1,0,.334Z" transform="translate(-57.278 -344.355)" fill="#fff" stroke="#fff" stroke-width="0.1"/>
    <path id="Path_12713" data-name="Path 12713" d="M69.491,420.534H63.867a.167.167,0,0,1,0-.334h5.624a.167.167,0,0,1,0,.334Z" transform="translate(-59.041 -411.424)" fill="#fff" stroke="#fff" stroke-width="0.1"/>
  </g>
</svg>
