<svg width="40" height="40" viewBox="0 0 40 40" fill="none" xmlns="http://www.w3.org/2000/svg">
<g clip-path="url(#clip0_3_20)">
<path d="M26.62 1.25586e-06H13.38C12.8522 -0.000416983 12.3295 0.103633 11.8421 0.306155C11.3546 0.508677 10.9121 0.805664 10.54 1.18L1.18 10.54C0.805664 10.9121 0.508677 11.3546 0.306155 11.8421C0.103633 12.3295 -0.000416983 12.8522 1.25586e-06 13.38V26.62C-0.000416983 27.1478 0.103633 27.6705 0.306155 28.1579C0.508677 28.6454 0.805664 29.0879 1.18 29.46L10.54 38.82C10.9121 39.1943 11.3546 39.4913 11.8421 39.6938C12.3295 39.8964 12.8522 40.0004 13.38 40H26.62C27.1478 40.0004 27.6705 39.8964 28.1579 39.6938C28.6454 39.4913 29.0879 39.1943 29.46 38.82L38.82 29.46C39.1943 29.0879 39.4913 28.6454 39.6938 28.1579C39.8964 27.6705 40.0004 27.1478 40 26.62V13.38C40.0004 12.8522 39.8964 12.3295 39.6938 11.8421C39.4913 11.3546 39.1943 10.9121 38.82 10.54L29.46 1.18C29.0879 0.805664 28.6454 0.508677 28.1579 0.306155C27.6705 0.103633 27.1478 -0.000416983 26.62 1.25586e-06Z" fill="#E63946"/>
<path d="M21.5 22.5V8.5C21.5 8.10218 21.342 7.72064 21.0607 7.43934C20.7794 7.15804 20.3978 7 20 7C19.6022 7 19.2206 7.15804 18.9393 7.43934C18.658 7.72064 18.5 8.10218 18.5 8.5V22.5C18.5 22.8978 18.658 23.2794 18.9393 23.5607C19.2206 23.842 19.6022 24 20 24C20.3978 24 20.7794 23.842 21.0607 23.5607C21.342 23.2794 21.5 22.8978 21.5 22.5ZM20 33C19.5055 33 19.0222 32.8534 18.6111 32.5787C18.2 32.304 17.8795 31.9135 17.6903 31.4567C17.5011 30.9999 17.4516 30.4972 17.548 30.0123C17.6445 29.5273 17.8826 29.0819 18.2322 28.7322C18.5819 28.3826 19.0273 28.1445 19.5123 28.048C19.9972 27.9516 20.4999 28.0011 20.9567 28.1903C21.4135 28.3795 21.804 28.6999 22.0787 29.1111C22.3534 29.5222 22.5 30.0055 22.5 30.5C22.5 31.163 22.2366 31.7989 21.7678 32.2678C21.2989 32.7366 20.663 33 20 33Z" fill="#EDEBEA"/>
</g>
<defs>
<clipPath id="clip0_3_20">
<rect width="40" height="40" fill="white"/>
</clipPath>
</defs>
</svg>
