<svg width="40" height="40" viewBox="0 0 40 40" fill="none" xmlns="http://www.w3.org/2000/svg">
<g clip-path="url(#clip0_5_199)">
<path fill-rule="evenodd" clip-rule="evenodd" d="M20 0C8.96875 0 0 8.96875 0 20C0 31.0312 8.96875 40 20 40C31.0312 40 40 31.0312 40 20C40 8.96875 31.0312 0 20 0Z" fill="#4BAE4F"/>
<path d="M16.1484 29.1484C13.5937 26.5938 11.0547 24.0156 8.49219 21.4609C8.21094 21.1797 8.21094 20.7109 8.49219 20.4297L11.4375 17.4844C11.7187 17.2031 12.1875 17.2031 12.4688 17.4844L16.6797 21.6953L27.5078 10.8594C27.7969 10.5781 28.2578 10.5781 28.5469 10.8594L31.5 13.8125C31.7891 14.1016 31.7891 14.5625 31.5 14.8438L17.1797 29.1484C16.8984 29.4375 16.4375 29.4375 16.1484 29.1484Z" fill="white"/>
</g>
<defs>
<clipPath id="clip0_5_199">
<rect width="40" height="40" fill="white"/>
</clipPath>
</defs>
</svg>
